<svg width="588" height="601" viewBox="0 0 588 601" fill="none" xmlns="http://www.w3.org/2000/svg">
<path d="M96.8971 96.2773C94.7188 100.561 93.4437 105.142 93.0058 109.77L85.877 111.248L87.4263 125.2L94.7064 125.078C96.1466 129.495 98.398 133.685 101.463 137.387L97.4788 143.456L108.441 152.226L113.487 147.008C117.771 149.186 122.352 150.462 126.979 150.898L128.458 158.027L142.409 156.476L142.287 149.197C146.706 147.755 150.895 145.504 154.598 142.439L160.667 146.424L169.437 135.462L164.218 130.414C166.395 126.13 167.672 121.549 168.109 116.922L175.236 115.443L173.687 101.492L166.408 101.614C164.966 97.1953 162.715 93.0063 159.65 89.3048L163.634 83.2353L152.672 74.4666L147.626 79.6851C143.342 77.5069 138.761 76.2305 134.134 75.7939L132.655 68.665L118.704 70.2156L118.826 77.4945C114.407 78.9359 110.218 81.1861 106.517 84.2512L100.447 80.2669L91.6773 91.2287L96.8971 96.2773ZM142.284 98.3749C150.04 104.581 151.298 115.9 145.092 123.658C138.886 131.415 127.566 132.672 119.809 126.466C112.052 120.26 110.795 108.941 117.001 101.183C123.207 93.4268 134.526 92.169 142.284 98.3749Z" fill="#498B8C"/>
<path d="M465.945 319.262C463.767 323.545 462.492 328.126 462.054 332.754L454.925 334.233L456.474 348.184L463.754 348.063C465.194 352.48 467.446 356.67 470.511 360.372L466.527 366.441L477.488 375.21L482.535 369.991C486.819 372.168 491.4 373.446 496.027 373.881L497.506 381.01L511.457 379.46L511.335 372.181C515.754 370.738 519.943 368.488 523.645 365.423L529.715 369.407L538.485 358.445L533.266 353.398C535.443 349.113 536.72 344.532 537.156 339.905L544.284 338.427L542.735 324.476L535.456 324.597C534.014 320.18 531.763 315.99 528.698 312.288L532.682 306.219L521.72 297.45L516.674 302.669C512.39 300.49 507.809 299.214 503.182 298.777L501.702 291.648L487.751 293.199L487.872 300.478C483.454 301.919 479.265 304.169 475.563 307.235L469.494 303.25L460.724 314.212L465.945 319.262ZM511.332 321.361C519.088 327.567 520.346 338.886 514.14 346.644C507.934 354.401 496.614 355.658 488.857 349.452C481.099 343.246 479.843 331.927 486.049 324.169C492.256 316.413 503.574 315.155 511.332 321.361Z" fill="#498B8C"/>
<path d="M178.031 59.713C176.985 61.7697 176.373 63.9702 176.163 66.1931L172.739 66.9026L173.484 73.6023L176.98 73.544C177.672 75.6651 178.753 77.6771 180.225 79.4547L178.311 82.3697L183.576 86.5811L186 84.0754C188.057 85.1211 190.257 85.7338 192.48 85.9435L193.189 89.3671L199.889 88.6228L199.831 85.1273C201.953 84.4351 203.965 83.3534 205.743 81.8823L208.658 83.795L212.869 78.5306L210.363 76.1067C211.409 74.0488 212.022 71.8495 212.231 69.6267L215.655 68.9159L214.911 62.2162L211.415 62.2745C210.723 60.1534 209.641 58.1414 208.17 56.3638L210.083 53.4488L204.818 49.2375L202.395 51.7432C200.337 50.6975 198.136 50.0835 195.914 49.8738L195.204 46.4502L188.504 47.1945L188.562 50.69C186.44 51.3822 184.428 52.4626 182.652 53.935L179.737 52.0223L175.525 57.2867L178.031 59.713ZM199.828 60.7215C203.553 63.7023 204.157 69.1379 201.176 72.863C198.196 76.588 192.76 77.1921 189.035 74.2113C185.31 71.2306 184.706 65.7949 187.687 62.0699C190.666 58.3448 196.103 57.7407 199.828 60.7215Z" fill="#498B8C"/>
<path d="M508.378 258.074C507.332 260.13 506.719 262.331 506.509 264.554L503.085 265.263L503.829 271.964L507.326 271.906C508.018 274.027 509.099 276.039 510.571 277.818L508.657 280.733L513.921 284.944L516.345 282.439C518.403 283.484 520.603 284.097 522.825 284.307L523.535 287.73L530.235 286.986L530.176 283.491C532.299 282.798 534.311 281.717 536.088 280.246L539.003 282.158L543.215 276.894L540.708 274.47C541.753 272.412 542.366 270.213 542.576 267.99L545.999 267.279L545.255 260.58L541.76 260.638C541.067 258.517 539.986 256.505 538.515 254.727L540.429 251.812L535.164 247.601L532.74 250.106C530.682 249.061 528.482 248.447 526.26 248.237L525.549 244.813L518.85 245.558L518.908 249.053C516.786 249.745 514.775 250.826 512.996 252.298L510.081 250.386L505.87 255.65L508.378 258.074ZM530.175 259.081C533.9 262.062 534.504 267.497 531.523 271.223C528.543 274.948 523.107 275.552 519.382 272.572C515.657 269.591 515.053 264.156 518.034 260.431C521.014 256.706 526.45 256.102 530.175 259.081Z" fill="#498B8C"/>
<path d="M130.948 42.3874C129.991 44.2679 129.432 46.2787 129.24 48.3093L126.111 48.9581L126.791 55.0809L129.986 55.0276C130.619 56.9664 131.606 58.8047 132.952 60.4297L131.203 63.0929L136.014 66.942L138.229 64.6522C140.11 65.6086 142.12 66.168 144.151 66.3603L144.8 69.4899L150.923 68.8089L150.869 65.6135C152.809 64.9809 154.648 63.9935 156.272 62.6476L158.936 64.3966L162.785 59.5862L160.495 57.3708C161.45 55.4902 162.011 53.4795 162.202 51.4489L165.33 50.8001L164.651 44.6773L161.455 44.7306C160.823 42.7918 159.834 40.9522 158.489 39.3285L160.238 36.6653L155.427 32.8162L153.213 35.106C151.332 34.1496 149.321 33.5902 147.291 33.3979L146.642 30.2695L140.519 30.9505L140.572 34.1459C138.634 34.7785 136.794 35.7659 135.17 37.1118L132.507 35.3628L128.658 40.1745L130.948 42.3874ZM150.868 43.3091C154.272 46.0331 154.824 51.0011 152.101 54.4049C149.377 57.8099 144.409 58.3606 141.004 55.6379C137.599 52.9138 137.047 47.9459 139.771 44.5408C142.496 41.1371 147.464 40.5851 150.868 43.3091Z" fill="#498B8C"/>
<path d="M294.656 205.99H68.1758C61.1065 205.99 58.0339 197.047 63.611 192.702L170.606 109.348L290.091 16.2639C292.776 14.1725 296.537 14.1725 299.221 16.2639L418.707 109.348L525.701 192.702C531.278 197.047 528.206 205.99 521.137 205.99H294.656Z" fill="#6AC6C8"/>
<path d="M155.447 205.988H112.178V457.11H155.447V205.988Z" fill="#6AC6C8"/>
<path d="M253.521 205.988H210.252V457.11H253.521V205.988Z" fill="#6AC6C8"/>
<path d="M386.343 205.988H343.074V457.11H386.343V205.988Z" fill="#6AC6C8"/>
<path d="M482.684 205.988H439.415V457.11H482.684V205.988Z" fill="#6AC6C8"/>
<path d="M515.993 232.846H73.3196C72.8954 232.846 72.5518 232.503 72.5518 232.079V206.756C72.5518 206.332 72.8954 205.988 73.3196 205.988H515.993C516.418 205.988 516.761 206.332 516.761 206.756V232.079C516.761 232.503 516.418 232.846 515.993 232.846Z" fill="#6AC6C8"/>
<path d="M169.385 447.886H98.6611V459.485H169.385V447.886Z" fill="#6AC6C8"/>
<path d="M267.248 447.886H196.524V459.485H267.248V447.886Z" fill="#6AC6C8"/>
<path d="M400.07 447.886H329.348V459.485H400.07V447.886Z" fill="#6AC6C8"/>
<path d="M496.41 447.886H425.688V459.485H496.41V447.886Z" fill="#6AC6C8"/>
<g opacity="0.7">
<path d="M122.997 177.303L289.755 47.3929C292.638 45.1477 296.677 45.1477 299.56 47.3929L469.032 179.42C469.965 180.147 469.451 181.642 468.268 181.642H124.487C122.179 181.642 121.176 178.722 122.997 177.303Z" stroke="#498B8C" stroke-miterlimit="10"/>
</g>
<path d="M164.831 232.847H104.521V244.408H164.831V232.847Z" fill="#6AC6C8"/>
<path d="M262.421 232.847H202.112V244.408H262.421V232.847Z" fill="#6AC6C8"/>
<path d="M395.063 232.847H334.754V244.408H395.063V232.847Z" fill="#6AC6C8"/>
<path d="M491.205 232.847H430.896V244.408H491.205V232.847Z" fill="#6AC6C8"/>
<path d="M104.721 244.423C124.691 244.423 144.661 244.423 164.63 244.423" stroke="#498B8C" stroke-miterlimit="10" stroke-linecap="round" stroke-linejoin="round"/>
<path d="M202.479 244.423C222.448 244.423 242.418 244.423 262.388 244.423" stroke="#498B8C" stroke-miterlimit="10" stroke-linecap="round" stroke-linejoin="round"/>
<path d="M334.953 244.423C354.923 244.423 374.893 244.423 394.863 244.423" stroke="#498B8C" stroke-miterlimit="10" stroke-linecap="round" stroke-linejoin="round"/>
<path d="M431.295 244.423C451.265 244.423 471.235 244.423 491.205 244.423" stroke="#498B8C" stroke-miterlimit="10" stroke-linecap="round" stroke-linejoin="round"/>
<path d="M168.706 447.886C145.288 447.886 121.87 447.886 98.4512 447.886" stroke="#498B8C" stroke-miterlimit="10" stroke-linecap="round" stroke-linejoin="round"/>
<path d="M267.954 447.886C244.536 447.886 221.118 447.886 197.699 447.886" stroke="#498B8C" stroke-miterlimit="10" stroke-linecap="round" stroke-linejoin="round"/>
<path d="M399.603 447.886C376.184 447.886 352.766 447.886 329.348 447.886" stroke="#498B8C" stroke-miterlimit="10" stroke-linecap="round" stroke-linejoin="round"/>
<path d="M495.945 447.886C472.526 447.886 449.108 447.886 425.689 447.886" stroke="#498B8C" stroke-miterlimit="10" stroke-linecap="round" stroke-linejoin="round"/>
<path d="M537.399 504.706H48.751L60.9756 457.109H522.225L537.399 504.706Z" fill="#6AC6C8"/>
<path opacity="0.1" d="M55.3121 478.658H528.92L531.766 487.341H52.9775L55.3121 478.658Z" fill="black"/>
<path opacity="0.1" d="M121.541 440.47C119.76 440.47 118.314 439.027 118.314 437.244V262.511C118.314 260.73 119.758 259.286 121.541 259.286C123.322 259.286 124.767 260.73 124.767 262.511V437.245C124.766 439.027 123.322 440.47 121.541 440.47Z" fill="black"/>
<path opacity="0.1" d="M134.023 440.47C132.242 440.47 130.797 439.027 130.797 437.244V262.511C130.797 260.73 132.241 259.286 134.023 259.286C135.805 259.286 137.25 260.73 137.25 262.511V437.245C137.25 439.027 135.806 440.47 134.023 440.47Z" fill="black"/>
<path opacity="0.1" d="M146.506 440.47C144.725 440.47 143.281 439.027 143.281 437.244V262.511C143.281 260.73 144.725 259.286 146.506 259.286C148.288 259.286 149.733 260.73 149.733 262.511V437.245C149.733 439.027 148.288 440.47 146.506 440.47Z" fill="black"/>
<path opacity="0.1" d="M219.219 440.47C217.437 440.47 215.992 439.027 215.992 437.244V262.511C215.992 260.73 217.436 259.286 219.219 259.286C221 259.286 222.445 260.73 222.445 262.511V437.245C222.445 439.027 221.001 440.47 219.219 440.47Z" fill="black"/>
<path opacity="0.1" d="M231.703 440.47C229.921 440.47 228.478 439.027 228.478 437.244V262.511C228.478 260.73 229.921 259.286 231.703 259.286C233.484 259.286 234.928 260.73 234.928 262.511V437.245C234.928 439.027 233.484 440.47 231.703 440.47Z" fill="black"/>
<path opacity="0.1" d="M244.186 440.47C242.405 440.47 240.96 439.027 240.96 437.244V262.511C240.96 260.73 242.404 259.286 244.186 259.286C245.968 259.286 247.412 260.73 247.412 262.511V437.245C247.412 439.027 245.968 440.47 244.186 440.47Z" fill="black"/>
<path opacity="0.1" d="M352.226 440.47C350.445 440.47 349.001 439.027 349.001 437.244V262.511C349.001 260.73 350.445 259.286 352.226 259.286C354.007 259.286 355.453 260.73 355.453 262.511V437.245C355.453 439.027 354.007 440.47 352.226 440.47Z" fill="black"/>
<path opacity="0.1" d="M364.71 440.47C362.928 440.47 361.483 439.027 361.483 437.244V262.511C361.483 260.73 362.927 259.286 364.71 259.286C366.491 259.286 367.936 260.73 367.936 262.511V437.245C367.935 439.027 366.491 440.47 364.71 440.47Z" fill="black"/>
<path opacity="0.1" d="M377.193 440.47C375.412 440.47 373.967 439.027 373.967 437.244V262.511C373.967 260.73 375.411 259.286 377.193 259.286C378.974 259.286 380.42 260.73 380.42 262.511V437.245C380.418 439.027 378.974 440.47 377.193 440.47Z" fill="black"/>
<path opacity="0.1" d="M448.765 440.47C446.984 440.47 445.54 439.027 445.54 437.244V262.511C445.54 260.73 446.984 259.286 448.765 259.286C450.546 259.286 451.992 260.73 451.992 262.511V437.245C451.992 439.027 450.548 440.47 448.765 440.47Z" fill="black"/>
<path opacity="0.1" d="M461.249 440.471C459.468 440.471 458.022 439.027 458.022 437.244V262.512C458.022 260.729 459.466 259.285 461.249 259.285C463.03 259.285 464.474 260.729 464.474 262.512V437.246C464.475 439.027 463.031 440.471 461.249 440.471Z" fill="black"/>
<path opacity="0.1" d="M473.732 440.47C471.951 440.47 470.506 439.027 470.506 437.244V262.511C470.506 260.73 471.95 259.286 473.732 259.286C475.514 259.286 476.957 260.73 476.957 262.511V437.245C476.957 439.027 475.514 440.47 473.732 440.47Z" fill="black"/>
<path d="M73.4277 207.121C224.081 207.121 374.733 207.121 525.386 207.121" stroke="#498B8C" stroke-miterlimit="10" stroke-linecap="round" stroke-linejoin="round"/>
<path d="M296.749 143.856V150.248L292.068 150.263L292.056 143.905C286.449 143.564 281.021 141.758 278.076 139.107L280.627 133.343C283.96 135.835 287.928 137.336 292.076 137.673L292.057 126.219C285.714 124.691 278.906 122.622 278.851 114.666C278.845 108.845 283.074 103.752 291.979 102.878L292.001 96.5315L296.68 96.5166L296.698 102.857C300.796 103.033 304.785 104.232 308.303 106.345L305.964 112.105C303.122 110.448 299.964 109.404 296.694 109.038L296.718 120.589C303.061 122.117 309.972 124.108 309.958 132.04C309.968 137.861 305.677 142.913 296.749 143.856ZM292.036 119.343L292.035 109.174C287.995 109.829 286.264 111.868 286.259 114.384C286.254 116.901 288.677 118.401 291.99 119.366L292.036 119.343ZM302.761 132.564C302.746 129.773 300.24 128.456 296.865 127.507L296.866 137.619C300.867 136.97 302.642 135.022 302.647 132.563L302.761 132.564Z" fill="#498B8C"/>
<path d="M543.982 563.896C543.982 575.729 431.647 585.324 293.076 585.324C154.505 585.324 42.1699 575.731 42.1699 563.896C42.1699 552.06 154.505 542.467 293.076 542.467C431.647 542.467 543.982 552.062 543.982 563.896Z" fill="#2D5B5E"/>
<path d="M132.418 512.252C135.345 512.092 138.107 510.668 140.265 508.683C142.422 506.698 144.024 504.181 145.35 501.566C148.87 494.622 150.57 486.768 150.24 478.99C150.17 477.323 149.997 475.619 149.28 474.112C148.564 472.604 147.209 471.309 145.558 471.071C143.09 470.715 140.939 472.686 139.371 474.625C132.258 483.424 128.599 494.942 129.333 506.233C129.514 508.995 130.435 511.665 132.418 512.252Z" fill="#40FCFF"/>
<path d="M119.324 496.953C121.732 491.953 121.908 486.029 120.317 480.712C118.725 475.395 115.456 470.671 111.408 466.876C106.968 462.714 101.266 459.517 95.1801 459.486C92.5851 459.472 89.7768 460.168 88.184 462.216C86.4883 464.396 86.6285 467.496 87.3728 470.157C88.5909 474.512 91.1772 478.39 94.2647 481.694C97.3522 485 100.947 487.784 104.533 490.541C108.574 493.649 112.94 496.865 118.023 497.253" fill="#40FCFF"/>
<path d="M118.963 513.828C118.248 508.209 113.884 503.563 108.779 501.106C103.676 498.65 97.8944 498.046 92.238 497.763C90.979 497.7 89.6889 497.655 88.4844 498.03C87.28 498.404 86.1586 499.283 85.8348 500.502C85.4118 502.098 86.424 503.701 87.4821 504.97C93.6794 512.409 103.376 516.8 113.055 516.551C114.174 516.522 115.315 516.429 116.35 516C117.384 515.571 118.308 514.754 118.62 513.677" fill="#40FCFF"/>
<path d="M144.654 475.209C136.002 496.363 129.571 518.383 125.48 540.867C125.374 541.453 126.271 541.703 126.377 541.114C130.468 518.628 136.899 496.608 145.551 475.456C145.778 474.903 144.879 474.662 144.654 475.209Z" fill="#263238"/>
<path d="M126.015 534.35C126.348 524.015 125.514 513.569 122.577 503.617C119.684 493.816 114.717 484.738 107.915 477.105C103.608 472.271 98.6426 468.082 93.3086 464.424C92.8137 464.084 92.3473 464.89 92.8385 465.228C101.894 471.438 109.763 479.299 115.276 488.846C120.302 497.55 123.207 507.313 124.417 517.263C125.105 522.931 125.267 528.648 125.084 534.351C125.066 534.948 125.997 534.948 126.015 534.35Z" fill="#263238"/>
<path d="M125.456 519.724C117.352 510.323 106.03 503.774 93.8019 501.586C93.2164 501.48 92.9658 502.377 93.555 502.483C105.644 504.646 116.786 511.088 124.798 520.382C125.189 520.836 125.844 520.175 125.456 519.724Z" fill="#263238"/>
<path d="M107.116 541.664V529.501H124.056H140.997V541.664C140.997 541.664 141.648 563.165 129.704 565.119H124.058H118.411C106.463 563.164 107.116 541.664 107.116 541.664Z" fill="#40FCFF"/>
<path opacity="0.5" d="M107.116 541.664V529.501H124.056H140.997V541.664C140.997 541.664 141.648 563.165 129.704 565.119H124.058H118.411C106.463 563.164 107.116 541.664 107.116 541.664Z" fill="black"/>
<path d="M473.192 519.911C470.265 519.751 467.502 518.327 465.345 516.342C463.188 514.357 461.585 511.84 460.259 509.226C456.74 502.282 455.039 494.427 455.368 486.649C455.439 484.982 455.611 483.278 456.328 481.771C457.044 480.264 458.4 478.97 460.051 478.73C462.518 478.374 464.669 480.345 466.237 482.284C473.35 491.083 477.009 502.602 476.276 513.892C476.097 516.655 475.176 519.324 473.192 519.911Z" fill="#40FCFF"/>
<path d="M485.553 507.692C483.145 502.692 482.969 496.768 484.559 491.451C486.151 486.135 489.419 481.41 493.468 477.615C497.908 473.454 503.61 470.256 509.695 470.225C512.291 470.211 515.099 470.907 516.692 472.956C518.387 475.137 518.247 478.237 517.503 480.898C516.285 485.254 513.7 489.13 510.611 492.435C507.523 495.74 503.929 498.524 500.343 501.282C496.301 504.389 491.936 507.606 486.853 507.994" fill="#40FCFF"/>
<path d="M460.058 483.118C468.71 504.272 475.14 526.292 479.231 548.776C479.338 549.364 480.235 549.115 480.128 548.53C476.037 526.044 469.607 504.025 460.955 482.872C460.731 482.323 459.831 482.563 460.058 483.118Z" fill="#263238"/>
<path d="M479.793 545.09C479.468 534.971 480.259 524.766 483.08 515.009C485.912 505.212 490.83 496.123 497.62 488.503C501.875 483.729 506.769 479.581 512.038 475.967C512.529 475.631 512.064 474.825 511.568 475.163C502.5 481.382 494.594 489.223 489.013 498.745C483.917 507.44 480.937 517.186 479.638 527.149C478.862 533.096 478.67 539.1 478.862 545.09C478.882 545.686 479.812 545.689 479.793 545.09Z" fill="#263238"/>
<path d="M495.627 539.442V527.279H478.686H461.746V539.442C461.746 539.442 461.094 560.944 473.039 562.897H478.685H484.332C496.278 560.943 495.627 539.442 495.627 539.442Z" fill="#40FCFF"/>
<path opacity="0.5" d="M495.627 539.442V527.279H478.686H461.746V539.442C461.746 539.442 461.094 560.944 473.039 562.897H478.685H484.332C496.278 560.943 495.627 539.442 495.627 539.442Z" fill="black"/>
<path d="M460.136 342.1H443.847V400.701H460.136V342.1Z" fill="#40FCFF"/>
<path d="M425.427 363.257V379.547H478.556V363.257H425.427Z" fill="#40FCFF"/>
<g opacity="0.2">
<path d="M460.136 342.1H443.847V400.701H460.136V342.1Z" fill="black"/>
<path d="M425.427 363.257V379.547H478.556V363.257H425.427Z" fill="black"/>
</g>
<path d="M104.172 232.076H95.1221V263.33H104.172V232.076Z" fill="#40FCFF"/>
<path d="M84.8877 243.361V252.049H114.407V243.361H84.8877Z" fill="#40FCFF"/>
<path d="M495.73 310.026H486.68V342.586H495.73V310.026Z" fill="#40FCFF"/>
<path d="M476.445 321.782V330.832H505.964V321.782H476.445Z" fill="#40FCFF"/>
<path d="M120.189 192.605H115.303V210.183H120.189V192.605Z" fill="#40FCFF"/>
<path d="M109.777 198.95V203.836H125.712V198.95H109.777Z" fill="#40FCFF"/>
<path d="M152.176 363.356H147.29V380.934H152.176V363.356Z" fill="#40FCFF"/>
<path d="M141.766 369.704V374.59H157.7V369.704H141.766Z" fill="#40FCFF"/>
<path d="M244.413 42.1904H239.527V59.7675H244.413V42.1904Z" fill="#40FCFF"/>
<path d="M234.002 48.5348V53.4209H249.937V48.5348H234.002Z" fill="#40FCFF"/>
<path d="M493.154 77.4904C473.044 69.7885 461.408 56.5021 461.408 55.4043C461.408 56.5008 448.689 68.7428 428.579 76.4447C428.579 76.4447 422.469 139.09 460.495 143.843C498.52 139.091 493.154 77.4904 493.154 77.4904Z" fill="#40FCFF"/>
<path opacity="0.2" d="M428.579 76.446C428.579 76.446 422.469 139.091 460.495 143.844L461.408 55.4043C461.409 56.5021 448.689 68.7428 428.579 76.446Z" fill="black"/>
<path d="M465.454 84.0332H455.768V118.881H465.454V84.0332Z" fill="white"/>
<path d="M444.813 96.6132V106.3H476.408V96.6132H444.813Z" fill="white"/>
<path d="M490.158 79.5911C471.913 72.6025 461.354 60.5478 461.354 59.5518C461.354 60.5466 449.814 71.6535 431.567 78.6422C431.567 78.6422 426.023 135.483 460.525 139.795C495.026 135.483 490.158 79.5911 490.158 79.5911Z" stroke="black" stroke-width="0.5" stroke-miterlimit="10"/>
<path d="M437.316 147.518C347.189 112.997 295.037 53.451 295.037 48.5352C295.037 53.451 238.035 108.313 147.908 142.834C147.908 142.834 120.522 423.593 290.944 444.896C461.365 423.593 437.316 147.518 437.316 147.518Z" fill="#40FCFF"/>
<path opacity="0.5" d="M437.316 147.518C347.189 112.997 295.037 53.451 295.037 48.5352C295.037 53.451 238.035 108.313 147.908 142.834C147.908 142.834 120.522 423.593 290.944 444.896C461.365 423.593 437.316 147.518 437.316 147.518Z" fill="white"/>
<path opacity="0.2" d="M147.909 142.834C147.909 142.834 120.523 423.593 290.945 444.896L295.038 48.5352C295.037 53.451 238.035 108.313 147.909 142.834Z" fill="black"/>
<path opacity="0.1" d="M336.258 90.1729C336.258 90.1729 307.599 141.149 253.093 154.518C198.586 167.888 115.799 185.886 167.219 251.705C218.64 317.524 365.19 268.647 356.449 331.393C347.707 394.141 236.879 426.455 236.879 426.455C236.879 426.455 267.541 443.117 290.398 444.596C290.398 444.596 286.002 425.507 332.28 395.168C378.559 364.83 426.38 315.439 397.071 289.742C367.762 264.045 259.263 288.721 222.754 267.384C186.245 246.047 172.743 190.329 220.117 176.538C267.49 162.746 327.539 246.955 369.505 113.579L336.258 90.1729Z" fill="white"/>
<path d="M423.464 156.406C395.503 145.666 368.919 131.335 344.582 113.875C329.199 102.838 314.253 90.5815 301.61 76.4268C299.809 74.4098 298.036 72.3482 296.462 70.1464C295.893 69.3501 294.732 67.9236 294.71 67.0441C294.695 66.4449 293.797 66.4449 293.779 67.0441C293.759 67.7387 292.732 68.9134 292.23 69.5448C290.89 71.2281 289.394 72.7911 287.882 74.3193C282.687 79.5726 277.057 84.4053 271.322 89.0558C252.263 104.509 231.48 117.902 209.892 129.53C193.968 138.107 177.51 145.673 160.626 152.156C160.415 152.237 160.306 152.382 160.285 152.605C160.063 154.881 159.91 157.166 159.764 159.449C159.365 165.643 159.113 171.847 158.965 178.053C158.746 187.311 158.767 196.575 159.023 205.832C159.337 217.185 160.006 228.53 161.074 239.838C162.257 252.375 163.927 264.871 166.202 277.258C168.6 290.314 171.67 303.258 175.633 315.932C179.553 328.467 184.348 340.753 190.311 352.463C196.155 363.94 203.146 374.867 211.509 384.677C219.759 394.356 229.369 402.887 240.155 409.647C251.593 416.816 264.259 421.9 277.42 424.866C281.039 425.683 284.693 426.343 288.367 426.856C291.948 427.356 295.624 426.465 299.16 425.8C306.185 424.481 313.107 422.604 319.814 420.129C332.139 415.582 343.645 409.014 353.851 400.747C363.863 392.638 372.541 382.98 379.934 372.448C387.465 361.719 393.668 350.092 398.829 338.055C404.037 325.905 408.208 313.324 411.583 300.548C414.926 287.898 417.497 275.048 419.47 262.115C421.287 250.202 422.598 238.213 423.479 226.196C424.242 215.785 424.683 205.35 424.818 194.913C424.92 187.103 424.852 179.291 424.588 171.486C424.441 167.158 424.243 162.83 423.933 158.511C423.893 157.959 423.853 157.408 423.806 156.857C423.754 156.266 422.824 156.259 422.876 156.857C423.138 159.869 423.29 162.892 423.433 165.911C423.815 174.006 423.961 182.114 423.929 190.218C423.882 201.94 423.448 213.661 422.61 225.353C421.604 239.41 420.014 253.431 417.702 267.334C415.211 282.316 411.889 297.178 407.437 311.703C402.93 326.415 397.256 340.811 389.955 354.371C382.844 367.574 374.161 379.988 363.594 390.664C352.931 401.437 340.394 410.271 326.522 416.415C319.033 419.732 311.197 422.253 303.204 424.027C301.116 424.489 299.019 424.902 296.911 425.266C294.762 425.637 292.332 426.287 290.158 426.168C285.894 425.934 281.471 424.842 277.318 423.893C262.051 420.407 247.532 414.04 234.777 404.931C222.674 396.288 212.335 385.351 203.799 373.203C195.109 360.837 188.22 347.263 182.691 333.217C177.068 318.932 172.813 304.128 169.534 289.138C166.346 274.567 164.077 259.8 162.515 244.97C161.132 231.837 160.299 218.647 159.943 205.448C159.662 195.063 159.675 184.668 159.998 174.284C160.189 168.142 160.48 161.999 160.944 155.87C160.998 155.14 160.801 153.333 161.207 152.692C161.218 152.674 161.202 152.636 161.214 152.619C161.305 152.5 159.688 153.983 161.351 152.715C161.275 152.772 162.613 152.387 162.709 152.349C163.216 152.152 163.724 151.954 164.23 151.755C167.571 150.442 170.895 149.085 174.202 147.685C180.894 144.855 187.512 141.85 194.05 138.681C216.173 127.955 237.443 115.361 257.349 100.922C269.022 92.4533 280.803 83.4291 290.63 72.8035C291.695 71.6511 292.751 70.4702 293.664 69.1913C294.095 68.5859 294.687 67.8293 294.71 67.049C294.399 67.049 294.089 67.049 293.779 67.049C293.804 68.0389 294.599 69.0685 295.123 69.8487C296.292 71.5953 297.632 73.2339 298.989 74.8366C303.804 80.5178 309.14 85.7673 314.614 90.806C332.704 107.458 352.948 121.837 374.263 134.054C389.955 143.047 406.332 150.821 423.216 157.306C423.775 157.517 424.017 156.618 423.464 156.406Z" fill="black"/>
<path d="M335.365 79.9904C352.366 95.1015 371.234 108.091 391.454 118.514C397.256 121.504 403.167 124.278 409.168 126.844C410.257 127.31 411.206 125.708 410.107 125.238C389.348 116.359 369.713 104.907 351.791 91.173C346.601 87.1961 341.568 83.0183 336.681 78.6743C335.788 77.8816 334.467 79.1928 335.365 79.9904Z" fill="#40FCFF"/>
<path d="M414.686 129.998C417.306 131.106 419.927 132.214 422.547 133.321C423.009 133.517 423.543 133.46 423.819 132.988C424.048 132.598 423.951 131.911 423.486 131.715C420.866 130.607 418.246 129.5 415.625 128.392C415.162 128.196 414.629 128.253 414.352 128.726C414.125 129.116 414.221 129.802 414.686 129.998Z" fill="#40FCFF"/>
<path d="M304.856 157.81L298.572 156.549C290.204 162.531 278.583 162.585 270.072 155.921C259.701 147.815 257.87 132.845 265.973 122.489C274.075 112.131 289.045 110.3 299.401 118.401C309.677 126.438 311.576 141.212 303.706 151.562L304.856 157.81Z" fill="#40FCFF"/>
<path d="M275.82 132.809C276.746 130.191 279.344 128.343 281.76 128.981C283.252 129.376 284.598 130.856 285.142 132.519C285.733 130.614 287.003 129.382 288.666 128.901C291.066 128.206 293.706 129.992 294.694 132.589C295.683 135.184 295.184 138.31 293.802 140.652C292.421 142.994 287.497 145.431 285.202 146.492C282.884 145.486 278.337 143.158 276.9 140.85C275.464 138.54 274.892 135.428 275.82 132.809Z" fill="white"/>
<path d="M277.609 528.269L282.312 563.175L293.125 559.943L295.799 526.242L277.609 528.269Z" fill="#263238"/>
<path d="M278.73 568.975L288.467 569.116C288.467 569.116 290.45 568.099 291.604 568.256C292.754 568.413 296.751 569.236 296.751 569.236L322.605 569.61C322.414 568.524 322.172 567.555 321.894 566.695C321.554 565.647 321.156 564.758 320.709 564.003C319.145 561.366 316.973 560.404 314.599 560.22C310.982 559.941 299.7 552.172 299.7 552.172C299.7 552.172 295.588 550.667 295.428 546.264C295.367 544.613 292.961 542.565 291.805 542.382C289.445 542.007 288.109 543.485 287.73 545.843L287.293 548.583L281.845 547.653C281.845 547.653 276.33 544.776 276.561 547.497C276.692 549.049 277.526 555.965 278.032 561.451C278.151 562.729 278.261 563.939 278.358 565.001L278.361 565.002C278.579 567.356 278.73 568.975 278.73 568.975Z" fill="#263238"/>
<g opacity="0.3">
<path d="M278.73 568.975L288.467 569.116C288.467 569.116 290.45 568.099 291.604 568.256C292.754 568.413 296.751 569.236 296.751 569.236L322.605 569.61C322.414 568.524 322.172 567.555 321.894 566.695C321.554 565.647 321.156 564.758 320.709 564.003C319.145 561.366 316.973 560.404 314.599 560.22C310.982 559.941 299.7 552.172 299.7 552.172C299.7 552.172 295.588 550.667 295.428 546.264C295.367 544.613 292.961 542.565 291.805 542.382C289.445 542.007 288.109 543.485 287.73 545.843L287.293 548.583L281.845 547.653C281.845 547.653 276.33 544.776 276.561 547.497C276.692 549.049 277.526 555.965 278.032 561.451C278.151 562.729 278.261 563.939 278.358 565.001L278.361 565.002C278.579 567.356 278.73 568.975 278.73 568.975Z" fill="black"/>
</g>
<path d="M305.332 555.074C305.214 554.955 305.029 554.941 304.888 555.031C304.24 555.448 303.695 556.041 303.317 556.789C303.119 557.183 303.693 557.575 303.894 557.177C304.229 556.512 304.708 555.987 305.272 555.623C305.461 555.501 305.496 555.241 305.338 555.081C305.336 555.078 305.333 555.077 305.332 555.074Z" fill="#40FCFF"/>
<path d="M303.293 553.834C303.175 553.715 302.99 553.7 302.849 553.791C302.201 554.208 301.654 554.801 301.278 555.549C301.08 555.943 301.654 556.335 301.854 555.937C302.189 555.272 302.668 554.747 303.232 554.383C303.421 554.261 303.455 554 303.297 553.84C303.297 553.837 303.293 553.834 303.293 553.834Z" fill="#40FCFF"/>
<path d="M301.188 552.671C301.07 552.552 300.885 552.537 300.744 552.628C300.097 553.043 299.549 553.637 299.172 554.385C298.973 554.78 299.548 555.172 299.749 554.774C300.084 554.109 300.562 553.584 301.127 553.219C301.315 553.098 301.35 552.836 301.193 552.677C301.191 552.675 301.19 552.672 301.188 552.671Z" fill="#40FCFF"/>
<path d="M229.351 520.697L224.608 555.494L213.267 556.067L209.596 522.522L229.351 520.697Z" fill="#263238"/>
<path d="M203.612 571.65H228.979C228.979 571.65 229.532 570.585 228.899 567.749C228.803 567.307 228.677 566.821 228.514 566.291C228.505 566.265 228.499 566.239 228.49 566.213C228.253 565.428 227.98 564.463 227.691 563.421C226.529 559.175 225.162 553.625 225.162 553.625C225.162 553.625 220.942 544.59 216.004 546.846C211.672 548.825 212.699 554.489 212.699 554.489C212.699 554.489 212.275 557.813 208.991 560.747C206.961 562.559 204.94 563.961 203.969 566.214C203.788 566.635 203.644 567.084 203.541 567.569C203.53 567.627 203.517 567.689 203.509 567.75C203.307 568.836 203.319 570.108 203.612 571.65Z" fill="#263238"/>
<g opacity="0.3">
<path d="M203.612 571.65H228.979C228.979 571.65 229.532 570.585 228.899 567.749C228.803 567.307 228.677 566.821 228.514 566.291C228.505 566.265 228.499 566.239 228.49 566.213C228.253 565.428 227.98 564.463 227.691 563.421C226.529 559.175 225.162 553.625 225.162 553.625C225.162 553.625 220.942 544.59 216.004 546.846C211.672 548.825 212.699 554.489 212.699 554.489C212.699 554.489 212.275 557.813 208.991 560.747C206.961 562.559 204.94 563.961 203.969 566.214C203.788 566.635 203.644 567.084 203.541 567.569C203.53 567.627 203.517 567.689 203.509 567.75C203.307 568.836 203.319 570.108 203.612 571.65Z" fill="black"/>
</g>
<path d="M213.719 555.91C215.146 554.798 217.018 554.942 218.302 556.194C218.646 556.53 219.176 556.002 218.831 555.664C217.23 554.102 214.942 554.014 213.191 555.38C212.811 555.675 213.345 556.203 213.719 555.91Z" fill="#40FCFF"/>
<path d="M213.004 558.279C214.431 557.167 216.303 557.311 217.586 558.563C217.931 558.899 218.461 558.371 218.116 558.033C216.515 556.472 214.227 556.384 212.476 557.749C212.095 558.044 212.628 558.572 213.004 558.279Z" fill="#40FCFF"/>
<path d="M212.285 560.457C213.711 559.345 215.583 559.489 216.867 560.741C217.212 561.078 217.742 560.548 217.397 560.211C215.795 558.649 213.508 558.561 211.757 559.927C211.377 560.222 211.909 560.749 212.285 560.457Z" fill="#40FCFF"/>
<path d="M209.259 293.65L255.201 304.987L285.329 299.413C285.329 299.413 293.976 409.735 295.856 428.739C297.735 447.742 298.213 549.651 298.213 549.651L273.407 550.271C273.407 550.271 264.52 445.146 262.509 434.864C260.756 425.902 253.259 364.962 248.312 350.356C247.815 353.348 247.303 356.352 246.784 359.333C245.532 372.802 241.521 415.744 239.774 431.723C239.774 431.723 235.979 523.005 231.575 549.512L208.502 549.554C205.457 511.924 205.718 375.396 205.718 375.396L205.721 375.393C204.681 325.03 209.259 293.65 209.259 293.65Z" fill="#263238"/>
<path d="M262.437 201.394C262.437 201.394 275.698 201.39 281.625 208.969C287.552 216.549 305.84 265.319 310.248 271.985C315.481 279.896 318.446 285.279 316.699 287.709C314.871 290.248 303.885 300.65 299.649 297.554C291.732 291.77 275.315 257.872 267.529 242.143C259.744 226.415 262.437 201.394 262.437 201.394Z" fill="#40FCFF"/>
<path opacity="0.3" d="M262.108 201.283C262.108 201.283 275.698 201.389 281.625 208.969C287.552 216.549 305.84 265.319 310.249 271.985C315.481 279.896 318.447 285.279 316.699 287.709C314.872 290.248 303.885 300.65 299.649 297.554C291.732 291.77 275.315 257.872 267.529 242.143C259.744 226.413 262.108 201.283 262.108 201.283Z" fill="black"/>
<path d="M372.907 558.946L361.019 558.353L356.765 527.402L374.879 528.109L372.907 558.946Z" fill="#FFB463"/>
<path d="M359.701 553.523H363.93C364.886 553.523 365.772 554.007 366.338 554.78C368.776 558.111 370.61 556.852 373.262 553.721C374.948 553.523 375.403 555.46 375.539 555.98L378.701 567.48C378.975 568.44 378.42 569.441 377.459 569.716C377.288 569.765 377.112 569.788 376.933 569.786C371.798 569.786 369.368 569.786 362.976 569.786H343.427C338.098 569.786 336.994 564.416 339.188 563.918C349.059 561.736 356.049 558.833 359.1 555.961C359.668 555.457 359.087 555.081 359.701 553.523Z" fill="#263238"/>
<path d="M353.397 557.443C354.731 557.41 356.06 557.239 357.359 556.932C357.48 556.888 357.544 556.753 357.5 556.631C357.477 556.566 357.424 556.514 357.359 556.49C356.765 556.2 351.478 553.729 350.152 554.668C349.904 554.829 349.77 555.119 349.807 555.413C349.813 555.962 350.08 556.474 350.525 556.794C351.388 557.31 352.394 557.537 353.397 557.443ZM356.53 556.614C354.97 556.904 352.071 557.29 350.87 556.393C350.559 556.149 350.368 555.782 350.345 555.386C350.32 555.262 350.376 555.135 350.484 555.068C351.216 554.557 354.336 555.648 356.53 556.614Z" fill="#40FCFF"/>
<path d="M357.303 556.945C357.358 556.961 357.415 556.961 357.47 556.945C357.54 556.883 357.568 556.785 357.539 556.697C357.539 556.476 356.296 551.271 353.397 551.602C352.679 551.699 352.472 552.044 352.445 552.334C352.265 553.715 355.593 556.324 357.179 556.987L357.303 556.945ZM353.686 552.016C355.522 552.016 356.585 555.054 356.945 556.269C355.219 555.357 352.803 553.19 352.956 552.348C352.956 552.278 352.956 552.086 353.494 552.03L353.686 552.016Z" fill="#40FCFF"/>
<path d="M356.765 556.786C358.221 556.985 359.573 557.855 360.356 559.1" stroke="#40FCFF" stroke-width="0.5" stroke-miterlimit="10" stroke-linecap="round" stroke-linejoin="round"/>
<path d="M354.138 558.766C355.594 558.964 356.946 559.835 357.729 561.079" stroke="#40FCFF" stroke-width="0.5" stroke-miterlimit="10" stroke-linecap="round" stroke-linejoin="round"/>
<path d="M350.867 560.428C352.323 560.626 353.676 561.497 354.458 562.741" stroke="#40FCFF" stroke-width="0.5" stroke-miterlimit="10" stroke-linecap="round" stroke-linejoin="round"/>
<path d="M330.975 558.946L319.087 558.353L314.834 527.402L332.947 528.109L330.975 558.946Z" fill="#FFB463"/>
<path d="M317.771 553.523H321.999C322.956 553.523 323.841 554.007 324.407 554.78C326.846 558.111 328.679 556.852 331.331 553.721C333.017 553.523 333.472 555.46 333.609 555.98L336.77 567.48C337.045 568.44 336.489 569.441 335.529 569.716C335.358 569.765 335.18 569.788 335.003 569.786C329.867 569.786 327.437 569.786 321.045 569.786H301.496C296.167 569.786 295.063 564.416 297.257 563.918C307.129 561.736 314.119 558.833 317.169 555.961C317.736 555.457 317.155 555.081 317.771 553.523Z" fill="#263238"/>
<path d="M311.464 557.443C312.799 557.41 314.127 557.239 315.426 556.932C315.548 556.888 315.611 556.753 315.568 556.631C315.544 556.566 315.492 556.514 315.426 556.49C314.832 556.2 309.545 553.729 308.219 554.668C307.971 554.829 307.837 555.119 307.874 555.413C307.881 555.962 308.147 556.474 308.593 556.794C309.457 557.31 310.463 557.537 311.464 557.443ZM314.599 556.614C313.038 556.904 310.139 557.29 308.939 556.393C308.627 556.149 308.436 555.782 308.414 555.386C308.389 555.262 308.445 555.135 308.552 555.068C309.283 554.557 312.403 555.648 314.599 556.614Z" fill="#40FCFF"/>
<path d="M315.371 556.945C315.425 556.961 315.482 556.961 315.537 556.945C315.608 556.883 315.635 556.785 315.606 556.697C315.606 556.476 314.363 551.271 311.465 551.602C310.746 551.699 310.539 552.044 310.512 552.334C310.332 553.715 313.66 556.324 315.248 556.987L315.371 556.945ZM311.754 552.016C313.589 552.016 314.652 555.054 315.012 556.269C313.287 555.357 310.87 553.19 311.022 552.348C311.022 552.278 311.022 552.086 311.56 552.03L311.754 552.016Z" fill="#40FCFF"/>
<path d="M314.834 556.786C316.29 556.985 317.642 557.855 318.425 559.1" stroke="#40FCFF" stroke-width="0.5" stroke-miterlimit="10" stroke-linecap="round" stroke-linejoin="round"/>
<path d="M312.205 558.766C313.661 558.964 315.013 559.835 315.796 561.079" stroke="#40FCFF" stroke-width="0.5" stroke-miterlimit="10" stroke-linecap="round" stroke-linejoin="round"/>
<path d="M308.936 560.428C310.392 560.626 311.744 561.497 312.527 562.741" stroke="#40FCFF" stroke-width="0.5" stroke-miterlimit="10" stroke-linecap="round" stroke-linejoin="round"/>
<path d="M377.654 207.638C375.354 200.528 374.315 193.012 374.599 185.545C374.727 182.189 375.118 178.834 374.909 175.482C374.699 172.131 373.827 168.709 371.716 166.098C369.605 163.487 366.072 161.86 362.815 162.669L351.423 172.337C350.607 186.352 351.103 200.544 354.372 214.198C355.02 216.9 355.914 219.786 358.165 221.413C360.523 223.119 363.7 222.971 366.603 222.751C368.96 222.572 371.352 222.385 373.567 221.56C375.782 220.735 377.834 219.171 378.692 216.969C379.853 213.992 378.638 210.681 377.654 207.638Z" fill="#263238"/>
<path d="M256.25 289.869C255.564 287.382 256.1 284.724 257.686 282.689C263.175 275.65 276.325 258.596 281.922 249.691C289.088 238.29 309.351 207.191 312.917 208.812C316.483 210.432 313.194 263.698 312.216 267.933C311.239 272.168 288.437 296.923 278.991 303.113C269.545 309.302 262.704 306.044 260.098 300.833C258.573 297.782 257.16 293.17 256.25 289.869Z" fill="#40FCFF"/>
<path d="M293.618 372.241C293.618 373.756 301.677 534.604 309.777 538.376C322.102 544.116 334.978 539.768 335.53 538.376C337.616 533.129 339.646 380.32 338.598 375.775C337.551 371.231 293.618 372.241 293.618 372.241Z" fill="#263238"/>
<path d="M385.773 366.525C385.899 368.035 384.452 527.667 385.384 541.231C385.776 546.929 357.307 545.173 356.294 543.289C353.62 538.316 340.578 378.42 341.243 373.803C341.909 369.187 385.773 366.525 385.773 366.525Z" fill="#263238"/>
<path opacity="0.3" d="M342.131 390.363C342.131 390.363 373.899 389.165 385.684 385.041L385.744 375.721L341.446 379.778L342.131 390.363Z" fill="black"/>
<path opacity="0.3" d="M294.222 384.242C294.222 384.242 294.452 384.297 294.878 384.397C299.485 385.471 327.136 391.757 338.883 390.716L338.799 379.85L293.618 377.963" fill="black"/>
<path d="M332.253 202.928C330.06 203.273 315.909 205.412 310.091 209.908C302.45 215.814 296.987 237.156 300.488 245.502C303.987 253.847 306.593 250.532 305.247 255.915C303.901 261.3 289.089 278.351 287.834 307.42C287.284 320.132 285.573 371.14 290.956 376.794C296.341 382.448 385.557 380.106 389.595 373.915C393.634 367.723 384.75 319.535 381.788 303.92C378.827 288.307 382.057 214.274 376.672 208.89C371.289 203.505 351.098 199.967 332.253 202.928Z" fill="#40FCFF"/>
<path d="M375.666 208.082C377.012 208.889 386.434 218.312 390.741 230.426C395.048 242.54 403.124 271.615 401.509 279.961C399.894 288.306 382.434 298.251 377.165 292.606C371.896 286.96 370.401 205.092 371.688 206.183C372.974 207.274 375.666 208.082 375.666 208.082Z" fill="#40FCFF"/>
<path d="M353.222 271.072C354.858 271.015 382.397 269.027 387.68 272.418C395.741 277.592 387.9 287.528 383.323 288.549C378.747 289.57 351.875 279.699 351.875 279.699C351.875 279.699 351.922 271.118 353.222 271.072Z" fill="#FFB463"/>
<g opacity="0.3">
<path d="M306.242 254.274C298.556 262.51 293.966 272.875 291.325 283.73C288.837 293.959 287.642 304.698 287.237 315.207C286.742 328.035 286.598 340.925 286.909 353.758C287.001 357.56 287.131 361.369 287.485 365.157C287.681 367.259 287.779 369.701 288.723 371.635C288.986 372.173 289.788 371.702 289.527 371.164C288.707 369.486 288.625 367.309 288.447 365.488C288.14 362.347 288.003 359.19 287.903 356.037C287.654 348.206 287.686 340.365 287.787 332.532C287.976 318.078 288.332 303.63 291.056 289.376C293.465 276.767 298.019 264.448 306.899 254.93C307.307 254.494 306.651 253.834 306.242 254.274Z" fill="black"/>
</g>
<g opacity="0.3">
<path d="M304.277 219.399C301.961 224.97 299.789 230.966 299.159 236.998C298.462 243.677 301.619 250.282 306.242 254.93C306.665 255.355 307.322 254.697 306.899 254.273C302.136 249.483 299.216 242.795 300.218 235.982C301.042 230.38 303.008 224.857 305.174 219.647C305.403 219.094 304.504 218.853 304.277 219.399Z" fill="black"/>
</g>
<g opacity="0.3">
<path d="M371.398 208.342C367.245 215.802 366.356 225.222 367.575 233.563C367.661 234.154 368.558 233.902 368.472 233.316C367.29 225.229 368.177 216.039 372.201 208.813C372.493 208.288 371.69 207.818 371.398 208.342Z" fill="black"/>
</g>
<path d="M327.065 265.869C326.808 264.852 327.669 263.508 328.711 263.387C329.753 263.265 330.765 263.712 331.745 264.089C335.527 265.546 339.483 267.505 343.509 267.048C343.718 265.32 342.028 263.429 341.516 261.948C341.35 261.466 341.217 260.917 341.456 260.467C341.755 259.903 342.535 259.755 343.137 259.965C343.739 260.176 344.203 260.651 344.649 261.107C347.966 264.483 353.216 268.637 357.106 271.333L355.715 279.449C348.067 283.384 338.141 282.367 331.448 276.964C330.971 276.579 330.48 276.123 330.378 275.518C330.276 274.913 330.81 274.195 331.4 274.36C328.861 273.975 326.794 271.549 326.818 268.98C326.175 268.723 325.741 268.022 325.796 267.331C325.85 266.644 326.39 266.021 327.065 265.869Z" fill="#FFB463"/>
<path d="M338.165 276.28C335.854 275.557 333.571 274.755 331.316 273.873C330.757 273.654 330.516 274.554 331.069 274.77C333.323 275.652 335.608 276.455 337.919 277.177C338.492 277.357 338.736 276.459 338.165 276.28Z" fill="#FF7800"/>
<path d="M337.859 273.052C334.333 271.608 330.809 270.166 327.284 268.722C326.731 268.495 326.489 269.394 327.037 269.619C330.561 271.063 334.086 272.505 337.612 273.949C338.165 274.176 338.407 273.277 337.859 273.052Z" fill="#FF7800"/>
<path d="M338.281 269.767C334.557 268.253 330.832 266.739 327.108 265.225C326.554 265 326.313 265.9 326.861 266.122C330.585 267.636 334.31 269.15 338.034 270.664C338.587 270.888 338.828 269.989 338.281 269.767Z" fill="#FF7800"/>
<path d="M355.121 142.681C350.697 138.624 346.67 136.277 341.004 135.612C336.033 135.029 329.058 135.857 324.642 138.502C318.637 142.098 315.201 149.495 313.141 156.815C310.834 165.012 314.415 174.826 318.433 182.13C320.096 185.154 321.526 186.366 324.553 185.942L325.745 187.521C335.07 190.025 343.821 199.603 360.062 172.108C365.431 163.017 362.564 149.506 355.121 142.681Z" fill="#263238"/>
<path d="M333.858 201.274C335.256 199.958 334.605 197.255 334.294 194.613C334.08 192.582 333.452 190.466 332.697 188.403L335.441 185.494L349.689 172.451C348.904 181.586 346.329 196.312 353.239 201.629L357.619 202.526C355.213 204.312 348.153 212.412 333.476 213.615C325.528 214.267 326.896 206.965 329.07 203.452C332.668 202.521 333.858 201.274 333.858 201.274Z" fill="#FFB463"/>
<path opacity="0.2" d="M334.249 195.793C338.141 194.928 343.764 192.396 344.755 187.973C345.163 186.153 345.227 184.343 345.135 183.138L333.477 190.254C333.594 191.988 334.537 193.314 334.249 195.793Z" fill="black"/>
<path d="M355.508 158C353.487 171.882 352.925 177.784 345.336 184.716C333.922 195.14 317.461 190.552 315.33 176.572C313.411 163.989 317.039 143.403 331.047 138.27C344.847 133.212 357.528 144.118 355.508 158Z" fill="#FFB463"/>
<path d="M337.941 157.937C337.774 158 337.585 157.994 337.42 157.905C334.844 156.503 332.667 157.778 332.642 157.793C332.319 157.983 331.918 157.875 331.748 157.541C331.579 157.206 331.705 156.777 332.03 156.581C332.145 156.514 334.875 154.91 338.073 156.65C338.391 156.824 338.504 157.246 338.324 157.592C338.238 157.758 338.099 157.878 337.941 157.937Z" fill="#263238"/>
<path d="M319.316 156.888C319.157 156.828 319.024 156.712 318.953 156.551C318.808 156.218 318.98 155.824 319.337 155.669C322.928 154.117 325.61 155.703 325.723 155.773C326.042 155.966 326.121 156.374 325.899 156.686C325.68 156.996 325.243 157.091 324.926 156.9C324.821 156.837 322.723 155.636 319.867 156.871C319.682 156.951 319.484 156.951 319.316 156.888Z" fill="#263238"/>
<path d="M327.456 161.775C327.456 161.775 324.995 166.881 322.361 170.005C321.9 170.55 322.122 171.395 322.779 171.678C324.467 172.404 326.514 171.937 326.514 171.937L327.456 161.775Z" fill="#FF7800"/>
<path d="M335.621 163.501C335.588 164.81 334.816 165.909 333.898 165.957C332.98 166.004 332.263 164.98 332.298 163.67C332.332 162.362 333.102 161.262 334.02 161.214C334.938 161.168 335.655 162.192 335.621 163.501Z" fill="#263238"/>
<path d="M334.557 161.314L331.329 160.652C331.329 160.652 333.602 162.993 334.557 161.314Z" fill="#263238"/>
<path d="M323.35 162.843C323.316 164.152 322.546 165.252 321.628 165.297C320.71 165.345 319.993 164.321 320.027 163.011C320.06 161.703 320.83 160.602 321.748 160.555C322.666 160.509 323.382 161.533 323.35 162.843Z" fill="#263238"/>
<path d="M322.293 160.678L319.065 160.017C319.065 160.017 321.338 162.357 322.293 160.678Z" fill="#263238"/>
<path d="M348.777 182.13C362.454 173.372 364.348 137.861 339.986 135.71C315.622 133.559 313.418 166.964 313.418 166.964C322.424 146.63 343.594 145.631 343.594 145.631C338.835 156.397 348.284 163.547 348.284 163.547C351.61 170.96 348.777 182.13 348.777 182.13Z" fill="#263238"/>
<path d="M359.123 169.597C357.323 172.369 354.55 174.024 352.063 174.509C348.321 175.238 346.731 169.2 348.187 165.568C349.5 162.298 353.245 160.287 356.8 161.205C360.303 162.108 361.181 166.426 359.123 169.597Z" fill="#FFB463"/>
<path opacity="0.2" d="M354.073 164.632C355.263 164.197 356.479 165 356.851 165.985C357.301 167.176 356.603 169.912 352.965 170.713" stroke="black" stroke-width="0.25" stroke-miterlimit="10" stroke-linecap="round" stroke-linejoin="round"/>
<g opacity="0.3">
<path d="M343.708 145.478C342.688 147.206 342.619 149.394 343.269 151.269C343.973 153.303 345.627 154.786 347.449 155.843C351.885 158.418 357.427 159.267 362.486 158.924C363.08 158.885 363.085 157.953 362.486 157.994C357.915 158.303 353.113 157.607 348.965 155.595C347.218 154.748 345.376 153.533 344.475 151.751C343.579 149.978 343.488 147.682 344.512 145.948C344.816 145.431 344.012 144.962 343.708 145.478Z" fill="black"/>
</g>
<g opacity="0.3">
<path d="M344.83 146.21C346.971 152.093 353.25 155.419 359.325 153.842C359.904 153.692 359.659 152.793 359.078 152.945C353.521 154.389 347.694 151.367 345.727 145.962C345.524 145.405 344.624 145.646 344.83 146.21Z" fill="black"/>
</g>
<path d="M326.285 176.123C328.644 176.291 330.973 175.122 332.302 173.18C332.641 172.685 331.836 172.218 331.498 172.71C330.347 174.392 328.307 175.336 326.283 175.193C325.688 175.151 325.69 176.081 326.285 176.123Z" fill="#263238"/>
<g opacity="0.3">
<path d="M369.466 242.429C370.32 249.95 371.354 257.448 372.569 264.921C372.664 265.51 373.561 265.259 373.466 264.674C372.265 257.285 371.241 249.868 370.397 242.43C370.33 241.841 369.399 241.834 369.466 242.429Z" fill="black"/>
</g>
<g opacity="0.3">
<path d="M368.353 269.728C374.271 264.434 382.958 263.674 389.728 267.807C390.24 268.119 390.708 267.315 390.198 267.003C383.062 262.645 373.92 263.501 367.695 269.069C367.247 269.47 367.907 270.126 368.353 269.728Z" fill="black"/>
</g>
<g opacity="0.3">
<path d="M332.09 246.95C336.044 253.387 343.941 256.848 351.354 255.427C351.942 255.314 351.693 254.417 351.108 254.53C344.113 255.872 336.617 252.544 332.894 246.479C332.582 245.971 331.775 246.437 332.09 246.95Z" fill="black"/>
</g>
<g opacity="0.3">
<path d="M365.323 285.501C367.254 288.706 369.878 291.483 373.362 292.975C376.834 294.462 380.655 294.507 384.335 293.94C384.926 293.85 384.675 292.953 384.088 293.043C380.593 293.582 376.908 293.525 373.623 292.081C370.37 290.652 367.935 288.032 366.125 285.031C365.818 284.519 365.013 284.987 365.323 285.501Z" fill="black"/>
</g>
<path d="M270.851 202.553C265.501 201.56 260.096 200.894 254.666 200.56C253.517 200.481 252.347 200.435 251.159 200.425C241.542 200.554 231.939 201.235 222.4 202.463C220.587 202.687 218.758 202.943 216.976 203.227C207.909 204.651 204.286 206.367 204.286 206.367L206.504 275.779C207.553 295.711 205.963 318.133 206.562 323.272C230.187 327.378 259.219 327.414 289.448 322.771C282.995 246.736 270.851 202.553 270.851 202.553Z" fill="#40FCFF"/>
<path opacity="0.3" d="M270.851 202.553C265.501 201.56 260.096 200.894 254.666 200.56C253.517 200.481 252.347 200.435 251.159 200.425C241.542 200.554 231.939 201.235 222.4 202.463C220.587 202.687 218.758 202.943 216.976 203.227C207.909 204.651 204.286 206.367 204.286 206.367L206.504 275.779C207.553 295.711 205.963 318.133 206.562 323.272C230.187 327.378 259.219 327.414 289.448 322.771C282.995 246.736 270.851 202.553 270.851 202.553Z" fill="black"/>
<g opacity="0.3">
<path d="M272.384 217.526C279.52 243.704 283.229 270.687 285.976 297.639C286.784 305.571 287.511 313.513 288.03 321.468C288.068 322.062 288.998 322.067 288.96 321.468C287.272 295.549 284.228 269.505 279.44 243.969C277.755 234.989 275.685 226.093 273.282 217.278C273.123 216.703 272.225 216.947 272.384 217.526Z" fill="black"/>
</g>
<path d="M248.318 200.426C248.318 200.426 245.417 196.564 244.367 193.172C243.711 191.279 243.552 189.249 243.908 187.276C244.067 186.179 244.301 185.093 244.61 184.029L222.498 170.351C225.133 178.907 230.422 195.293 224.555 202.197C224.555 202.197 236.097 205.829 242.34 205.478C248.583 205.126 248.318 200.426 248.318 200.426Z" fill="#FDBBB5"/>
<path opacity="0.2" d="M227.412 178.694C227.902 189.098 238.94 192.393 244.379 193.188C243.723 191.295 243.564 189.264 243.92 187.292L227.412 178.694Z" fill="black"/>
<path d="M241.784 137.646C249.542 136.039 248.26 140.457 252.243 143.275C256.699 146.429 256.582 153.303 251.828 155.986C250.143 156.936 248.486 156.959 247.437 155.474C244.206 150.907 233.355 139.306 241.784 137.646Z" fill="#263238"/>
<path d="M217.94 163.254C222.286 174.938 224.494 181.615 232.527 185.832C244.611 192.176 257.816 182.471 257.154 169.682C256.558 158.171 249.553 140.998 236.128 139.935C222.901 138.888 213.596 151.571 217.94 163.254Z" fill="#FDBBB5"/>
<path d="M236.051 161.894C236.452 163.221 237.499 164.075 238.392 163.802C239.284 163.529 239.683 162.23 239.283 160.903C238.882 159.576 237.835 158.722 236.942 158.997C236.05 159.269 235.651 160.567 236.051 161.894Z" fill="#263238"/>
<path d="M247.808 158.602C248.207 159.929 249.256 160.783 250.148 160.51C251.039 160.237 251.439 158.938 251.038 157.611C250.639 156.284 249.591 155.43 248.699 155.703C247.807 155.979 247.407 157.276 247.808 158.602Z" fill="#263238"/>
<path d="M244.704 158.596C244.704 158.596 250.503 163.473 252.52 165.561C251.235 167.61 248.012 167.795 248.012 167.795L244.704 158.596Z" fill="#D7504D"/>
<path d="M231.97 156.923C232.183 156.916 232.389 156.8 232.499 156.601C233.82 154.236 236.062 153.995 236.084 153.992C236.42 153.96 236.673 153.667 236.65 153.338C236.625 153.011 236.332 152.771 235.997 152.803C235.878 152.814 233.07 153.115 231.431 156.05C231.268 156.343 231.374 156.704 231.668 156.855C231.765 156.906 231.868 156.927 231.97 156.923Z" fill="#263238"/>
<path d="M252.772 151.431C252.876 151.379 252.966 151.299 253.028 151.192C253.197 150.904 253.099 150.538 252.809 150.377C249.89 148.75 247.379 150.012 247.26 150.055C246.96 150.207 246.839 150.569 246.99 150.862C247.141 151.154 247.505 151.268 247.805 151.119C247.907 151.062 249.854 150.113 252.196 151.419C252.378 151.522 252.594 151.519 252.772 151.431Z" fill="#263238"/>
<path d="M241.683 129.006C240.024 129.504 238.267 130.182 236.098 131.045C236.098 131.045 236.103 131.034 236.113 131.013C237.328 128.405 234.295 125.888 231.912 127.502C219.818 135.695 213.725 131.574 207.016 138.386C202.156 143.321 206.922 149.554 206.922 149.554C206.922 149.554 194.286 157.76 213.335 171.963L226.145 178.992L222.993 170.397C223.725 170.319 224.504 170.318 225.357 170.456C225.929 167.555 226.092 164.591 225.842 161.645C225.421 159.341 224.695 157.105 223.684 154.994C223.684 154.994 230.717 150.838 230.88 145.83C230.88 145.83 243.449 149.531 250.16 143.878C251.837 142.465 252.694 140.937 253.089 139.401C254.786 132.796 248.216 127.044 241.683 129.006Z" fill="#263238"/>
<path d="M216.09 174.617C217.996 177.391 221.051 179.021 223.838 179.474C228.031 180.155 228.223 175.866 226.745 172.218C225.414 168.934 223.158 165.121 219.101 166.102C215.104 167.067 213.912 171.444 216.09 174.617Z" fill="#FDBBB5"/>
<path opacity="0.2" d="M217.898 170.494C218.179 169.637 219.108 169.077 220.027 169.028C220.946 168.978 221.838 169.363 222.57 169.899C223.448 170.541 224.147 171.414 224.574 172.402" stroke="black" stroke-width="0.75" stroke-miterlimit="10" stroke-linecap="round" stroke-linejoin="round"/>
<path d="M247.158 172.298C245.506 172.902 243.507 172.293 242.531 170.809C242.204 170.312 241.397 170.777 241.727 171.28C242.919 173.091 245.352 173.947 247.405 173.196C247.64 173.11 247.8 172.88 247.73 172.624C247.668 172.395 247.396 172.211 247.158 172.298Z" fill="#263238"/>
<path d="M295.765 274.594C294.183 274.168 267.811 265.995 261.896 268.103C252.874 271.317 258.261 282.771 262.487 284.8C266.713 286.831 295.122 283.302 295.122 283.302C295.122 283.302 297.02 274.932 295.765 274.594Z" fill="#FDBBB5"/>
<path d="M322.42 275.449C322.9 274.516 322.366 273.013 321.379 272.659C320.392 272.304 319.304 272.51 318.264 272.657C314.251 273.22 309.953 274.232 306.135 272.875C306.324 271.144 308.397 269.684 309.233 268.358C309.504 267.928 309.757 267.422 309.626 266.929C309.462 266.313 308.735 265.992 308.101 266.061C307.468 266.131 306.908 266.488 306.371 266.83C302.375 269.368 296.322 272.226 291.922 273.97L291.438 282.191C297.997 287.754 307.897 289.013 315.638 285.266C316.19 284.999 316.772 284.667 317.008 284.1C317.245 283.533 316.887 282.713 316.275 282.74C318.836 282.94 321.398 281.046 321.956 278.537C322.639 278.432 323.222 277.848 323.325 277.164C323.428 276.48 323.043 275.75 322.42 275.449Z" fill="#FDBBB5"/>
<path d="M309.269 284.007C311.725 283.823 314.172 283.55 316.61 283.195C316.86 283.159 316.993 282.844 316.935 282.623C316.864 282.355 316.61 282.262 316.363 282.298C314.009 282.641 311.642 282.899 309.269 283.076C308.676 283.121 308.671 284.051 309.269 284.007Z" fill="#D7504D"/>
<path d="M310.424 280.915C314.184 280.307 317.945 279.699 321.704 279.091C322.294 278.996 322.044 278.099 321.458 278.195C317.698 278.802 313.937 279.41 310.177 280.018C309.587 280.114 309.837 281.01 310.424 280.915Z" fill="#D7504D"/>
<path d="M310.756 277.619C314.727 276.987 318.696 276.357 322.667 275.726C323.256 275.632 323.007 274.736 322.42 274.829C318.449 275.46 314.48 276.092 310.509 276.722C309.919 276.816 310.169 277.713 310.756 277.619Z" fill="#D7504D"/>
<path d="M204.285 206.368C204.285 206.368 196.864 205.855 195.233 223.239C193.602 240.623 212.413 280.561 224.575 285.487C236.736 290.413 284.546 289.775 287.814 286.286C289.446 284.543 288.99 268.56 285.247 267.018C281.505 265.476 236.518 260.936 236.518 260.936C236.518 260.936 219.69 229.189 215.854 220.685C211.973 212.074 204.285 206.368 204.285 206.368Z" fill="#40FCFF"/>
<path opacity="0.3" d="M204.285 206.368C204.285 206.368 196.864 205.855 195.233 223.239C193.602 240.623 212.413 280.561 224.575 285.487C236.736 290.413 284.546 289.775 287.814 286.286C289.446 284.543 288.99 268.56 285.247 267.018C281.505 265.476 236.518 260.936 236.518 260.936C236.518 260.936 219.69 229.189 215.854 220.685C211.973 212.074 204.285 206.368 204.285 206.368Z" fill="black"/>
<g opacity="0.3">
<path d="M285.371 266.571C279.462 265.438 273.372 264.95 267.406 264.212C259.026 263.176 250.643 262.162 242.258 261.158C240.346 260.928 238.432 260.7 236.518 260.472C236.559 260.776 236.6 261.081 236.642 261.386C237.674 261.197 235.871 258.269 235.699 257.921C234.248 254.986 232.728 252.086 231.21 249.186C227.586 242.262 223.909 235.366 220.218 228.477C219.329 226.816 218.439 225.156 217.546 223.498C217.262 222.97 216.458 223.439 216.742 223.967C222.439 234.55 228.148 245.135 233.611 255.841C234.219 257.031 234.824 258.221 235.401 259.427C235.565 259.768 235.69 260.188 235.9 260.501C235.948 260.573 235.959 260.763 236.026 260.813C236.029 260.815 236.049 260.9 236.057 260.902C236.306 260.99 235.184 260.709 236.394 260.488C235.833 260.591 236.043 261.345 236.518 261.402C250.202 263.029 263.887 264.658 277.555 266.417C280.073 266.741 282.627 266.99 285.123 267.468C285.709 267.579 285.959 266.682 285.371 266.571Z" fill="black"/>
</g>
<g opacity="0.3">
<path d="M205.652 261.991C208.333 267.296 211.398 272.462 215.027 277.175C217.294 280.12 219.839 283.044 222.992 285.069C225.17 286.469 227.424 286.903 229.947 287.127C236.439 287.705 242.989 287.758 249.501 287.853C257.152 287.965 264.804 287.981 272.455 287.957C276.752 287.944 281.049 287.921 285.344 287.872C285.942 287.864 285.945 286.934 285.344 286.941C274.708 287.064 264.067 287.08 253.43 286.97C246.527 286.899 239.611 286.82 232.719 286.399C230.596 286.269 228.282 286.262 226.236 285.619C222.734 284.519 219.905 281.56 217.579 278.854C213.111 273.655 209.54 267.626 206.455 261.521C206.185 260.987 205.383 261.458 205.652 261.991Z" fill="black"/>
</g>
</svg>
