<svg width="588" height="601" viewBox="0 0 588 601" fill="none" xmlns="http://www.w3.org/2000/svg">
<path d="M411.1 506.368H398.977V506.717H411.1V506.368Z" fill="#EBEBEB"/>
<path d="M529.029 489.632H502.263V489.98H529.029V489.632Z" fill="#EBEBEB"/>
<path d="M82.5653 491.975H22.3262V492.324H82.5653V491.975Z" fill="#EBEBEB"/>
<path d="M103.816 491.975H94.9834V492.324H103.816V491.975Z" fill="#EBEBEB"/>
<path d="M263.166 497.864H132.521V498.213H263.166V497.864Z" fill="#EBEBEB"/>
<path d="M219 123.853C219 113.832 210.887 105.707 200.881 105.707C199.071 105.707 197.328 105.98 195.679 106.476C195.942 104.656 196.085 102.797 196.085 100.905C196.085 79.683 178.906 62.4775 157.716 62.4775C155.301 62.4775 152.939 62.7123 150.649 63.1392C144.753 53.4736 134.151 47 122.014 47C103.643 47 88.738 61.7846 88.4657 80.1189C88.2782 80.1144 88.0952 80.0898 87.9077 80.0898C70.8379 80.0898 57 93.949 57 111.045C57 128.141 70.8379 142 87.9077 142H201.415L201.392 141.975C211.159 141.7 219 133.702 219 123.853Z" fill="#40FCFF"/>
<path d="M519.916 224.976C519.916 220.415 516.215 216.717 511.649 216.717C510.824 216.717 510.028 216.841 509.276 217.067C509.396 216.239 509.461 215.393 509.461 214.532C509.461 204.874 501.623 197.044 491.954 197.044C490.853 197.044 489.775 197.151 488.729 197.345C486.039 192.946 481.202 190 475.664 190C467.282 190 460.481 196.728 460.357 205.072C460.271 205.07 460.188 205.059 460.102 205.059C452.314 205.059 446 211.366 446 219.147C446 226.927 452.314 233.234 460.102 233.234H511.892L511.882 233.223C516.339 233.099 519.916 229.459 519.916 224.976Z" fill="#40FCFF"/>
<path d="M327.115 253.034C327.115 250.386 324.95 248.239 322.28 248.239C321.797 248.239 321.332 248.312 320.891 248.442C320.962 247.961 321 247.47 321 246.97C321 241.361 316.416 236.816 310.761 236.816C310.116 236.816 309.486 236.878 308.875 236.99C307.301 234.436 304.472 232.726 301.232 232.726C296.329 232.726 292.352 236.632 292.279 241.477C292.229 241.476 292.18 241.469 292.13 241.469C287.574 241.469 283.881 245.131 283.881 249.649C283.881 254.167 287.574 257.829 292.13 257.829H322.421L322.415 257.822C325.023 257.75 327.115 255.637 327.115 253.034Z" fill="#40FCFF"/>
<path d="M572.215 124.31C572.215 120.097 568.8 116.681 564.586 116.681C563.825 116.681 563.09 116.797 562.395 117.005C562.507 116.239 562.567 115.458 562.567 114.662C562.567 105.739 555.334 98.506 546.411 98.506C545.395 98.506 544.4 98.6051 543.435 98.785C540.953 94.721 536.488 92 531.377 92C523.641 92 517.366 98.216 517.251 105.924C517.171 105.923 517.094 105.912 517.015 105.912C509.827 105.912 504 111.738 504 118.927C504 126.115 509.827 131.941 517.015 131.941H564.81L564.8 131.93C568.914 131.814 572.215 128.452 572.215 124.31Z" fill="#40FCFF"/>
<path d="M31.4141 460.618V395.044H37.0206V363.799H45.2169V255.163H57.0659V241.146L82.3635 229.348V215.213H85.8668V255.163H90.7732V363.799H95.6796V306.677H108.996V277.242H112.712V363.799H122.826V330.858H129.485V322.447H144.904V293.711H153.347V273.386H163.727V243.774H167.432V273.386H177.811V293.711H186.255V322.447H201.674V330.858H208.332V363.799H216.229V322.447H231.648V233.436H236.555V223.624H269.496V233.436H276.504V297.916H304.54V304.224H315.053V309.131H304.54V334.363H333.977V250.258H340.285V232.386H353.951V168.956H357.806V232.386H367.618V250.258H425.144V244.374H428.647V284.324H433.553V285.025H436.5V324.975H441.407V335.838H451.776V306.403H455.492V376.489H459.629V347.053H463.346V392.96H465.607V360.019H472.265V351.609H487.684V322.872H496.127V302.548H506.507V272.935H510.212V302.548H520.591V322.872H529.035V351.609H544.455V360.019H551.113V392.259H552.308V392.96H555.605V460.618H31.4141Z" fill="#399E9F"/>
<path d="M393.046 254.188H389.074V258.16H393.046V254.188Z" fill="#161D27"/>
<path d="M393.046 260.846H389.074V264.818H393.046V260.846Z" fill="#161D27"/>
<path d="M393.046 287.479H389.074V291.45H393.046V287.479Z" fill="#161D27"/>
<path d="M393.046 294.137H389.074V298.109H393.046V294.137Z" fill="#161D27"/>
<path d="M393.046 300.796H389.074V304.768H393.046V300.796Z" fill="#161D27"/>
<path d="M393.046 320.771H389.074V324.742H393.046V320.771Z" fill="#161D27"/>
<path d="M393.046 327.428H389.074V331.4H393.046V327.428Z" fill="#161D27"/>
<path d="M386.739 280.82H382.767V284.792H386.739V280.82Z" fill="#161D27"/>
<path d="M386.739 287.479H382.767V291.45H386.739V287.479Z" fill="#161D27"/>
<path d="M386.739 294.137H382.767V298.109H386.739V294.137Z" fill="#161D27"/>
<path d="M386.739 300.796H382.767V304.768H386.739V300.796Z" fill="#161D27"/>
<path d="M386.739 307.454H382.767V311.426H386.739V307.454Z" fill="#161D27"/>
<path d="M386.739 320.771H382.767V324.742H386.739V320.771Z" fill="#161D27"/>
<path d="M386.739 327.428H382.767V331.4H386.739V327.428Z" fill="#161D27"/>
<path d="M380.431 254.188H376.459V258.16H380.431V254.188Z" fill="#161D27"/>
<path d="M380.431 260.846H376.459V264.818H380.431V260.846Z" fill="#161D27"/>
<path d="M380.431 267.504H376.459V271.476H380.431V267.504Z" fill="#161D27"/>
<path d="M380.431 274.162H376.459V278.134H380.431V274.162Z" fill="#161D27"/>
<path d="M380.431 280.82H376.459V284.792H380.431V280.82Z" fill="#161D27"/>
<path d="M380.431 287.479H376.459V291.45H380.431V287.479Z" fill="#161D27"/>
<path d="M380.431 294.137H376.459V298.109H380.431V294.137Z" fill="#161D27"/>
<path d="M380.431 300.796H376.459V304.768H380.431V300.796Z" fill="#161D27"/>
<path d="M380.431 307.454H376.459V311.426H380.431V307.454Z" fill="#161D27"/>
<path d="M380.431 314.112H376.459V318.084H380.431V314.112Z" fill="#161D27"/>
<path d="M380.431 327.428H376.459V331.4H380.431V327.428Z" fill="#161D27"/>
<path d="M374.122 254.188H370.15V258.16H374.122V254.188Z" fill="#161D27"/>
<path d="M374.122 260.846H370.15V264.818H374.122V260.846Z" fill="#161D27"/>
<path d="M374.122 267.504H370.15V271.476H374.122V267.504Z" fill="#161D27"/>
<path d="M374.122 274.162H370.15V278.134H374.122V274.162Z" fill="#161D27"/>
<path d="M374.122 280.82H370.15V284.792H374.122V280.82Z" fill="#161D27"/>
<path d="M374.122 287.479H370.15V291.45H374.122V287.479Z" fill="#161D27"/>
<path d="M374.122 294.137H370.15V298.109H374.122V294.137Z" fill="#161D27"/>
<path d="M374.122 354.062H370.15V358.034H374.122V354.062Z" fill="#161D27"/>
<path d="M367.815 254.188H363.843V258.16H367.815V254.188Z" fill="#161D27"/>
<path d="M367.815 260.846H363.843V264.818H367.815V260.846Z" fill="#161D27"/>
<path d="M367.815 267.504H363.843V271.476H367.815V267.504Z" fill="#161D27"/>
<path d="M367.815 274.162H363.843V278.134H367.815V274.162Z" fill="#161D27"/>
<path d="M367.815 280.82H363.843V284.792H367.815V280.82Z" fill="#161D27"/>
<path d="M367.815 287.479H363.843V291.45H367.815V287.479Z" fill="#161D27"/>
<path d="M367.815 294.137H363.843V298.109H367.815V294.137Z" fill="#161D27"/>
<path d="M367.815 300.796H363.843V304.768H367.815V300.796Z" fill="#161D27"/>
<path d="M367.815 340.746H363.843V344.718H367.815V340.746Z" fill="#161D27"/>
<path d="M367.815 347.404H363.843V351.376H367.815V347.404Z" fill="#161D27"/>
<path d="M367.815 354.062H363.843V358.034H367.815V354.062Z" fill="#161D27"/>
<path d="M367.815 360.72H363.843V364.692H367.815V360.72Z" fill="#161D27"/>
<path d="M367.815 387.354H363.843V391.326H367.815V387.354Z" fill="#161D27"/>
<path d="M361.507 254.188H357.535V258.16H361.507V254.188Z" fill="#161D27"/>
<path d="M361.507 260.846H357.535V264.818H361.507V260.846Z" fill="#161D27"/>
<path d="M361.507 267.504H357.535V271.476H361.507V267.504Z" fill="#161D27"/>
<path d="M361.507 274.162H357.535V278.134H361.507V274.162Z" fill="#161D27"/>
<path d="M361.507 280.82H357.535V284.792H361.507V280.82Z" fill="#161D27"/>
<path d="M361.507 287.479H357.535V291.45H361.507V287.479Z" fill="#161D27"/>
<path d="M361.507 294.137H357.535V298.109H361.507V294.137Z" fill="#161D27"/>
<path d="M361.507 300.796H357.535V304.768H361.507V300.796Z" fill="#161D27"/>
<path d="M361.507 307.454H357.535V311.426H361.507V307.454Z" fill="#161D27"/>
<path d="M361.507 314.112H357.535V318.084H361.507V314.112Z" fill="#161D27"/>
<path d="M361.507 334.086H357.535V338.058H361.507V334.086Z" fill="#161D27"/>
<path d="M361.507 340.746H357.535V344.718H361.507V340.746Z" fill="#161D27"/>
<path d="M361.507 347.404H357.535V351.376H361.507V347.404Z" fill="#161D27"/>
<path d="M361.507 354.062H357.535V358.034H361.507V354.062Z" fill="#161D27"/>
<path d="M361.507 360.72H357.535V364.692H361.507V360.72Z" fill="#161D27"/>
<path d="M361.507 387.354H357.535V391.326H361.507V387.354Z" fill="#161D27"/>
<path d="M355.199 254.188H351.227V258.16H355.199V254.188Z" fill="#161D27"/>
<path d="M355.199 260.846H351.227V264.818H355.199V260.846Z" fill="#161D27"/>
<path d="M355.199 267.504H351.227V271.476H355.199V267.504Z" fill="#161D27"/>
<path d="M355.199 274.162H351.227V278.134H355.199V274.162Z" fill="#161D27"/>
<path d="M355.199 280.82H351.227V284.792H355.199V280.82Z" fill="#161D27"/>
<path d="M355.199 287.479H351.227V291.45H355.199V287.479Z" fill="#161D27"/>
<path d="M355.199 294.137H351.227V298.109H355.199V294.137Z" fill="#161D27"/>
<path d="M355.199 300.796H351.227V304.768H355.199V300.796Z" fill="#161D27"/>
<path d="M355.199 307.454H351.227V311.426H355.199V307.454Z" fill="#161D27"/>
<path d="M355.199 314.112H351.227V318.084H355.199V314.112Z" fill="#161D27"/>
<path d="M355.199 320.771H351.227V324.742H355.199V320.771Z" fill="#161D27"/>
<path d="M355.199 327.428H351.227V331.4H355.199V327.428Z" fill="#161D27"/>
<path d="M355.199 334.086H351.227V338.058H355.199V334.086Z" fill="#161D27"/>
<path d="M355.199 340.746H351.227V344.718H355.199V340.746Z" fill="#161D27"/>
<path d="M355.199 347.404H351.227V351.376H355.199V347.404Z" fill="#161D27"/>
<path d="M355.199 354.062H351.227V358.034H355.199V354.062Z" fill="#161D27"/>
<path d="M355.199 360.72H351.227V364.692H355.199V360.72Z" fill="#161D27"/>
<path d="M355.199 367.378H351.227V371.35H355.199V367.378Z" fill="#161D27"/>
<path d="M348.89 254.188H344.918V258.16H348.89V254.188Z" fill="#161D27"/>
<path d="M348.89 260.846H344.918V264.818H348.89V260.846Z" fill="#161D27"/>
<path d="M348.89 267.504H344.918V271.476H348.89V267.504Z" fill="#161D27"/>
<path d="M348.89 274.162H344.918V278.134H348.89V274.162Z" fill="#161D27"/>
<path d="M348.89 280.82H344.918V284.792H348.89V280.82Z" fill="#161D27"/>
<path d="M348.89 287.479H344.918V291.45H348.89V287.479Z" fill="#161D27"/>
<path d="M348.89 294.137H344.918V298.109H348.89V294.137Z" fill="#161D27"/>
<path d="M348.89 300.796H344.918V304.768H348.89V300.796Z" fill="#161D27"/>
<path d="M348.89 307.454H344.918V311.426H348.89V307.454Z" fill="#161D27"/>
<path d="M348.89 314.112H344.918V318.084H348.89V314.112Z" fill="#161D27"/>
<path d="M348.89 334.086H344.918V338.058H348.89V334.086Z" fill="#161D27"/>
<path d="M348.89 340.746H344.918V344.718H348.89V340.746Z" fill="#161D27"/>
<path d="M348.89 347.404H344.918V351.376H348.89V347.404Z" fill="#161D27"/>
<path d="M348.89 354.062H344.918V358.034H348.89V354.062Z" fill="#161D27"/>
<path d="M342.582 254.188H338.61V258.16H342.582V254.188Z" fill="#161D27"/>
<path d="M342.582 260.846H338.61V264.818H342.582V260.846Z" fill="#161D27"/>
<path d="M342.582 267.504H338.61V271.476H342.582V267.504Z" fill="#161D27"/>
<path d="M342.582 274.162H338.61V278.134H342.582V274.162Z" fill="#161D27"/>
<path d="M342.582 280.82H338.61V284.792H342.582V280.82Z" fill="#161D27"/>
<path d="M342.582 287.479H338.61V291.45H342.582V287.479Z" fill="#161D27"/>
<path d="M342.582 294.137H338.61V298.109H342.582V294.137Z" fill="#161D27"/>
<path d="M342.582 300.796H338.61V304.768H342.582V300.796Z" fill="#161D27"/>
<path d="M342.582 307.454H338.61V311.426H342.582V307.454Z" fill="#161D27"/>
<path d="M342.582 314.112H338.61V318.084H342.582V314.112Z" fill="#161D27"/>
<path d="M342.582 334.086H338.61V338.058H342.582V334.086Z" fill="#161D27"/>
<path d="M342.582 340.746H338.61V344.718H342.582V340.746Z" fill="#161D27"/>
<path d="M342.582 347.404H338.61V351.376H342.582V347.404Z" fill="#161D27"/>
<path d="M271.561 236.899H267.589V240.871H271.561V236.899Z" fill="#161D27"/>
<path d="M271.561 243.558H267.589V247.53H271.561V243.558Z" fill="#161D27"/>
<path d="M271.561 250.216H267.589V254.188H271.561V250.216Z" fill="#161D27"/>
<path d="M271.561 256.875H267.589V260.846H271.561V256.875Z" fill="#161D27"/>
<path d="M271.561 263.533H267.589V267.505H271.561V263.533Z" fill="#161D27"/>
<path d="M271.561 270.191H267.589V274.163H271.561V270.191Z" fill="#161D27"/>
<path d="M271.561 276.849H267.589V280.821H271.561V276.849Z" fill="#161D27"/>
<path d="M271.561 283.508H267.589V287.48H271.561V283.508Z" fill="#161D27"/>
<path d="M271.561 303.482H267.589V307.454H271.561V303.482Z" fill="#161D27"/>
<path d="M271.561 310.14H267.589V314.112H271.561V310.14Z" fill="#161D27"/>
<path d="M265.253 236.899H261.281V240.871H265.253V236.899Z" fill="#161D27"/>
<path d="M265.253 243.558H261.281V247.53H265.253V243.558Z" fill="#161D27"/>
<path d="M265.253 250.216H261.281V254.188H265.253V250.216Z" fill="#161D27"/>
<path d="M265.253 256.875H261.281V260.846H265.253V256.875Z" fill="#161D27"/>
<path d="M265.253 263.533H261.281V267.505H265.253V263.533Z" fill="#161D27"/>
<path d="M265.253 270.191H261.281V274.163H265.253V270.191Z" fill="#161D27"/>
<path d="M265.253 276.849H261.281V280.821H265.253V276.849Z" fill="#161D27"/>
<path d="M265.253 283.508H261.281V287.48H265.253V283.508Z" fill="#161D27"/>
<path d="M265.253 310.14H261.281V314.112H265.253V310.14Z" fill="#161D27"/>
<path d="M258.946 236.899H254.974V240.871H258.946V236.899Z" fill="#161D27"/>
<path d="M258.946 243.558H254.974V247.53H258.946V243.558Z" fill="#161D27"/>
<path d="M258.946 250.216H254.974V254.188H258.946V250.216Z" fill="#161D27"/>
<path d="M258.946 256.875H254.974V260.846H258.946V256.875Z" fill="#161D27"/>
<path d="M258.946 263.533H254.974V267.505H258.946V263.533Z" fill="#161D27"/>
<path d="M258.946 270.191H254.974V274.163H258.946V270.191Z" fill="#161D27"/>
<path d="M258.946 276.849H254.974V280.821H258.946V276.849Z" fill="#161D27"/>
<path d="M258.946 283.508H254.974V287.48H258.946V283.508Z" fill="#161D27"/>
<path d="M252.639 236.899H248.667V240.871H252.639V236.899Z" fill="#161D27"/>
<path d="M252.639 243.558H248.667V247.53H252.639V243.558Z" fill="#161D27"/>
<path d="M252.639 250.216H248.667V254.188H252.639V250.216Z" fill="#161D27"/>
<path d="M252.639 256.875H248.667V260.846H252.639V256.875Z" fill="#161D27"/>
<path d="M252.639 263.533H248.667V267.505H252.639V263.533Z" fill="#161D27"/>
<path d="M252.639 270.191H248.667V274.163H252.639V270.191Z" fill="#161D27"/>
<path d="M252.639 283.508H248.667V287.48H252.639V283.508Z" fill="#161D27"/>
<path d="M252.639 290.166H248.667V294.138H252.639V290.166Z" fill="#161D27"/>
<path d="M252.639 310.14H248.667V314.112H252.639V310.14Z" fill="#161D27"/>
<path d="M252.639 316.799H248.667V320.771H252.639V316.799Z" fill="#161D27"/>
<path d="M252.639 323.457H248.667V327.428H252.639V323.457Z" fill="#161D27"/>
<path d="M252.639 330.116H248.667V334.088H252.639V330.116Z" fill="#161D27"/>
<path d="M252.639 336.774H248.667V340.746H252.639V336.774Z" fill="#161D27"/>
<path d="M252.639 343.432H248.667V347.404H252.639V343.432Z" fill="#161D27"/>
<path d="M252.639 350.09H248.667V354.062H252.639V350.09Z" fill="#161D27"/>
<path d="M246.33 236.899H242.358V240.871H246.33V236.899Z" fill="#161D27"/>
<path d="M246.33 243.558H242.358V247.53H246.33V243.558Z" fill="#161D27"/>
<path d="M246.33 250.216H242.358V254.188H246.33V250.216Z" fill="#161D27"/>
<path d="M246.33 256.875H242.358V260.846H246.33V256.875Z" fill="#161D27"/>
<path d="M246.33 263.533H242.358V267.505H246.33V263.533Z" fill="#161D27"/>
<path d="M246.33 270.191H242.358V274.163H246.33V270.191Z" fill="#161D27"/>
<path d="M246.33 290.166H242.358V294.138H246.33V290.166Z" fill="#161D27"/>
<path d="M246.33 296.824H242.358V300.796H246.33V296.824Z" fill="#161D27"/>
<path d="M246.33 303.482H242.358V307.454H246.33V303.482Z" fill="#161D27"/>
<path d="M246.33 310.14H242.358V314.112H246.33V310.14Z" fill="#161D27"/>
<path d="M246.33 316.799H242.358V320.771H246.33V316.799Z" fill="#161D27"/>
<path d="M246.33 323.457H242.358V327.428H246.33V323.457Z" fill="#161D27"/>
<path d="M246.33 330.116H242.358V334.088H246.33V330.116Z" fill="#161D27"/>
<path d="M246.33 336.774H242.358V340.746H246.33V336.774Z" fill="#161D27"/>
<path d="M246.33 343.432H242.358V347.404H246.33V343.432Z" fill="#161D27"/>
<path d="M246.33 350.09H242.358V354.062H246.33V350.09Z" fill="#161D27"/>
<path d="M246.33 356.748H242.358V360.72H246.33V356.748Z" fill="#161D27"/>
<path d="M246.33 370.066H242.358V374.038H246.33V370.066Z" fill="#161D27"/>
<path d="M240.023 236.899H236.051V240.871H240.023V236.899Z" fill="#161D27"/>
<path d="M240.023 243.558H236.051V247.53H240.023V243.558Z" fill="#161D27"/>
<path d="M240.023 250.216H236.051V254.188H240.023V250.216Z" fill="#161D27"/>
<path d="M240.023 256.875H236.051V260.846H240.023V256.875Z" fill="#161D27"/>
<path d="M240.023 263.533H236.051V267.505H240.023V263.533Z" fill="#161D27"/>
<path d="M240.023 270.191H236.051V274.163H240.023V270.191Z" fill="#161D27"/>
<path d="M240.023 290.166H236.051V294.138H240.023V290.166Z" fill="#161D27"/>
<path d="M240.023 296.824H236.051V300.796H240.023V296.824Z" fill="#161D27"/>
<path d="M240.023 303.482H236.051V307.454H240.023V303.482Z" fill="#161D27"/>
<path d="M240.023 310.14H236.051V314.112H240.023V310.14Z" fill="#161D27"/>
<path d="M240.023 330.116H236.051V334.088H240.023V330.116Z" fill="#161D27"/>
<path d="M240.023 336.774H236.051V340.746H240.023V336.774Z" fill="#161D27"/>
<path d="M240.023 343.432H236.051V347.404H240.023V343.432Z" fill="#161D27"/>
<path d="M240.023 350.09H236.051V354.062H240.023V350.09Z" fill="#161D27"/>
<path d="M240.023 356.748H236.051V360.72H240.023V356.748Z" fill="#161D27"/>
<path d="M240.023 370.066H236.051V374.038H240.023V370.066Z" fill="#161D27"/>
<path d="M240.023 376.724H236.051V380.696H240.023V376.724Z" fill="#161D27"/>
<path d="M182.784 298.811H178.812V302.783H182.784V298.811Z" fill="#161D27"/>
<path d="M182.784 305.468H178.812V309.44H182.784V305.468Z" fill="#161D27"/>
<path d="M182.784 312.126H178.812V316.098H182.784V312.126Z" fill="#161D27"/>
<path d="M182.784 318.785H178.812V322.757H182.784V318.785Z" fill="#161D27"/>
<path d="M182.784 325.442H178.812V329.414H182.784V325.442Z" fill="#161D27"/>
<path d="M182.784 332.102H178.812V336.074H182.784V332.102Z" fill="#161D27"/>
<path d="M182.784 338.76H178.812V342.732H182.784V338.76Z" fill="#161D27"/>
<path d="M182.784 358.734H178.812V362.706H182.784V358.734Z" fill="#161D27"/>
<path d="M182.784 365.393H178.812V369.365H182.784V365.393Z" fill="#161D27"/>
<path d="M182.784 372.052H178.812V376.024H182.784V372.052Z" fill="#161D27"/>
<path d="M176.477 298.811H172.505V302.783H176.477V298.811Z" fill="#161D27"/>
<path d="M176.477 305.468H172.505V309.44H176.477V305.468Z" fill="#161D27"/>
<path d="M176.477 312.126H172.505V316.098H176.477V312.126Z" fill="#161D27"/>
<path d="M176.477 318.785H172.505V322.757H176.477V318.785Z" fill="#161D27"/>
<path d="M176.477 325.442H172.505V329.414H176.477V325.442Z" fill="#161D27"/>
<path d="M176.477 332.102H172.505V336.074H176.477V332.102Z" fill="#161D27"/>
<path d="M176.477 338.76H172.505V342.732H176.477V338.76Z" fill="#161D27"/>
<path d="M170.168 298.811H166.196V302.783H170.168V298.811Z" fill="#161D27"/>
<path d="M170.168 305.468H166.196V309.44H170.168V305.468Z" fill="#161D27"/>
<path d="M170.168 312.126H166.196V316.098H170.168V312.126Z" fill="#161D27"/>
<path d="M170.168 318.785H166.196V322.757H170.168V318.785Z" fill="#161D27"/>
<path d="M170.168 325.442H166.196V329.414H170.168V325.442Z" fill="#161D27"/>
<path d="M170.168 332.102H166.196V336.074H170.168V332.102Z" fill="#161D27"/>
<path d="M170.168 338.76H166.196V342.732H170.168V338.76Z" fill="#161D27"/>
<path d="M163.861 298.811H159.889V302.783H163.861V298.811Z" fill="#161D27"/>
<path d="M163.861 305.468H159.889V309.44H163.861V305.468Z" fill="#161D27"/>
<path d="M163.861 312.126H159.889V316.098H163.861V312.126Z" fill="#161D27"/>
<path d="M163.861 318.785H159.889V322.757H163.861V318.785Z" fill="#161D27"/>
<path d="M163.861 325.442H159.889V329.414H163.861V325.442Z" fill="#161D27"/>
<path d="M163.861 332.102H159.889V336.074H163.861V332.102Z" fill="#161D27"/>
<path d="M163.861 338.76H159.889V342.732H163.861V338.76Z" fill="#161D27"/>
<path d="M163.861 345.418H159.889V349.39H163.861V345.418Z" fill="#161D27"/>
<path d="M163.861 352.076H159.889V356.048H163.861V352.076Z" fill="#161D27"/>
<path d="M163.861 358.734H159.889V362.706H163.861V358.734Z" fill="#161D27"/>
<path d="M163.861 365.393H159.889V369.365H163.861V365.393Z" fill="#161D27"/>
<path d="M157.553 298.811H153.581V302.783H157.553V298.811Z" fill="#161D27"/>
<path d="M157.553 305.468H153.581V309.44H157.553V305.468Z" fill="#161D27"/>
<path d="M157.553 312.126H153.581V316.098H157.553V312.126Z" fill="#161D27"/>
<path d="M157.553 318.785H153.581V322.757H157.553V318.785Z" fill="#161D27"/>
<path d="M157.553 325.442H153.581V329.414H157.553V325.442Z" fill="#161D27"/>
<path d="M157.553 332.102H153.581V336.074H157.553V332.102Z" fill="#161D27"/>
<path d="M157.553 338.76H153.581V342.732H157.553V338.76Z" fill="#161D27"/>
<path d="M157.553 345.418H153.581V349.39H157.553V345.418Z" fill="#161D27"/>
<path d="M157.553 352.076H153.581V356.048H157.553V352.076Z" fill="#161D27"/>
<path d="M157.553 358.734H153.581V362.706H157.553V358.734Z" fill="#161D27"/>
<path d="M157.553 365.393H153.581V369.365H157.553V365.393Z" fill="#161D27"/>
<path d="M157.553 372.052H153.581V376.024H157.553V372.052Z" fill="#161D27"/>
<path d="M157.553 392.026H153.581V395.998H157.553V392.026Z" fill="#161D27"/>
<path d="M157.553 398.684H153.581V402.656H157.553V398.684Z" fill="#161D27"/>
<path d="M151.245 298.811H147.273V302.783H151.245V298.811Z" fill="#161D27"/>
<path d="M151.245 305.468H147.273V309.44H151.245V305.468Z" fill="#161D27"/>
<path d="M151.245 312.126H147.273V316.098H151.245V312.126Z" fill="#161D27"/>
<path d="M151.245 332.102H147.273V336.074H151.245V332.102Z" fill="#161D27"/>
<path d="M151.245 338.76H147.273V342.732H151.245V338.76Z" fill="#161D27"/>
<path d="M151.245 345.418H147.273V349.39H151.245V345.418Z" fill="#161D27"/>
<path d="M151.245 352.076H147.273V356.048H151.245V352.076Z" fill="#161D27"/>
<path d="M151.245 358.734H147.273V362.706H151.245V358.734Z" fill="#161D27"/>
<path d="M151.245 365.393H147.273V369.365H151.245V365.393Z" fill="#161D27"/>
<path d="M151.245 372.052H147.273V376.024H151.245V372.052Z" fill="#161D27"/>
<path d="M151.245 392.026H147.273V395.998H151.245V392.026Z" fill="#161D27"/>
<path d="M151.245 398.684H147.273V402.656H151.245V398.684Z" fill="#161D27"/>
<path d="M151.245 405.342H147.273V409.314H151.245V405.342Z" fill="#161D27"/>
<path d="M85.1302 258.86H81.1582V262.832H85.1302V258.86Z" fill="#161D27"/>
<path d="M85.1302 265.519H81.1582V269.491H85.1302V265.519Z" fill="#161D27"/>
<path d="M85.1302 272.177H81.1582V276.149H85.1302V272.177Z" fill="#161D27"/>
<path d="M85.1302 278.834H81.1582V282.806H85.1302V278.834Z" fill="#161D27"/>
<path d="M85.1302 285.493H81.1582V289.465H85.1302V285.493Z" fill="#161D27"/>
<path d="M85.1302 292.152H81.1582V296.124H85.1302V292.152Z" fill="#161D27"/>
<path d="M85.1302 298.811H81.1582V302.783H85.1302V298.811Z" fill="#161D27"/>
<path d="M85.1302 305.468H81.1582V309.44H85.1302V305.468Z" fill="#161D27"/>
<path d="M85.1302 312.126H81.1582V316.098H85.1302V312.126Z" fill="#161D27"/>
<path d="M85.1302 318.785H81.1582V322.757H85.1302V318.785Z" fill="#161D27"/>
<path d="M85.1302 325.442H81.1582V329.414H85.1302V325.442Z" fill="#161D27"/>
<path d="M85.1302 332.102H81.1582V336.074H85.1302V332.102Z" fill="#161D27"/>
<path d="M85.1302 338.76H81.1582V342.732H85.1302V338.76Z" fill="#161D27"/>
<path d="M85.1302 345.418H81.1582V349.39H85.1302V345.418Z" fill="#161D27"/>
<path d="M85.1302 352.076H81.1582V356.048H85.1302V352.076Z" fill="#161D27"/>
<path d="M85.1302 358.734H81.1582V362.706H85.1302V358.734Z" fill="#161D27"/>
<path d="M85.1302 365.393H81.1582V369.365H85.1302V365.393Z" fill="#161D27"/>
<path d="M85.1302 372.052H81.1582V376.024H85.1302V372.052Z" fill="#161D27"/>
<path d="M85.1302 378.709H81.1582V382.681H85.1302V378.709Z" fill="#161D27"/>
<path d="M85.1302 385.368H81.1582V389.34H85.1302V385.368Z" fill="#161D27"/>
<path d="M85.1302 392.026H81.1582V395.998H85.1302V392.026Z" fill="#161D27"/>
<path d="M85.1302 398.684H81.1582V402.656H85.1302V398.684Z" fill="#161D27"/>
<path d="M85.1302 405.342H81.1582V409.314H85.1302V405.342Z" fill="#161D27"/>
<path d="M78.8216 258.86H74.8496V262.832H78.8216V258.86Z" fill="#161D27"/>
<path d="M78.8216 265.519H74.8496V269.491H78.8216V265.519Z" fill="#161D27"/>
<path d="M78.8216 272.177H74.8496V276.149H78.8216V272.177Z" fill="#161D27"/>
<path d="M78.8216 278.834H74.8496V282.806H78.8216V278.834Z" fill="#161D27"/>
<path d="M78.8216 285.493H74.8496V289.465H78.8216V285.493Z" fill="#161D27"/>
<path d="M78.8216 292.152H74.8496V296.124H78.8216V292.152Z" fill="#161D27"/>
<path d="M78.8216 298.811H74.8496V302.783H78.8216V298.811Z" fill="#161D27"/>
<path d="M78.8216 305.468H74.8496V309.44H78.8216V305.468Z" fill="#161D27"/>
<path d="M78.8216 312.126H74.8496V316.098H78.8216V312.126Z" fill="#161D27"/>
<path d="M78.8216 318.785H74.8496V322.757H78.8216V318.785Z" fill="#161D27"/>
<path d="M78.8216 325.442H74.8496V329.414H78.8216V325.442Z" fill="#161D27"/>
<path d="M78.8216 332.102H74.8496V336.074H78.8216V332.102Z" fill="#161D27"/>
<path d="M78.8216 338.76H74.8496V342.732H78.8216V338.76Z" fill="#161D27"/>
<path d="M78.8216 345.418H74.8496V349.39H78.8216V345.418Z" fill="#161D27"/>
<path d="M78.8216 352.076H74.8496V356.048H78.8216V352.076Z" fill="#161D27"/>
<path d="M78.8216 358.734H74.8496V362.706H78.8216V358.734Z" fill="#161D27"/>
<path d="M78.8216 365.393H74.8496V369.365H78.8216V365.393Z" fill="#161D27"/>
<path d="M78.8216 372.052H74.8496V376.024H78.8216V372.052Z" fill="#161D27"/>
<path d="M78.8216 378.709H74.8496V382.681H78.8216V378.709Z" fill="#161D27"/>
<path d="M72.514 258.86H68.542V262.832H72.514V258.86Z" fill="#161D27"/>
<path d="M72.514 265.519H68.542V269.491H72.514V265.519Z" fill="#161D27"/>
<path d="M72.514 272.177H68.542V276.149H72.514V272.177Z" fill="#161D27"/>
<path d="M72.514 278.834H68.542V282.806H72.514V278.834Z" fill="#161D27"/>
<path d="M72.514 285.493H68.542V289.465H72.514V285.493Z" fill="#161D27"/>
<path d="M72.514 292.152H68.542V296.124H72.514V292.152Z" fill="#161D27"/>
<path d="M72.514 298.811H68.542V302.783H72.514V298.811Z" fill="#161D27"/>
<path d="M72.514 305.468H68.542V309.44H72.514V305.468Z" fill="#161D27"/>
<path d="M72.514 312.126H68.542V316.098H72.514V312.126Z" fill="#161D27"/>
<path d="M72.514 318.785H68.542V322.757H72.514V318.785Z" fill="#161D27"/>
<path d="M72.514 325.442H68.542V329.414H72.514V325.442Z" fill="#161D27"/>
<path d="M72.514 332.102H68.542V336.074H72.514V332.102Z" fill="#161D27"/>
<path d="M72.514 338.76H68.542V342.732H72.514V338.76Z" fill="#161D27"/>
<path d="M72.514 345.418H68.542V349.39H72.514V345.418Z" fill="#161D27"/>
<path d="M72.514 352.076H68.542V356.048H72.514V352.076Z" fill="#161D27"/>
<path d="M72.514 358.734H68.542V362.706H72.514V358.734Z" fill="#161D27"/>
<path d="M72.514 365.393H68.542V369.365H72.514V365.393Z" fill="#161D27"/>
<path d="M72.514 372.052H68.542V376.024H72.514V372.052Z" fill="#161D27"/>
<path d="M72.514 378.709H68.542V382.681H72.514V378.709Z" fill="#161D27"/>
<path d="M66.2063 258.86H62.2344V262.832H66.2063V258.86Z" fill="#161D27"/>
<path d="M66.2063 265.519H62.2344V269.491H66.2063V265.519Z" fill="#161D27"/>
<path d="M66.2063 272.177H62.2344V276.149H66.2063V272.177Z" fill="#161D27"/>
<path d="M66.2063 278.834H62.2344V282.806H66.2063V278.834Z" fill="#161D27"/>
<path d="M66.2063 285.493H62.2344V289.465H66.2063V285.493Z" fill="#161D27"/>
<path d="M66.2063 292.152H62.2344V296.124H66.2063V292.152Z" fill="#161D27"/>
<path d="M66.2063 298.811H62.2344V302.783H66.2063V298.811Z" fill="#161D27"/>
<path d="M66.2063 305.468H62.2344V309.44H66.2063V305.468Z" fill="#161D27"/>
<path d="M66.2063 312.126H62.2344V316.098H66.2063V312.126Z" fill="#161D27"/>
<path d="M66.2063 318.785H62.2344V322.757H66.2063V318.785Z" fill="#161D27"/>
<path d="M66.2063 325.442H62.2344V329.414H66.2063V325.442Z" fill="#161D27"/>
<path d="M66.2063 332.102H62.2344V336.074H66.2063V332.102Z" fill="#161D27"/>
<path d="M66.2063 338.76H62.2344V342.732H66.2063V338.76Z" fill="#161D27"/>
<path d="M66.2063 345.418H62.2344V349.39H66.2063V345.418Z" fill="#161D27"/>
<path d="M66.2063 352.076H62.2344V356.048H66.2063V352.076Z" fill="#161D27"/>
<path d="M59.8977 258.86H55.9258V262.832H59.8977V258.86Z" fill="#161D27"/>
<path d="M59.8977 265.519H55.9258V269.491H59.8977V265.519Z" fill="#161D27"/>
<path d="M59.8977 272.177H55.9258V276.149H59.8977V272.177Z" fill="#161D27"/>
<path d="M59.8977 278.834H55.9258V282.806H59.8977V278.834Z" fill="#161D27"/>
<path d="M59.8977 285.493H55.9258V289.465H59.8977V285.493Z" fill="#161D27"/>
<path d="M59.8977 292.152H55.9258V296.124H59.8977V292.152Z" fill="#161D27"/>
<path d="M59.8977 298.811H55.9258V302.783H59.8977V298.811Z" fill="#161D27"/>
<path d="M59.8977 305.468H55.9258V309.44H59.8977V305.468Z" fill="#161D27"/>
<path d="M59.8977 312.126H55.9258V316.098H59.8977V312.126Z" fill="#161D27"/>
<path d="M59.8977 318.785H55.9258V322.757H59.8977V318.785Z" fill="#161D27"/>
<path d="M59.8977 325.442H55.9258V329.414H59.8977V325.442Z" fill="#161D27"/>
<path d="M59.8977 332.102H55.9258V336.074H59.8977V332.102Z" fill="#161D27"/>
<path d="M59.8977 338.76H55.9258V342.732H59.8977V338.76Z" fill="#161D27"/>
<path d="M53.5901 258.86H49.6182V262.832H53.5901V258.86Z" fill="#161D27"/>
<path d="M53.5901 265.519H49.6182V269.491H53.5901V265.519Z" fill="#161D27"/>
<path d="M53.5901 272.177H49.6182V276.149H53.5901V272.177Z" fill="#161D27"/>
<path d="M53.5901 278.834H49.6182V282.806H53.5901V278.834Z" fill="#161D27"/>
<path d="M53.5901 285.493H49.6182V289.465H53.5901V285.493Z" fill="#161D27"/>
<path d="M53.5901 292.152H49.6182V296.124H53.5901V292.152Z" fill="#161D27"/>
<path d="M53.5901 298.811H49.6182V302.783H53.5901V298.811Z" fill="#161D27"/>
<path d="M53.5901 305.468H49.6182V309.44H53.5901V305.468Z" fill="#161D27"/>
<path d="M53.5901 312.126H49.6182V316.098H53.5901V312.126Z" fill="#161D27"/>
<path d="M53.5901 318.785H49.6182V322.757H53.5901V318.785Z" fill="#161D27"/>
<path d="M53.5901 325.442H49.6182V329.414H53.5901V325.442Z" fill="#161D27"/>
<path d="M53.5901 332.102H49.6182V336.074H53.5901V332.102Z" fill="#161D27"/>
<path d="M517.101 307.454H513.129V311.426H517.101V307.454Z" fill="#161D27"/>
<path d="M517.101 314.112H513.129V318.084H517.101V314.112Z" fill="#161D27"/>
<path d="M517.101 320.771H513.129V324.742H517.101V320.771Z" fill="#161D27"/>
<path d="M517.101 327.428H513.129V331.4H517.101V327.428Z" fill="#161D27"/>
<path d="M517.101 334.086H513.129V338.058H517.101V334.086Z" fill="#161D27"/>
<path d="M517.101 340.746H513.129V344.718H517.101V340.746Z" fill="#161D27"/>
<path d="M517.101 347.404H513.129V351.376H517.101V347.404Z" fill="#161D27"/>
<path d="M517.101 354.062H513.129V358.034H517.101V354.062Z" fill="#161D27"/>
<path d="M517.101 360.72H513.129V364.692H517.101V360.72Z" fill="#161D27"/>
<path d="M517.101 367.378H513.129V371.35H517.101V367.378Z" fill="#161D27"/>
<path d="M517.101 374.036H513.129V378.008H517.101V374.036Z" fill="#161D27"/>
<path d="M517.101 380.695H513.129V384.667H517.101V380.695Z" fill="#161D27"/>
<path d="M517.101 387.354H513.129V391.326H517.101V387.354Z" fill="#161D27"/>
<path d="M517.101 394.012H513.129V397.984H517.101V394.012Z" fill="#161D27"/>
<path d="M517.101 400.67H513.129V404.642H517.101V400.67Z" fill="#161D27"/>
<path d="M517.101 407.328H513.129V411.3H517.101V407.328Z" fill="#161D27"/>
<path d="M517.101 413.986H513.129V417.958H517.101V413.986Z" fill="#161D27"/>
<path d="M517.101 420.644H513.129V424.616H517.101V420.644Z" fill="#161D27"/>
<path d="M517.101 427.303H513.129V431.275H517.101V427.303Z" fill="#161D27"/>
<path d="M517.101 433.961H513.129V437.933H517.101V433.961Z" fill="#161D27"/>
<path d="M510.792 307.454H506.82V311.426H510.792V307.454Z" fill="#161D27"/>
<path d="M510.792 314.112H506.82V318.084H510.792V314.112Z" fill="#161D27"/>
<path d="M510.792 320.771H506.82V324.742H510.792V320.771Z" fill="#161D27"/>
<path d="M510.792 327.428H506.82V331.4H510.792V327.428Z" fill="#161D27"/>
<path d="M510.792 334.086H506.82V338.058H510.792V334.086Z" fill="#161D27"/>
<path d="M510.792 340.746H506.82V344.718H510.792V340.746Z" fill="#161D27"/>
<path d="M510.792 347.404H506.82V351.376H510.792V347.404Z" fill="#161D27"/>
<path d="M510.792 354.062H506.82V358.034H510.792V354.062Z" fill="#161D27"/>
<path d="M510.792 360.72H506.82V364.692H510.792V360.72Z" fill="#161D27"/>
<path d="M510.792 367.378H506.82V371.35H510.792V367.378Z" fill="#161D27"/>
<path d="M510.792 374.036H506.82V378.008H510.792V374.036Z" fill="#161D27"/>
<path d="M510.792 380.695H506.82V384.667H510.792V380.695Z" fill="#161D27"/>
<path d="M510.792 387.354H506.82V391.326H510.792V387.354Z" fill="#161D27"/>
<path d="M510.792 394.012H506.82V397.984H510.792V394.012Z" fill="#161D27"/>
<path d="M510.792 400.67H506.82V404.642H510.792V400.67Z" fill="#161D27"/>
<path d="M510.792 407.328H506.82V411.3H510.792V407.328Z" fill="#161D27"/>
<path d="M510.792 413.986H506.82V417.958H510.792V413.986Z" fill="#161D27"/>
<path d="M510.792 420.644H506.82V424.616H510.792V420.644Z" fill="#161D27"/>
<path d="M504.485 307.454H500.513V311.426H504.485V307.454Z" fill="#161D27"/>
<path d="M504.485 314.112H500.513V318.084H504.485V314.112Z" fill="#161D27"/>
<path d="M504.485 320.771H500.513V324.742H504.485V320.771Z" fill="#161D27"/>
<path d="M504.485 327.428H500.513V331.4H504.485V327.428Z" fill="#161D27"/>
<path d="M504.485 334.086H500.513V338.058H504.485V334.086Z" fill="#161D27"/>
<path d="M504.485 340.746H500.513V344.718H504.485V340.746Z" fill="#161D27"/>
<path d="M504.485 347.404H500.513V351.376H504.485V347.404Z" fill="#161D27"/>
<path d="M504.485 354.062H500.513V358.034H504.485V354.062Z" fill="#161D27"/>
<path d="M504.485 360.72H500.513V364.692H504.485V360.72Z" fill="#161D27"/>
<path d="M504.485 367.378H500.513V371.35H504.485V367.378Z" fill="#161D27"/>
<path d="M504.485 374.036H500.513V378.008H504.485V374.036Z" fill="#161D27"/>
<path d="M504.485 380.695H500.513V384.667H504.485V380.695Z" fill="#161D27"/>
<path d="M504.485 387.354H500.513V391.326H504.485V387.354Z" fill="#161D27"/>
<path d="M504.485 394.012H500.513V397.984H504.485V394.012Z" fill="#161D27"/>
<path d="M504.485 400.67H500.513V404.642H504.485V400.67Z" fill="#161D27"/>
<path d="M504.485 407.328H500.513V411.3H504.485V407.328Z" fill="#161D27"/>
<path d="M504.485 413.986H500.513V417.958H504.485V413.986Z" fill="#161D27"/>
<path d="M504.485 420.644H500.513V424.616H504.485V420.644Z" fill="#161D27"/>
<path d="M540.697 356.048H536.725V360.02H540.697V356.048Z" fill="#161D27"/>
<path d="M540.697 362.706H536.725V366.678H540.697V362.706Z" fill="#161D27"/>
<path d="M540.697 369.364H536.725V373.336H540.697V369.364Z" fill="#161D27"/>
<path d="M540.697 376.022H536.725V379.994H540.697V376.022Z" fill="#161D27"/>
<path d="M540.697 382.681H536.725V386.653H540.697V382.681Z" fill="#161D27"/>
<path d="M540.697 389.34H536.725V393.312H540.697V389.34Z" fill="#161D27"/>
<path d="M540.697 395.998H536.725V399.97H540.697V395.998Z" fill="#161D27"/>
<path d="M540.697 402.656H536.725V406.628H540.697V402.656Z" fill="#161D27"/>
<path d="M540.697 409.314H536.725V413.286H540.697V409.314Z" fill="#161D27"/>
<path d="M540.697 415.972H536.725V419.944H540.697V415.972Z" fill="#161D27"/>
<path d="M540.697 422.63H536.725V426.602H540.697V422.63Z" fill="#161D27"/>
<path d="M540.697 429.288H536.725V433.26H540.697V429.288Z" fill="#161D27"/>
<path d="M540.697 435.948H536.725V439.92H540.697V435.948Z" fill="#161D27"/>
<path d="M534.389 356.048H530.417V360.02H534.389V356.048Z" fill="#161D27"/>
<path d="M534.389 362.706H530.417V366.678H534.389V362.706Z" fill="#161D27"/>
<path d="M534.389 369.364H530.417V373.336H534.389V369.364Z" fill="#161D27"/>
<path d="M534.389 376.022H530.417V379.994H534.389V376.022Z" fill="#161D27"/>
<path d="M534.389 382.681H530.417V386.653H534.389V382.681Z" fill="#161D27"/>
<path d="M534.389 389.34H530.417V393.312H534.389V389.34Z" fill="#161D27"/>
<path d="M534.389 395.998H530.417V399.97H534.389V395.998Z" fill="#161D27"/>
<path d="M534.389 402.656H530.417V406.628H534.389V402.656Z" fill="#161D27"/>
<path d="M534.389 409.314H530.417V413.286H534.389V409.314Z" fill="#161D27"/>
<path d="M534.389 415.972H530.417V419.944H534.389V415.972Z" fill="#161D27"/>
<path d="M534.389 422.63H530.417V426.602H534.389V422.63Z" fill="#161D27"/>
<path d="M534.389 429.288H530.417V433.26H534.389V429.288Z" fill="#161D27"/>
<path d="M534.389 435.948H530.417V439.92H534.389V435.948Z" fill="#161D27"/>
<path d="M528.08 356.048H524.108V360.02H528.08V356.048Z" fill="#161D27"/>
<path d="M528.08 362.706H524.108V366.678H528.08V362.706Z" fill="#161D27"/>
<path d="M528.08 369.364H524.108V373.336H528.08V369.364Z" fill="#161D27"/>
<path d="M528.08 376.022H524.108V379.994H528.08V376.022Z" fill="#161D27"/>
<path d="M528.08 382.681H524.108V386.653H528.08V382.681Z" fill="#161D27"/>
<path d="M528.08 389.34H524.108V393.312H528.08V389.34Z" fill="#161D27"/>
<path d="M528.08 395.998H524.108V399.97H528.08V395.998Z" fill="#161D27"/>
<path d="M528.08 402.656H524.108V406.628H528.08V402.656Z" fill="#161D27"/>
<path d="M528.08 409.314H524.108V413.286H528.08V409.314Z" fill="#161D27"/>
<path d="M528.08 415.972H524.108V419.944H528.08V415.972Z" fill="#161D27"/>
<path d="M528.08 422.63H524.108V426.602H528.08V422.63Z" fill="#161D27"/>
<path d="M528.08 429.288H524.108V433.26H528.08V429.288Z" fill="#161D27"/>
<path d="M528.08 435.948H524.108V439.92H528.08V435.948Z" fill="#161D27"/>
<path d="M528.08 442.606H524.108V446.578H528.08V442.606Z" fill="#161D27"/>
<path d="M493.037 358.034H489.065V362.006H493.037V358.034Z" fill="#161D27"/>
<path d="M493.037 364.692H489.065V368.664H493.037V364.692Z" fill="#161D27"/>
<path d="M493.037 371.351H489.065V375.323H493.037V371.351Z" fill="#161D27"/>
<path d="M493.037 378.008H489.065V381.98H493.037V378.008Z" fill="#161D27"/>
<path d="M493.037 384.667H489.065V388.638H493.037V384.667Z" fill="#161D27"/>
<path d="M493.037 391.326H489.065V395.298H493.037V391.326Z" fill="#161D27"/>
<path d="M493.037 397.984H489.065V401.956H493.037V397.984Z" fill="#161D27"/>
<path d="M493.037 404.642H489.065V408.614H493.037V404.642Z" fill="#161D27"/>
<path d="M493.037 411.3H489.065V415.272H493.037V411.3Z" fill="#161D27"/>
<path d="M493.037 417.958H489.065V421.93H493.037V417.958Z" fill="#161D27"/>
<path d="M493.037 437.934H489.065V441.906H493.037V437.934Z" fill="#161D27"/>
<path d="M486.73 358.034H482.758V362.006H486.73V358.034Z" fill="#161D27"/>
<path d="M486.73 364.692H482.758V368.664H486.73V364.692Z" fill="#161D27"/>
<path d="M486.73 371.351H482.758V375.323H486.73V371.351Z" fill="#161D27"/>
<path d="M486.73 378.008H482.758V381.98H486.73V378.008Z" fill="#161D27"/>
<path d="M486.73 384.667H482.758V388.638H486.73V384.667Z" fill="#161D27"/>
<path d="M486.73 391.326H482.758V395.298H486.73V391.326Z" fill="#161D27"/>
<path d="M486.73 397.984H482.758V401.956H486.73V397.984Z" fill="#161D27"/>
<path d="M486.73 404.642H482.758V408.614H486.73V404.642Z" fill="#161D27"/>
<path d="M486.73 411.3H482.758V415.272H486.73V411.3Z" fill="#161D27"/>
<path d="M486.73 431.274H482.758V435.246H486.73V431.274Z" fill="#161D27"/>
<path d="M486.73 437.934H482.758V441.906H486.73V437.934Z" fill="#161D27"/>
<path d="M480.421 358.034H476.449V362.006H480.421V358.034Z" fill="#161D27"/>
<path d="M480.421 364.692H476.449V368.664H480.421V364.692Z" fill="#161D27"/>
<path d="M480.421 371.351H476.449V375.323H480.421V371.351Z" fill="#161D27"/>
<path d="M480.421 378.008H476.449V381.98H480.421V378.008Z" fill="#161D27"/>
<path d="M480.421 384.667H476.449V388.638H480.421V384.667Z" fill="#161D27"/>
<path d="M480.421 391.326H476.449V395.298H480.421V391.326Z" fill="#161D27"/>
<path d="M480.421 397.984H476.449V401.956H480.421V397.984Z" fill="#161D27"/>
<path d="M480.421 404.642H476.449V408.614H480.421V404.642Z" fill="#161D27"/>
<path d="M480.421 424.616H476.449V428.588H480.421V424.616Z" fill="#161D27"/>
<path d="M480.421 431.274H476.449V435.246H480.421V431.274Z" fill="#161D27"/>
<path d="M480.421 437.934H476.449V441.906H480.421V437.934Z" fill="#161D27"/>
<path d="M421.782 256.875H417.81V260.846H421.782V256.875Z" fill="#161D27"/>
<path d="M421.782 263.533H417.81V267.505H421.782V263.533Z" fill="#161D27"/>
<path d="M421.782 270.191H417.81V274.163H421.782V270.191Z" fill="#161D27"/>
<path d="M421.782 276.849H417.81V280.821H421.782V276.849Z" fill="#161D27"/>
<path d="M421.782 283.508H417.81V287.48H421.782V283.508Z" fill="#161D27"/>
<path d="M421.782 290.166H417.81V294.138H421.782V290.166Z" fill="#161D27"/>
<path d="M421.782 296.824H417.81V300.796H421.782V296.824Z" fill="#161D27"/>
<path d="M421.782 303.482H417.81V307.454H421.782V303.482Z" fill="#161D27"/>
<path d="M421.782 310.14H417.81V314.112H421.782V310.14Z" fill="#161D27"/>
<path d="M421.782 316.799H417.81V320.771H421.782V316.799Z" fill="#161D27"/>
<path d="M421.782 323.457H417.81V327.428H421.782V323.457Z" fill="#161D27"/>
<path d="M421.782 330.116H417.81V334.088H421.782V330.116Z" fill="#161D27"/>
<path d="M421.782 336.774H417.81V340.746H421.782V336.774Z" fill="#161D27"/>
<path d="M421.782 343.432H417.81V347.404H421.782V343.432Z" fill="#161D27"/>
<path d="M421.782 350.09H417.81V354.062H421.782V350.09Z" fill="#161D27"/>
<path d="M421.782 356.748H417.81V360.72H421.782V356.748Z" fill="#161D27"/>
<path d="M421.782 363.406H417.81V367.378H421.782V363.406Z" fill="#161D27"/>
<path d="M421.782 376.724H417.81V380.696H421.782V376.724Z" fill="#161D27"/>
<path d="M421.782 383.382H417.81V387.354H421.782V383.382Z" fill="#161D27"/>
<path d="M421.782 390.04H417.81V394.012H421.782V390.04Z" fill="#161D27"/>
<path d="M421.782 396.698H417.81V400.67H421.782V396.698Z" fill="#161D27"/>
<path d="M421.782 403.356H417.81V407.328H421.782V403.356Z" fill="#161D27"/>
<path d="M415.474 256.875H411.502V260.846H415.474V256.875Z" fill="#161D27"/>
<path d="M415.474 263.533H411.502V267.505H415.474V263.533Z" fill="#161D27"/>
<path d="M415.474 270.191H411.502V274.163H415.474V270.191Z" fill="#161D27"/>
<path d="M415.474 276.849H411.502V280.821H415.474V276.849Z" fill="#161D27"/>
<path d="M415.474 283.508H411.502V287.48H415.474V283.508Z" fill="#161D27"/>
<path d="M415.474 290.166H411.502V294.138H415.474V290.166Z" fill="#161D27"/>
<path d="M415.474 296.824H411.502V300.796H415.474V296.824Z" fill="#161D27"/>
<path d="M415.474 303.482H411.502V307.454H415.474V303.482Z" fill="#161D27"/>
<path d="M415.474 310.14H411.502V314.112H415.474V310.14Z" fill="#161D27"/>
<path d="M415.474 316.799H411.502V320.771H415.474V316.799Z" fill="#161D27"/>
<path d="M415.474 323.457H411.502V327.428H415.474V323.457Z" fill="#161D27"/>
<path d="M415.474 330.116H411.502V334.088H415.474V330.116Z" fill="#161D27"/>
<path d="M415.474 336.774H411.502V340.746H415.474V336.774Z" fill="#161D27"/>
<path d="M415.474 343.432H411.502V347.404H415.474V343.432Z" fill="#161D27"/>
<path d="M415.474 350.09H411.502V354.062H415.474V350.09Z" fill="#161D27"/>
<path d="M415.474 356.748H411.502V360.72H415.474V356.748Z" fill="#161D27"/>
<path d="M415.474 396.698H411.502V400.67H415.474V396.698Z" fill="#161D27"/>
<path d="M415.474 403.356H411.502V407.328H415.474V403.356Z" fill="#161D27"/>
<path d="M409.165 256.875H405.193V260.846H409.165V256.875Z" fill="#161D27"/>
<path d="M409.165 263.533H405.193V267.505H409.165V263.533Z" fill="#161D27"/>
<path d="M409.165 270.191H405.193V274.163H409.165V270.191Z" fill="#161D27"/>
<path d="M409.165 276.849H405.193V280.821H409.165V276.849Z" fill="#161D27"/>
<path d="M409.165 283.508H405.193V287.48H409.165V283.508Z" fill="#161D27"/>
<path d="M409.165 290.166H405.193V294.138H409.165V290.166Z" fill="#161D27"/>
<path d="M409.165 296.824H405.193V300.796H409.165V296.824Z" fill="#161D27"/>
<path d="M409.165 303.482H405.193V307.454H409.165V303.482Z" fill="#161D27"/>
<path d="M409.165 310.14H405.193V314.112H409.165V310.14Z" fill="#161D27"/>
<path d="M409.165 316.799H405.193V320.771H409.165V316.799Z" fill="#161D27"/>
<path d="M409.165 323.457H405.193V327.428H409.165V323.457Z" fill="#161D27"/>
<path d="M409.165 330.116H405.193V334.088H409.165V330.116Z" fill="#161D27"/>
<path d="M409.165 336.774H405.193V340.746H409.165V336.774Z" fill="#161D27"/>
<path d="M409.165 343.432H405.193V347.404H409.165V343.432Z" fill="#161D27"/>
<path d="M409.165 350.09H405.193V354.062H409.165V350.09Z" fill="#161D27"/>
<path d="M409.165 356.748H405.193V360.72H409.165V356.748Z" fill="#161D27"/>
<path d="M409.165 370.066H405.193V374.038H409.165V370.066Z" fill="#161D27"/>
<path d="M409.165 376.724H405.193V380.696H409.165V376.724Z" fill="#161D27"/>
<path d="M409.165 383.382H405.193V387.354H409.165V383.382Z" fill="#161D27"/>
<path d="M409.165 390.04H405.193V394.012H409.165V390.04Z" fill="#161D27"/>
<path d="M409.165 403.356H405.193V407.328H409.165V403.356Z" fill="#161D27"/>
<path d="M444.676 340.746H440.704V344.718H444.676V340.746Z" fill="#161D27"/>
<path d="M444.676 347.404H440.704V351.376H444.676V347.404Z" fill="#161D27"/>
<path d="M444.676 354.062H440.704V358.034H444.676V354.062Z" fill="#161D27"/>
<path d="M444.676 360.72H440.704V364.692H444.676V360.72Z" fill="#161D27"/>
<path d="M444.676 367.378H440.704V371.35H444.676V367.378Z" fill="#161D27"/>
<path d="M444.676 374.036H440.704V378.008H444.676V374.036Z" fill="#161D27"/>
<path d="M444.676 380.695H440.704V384.667H444.676V380.695Z" fill="#161D27"/>
<path d="M444.676 394.012H440.704V397.984H444.676V394.012Z" fill="#161D27"/>
<path d="M444.676 400.67H440.704V404.642H444.676V400.67Z" fill="#161D27"/>
<path d="M444.676 407.328H440.704V411.3H444.676V407.328Z" fill="#161D27"/>
<path d="M444.676 413.986H440.704V417.958H444.676V413.986Z" fill="#161D27"/>
<path d="M444.676 420.644H440.704V424.616H444.676V420.644Z" fill="#161D27"/>
<path d="M444.676 427.303H440.704V431.275H444.676V427.303Z" fill="#161D27"/>
<path d="M444.676 433.961H440.704V437.933H444.676V433.961Z" fill="#161D27"/>
<path d="M444.676 440.62H440.704V444.592H444.676V440.62Z" fill="#161D27"/>
<path d="M438.368 340.746H434.396V344.718H438.368V340.746Z" fill="#161D27"/>
<path d="M438.368 347.404H434.396V351.376H438.368V347.404Z" fill="#161D27"/>
<path d="M438.368 354.062H434.396V358.034H438.368V354.062Z" fill="#161D27"/>
<path d="M438.368 360.72H434.396V364.692H438.368V360.72Z" fill="#161D27"/>
<path d="M438.368 367.378H434.396V371.35H438.368V367.378Z" fill="#161D27"/>
<path d="M438.368 374.036H434.396V378.008H438.368V374.036Z" fill="#161D27"/>
<path d="M438.368 394.012H434.396V397.984H438.368V394.012Z" fill="#161D27"/>
<path d="M438.368 400.67H434.396V404.642H438.368V400.67Z" fill="#161D27"/>
<path d="M438.368 407.328H434.396V411.3H438.368V407.328Z" fill="#161D27"/>
<path d="M438.368 413.986H434.396V417.958H438.368V413.986Z" fill="#161D27"/>
<path d="M438.368 420.644H434.396V424.616H438.368V420.644Z" fill="#161D27"/>
<path d="M438.368 427.303H434.396V431.275H438.368V427.303Z" fill="#161D27"/>
<path d="M438.368 433.961H434.396V437.933H438.368V433.961Z" fill="#161D27"/>
<path d="M438.368 440.62H434.396V444.592H438.368V440.62Z" fill="#161D27"/>
<path d="M432.06 340.746H428.088V344.718H432.06V340.746Z" fill="#161D27"/>
<path d="M432.06 347.404H428.088V351.376H432.06V347.404Z" fill="#161D27"/>
<path d="M432.06 354.062H428.088V358.034H432.06V354.062Z" fill="#161D27"/>
<path d="M432.06 360.72H428.088V364.692H432.06V360.72Z" fill="#161D27"/>
<path d="M432.06 367.378H428.088V371.35H432.06V367.378Z" fill="#161D27"/>
<path d="M432.06 374.036H428.088V378.008H432.06V374.036Z" fill="#161D27"/>
<path d="M432.06 387.354H428.088V391.326H432.06V387.354Z" fill="#161D27"/>
<path d="M432.06 394.012H428.088V397.984H432.06V394.012Z" fill="#161D27"/>
<path d="M432.06 400.67H428.088V404.642H432.06V400.67Z" fill="#161D27"/>
<path d="M432.06 407.328H428.088V411.3H432.06V407.328Z" fill="#161D27"/>
<path d="M432.06 413.986H428.088V417.958H432.06V413.986Z" fill="#161D27"/>
<path d="M432.06 420.644H428.088V424.616H432.06V420.644Z" fill="#161D27"/>
<path d="M432.06 427.303H428.088V431.275H432.06V427.303Z" fill="#161D27"/>
<path d="M432.06 433.961H428.088V437.933H432.06V433.961Z" fill="#161D27"/>
<path d="M432.06 440.62H428.088V444.592H432.06V440.62Z" fill="#161D27"/>
<path d="M299.129 303.482H295.157V307.454H299.129V303.482Z" fill="#161D27"/>
<path d="M299.129 310.14H295.157V314.112H299.129V310.14Z" fill="#161D27"/>
<path d="M299.129 316.799H295.157V320.771H299.129V316.799Z" fill="#161D27"/>
<path d="M299.129 323.457H295.157V327.428H299.129V323.457Z" fill="#161D27"/>
<path d="M299.129 330.116H295.157V334.088H299.129V330.116Z" fill="#161D27"/>
<path d="M299.129 336.774H295.157V340.746H299.129V336.774Z" fill="#161D27"/>
<path d="M299.129 343.432H295.157V347.404H299.129V343.432Z" fill="#161D27"/>
<path d="M299.129 350.09H295.157V354.062H299.129V350.09Z" fill="#161D27"/>
<path d="M299.129 356.748H295.157V360.72H299.129V356.748Z" fill="#161D27"/>
<path d="M299.129 363.406H295.157V367.378H299.129V363.406Z" fill="#161D27"/>
<path d="M299.129 370.066H295.157V374.038H299.129V370.066Z" fill="#161D27"/>
<path d="M299.129 376.724H295.157V380.696H299.129V376.724Z" fill="#161D27"/>
<path d="M299.129 383.382H295.157V387.354H299.129V383.382Z" fill="#161D27"/>
<path d="M299.129 396.698H295.157V400.67H299.129V396.698Z" fill="#161D27"/>
<path d="M299.129 403.356H295.157V407.328H299.129V403.356Z" fill="#161D27"/>
<path d="M299.129 410.016H295.157V413.988H299.129V410.016Z" fill="#161D27"/>
<path d="M299.129 416.674H295.157V420.646H299.129V416.674Z" fill="#161D27"/>
<path d="M299.129 429.99H295.157V433.962H299.129V429.99Z" fill="#161D27"/>
<path d="M299.129 436.648H295.157V440.62H299.129V436.648Z" fill="#161D27"/>
<path d="M299.129 443.306H295.157V447.278H299.129V443.306Z" fill="#161D27"/>
<path d="M292.822 303.482H288.85V307.454H292.822V303.482Z" fill="#161D27"/>
<path d="M292.822 310.14H288.85V314.112H292.822V310.14Z" fill="#161D27"/>
<path d="M292.822 316.799H288.85V320.771H292.822V316.799Z" fill="#161D27"/>
<path d="M292.822 323.457H288.85V327.428H292.822V323.457Z" fill="#161D27"/>
<path d="M292.822 330.116H288.85V334.088H292.822V330.116Z" fill="#161D27"/>
<path d="M292.822 336.774H288.85V340.746H292.822V336.774Z" fill="#161D27"/>
<path d="M292.822 343.432H288.85V347.404H292.822V343.432Z" fill="#161D27"/>
<path d="M292.822 350.09H288.85V354.062H292.822V350.09Z" fill="#161D27"/>
<path d="M292.822 356.748H288.85V360.72H292.822V356.748Z" fill="#161D27"/>
<path d="M292.822 363.406H288.85V367.378H292.822V363.406Z" fill="#161D27"/>
<path d="M292.822 370.066H288.85V374.038H292.822V370.066Z" fill="#161D27"/>
<path d="M292.822 376.724H288.85V380.696H292.822V376.724Z" fill="#161D27"/>
<path d="M292.822 383.382H288.85V387.354H292.822V383.382Z" fill="#161D27"/>
<path d="M292.822 403.356H288.85V407.328H292.822V403.356Z" fill="#161D27"/>
<path d="M292.822 410.016H288.85V413.988H292.822V410.016Z" fill="#161D27"/>
<path d="M292.822 423.332H288.85V427.304H292.822V423.332Z" fill="#161D27"/>
<path d="M292.822 429.99H288.85V433.962H292.822V429.99Z" fill="#161D27"/>
<path d="M292.822 436.648H288.85V440.62H292.822V436.648Z" fill="#161D27"/>
<path d="M292.822 443.306H288.85V447.278H292.822V443.306Z" fill="#161D27"/>
<path d="M286.513 303.482H282.541V307.454H286.513V303.482Z" fill="#161D27"/>
<path d="M286.513 310.14H282.541V314.112H286.513V310.14Z" fill="#161D27"/>
<path d="M286.513 316.799H282.541V320.771H286.513V316.799Z" fill="#161D27"/>
<path d="M286.513 323.457H282.541V327.428H286.513V323.457Z" fill="#161D27"/>
<path d="M286.513 330.116H282.541V334.088H286.513V330.116Z" fill="#161D27"/>
<path d="M286.513 336.774H282.541V340.746H286.513V336.774Z" fill="#161D27"/>
<path d="M286.513 343.432H282.541V347.404H286.513V343.432Z" fill="#161D27"/>
<path d="M286.513 350.09H282.541V354.062H286.513V350.09Z" fill="#161D27"/>
<path d="M286.513 356.748H282.541V360.72H286.513V356.748Z" fill="#161D27"/>
<path d="M286.513 363.406H282.541V367.378H286.513V363.406Z" fill="#161D27"/>
<path d="M286.513 370.066H282.541V374.038H286.513V370.066Z" fill="#161D27"/>
<path d="M286.513 376.724H282.541V380.696H286.513V376.724Z" fill="#161D27"/>
<path d="M286.513 383.382H282.541V387.354H286.513V383.382Z" fill="#161D27"/>
<path d="M286.513 390.04H282.541V394.012H286.513V390.04Z" fill="#161D27"/>
<path d="M286.513 403.356H282.541V407.328H286.513V403.356Z" fill="#161D27"/>
<path d="M286.513 416.674H282.541V420.646H286.513V416.674Z" fill="#161D27"/>
<path d="M286.513 423.332H282.541V427.304H286.513V423.332Z" fill="#161D27"/>
<path d="M286.513 429.99H282.541V433.962H286.513V429.99Z" fill="#161D27"/>
<path d="M286.513 436.648H282.541V440.62H286.513V436.648Z" fill="#161D27"/>
<path d="M286.513 443.306H282.541V447.278H286.513V443.306Z" fill="#161D27"/>
<path d="M324.827 341.446H320.855V345.418H324.827V341.446Z" fill="#161D27"/>
<path d="M324.827 348.104H320.855V352.076H324.827V348.104Z" fill="#161D27"/>
<path d="M324.827 354.764H320.855V358.736H324.827V354.764Z" fill="#161D27"/>
<path d="M324.827 361.421H320.855V365.393H324.827V361.421Z" fill="#161D27"/>
<path d="M324.827 368.08H320.855V372.052H324.827V368.08Z" fill="#161D27"/>
<path d="M324.827 374.738H320.855V378.71H324.827V374.738Z" fill="#161D27"/>
<path d="M324.827 394.712H320.855V398.684H324.827V394.712Z" fill="#161D27"/>
<path d="M324.827 401.372H320.855V405.344H324.827V401.372Z" fill="#161D27"/>
<path d="M324.827 408.029H320.855V412.001H324.827V408.029Z" fill="#161D27"/>
<path d="M324.827 414.688H320.855V418.659H324.827V414.688Z" fill="#161D27"/>
<path d="M324.827 421.345H320.855V425.317H324.827V421.345Z" fill="#161D27"/>
<path d="M324.827 428.003H320.855V431.975H324.827V428.003Z" fill="#161D27"/>
<path d="M324.827 434.662H320.855V438.634H324.827V434.662Z" fill="#161D27"/>
<path d="M318.521 341.446H314.549V345.418H318.521V341.446Z" fill="#161D27"/>
<path d="M318.521 348.104H314.549V352.076H318.521V348.104Z" fill="#161D27"/>
<path d="M318.521 354.764H314.549V358.736H318.521V354.764Z" fill="#161D27"/>
<path d="M318.521 361.421H314.549V365.393H318.521V361.421Z" fill="#161D27"/>
<path d="M318.521 368.08H314.549V372.052H318.521V368.08Z" fill="#161D27"/>
<path d="M318.521 374.738H314.549V378.71H318.521V374.738Z" fill="#161D27"/>
<path d="M318.521 394.712H314.549V398.684H318.521V394.712Z" fill="#161D27"/>
<path d="M318.521 401.372H314.549V405.344H318.521V401.372Z" fill="#161D27"/>
<path d="M318.521 408.029H314.549V412.001H318.521V408.029Z" fill="#161D27"/>
<path d="M318.521 414.688H314.549V418.659H318.521V414.688Z" fill="#161D27"/>
<path d="M318.521 421.345H314.549V425.317H318.521V421.345Z" fill="#161D27"/>
<path d="M318.521 428.003H314.549V431.975H318.521V428.003Z" fill="#161D27"/>
<path d="M318.521 441.321H314.549V445.293H318.521V441.321Z" fill="#161D27"/>
<path d="M108.959 312.126H104.987V316.098H108.959V312.126Z" fill="#161D27"/>
<path d="M108.959 318.785H104.987V322.757H108.959V318.785Z" fill="#161D27"/>
<path d="M108.959 325.442H104.987V329.414H108.959V325.442Z" fill="#161D27"/>
<path d="M108.959 332.102H104.987V336.074H108.959V332.102Z" fill="#161D27"/>
<path d="M108.959 338.76H104.987V342.732H108.959V338.76Z" fill="#161D27"/>
<path d="M108.959 345.418H104.987V349.39H108.959V345.418Z" fill="#161D27"/>
<path d="M108.959 352.076H104.987V356.048H108.959V352.076Z" fill="#161D27"/>
<path d="M108.959 358.734H104.987V362.706H108.959V358.734Z" fill="#161D27"/>
<path d="M108.959 365.393H104.987V369.365H108.959V365.393Z" fill="#161D27"/>
<path d="M108.959 372.052H104.987V376.024H108.959V372.052Z" fill="#161D27"/>
<path d="M108.959 378.709H104.987V382.681H108.959V378.709Z" fill="#161D27"/>
<path d="M108.959 392.026H104.987V395.998H108.959V392.026Z" fill="#161D27"/>
<path d="M108.959 398.684H104.987V402.656H108.959V398.684Z" fill="#161D27"/>
<path d="M108.959 405.342H104.987V409.314H108.959V405.342Z" fill="#161D27"/>
<path d="M108.959 412H104.987V415.972H108.959V412Z" fill="#161D27"/>
<path d="M108.959 418.66H104.987V422.632H108.959V418.66Z" fill="#161D27"/>
<path d="M108.959 425.317H104.987V429.289H108.959V425.317Z" fill="#161D27"/>
<path d="M108.959 431.976H104.987V435.948H108.959V431.976Z" fill="#161D27"/>
<path d="M108.959 438.634H104.987V442.606H108.959V438.634Z" fill="#161D27"/>
<path d="M102.651 312.126H98.6787V316.098H102.651V312.126Z" fill="#161D27"/>
<path d="M102.651 318.785H98.6787V322.757H102.651V318.785Z" fill="#161D27"/>
<path d="M102.651 325.442H98.6787V329.414H102.651V325.442Z" fill="#161D27"/>
<path d="M102.651 332.102H98.6787V336.074H102.651V332.102Z" fill="#161D27"/>
<path d="M102.651 338.76H98.6787V342.732H102.651V338.76Z" fill="#161D27"/>
<path d="M102.651 345.418H98.6787V349.39H102.651V345.418Z" fill="#161D27"/>
<path d="M102.651 352.076H98.6787V356.048H102.651V352.076Z" fill="#161D27"/>
<path d="M102.651 358.734H98.6787V362.706H102.651V358.734Z" fill="#161D27"/>
<path d="M102.651 365.393H98.6787V369.365H102.651V365.393Z" fill="#161D27"/>
<path d="M102.651 372.052H98.6787V376.024H102.651V372.052Z" fill="#161D27"/>
<path d="M102.651 378.709H98.6787V382.681H102.651V378.709Z" fill="#161D27"/>
<path d="M102.651 385.368H98.6787V389.34H102.651V385.368Z" fill="#161D27"/>
<path d="M102.651 392.026H98.6787V395.998H102.651V392.026Z" fill="#161D27"/>
<path d="M102.651 398.684H98.6787V402.656H102.651V398.684Z" fill="#161D27"/>
<path d="M102.651 405.342H98.6787V409.314H102.651V405.342Z" fill="#161D27"/>
<path d="M102.651 412H98.6787V415.972H102.651V412Z" fill="#161D27"/>
<path d="M102.651 418.66H98.6787V422.632H102.651V418.66Z" fill="#161D27"/>
<path d="M102.651 425.317H98.6787V429.289H102.651V425.317Z" fill="#161D27"/>
<path d="M102.651 431.976H98.6787V435.948H102.651V431.976Z" fill="#161D27"/>
<path d="M102.651 438.634H98.6787V442.606H102.651V438.634Z" fill="#161D27"/>
<path d="M140.032 338.059H136.06V342.031H140.032V338.059Z" fill="#161D27"/>
<path d="M140.032 344.716H136.06V348.688H140.032V344.716Z" fill="#161D27"/>
<path d="M140.032 351.375H136.06V355.346H140.032V351.375Z" fill="#161D27"/>
<path d="M140.032 358.034H136.06V362.006H140.032V358.034Z" fill="#161D27"/>
<path d="M140.032 364.692H136.06V368.664H140.032V364.692Z" fill="#161D27"/>
<path d="M140.032 371.351H136.06V375.323H140.032V371.351Z" fill="#161D27"/>
<path d="M140.032 378.008H136.06V381.98H140.032V378.008Z" fill="#161D27"/>
<path d="M140.032 384.667H136.06V388.638H140.032V384.667Z" fill="#161D27"/>
<path d="M140.032 391.326H136.06V395.298H140.032V391.326Z" fill="#161D27"/>
<path d="M140.032 397.984H136.06V401.956H140.032V397.984Z" fill="#161D27"/>
<path d="M133.724 338.059H129.752V342.031H133.724V338.059Z" fill="#161D27"/>
<path d="M133.724 344.716H129.752V348.688H133.724V344.716Z" fill="#161D27"/>
<path d="M133.724 351.375H129.752V355.346H133.724V351.375Z" fill="#161D27"/>
<path d="M133.724 358.034H129.752V362.006H133.724V358.034Z" fill="#161D27"/>
<path d="M133.724 364.692H129.752V368.664H133.724V364.692Z" fill="#161D27"/>
<path d="M133.724 371.351H129.752V375.323H133.724V371.351Z" fill="#161D27"/>
<path d="M133.724 378.008H129.752V381.98H133.724V378.008Z" fill="#161D27"/>
<path d="M133.724 384.667H129.752V388.638H133.724V384.667Z" fill="#161D27"/>
<path d="M133.724 391.326H129.752V395.298H133.724V391.326Z" fill="#161D27"/>
<path d="M297.827 543.122C447.169 543.122 568.235 536.052 568.235 527.33C568.235 518.609 447.169 511.539 297.827 511.539C148.485 511.539 27.4199 518.609 27.4199 527.33C27.4199 536.052 148.485 543.122 297.827 543.122Z" fill="#2D5B5E"/>
<path d="M375.747 58.3945C375.747 58.3945 376.247 83.7744 387.428 85.9807C398.609 88.1871 413.963 58.3945 413.963 58.3945C413.963 58.3945 404.603 87.9681 407.674 92.4924C410.746 97.0166 450.468 79.3603 450.468 79.3603C450.468 79.3603 426.431 107.669 429.071 112.549C431.711 117.429 450.468 115.222 450.468 115.222C450.468 115.222 430.936 117.981 430.22 127.36C429.505 136.739 471.437 149.429 471.437 149.429C471.437 149.429 431.948 147.221 429.071 153.843C426.194 160.463 438.333 175.558 438.333 175.558C438.333 175.558 427.47 162.795 416.953 164.878C406.436 166.961 419.741 214.512 419.741 214.512C419.741 214.512 394.867 183.212 389.014 183.147C383.159 183.083 381.323 208.554 381.323 208.554C381.323 208.554 378.953 183.513 374.161 183.574C369.368 183.636 362.479 214.512 362.479 214.512C362.479 214.512 367.178 181.609 362.479 179.588C357.781 177.567 325.88 217.984 325.88 217.984C325.88 217.984 343.586 173.633 341.581 170.082C339.575 166.532 309.253 179.5 309.253 179.5C309.253 179.5 333.506 160.462 331.299 152.738C329.093 145.015 281.092 144.463 281.092 144.463C281.092 144.463 321.566 137.29 325.881 132.876C330.196 128.462 301.996 102.531 301.996 102.531C301.996 102.531 332.317 110.807 335.946 108.601C339.575 106.394 325.372 74.394 320.06 66.669C320.06 66.669 343.437 94.0362 350.61 92.491C357.782 90.9457 356.753 64.4627 356.753 64.4627C356.753 64.4627 364.955 80.4621 370.472 80.4621C375.988 80.4635 375.747 58.3945 375.747 58.3945Z" fill="#40FCFF"/>
<path opacity="0.4" d="M423.248 141.276C428.641 118.433 414.496 95.5432 391.654 90.1494C368.811 84.7556 345.921 98.9006 340.527 121.743C335.133 144.586 349.278 167.476 372.121 172.87C394.964 178.264 417.854 164.119 423.248 141.276Z" fill="white"/>
<path d="M568.236 436.955H18.5527V508.76H568.236V436.955Z" fill="#263238"/>
<path opacity="0.6" d="M568.236 436.955H18.5527V508.76H568.236V436.955Z" fill="#317778"/>
<path opacity="0.2" d="M77.5813 446.274H27.4199V461.787H77.5813V446.274Z" fill="white"/>
<path opacity="0.2" d="M130.112 446.274H79.9502V461.787H130.112V446.274Z" fill="white"/>
<path opacity="0.2" d="M253.803 469.913H203.642V485.426H253.803V469.913Z" fill="white"/>
<path opacity="0.2" d="M347.086 444.387H296.925V459.899H347.086V444.387Z" fill="white"/>
<path opacity="0.2" d="M374.655 463.201H324.493V478.713H374.655V463.201Z" fill="white"/>
<path opacity="0.2" d="M557.827 488.557H507.666V504.069H557.827V488.557Z" fill="white"/>
<path opacity="0.2" d="M504.032 488.812H453.87V504.324H504.032V488.812Z" fill="white"/>
<path opacity="0.2" d="M529.113 469.913H478.951V485.426H529.113V469.913Z" fill="white"/>
<path opacity="0.2" d="M102.662 463.201H52.501V478.713H102.662V463.201Z" fill="white"/>
<path opacity="0.2" d="M232.296 488.557H182.135V504.069H232.296V488.557Z" fill="white"/>
<path d="M571.04 426.732H16V441.596H571.04V426.732Z" fill="#263238"/>
<path opacity="0.7" d="M571.04 426.732H16V441.596H571.04V426.732Z" fill="#317778"/>
<path d="M147.214 503.461H143.204V522.992H147.214V503.461Z" fill="#407BFF"/>
<path d="M257.006 503.461H252.996V522.992H257.006V503.461Z" fill="#407BFF"/>
<path d="M303.94 369.494H285.306V523.052H303.94V369.494Z" fill="#22ACAE"/>
<path opacity="0.6" d="M147.214 503.461H143.204V522.992H147.214V503.461Z" fill="white"/>
<path opacity="0.6" d="M257.006 503.461H252.996V522.992H257.006V503.461Z" fill="white"/>
<path opacity="0.6" d="M303.908 369.402H285.274V522.96H303.908V369.402Z" fill="white"/>
<path d="M329.315 526.384H120.687L126.608 519.599H323.393L329.315 526.384Z" fill="#40FCFF"/>
<path opacity="0.2" d="M329.315 526.384H268.751L274.673 519.599H323.393L329.315 526.384Z" fill="white"/>
<path d="M203.481 358.402L138.491 507.889C137.548 510.059 139.138 512.483 141.503 512.483H252.901C254.567 512.483 256.075 511.494 256.739 509.967L321.73 360.48C322.672 358.31 321.083 355.886 318.717 355.886H207.319C205.653 355.886 204.145 356.874 203.481 358.402Z" fill="#22ACAE"/>
<path opacity="0.7" d="M202.708 359.366L137.717 508.853C136.774 511.023 138.364 513.447 140.73 513.447H252.127C253.794 513.447 255.302 512.458 255.965 510.931L320.956 361.444C321.899 359.274 320.309 356.85 317.944 356.85H206.546C204.879 356.85 203.372 357.838 202.708 359.366Z" fill="white"/>
<path opacity="0.2" d="M241.674 452.142L261.345 406.901H218.232L198.562 452.142H241.674Z" fill="black"/>
<path opacity="0.2" d="M145.433 505.403C144.505 505.403 143.755 506.155 143.755 507.081C143.755 508.007 144.507 508.758 145.433 508.758C146.359 508.758 147.11 508.007 147.11 507.081C147.11 506.155 146.36 505.403 145.433 505.403Z" fill="black"/>
<path opacity="0.2" d="M249.298 505.403C248.37 505.403 247.62 506.155 247.62 507.081C247.62 508.007 248.372 508.758 249.298 508.758C250.224 508.758 250.976 508.007 250.976 507.081C250.976 506.155 250.225 505.403 249.298 505.403Z" fill="black"/>
<path opacity="0.2" d="M209.011 360.082C208.085 360.082 207.333 360.833 207.333 361.759C207.333 362.685 208.085 363.437 209.011 363.437C209.937 363.437 210.689 362.685 210.689 361.759C210.689 360.833 209.937 360.082 209.011 360.082Z" fill="black"/>
<path opacity="0.2" d="M312.876 360.082C311.95 360.082 311.198 360.833 311.198 361.759C311.198 362.685 311.95 363.437 312.876 363.437C313.802 363.437 314.554 362.685 314.554 361.759C314.554 360.833 313.802 360.082 312.876 360.082Z" fill="black"/>
<path d="M330.392 503.461H326.383V522.992H330.392V503.461Z" fill="#407BFF"/>
<path d="M440.186 503.461H436.177V522.992H440.186V503.461Z" fill="#22ACAE"/>
<path d="M487.119 369.494H468.485V523.052H487.119V369.494Z" fill="#22ACAE"/>
<path opacity="0.6" d="M330.392 503.461H326.383V522.992H330.392V503.461Z" fill="white"/>
<path opacity="0.6" d="M439.908 503.289H435.898V522.819H439.908V503.289Z" fill="white"/>
<path opacity="0.6" d="M488.004 369.402H469.37V522.96H488.004V369.402Z" fill="white"/>
<path d="M529.306 301.627L437.064 513.795H300.598L392.841 301.627H529.306Z" fill="#263238"/>
<path opacity="0.6" d="M529.306 301.627L437.064 513.795H300.598L392.841 301.627H529.306Z" fill="white"/>
<path d="M472.664 424.379H441.912L429.87 452.074H460.624L472.664 424.379Z" fill="#263238"/>
<path d="M416.603 482.59H447.356L459.396 454.896H428.644L416.603 482.59Z" fill="#263238"/>
<path d="M439.148 424.379H408.396L396.354 452.074H427.108L439.148 424.379Z" fill="#263238"/>
<path d="M512.466 332.829H481.714L469.673 360.522H500.425L512.466 332.829Z" fill="#263238"/>
<path d="M383.088 482.59H413.841L425.881 454.896H395.128L383.088 482.59Z" fill="#263238"/>
<path d="M485.93 393.861H455.178L443.137 421.558H473.89L485.93 393.861Z" fill="#263238"/>
<path d="M499.197 363.345H468.445L456.405 391.039H487.157L499.197 363.345Z" fill="#263238"/>
<path d="M373.344 421.558L385.386 393.861H355.508L343.467 421.558H373.344Z" fill="#263238"/>
<path d="M360.077 452.074L372.118 424.379H342.239L330.199 452.074H360.077Z" fill="#263238"/>
<path d="M411.921 332.829H382.042L370.001 360.522H399.88L411.921 332.829Z" fill="#263238"/>
<path d="M346.809 482.59L358.851 454.896H328.972L316.932 482.59H346.809Z" fill="#263238"/>
<path d="M386.613 391.039L398.653 363.345H368.776L356.734 391.039H386.613Z" fill="#263238"/>
<path d="M524.805 304.449H494.052L482.94 330.006H513.694L524.805 304.449Z" fill="#263238"/>
<path d="M446.128 485.412H415.375L404.264 510.97H435.017L446.128 485.412Z" fill="#263238"/>
<path d="M345.583 485.412H315.705L304.594 510.97H334.471L345.583 485.412Z" fill="#263238"/>
<path d="M413.148 330.006L424.259 304.449H394.382L383.271 330.006H413.148Z" fill="#263238"/>
<path d="M418.901 393.861H388.149L376.107 421.558H406.861L418.901 393.861Z" fill="#263238"/>
<path d="M405.633 424.379H374.881L362.84 452.074H393.593L405.633 424.379Z" fill="#263238"/>
<path d="M491.29 304.449H460.537L449.426 330.006H480.178L491.29 304.449Z" fill="#263238"/>
<path d="M412.614 485.412H381.86L370.749 510.97H401.501L412.614 485.412Z" fill="#263238"/>
<path d="M478.952 332.829H448.198L436.158 360.522H466.91L478.952 332.829Z" fill="#263238"/>
<path d="M465.684 363.345H434.932L422.892 391.039H453.644L465.684 363.345Z" fill="#263238"/>
<path d="M349.572 482.59H380.324L392.366 454.896H361.612L349.572 482.59Z" fill="#263238"/>
<path d="M367.986 510.97L379.099 485.412H348.346L337.234 510.97H367.986Z" fill="#263238"/>
<path d="M457.773 304.449H427.021L415.91 330.006H446.662L457.773 304.449Z" fill="#263238"/>
<path d="M452.416 393.861H421.663L409.622 421.558H440.376L452.416 393.861Z" fill="#263238"/>
<path d="M445.437 332.829H414.684L402.644 360.522H433.396L445.437 332.829Z" fill="#263238"/>
<path d="M432.168 363.345H401.416L389.376 391.039H420.128L432.168 363.345Z" fill="#263238"/>
<g opacity="0.1">
<path d="M480.893 301.621L358.698 380.177L392.85 301.621H480.893Z" fill="white"/>
<path d="M519.998 301.621L343.525 415.073L351.839 395.952L498.573 301.621H519.998Z" fill="white"/>
<path d="M521.386 319.846L517.223 329.423L327.825 451.169L331.99 441.592L521.386 319.846Z" fill="white"/>
</g>
<g opacity="0.1">
<path d="M444.12 497.567L437.065 513.796H418.887L444.12 497.567Z" fill="white"/>
<path d="M456.103 470.005L449.534 485.115L404.932 513.796H387.998L456.103 470.005Z" fill="white"/>
<path d="M468.477 441.542L465.201 449.08L364.537 513.796H356.078L468.477 441.542Z" fill="white"/>
</g>
<path d="M518.149 526.384H309.521L315.442 519.599H512.226L518.149 526.384Z" fill="#40FCFF"/>
<path opacity="0.2" d="M518.149 526.384H457.585L463.507 519.599H512.226L518.149 526.384Z" fill="white"/>
<path d="M258.945 490.614H227.68V492.912H231.435L239.174 502.523H240.555L232.815 492.912H258.945V490.614Z" fill="#263238"/>
<path opacity="0.2" d="M258.945 490.614H227.68V492.912H231.435L239.174 502.523H240.555L232.815 492.912H258.945V490.614Z" fill="white"/>
<path d="M300.86 482.187C298.12 474.059 291.255 470.991 291.255 470.991H244.265L238.316 473.806L247.465 500.959H294.455L300.403 498.145C300.403 498.145 303.802 490.922 300.86 482.187Z" fill="#263238"/>
<path d="M294.624 500.959H218.99V531.625H294.624V500.959Z" fill="#263238"/>
<path opacity="0.2" d="M294.624 500.959H247.621V531.625H294.624V500.959Z" fill="white"/>
<path opacity="0.2" d="M300.406 498.142H253.421C253.421 498.142 256.81 490.918 253.867 482.187C251.133 474.057 244.258 470.988 244.258 470.988H291.258C291.258 470.988 298.119 474.057 300.853 482.187C303.795 490.918 300.406 498.142 300.406 498.142Z" fill="white"/>
<path opacity="0.1" d="M300.407 498.142L294.452 500.959H247.466L253.421 498.142H300.407Z" fill="white"/>
<path opacity="0.2" d="M267.222 482.591C267.222 482.591 274.302 486.155 281.843 486.43C289.384 486.706 291.591 482.591 291.591 482.591L290.552 479.369C290.552 479.369 288.74 482.324 283.315 482.906C277.889 483.487 266.303 479.257 266.303 479.257L267.222 482.591Z" fill="black"/>
<path d="M266.303 479.257C266.303 479.257 273.752 475.579 280.464 476.222C287.176 476.865 290.552 479.368 290.552 479.368L291.591 482.59C291.591 482.59 281.496 476.34 267.222 482.59L266.303 479.257Z" fill="#263238"/>
<path d="M119.152 177.926L116.515 385.589L252.968 387.322L255.605 179.659L119.152 177.926Z" fill="#263238"/>
<path opacity="0.6" d="M119.152 177.926L116.515 385.589L252.968 387.322L255.605 179.659L119.152 177.926Z" fill="white"/>
<path d="M220.049 299.373L219.705 326.48L250.454 326.871L250.798 299.764L220.049 299.373Z" fill="#263238"/>
<path d="M219.668 329.242L219.323 356.348L250.072 356.739L250.417 329.632L219.668 329.242Z" fill="#263238"/>
<path d="M186.539 298.946L186.194 326.052L216.943 326.443L217.288 299.336L186.539 298.946Z" fill="#263238"/>
<path d="M221.193 209.769L220.849 236.875L251.598 237.266L251.942 210.16L221.193 209.769Z" fill="#263238"/>
<path d="M186.157 328.813L185.812 355.919L216.561 356.31L216.906 329.203L186.157 328.813Z" fill="#263238"/>
<path d="M220.43 269.505L220.086 296.613L250.835 297.004L251.179 269.896L220.43 269.505Z" fill="#263238"/>
<path d="M220.814 239.638L220.47 266.745L251.219 267.135L251.563 240.029L220.814 239.638Z" fill="#263238"/>
<path d="M120.773 268.232L120.429 295.34L150.305 295.72L150.649 268.612L120.773 268.232Z" fill="#263238"/>
<path d="M120.391 298.102L120.047 325.208L149.923 325.587L150.267 298.481L120.391 298.102Z" fill="#263238"/>
<path d="M121.536 208.497L121.191 235.604L151.067 235.983L151.412 208.876L121.536 208.497Z" fill="#263238"/>
<path d="M120.01 327.969L119.666 355.075L149.541 355.455L149.885 328.348L120.01 327.969Z" fill="#263238"/>
<path d="M121.156 238.366L120.812 265.473L150.686 265.852L151.03 238.746L121.156 238.366Z" fill="#263238"/>
<path d="M221.548 181.994L221.23 207.008L251.979 207.399L252.297 182.384L221.548 181.994Z" fill="#263238"/>
<path d="M219.287 359.11L218.97 384.125L249.719 384.515L250.036 359.5L219.287 359.11Z" fill="#263238"/>
<path d="M119.629 357.837L119.312 382.852L149.186 383.231L149.504 358.217L119.629 357.837Z" fill="#263238"/>
<path d="M121.89 180.721L121.572 205.735L151.448 206.115L151.766 181.1L121.89 180.721Z" fill="#263238"/>
<path d="M153.41 268.649L153.065 295.757L183.814 296.148L184.159 269.04L153.41 268.649Z" fill="#263238"/>
<path d="M153.029 298.518L152.685 325.624L183.434 326.015L183.778 298.908L153.029 298.518Z" fill="#263238"/>
<path d="M188.037 181.565L187.72 206.58L218.469 206.971L218.786 181.956L188.037 181.565Z" fill="#263238"/>
<path d="M185.776 358.682L185.458 383.697L216.207 384.087L216.525 359.073L185.776 358.682Z" fill="#263238"/>
<path d="M187.683 209.341L187.339 236.447L218.088 236.838L218.432 209.731L187.683 209.341Z" fill="#263238"/>
<path d="M187.301 239.208L186.957 266.315L217.706 266.705L218.05 239.599L187.301 239.208Z" fill="#263238"/>
<path d="M152.647 328.385L152.303 355.492L183.052 355.882L183.396 328.776L152.647 328.385Z" fill="#263238"/>
<path d="M152.267 358.256L151.949 383.271L182.698 383.661L183.016 358.646L152.267 358.256Z" fill="#263238"/>
<path d="M154.527 181.138L154.209 206.153L184.958 206.543L185.276 181.529L154.527 181.138Z" fill="#263238"/>
<path d="M186.921 269.079L186.577 296.187L217.326 296.578L217.67 269.47L186.921 269.079Z" fill="#263238"/>
<path d="M154.172 208.913L153.828 236.02L184.577 236.41L184.921 209.304L154.172 208.913Z" fill="#263238"/>
<path d="M153.791 238.781L153.446 265.887L184.195 266.278L184.54 239.171L153.791 238.781Z" fill="#263238"/>
<g opacity="0.1">
<path d="M207.217 179.047L118.2 254.814L119.181 177.925L207.217 179.047Z" fill="white"/>
<path d="M246.317 179.546L117.765 288.97L118.003 270.255L224.895 179.272L246.317 179.546Z" fill="white"/>
<path d="M255.402 197.503L255.282 206.877L117.308 324.301L117.426 314.926L255.402 197.503Z" fill="white"/>
</g>
<g opacity="0.1">
<path d="M253.184 371.454L252.981 387.339L234.806 387.107L253.184 371.454Z" fill="white"/>
<path d="M253.527 344.477L253.339 359.265L220.85 386.93L203.918 386.714L253.527 344.477Z" fill="white"/>
<path d="M253.883 316.617L253.788 323.995L180.459 386.414L172.002 386.306L253.883 316.617Z" fill="white"/>
</g>
<path d="M110.725 242.996C110.725 242.996 93.8864 250.449 88.4445 243.771C83.0025 237.092 112.789 201.839 112.789 201.839C112.789 201.839 113.271 191.476 114.749 189.653C116.227 187.83 119.558 186.095 119.558 186.095L120.664 206.472L117.575 206.756C117.575 206.756 101.611 228.233 101.903 230.085C102.194 231.937 110.746 228.052 110.746 228.052L110.725 242.996Z" fill="#E4897B"/>
<path d="M149.763 296.521C149.763 296.521 163.719 266.773 162.67 259.737C161.621 252.701 138.184 283.211 138.184 283.211L136.296 293.657L149.763 296.521Z" fill="#407BFF"/>
<path opacity="0.4" d="M149.763 296.521C149.763 296.521 163.719 266.773 162.67 259.737C161.621 252.701 138.184 283.211 138.184 283.211L136.296 293.657L149.763 296.521Z" fill="white"/>
<path opacity="0.2" d="M148.802 295.733C148.802 295.733 162.758 265.986 161.709 258.95C160.66 251.913 137.223 282.424 137.223 282.424L135.335 292.87L148.802 295.733Z" fill="black"/>
<path d="M172.452 521.906L183.404 523.054L183.958 516.707L185.457 499.434L174.505 498.272L172.844 517.355L172.452 521.906Z" fill="#E4897B"/>
<path d="M77.2715 520.516H87.8862L88.412 518.121L88.4789 517.826L91.7814 502.498L91.8512 502.189L93.1273 496.314H82.4986L77.2715 520.516Z" fill="#E4897B"/>
<path opacity="0.2" d="M174.505 498.272L172.844 517.355L183.958 516.707L185.457 499.434L174.505 498.272Z" fill="black"/>
<path opacity="0.2" d="M77.5811 519.171H77.595L88.4649 517.825H88.4789L91.6991 503.036H91.6852L80.892 503.883L77.6787 518.706L77.5811 519.171Z" fill="black"/>
<path d="M89.3571 519.875H76.4594C76.0242 519.878 75.6491 520.18 75.5542 520.604L73.4609 530.057C73.2824 530.904 73.8221 531.735 74.6686 531.913C74.7816 531.937 74.8974 531.948 75.0131 531.947C79.1859 531.88 82.2249 531.623 87.4646 531.623C90.6918 531.623 100.429 531.961 104.885 531.961C109.342 531.961 109.923 527.558 108.1 527.154C99.916 525.371 93.7572 522.9 91.1381 520.55C90.6541 520.105 90.0154 519.864 89.3571 519.875Z" fill="#263238"/>
<path d="M184.566 519.537H171.669C171.234 519.54 170.859 519.843 170.764 520.267L168.671 529.72C168.492 530.566 169.033 531.398 169.88 531.576C169.993 531.6 170.109 531.611 170.224 531.61C174.397 531.543 177.436 531.286 182.676 531.286C185.903 531.286 195.641 531.624 200.096 531.624C204.552 531.624 205.134 527.221 203.311 526.816C195.127 525.034 188.969 522.562 186.349 520.213C185.863 519.768 185.224 519.526 184.566 519.537Z" fill="#263238"/>
<path d="M186.457 512.412L170.791 512.919C176.489 408.176 179.15 402.833 128.311 353.359C127.123 368.323 125.785 383.849 124.476 396.787C123.653 404.796 123.409 411.79 122.071 416.915C113.024 451.607 91.2481 513.009 91.2481 513.009L75.96 513.691C75.96 513.691 95.0946 429.546 97.0638 402.121C99.6467 366.14 77.2709 324.688 99.0345 285.731L149.789 295.615L149.42 308.092C197.861 378.969 206.722 394.285 186.457 512.412Z" fill="#22ACAE"/>
<path d="M176.442 258.038C176.442 258.038 205.299 263.253 210.811 262.359C216.322 261.463 245.528 238.438 245.528 238.438C245.528 238.438 255.145 237.908 255.656 234.648C256.166 231.389 257.469 225.55 254.709 225.738C251.949 225.926 243.884 229.513 243.884 229.513L242.836 232.194C242.836 232.194 210.691 251.589 209.494 252.019C208.298 252.448 180.593 244.875 180.593 244.875L176.442 258.038Z" fill="#E4897B"/>
<path d="M124.229 220.176C114.747 220.176 106.595 226.292 97.9189 230.656L104.16 246.213L124.085 244.959L124.229 220.176Z" fill="#40FCFF"/>
<path d="M172.014 217.881C171.703 218.246 171.385 218.596 171.048 218.914C169.054 220.858 166.583 222.051 164.033 222.488C163.364 222.607 162.686 222.672 162.01 222.687C158.441 222.759 154.921 221.374 152.515 218.544C151.523 217.402 150.71 215.995 150.171 214.352C147.999 207.904 150.569 202.949 154.244 194.227C155.007 192.336 156.193 190.647 157.727 189.315C163.093 184.593 171.274 185.128 175.984 190.491C182.642 197.963 177.596 211.145 172.014 217.881Z" fill="#E4897B"/>
<path opacity="0.2" d="M164.033 222.49C163.364 222.608 162.686 222.674 162.009 222.689C158.441 222.76 154.92 221.376 152.515 218.546C153.915 217.199 155.442 216.409 155.442 216.409C155.442 216.409 160.894 218.112 164.033 222.49Z" fill="black"/>
<path d="M180.81 194.988C180.315 194.985 176.433 198.288 176.189 199.518C175.535 202.823 171.777 207.505 168.495 209.003C165.213 210.501 160.189 217.583 160.189 217.583C160.189 217.583 154.724 212.995 148.991 212.894C148.991 212.894 142.234 200.574 148.885 186.092L180.81 194.988Z" fill="#263238"/>
<path opacity="0.2" d="M180.81 194.988C180.315 194.985 176.433 198.288 176.189 199.518C175.535 202.823 171.777 207.505 168.495 209.003C165.213 210.501 160.189 217.583 160.189 217.583C160.189 217.583 154.724 212.995 148.991 212.894C148.991 212.894 142.234 200.574 148.885 186.092L180.81 194.988Z" fill="white"/>
<path d="M166.067 206.139C165.669 208.234 166.021 210.087 167.043 211.292C168.413 212.872 170.739 210.994 171.74 208.32C172.612 205.944 173.001 202.186 170.945 201.701C168.89 201.217 166.583 203.563 166.067 206.139Z" fill="#E4897B"/>
<path d="M173.888 197.948C173.888 197.948 174.899 220.477 157.562 220.669V221.6C157.562 221.6 173.124 223.003 176.752 199.687L173.888 197.948Z" fill="#263238"/>
<path d="M146.775 192.242C146.775 192.242 147.731 194.702 151.072 195.944C154.414 197.185 170.357 193.044 170.357 193.044L173.222 195.181C173.222 195.181 157.184 200.466 151.074 199.591C144.964 198.713 145.941 194.175 145.941 194.175L146.775 192.242Z" fill="white"/>
<path d="M138.183 222.691C140.501 228.537 157.563 230.084 157.563 230.084C157.563 230.084 157.275 228.197 157.624 225.579C157.829 224.056 158.486 222.55 159.349 221.092C159.794 220.323 160.31 219.574 160.842 218.847L149.683 212.935C147.062 217.583 144.474 220.211 138.183 222.691Z" fill="#E4897B"/>
<path d="M184.249 201.643C184.249 201.643 185.102 203.51 183.669 204.771C182.235 206.016 179.151 204.771 179.151 204.771C179.151 204.771 168.495 187.844 147.224 188.409C147.224 188.409 145.66 186.222 145.978 184.731C146.298 183.254 149.366 182.24 149.366 182.24C149.366 182.24 151.378 180.126 154.883 178.012C157.678 176.332 161.442 174.652 165.902 174.087C175.937 172.798 186.332 183.47 186.782 186.091C187.231 188.711 184.797 191.955 184.797 191.955C184.797 191.955 185.681 197.124 184.249 201.643Z" fill="#40FCFF"/>
<path opacity="0.2" d="M184.249 201.642C174.085 184.325 149.367 182.24 149.367 182.24C149.367 182.24 151.38 180.126 154.884 178.011C155.087 180.169 157.548 181.038 159.547 181.24C162.298 181.515 173.693 178.372 179.151 182.238C184.61 186.104 184.798 191.954 184.798 191.954C184.798 191.954 185.681 197.124 184.249 201.642Z" fill="black"/>
<path opacity="0.2" d="M128.313 353.299C127.124 368.262 125.787 383.82 124.477 396.758C122.56 378.081 120.21 364.764 120.21 364.764C120.21 364.764 118.009 362.954 111.957 353.299C105.907 343.63 111.957 325.614 111.957 325.614C111.768 342.359 128.313 353.299 128.313 353.299Z" fill="black"/>
<path d="M188.209 510.724L187.45 515.113H169.049V511.061L188.209 510.724Z" fill="#407BFF"/>
<path d="M93.0609 512.413L91.2952 516.464H74.5371L74.8523 512.413H93.0609Z" fill="#407BFF"/>
<path d="M174.645 236.586C183.603 241.964 190.688 247.094 190.688 247.094L184.229 260.852L158.439 256.344C158.439 256.344 160.7 250.629 165.183 243.581C169.666 236.532 174.645 236.586 174.645 236.586Z" fill="#40FCFF"/>
<path opacity="0.4" d="M188.209 510.724L187.45 515.113H169.049V511.061L188.209 510.724Z" fill="white"/>
<path opacity="0.4" d="M93.0609 512.413L91.2952 516.464H74.5371L74.8523 512.413H93.0609Z" fill="white"/>
<path d="M97.2275 287.172L114.747 290.489L113.676 294.861L95.3154 291.197L97.2275 287.172Z" fill="#263238"/>
<path d="M117.657 291.038L139.203 295.136L138.812 299.856L116.702 295.455L117.657 291.038Z" fill="#263238"/>
<path d="M150.772 297.322L150.714 302.23L141.883 300.465L142.142 295.687L150.772 297.322Z" fill="#263238"/>
<path d="M99.0352 285.731C99.0352 285.731 110.316 232.34 121.842 220.768C121.842 220.768 151.155 215.462 174.646 236.586C174.646 236.586 154.712 270.794 149.789 295.615L99.0352 285.731Z" fill="#40FCFF"/>
<path d="M114.68 291.292L117.498 291.927C118.004 292.041 118.45 291.575 118.315 291.074L117.517 288.118C117.373 287.585 116.693 287.427 116.33 287.844L114.311 290.167C113.969 290.56 114.171 291.178 114.68 291.292Z" stroke="white" stroke-width="0.5" stroke-miterlimit="10" stroke-linecap="round" stroke-linejoin="round"/>
<path d="M132.47 239.95L135.109 241.122C135.583 241.332 136.111 240.963 136.078 240.445L135.874 237.39C135.838 236.839 135.201 236.551 134.764 236.89L132.33 238.773C131.915 239.093 131.993 239.738 132.47 239.95Z" stroke="white" stroke-width="0.5" stroke-miterlimit="10" stroke-linecap="round" stroke-linejoin="round"/>
<path d="M132.726 239.27C132.726 239.27 124.507 254.539 115.806 285.874L119.165 286.865C119.165 286.865 127.953 254.232 135.335 240.475L132.726 239.27Z" fill="#263238"/>
<path d="M116.702 288.608L117.121 286.639" stroke="white" stroke-width="0.5" stroke-miterlimit="10" stroke-linecap="round" stroke-linejoin="round"/>
<path d="M115.805 285.874L119.34 286.867" stroke="white" stroke-width="0.5" stroke-miterlimit="10" stroke-linecap="round" stroke-linejoin="round"/>
<path d="M135.335 237.568C135.335 237.568 145.248 229.453 160.238 226.302L164.035 228.308C164.035 228.308 153.945 229.859 135.559 240.266L135.335 237.568Z" fill="#263238"/>
<path d="M132.725 238.964L134.806 237.521C134.806 237.521 135.029 223.361 136.417 220.086L134.07 220.177C134.07 220.177 132.198 229.57 132.725 238.964Z" fill="#263238"/>
<path d="M240.868 232.377L244.854 240.406L245.957 239.427C245.957 239.427 255.836 238.991 256.458 237.825C257.078 236.66 259.484 225.057 257.876 224.421C256.268 223.784 243.822 228.078 243.36 228.198C242.899 228.318 242.294 231.524 242.294 231.524L240.868 232.377Z" fill="#40FCFF"/>
<path d="M111.302 201.837L117.084 208.641L117.943 207.305L120.661 206.47L119.555 186.093C119.555 186.093 114.219 189.279 113.933 189.651C113.648 190.025 112.31 201.638 112.31 201.638L111.302 201.837Z" fill="#40FCFF"/>
</svg>
