<svg width="588" height="650" viewBox="0 0 588 650" fill="none" xmlns="http://www.w3.org/2000/svg">
<g clip-path="url(#clip0_80_2621)">
<path d="M189.083 107.474H56.3369V378.049H189.083V107.474Z" fill="#399E9F"/>
<path d="M123.242 378.049H122.178V311.371H56.3369V310.305H122.178V243.294H56.3369V242.229H122.178V175.218H56.3369V174.153H122.178V107.474H123.242V174.153H189.083V175.218H123.242V242.229H189.083V243.294H123.242V310.305H189.083V311.371H123.242V378.049Z" fill="#C4F1F2" fill-opacity="0.3"/>
<g opacity="0.5">
<path d="M189.083 250.809L56.3369 117.91V107.474H85.5957L189.083 211.072V250.809Z" fill="white" fill-opacity="0.3"/>
<path d="M189.083 283.066L56.3369 150.167V130.315L189.083 263.215V283.066Z" fill="white" fill-opacity="0.3"/>
<path d="M189.083 378.049H183.327L56.3369 250.923V220.648L189.083 353.536V378.049Z" fill="white" fill-opacity="0.3"/>
</g>
<path d="M548.472 105H236.444C229.233 105 223.388 110.852 223.388 118.07V343.948C223.388 351.166 229.233 357.018 236.444 357.018H548.472C555.683 357.018 561.528 351.166 561.528 343.948V118.07C561.528 110.852 555.683 105 548.472 105Z" fill="#399E9F"/>
<path d="M442.628 172.618C442.628 148.517 462.149 128.975 486.224 128.975V172.618H442.628Z" fill="#6CDBDD"/>
<path d="M449.459 178.254C449.459 202.355 468.98 221.897 493.055 221.897C517.131 221.897 536.652 202.355 536.652 178.254C536.652 154.153 517.131 134.611 493.055 134.611V178.254H449.459Z" fill="#90FAFC"/>
<path d="M403.403 333.524L384.454 278.781C384.385 278.587 384.213 278.438 384.007 278.415C383.801 278.392 383.595 278.472 383.47 278.632L366.363 301.966L347.437 258.002C347.357 257.808 347.162 257.67 346.945 257.67C346.727 257.647 346.533 257.773 346.43 257.968L318.945 309.079L289.308 255.528C289.205 255.333 288.988 255.219 288.782 255.242C288.565 255.253 288.381 255.391 288.301 255.597L280.383 276.296V242.756H279.262V334.635H412.843V333.513H403.38L403.403 333.524ZM280.406 279.423L288.942 257.12L318.487 310.511C318.59 310.695 318.762 310.855 318.979 310.798C319.185 310.798 319.368 310.683 319.471 310.5L346.888 259.514L365.734 303.306C365.814 303.489 365.985 303.615 366.18 303.638C366.386 303.661 366.58 303.57 366.695 303.409L383.744 280.144L402.213 333.513H280.395V279.411L280.406 279.423Z" fill="#90FAFC"/>
<path d="M346.934 260.5C348.185 260.5 349.199 259.484 349.199 258.231C349.199 256.979 348.185 255.963 346.934 255.963C345.682 255.963 344.668 256.979 344.668 258.231C344.668 259.484 345.682 260.5 346.934 260.5Z" fill="#6CDBDD"/>
<path d="M386.136 279.171C386.136 280.419 385.129 281.439 383.87 281.439C382.611 281.439 381.604 280.431 381.604 279.171C381.604 277.911 382.611 276.903 383.87 276.903C385.129 276.903 386.136 277.911 386.136 279.171Z" fill="#6CDBDD"/>
<path d="M321.233 310.248C321.233 311.496 320.226 312.516 318.968 312.516C317.709 312.516 316.702 311.508 316.702 310.248C316.702 308.988 317.709 307.98 318.968 307.98C320.226 307.98 321.233 308.988 321.233 310.248Z" fill="#6CDBDD"/>
<path d="M368.571 302.745C368.571 303.993 367.564 305.013 366.306 305.013C365.047 305.013 364.04 304.005 364.04 302.745C364.04 301.485 365.047 300.477 366.306 300.477C367.564 300.477 368.571 301.485 368.571 302.745Z" fill="#6CDBDD"/>
<path d="M288.839 258.071C290.09 258.071 291.105 257.056 291.105 255.803C291.105 254.55 290.09 253.535 288.839 253.535C287.588 253.535 286.573 254.55 286.573 255.803C286.573 257.056 287.588 258.071 288.839 258.071Z" fill="#6CDBDD"/>
<path d="M302.25 225.425H237.588C237.279 225.425 237.027 225.173 237.027 224.863V125.802C237.027 125.493 237.279 125.241 237.588 125.241H302.25C302.559 125.241 302.811 125.493 302.811 125.802V224.875C302.811 225.184 302.559 225.436 302.25 225.436V225.425ZM238.149 224.314H301.69V126.363H238.149V224.314Z" fill="#90FAFC"/>
<path d="M293.359 135.401H246.17V153.866H293.359V135.401Z" fill="#90FAFC"/>
<path d="M293.37 165.825H253.848V169.811H293.37V165.825Z" fill="#90FAFC"/>
<path d="M293.37 175.333H253.848V179.319H293.37V175.333Z" fill="#90FAFC"/>
<path d="M293.37 184.84H253.848V188.827H293.37V184.84Z" fill="#90FAFC"/>
<path d="M293.37 194.348H253.848V198.334H293.37V194.348Z" fill="#90FAFC"/>
<path d="M293.37 203.855H253.848V207.842H293.37V203.855Z" fill="#90FAFC"/>
<path d="M378.104 126.684H327.653V128.368H378.104V126.684Z" fill="#90FAFC"/>
<path d="M378.104 132.515H327.653V134.199H378.104V132.515Z" fill="#90FAFC"/>
<path d="M378.104 138.345H327.653V140.029H378.104V138.345Z" fill="#90FAFC"/>
<path d="M378.104 144.164H327.653V145.848H378.104V144.164Z" fill="#90FAFC"/>
<path d="M378.104 149.995H327.653V151.678H378.104V149.995Z" fill="#90FAFC"/>
<path d="M378.104 155.825H327.653V157.509H378.104V155.825Z" fill="#90FAFC"/>
<path d="M378.104 175.539H327.653V177.223H378.104V175.539Z" fill="#90FAFC"/>
<path d="M378.104 181.37H327.653V183.053H378.104V181.37Z" fill="#90FAFC"/>
<path d="M378.104 187.189H327.653V188.873H378.104V187.189Z" fill="#90FAFC"/>
<path d="M378.104 193.019H327.653V194.703H378.104V193.019Z" fill="#90FAFC"/>
<path d="M378.104 198.85H327.653V200.533H378.104V198.85Z" fill="#90FAFC"/>
<path d="M378.104 204.669H327.653V206.353H378.104V204.669Z" fill="#90FAFC"/>
<path d="M423.611 126.363H392.464V157.543H423.611V126.363Z" fill="#90FAFC"/>
<path d="M423.611 164.886H392.464V196.066H423.611V164.886Z" fill="#90FAFC"/>
<path d="M423.611 203.42H392.464V234.6H423.611V203.42Z" fill="#90FAFC"/>
<path d="M462.32 305.082L436.471 305.494C436.471 305.494 429.354 364.338 439.401 466.08C443.6 468.623 447.811 468.462 452.011 465.77C452.011 465.77 455.512 392.15 461.496 331.508M461.485 331.508C462.549 331.474 476.566 406.343 489.199 465.209C493.353 467.786 497.564 467.557 501.809 464.9C501.809 464.9 494.199 414.773 490.904 304.635L462.309 305.093" fill="#EFAD9C"/>
<path d="M462.32 305.082L436.471 305.494C436.471 305.494 429.354 364.338 439.401 466.08C443.6 468.623 447.811 468.462 452.011 465.77C452.011 465.77 455.512 392.15 461.496 331.508M461.485 331.508C462.549 331.474 476.566 406.343 489.199 465.209C493.353 467.786 497.564 467.557 501.809 464.9C501.809 464.9 494.199 414.773 490.904 304.635L462.309 305.093" fill="#208082"/>
<path d="M439.389 466.08C431.036 472.231 416.962 470.238 417.088 477.844C435.499 479.802 444.767 475.369 444.767 475.369L444.813 477.809L451.233 476.996C451.233 476.996 453.716 470.799 451.999 465.77L439.389 466.08Z" fill="#101519"/>
<path d="M489.199 465.197C480.846 471.349 466.771 469.356 466.897 476.962C485.308 478.92 494.577 474.487 494.577 474.487L494.623 476.927L501.042 476.114C501.042 476.114 503.525 469.917 501.809 464.888L489.199 465.197Z" fill="#101519"/>
<path d="M507.61 261.76C529.431 244.726 542.773 225.826 542.773 225.826L551.195 230.809C540.016 245.975 533.036 254.142 523.63 263.604C521.181 266.067 516.467 269.938 512.221 273.295C507.633 276.926 500.882 275.597 497.998 270.5C481.029 240.534 479.553 221.633 479.553 221.633L499.932 240.545C501.603 247.521 504.349 254.738 507.621 261.748" fill="#EFAD9C"/>
<path d="M542.876 225.642C542.635 225.906 542.75 226.227 542.979 226.398C542.967 226.456 542.944 226.502 542.944 226.57C542.967 228.907 543.219 231.599 545.462 232.87C547.281 233.89 549.73 234.027 551.732 233.867C556.012 233.535 560.074 231.37 562.649 227.876C562.786 227.693 562.774 227.487 562.694 227.326C563.312 226.708 563.804 225.963 563.976 225.058C564.033 224.749 563.862 224.554 563.633 224.474C563.724 224.314 563.804 224.153 563.861 223.993C564.056 223.374 563.896 222.733 563.507 222.309C563.587 221.805 563.45 221.278 562.969 220.934C562.019 220.247 561.012 220.889 560.166 221.37C559.067 222.011 557.9 222.527 556.687 222.916C554.822 223.523 552.865 223.798 550.897 223.775C551.183 223.626 551.469 223.489 551.744 223.34C552.591 222.916 553.552 222.55 554.33 222.011C554.902 221.61 555.234 220.786 554.685 220.178C554.147 219.594 553.197 219.881 552.556 220.018C548.814 220.774 545.405 222.779 542.853 225.654L542.876 225.642Z" fill="#EFAD9C"/>
<path d="M563.336 222.435C563.37 222.527 563.336 222.63 563.255 222.687C560.486 224.646 557.248 225.929 553.884 226.398C553.77 226.41 553.667 226.33 553.644 226.215C553.632 226.101 553.712 225.986 553.827 225.975C557.111 225.516 560.292 224.256 563.004 222.332C563.107 222.263 563.233 222.286 563.301 222.378C563.313 222.389 563.324 222.412 563.324 222.435H563.336Z" fill="#C16B5B"/>
<path d="M563.221 224.76C563.255 224.852 563.221 224.955 563.141 225.012C560.566 226.845 557.534 227.968 554.387 228.243C554.273 228.243 554.17 228.174 554.158 228.048C554.158 227.933 554.238 227.83 554.353 227.819C557.431 227.544 560.383 226.456 562.9 224.669C562.992 224.6 563.129 224.623 563.198 224.714C563.209 224.726 563.221 224.749 563.221 224.772V224.76Z" fill="#C16B5B"/>
<path d="M562.146 227.704C562.169 227.796 562.134 227.899 562.043 227.956C559.789 229.17 557.363 229.961 554.822 230.293C554.708 230.304 554.594 230.236 554.582 230.11C554.571 229.995 554.651 229.881 554.765 229.869C557.248 229.537 559.628 228.77 561.848 227.578C561.951 227.521 562.089 227.555 562.134 227.67C562.134 227.681 562.146 227.704 562.157 227.716L562.146 227.704Z" fill="#C16B5B"/>
<path d="M507.369 260.064C504.703 253.89 502.438 247.544 500.573 241.072C499.314 236.685 498.238 232.24 496.602 227.979C494.966 223.718 492.734 219.617 489.473 216.433C486.212 213.248 481.83 211.049 477.275 211.06C479.06 231.187 485.342 250.98 495.378 268.506C497.472 272.16 500.218 276.067 504.371 276.754C508.136 277.372 511.729 275.116 514.784 272.813C524.739 265.299 538.093 251.897 545.336 241.748C542.315 238.873 539.249 235.998 536.228 233.122C529.294 241.828 516.466 253.672 507.369 260.064Z" fill="white"/>
<path d="M438.062 220.408C438.062 220.408 415.588 246.868 414.479 324.761H423.621C423.621 324.761 425.349 277.109 440.797 248.094L438.073 220.408H438.062Z" fill="#EFAD9C"/>
<path d="M422.625 322.15C422.385 321.852 422.019 321.921 421.802 322.138C421.744 322.115 421.687 322.081 421.619 322.081C419.135 321.726 416.218 321.565 414.513 323.753C413.128 325.529 412.59 328.118 412.43 330.283C412.087 334.899 413.746 339.584 417.053 342.894C417.225 343.066 417.442 343.089 417.637 343.032C418.197 343.799 418.907 344.429 419.845 344.762C420.165 344.876 420.406 344.716 420.531 344.498C420.68 344.624 420.84 344.727 421.012 344.819C421.641 345.128 422.339 345.059 422.854 344.704C423.381 344.876 423.953 344.807 424.411 344.349C425.292 343.456 424.777 342.264 424.399 341.291C423.896 340.019 423.541 338.69 423.323 337.339C422.98 335.254 423.003 333.112 423.346 331.027C423.449 331.348 423.564 331.68 423.667 332.001C423.987 332.975 424.216 334.051 424.662 334.968C424.994 335.643 425.829 336.136 426.55 335.644C427.26 335.162 427.1 334.109 427.065 333.41C426.859 329.298 425.28 325.346 422.637 322.15H422.625Z" fill="#EFAD9C"/>
<path d="M422.74 344.498C422.637 344.521 422.534 344.464 422.488 344.372C420.852 341.096 420.005 337.442 420.051 333.776C420.051 333.65 420.165 333.547 420.291 333.547C420.417 333.547 420.52 333.65 420.52 333.788C420.485 337.373 421.309 340.959 422.911 344.166C422.968 344.281 422.923 344.418 422.808 344.475C422.785 344.475 422.763 344.487 422.751 344.498H422.74Z" fill="#C16B5B"/>
<path d="M420.279 343.994C420.176 344.017 420.073 343.96 420.028 343.868C418.494 340.821 417.785 337.408 418.002 334.005C418.002 333.879 418.117 333.788 418.254 333.788C418.38 333.788 418.483 333.902 418.471 334.04C418.265 337.362 418.952 340.695 420.451 343.662C420.508 343.776 420.462 343.914 420.348 343.971C420.325 343.971 420.302 343.983 420.291 343.994H420.279Z" fill="#C16B5B"/>
<path d="M417.328 342.379C417.225 342.39 417.122 342.333 417.087 342.23C416.161 339.63 415.714 336.904 415.76 334.143C415.76 334.017 415.863 333.914 416 333.914C416.126 333.914 416.229 334.028 416.229 334.154C416.183 336.858 416.618 339.527 417.522 342.081C417.568 342.207 417.499 342.333 417.385 342.379C417.373 342.379 417.351 342.379 417.328 342.39V342.379Z" fill="#C16B5B"/>
<path d="M441.632 249.526C433.187 270.775 427.672 293.192 425.269 315.93C420.68 316.147 416.172 316.205 411.606 315.666C412.808 297.419 414.09 278.14 418.529 260.397C422.969 242.653 430.601 225.539 443.497 212.584C445.408 224.199 445.98 238.586 441.632 249.526Z" fill="white"/>
<path d="M470.055 208.449L482.745 212.595C482.745 212.595 489.268 267.04 492.368 309.022C452.422 317.476 435.361 308.931 435.361 308.931C437.73 259.503 444.985 212.595 444.985 212.595L457.583 208.449H470.055Z" fill="#90FAFC"/>
<path d="M470.055 208.449C470.055 208.449 472.538 301.118 472.057 332.722C472.057 332.722 488.981 330.557 495.892 323.009C495.892 323.009 486.418 221.072 484.141 212.584C484.141 212.584 475.868 208.93 470.055 208.437V208.449Z" fill="white"/>
<path d="M480.055 309.412C480.055 309.412 480.124 309.412 480.158 309.412C483.9 308.587 487.516 306.96 490.617 304.715C490.823 304.566 490.88 304.268 490.72 304.062C490.571 303.845 490.273 303.799 490.068 303.959C487.07 306.124 483.568 307.693 479.952 308.495C479.701 308.553 479.54 308.805 479.598 309.057C479.643 309.274 479.838 309.423 480.055 309.423V309.412Z" fill="#90FAFC"/>
<path d="M457.594 208.449C457.594 208.449 451.541 301.118 452.01 332.722C452.01 332.722 438.656 330.557 431.745 323.009C431.745 323.009 441.22 221.072 443.497 212.584C443.497 212.584 451.77 208.93 457.583 208.437L457.594 208.449Z" fill="white"/>
<path d="M448.977 309.412C449.195 309.412 449.389 309.263 449.435 309.045C449.492 308.793 449.332 308.541 449.08 308.484C445.465 307.682 441.975 306.113 438.965 303.948C438.759 303.799 438.462 303.845 438.313 304.051C438.164 304.257 438.21 304.555 438.416 304.704C441.517 306.949 445.133 308.564 448.874 309.4C448.909 309.4 448.943 309.4 448.977 309.4V309.412Z" fill="#90FAFC"/>
<path d="M443.863 174.852C448.749 182.79 458.853 185.367 463.625 193.34C464.666 195.081 465.97 197.04 468.259 197.017C470.353 196.994 471.715 195.127 472.802 193.592C475.903 189.216 478.34 184.382 480.113 179.319C480.377 178.586 481.235 177.773 481.647 177.108C482.059 176.444 482.299 175.642 482.139 174.874C481.944 173.935 481.189 173.214 480.72 172.366C480.102 171.232 480.022 169.869 480.159 168.586C480.285 167.303 480.617 166.043 480.754 164.748C480.983 162.549 480.605 160.224 479.301 158.437C477.997 156.65 475.662 155.55 473.522 156.077C471.68 154.382 469.472 152.824 467.195 151.759C464.918 150.693 462.251 150.269 459.883 151.106C458.189 151.701 456.759 152.904 455.066 153.465C452.994 154.164 450.752 153.866 448.566 153.786C446.381 153.706 444.012 153.924 442.387 155.39C440.728 156.89 440.282 159.307 440.224 161.541C440.121 166.192 441.415 170.865 443.852 174.829L443.863 174.852Z" fill="#5B3D31"/>
<path d="M472.081 165.504C466.554 155.115 446.724 158.448 445.099 166.65C441.769 183.511 444.104 190.464 448.749 194.508C454.127 199.182 457.675 198.746 457.583 208.449C458.51 210.831 462.663 219.17 462.663 219.17C462.663 219.17 468.648 211.599 470.055 208.449C470.021 195.596 474.529 185.894 474.529 185.894C474.529 185.894 474.358 169.788 472.081 165.504Z" fill="#EFAD9C"/>
<path d="M443.623 168.929C443.852 167.234 444.653 164.806 446.907 161.805C449.848 157.875 458.292 156.982 465.467 158.391C472.642 159.788 475.742 162.95 475.926 168.116C476.109 173.282 476.566 179.743 476.566 179.743L473.751 181.85C469.403 178.884 469.941 167.772 469.941 167.772C469.438 167.314 468.66 167.303 467.984 167.349C465.536 167.509 463.19 168.345 460.856 169.067C458.51 169.789 456.061 170.407 453.635 170.098C451.999 169.892 450.443 169.285 448.852 168.861C447.262 168.437 445.179 168.368 443.623 168.929Z" fill="#5B3D31"/>
<path d="M459.837 181.312C459.837 182.011 459.254 182.572 458.556 182.572C457.858 182.572 457.297 181.988 457.297 181.289C457.297 180.591 457.88 180.029 458.578 180.029C459.276 180.029 459.837 180.613 459.837 181.312Z" fill="#101519"/>
<path d="M458.567 180.946C458.567 181.198 458.35 181.404 458.098 181.404C457.847 181.404 457.641 181.186 457.641 180.934C457.641 180.682 457.858 180.476 458.11 180.476C458.362 180.476 458.567 180.694 458.567 180.946Z" fill="white"/>
<path d="M450.007 181.209C450.007 181.908 449.423 182.469 448.725 182.469C448.027 182.469 447.467 181.885 447.467 181.186C447.467 180.487 448.05 179.926 448.748 179.926C449.446 179.926 450.007 180.51 450.007 181.209Z" fill="#101519"/>
<path d="M448.748 180.854C448.748 181.106 448.531 181.312 448.279 181.312C448.027 181.312 447.821 181.094 447.821 180.842C447.821 180.59 448.039 180.384 448.29 180.384C448.542 180.384 448.748 180.602 448.748 180.854Z" fill="white"/>
<path d="M450.911 176.249C449.332 175.127 447.25 175.161 445.739 176.455C445.453 176.696 445.396 177.188 445.614 177.509C445.831 177.83 446.243 177.899 446.529 177.647C447.147 177.12 447.936 176.891 448.703 176.948C449.092 176.982 449.47 177.085 449.824 177.269C450.133 177.429 450.442 177.704 450.797 177.509C450.877 177.463 450.957 177.395 451.014 177.303C451.209 177.017 451.209 176.467 450.9 176.249H450.911Z" fill="#5B3D31"/>
<path d="M455.855 176.295C457.697 175.207 460.066 175.287 461.782 176.604C462.103 176.856 462.148 177.337 461.908 177.658C461.656 177.979 461.176 178.025 460.855 177.784C460.157 177.246 459.253 177.005 458.372 177.051C457.926 177.074 457.491 177.177 457.079 177.337C456.713 177.486 456.358 177.75 455.958 177.543C455.866 177.498 455.775 177.417 455.718 177.337C455.5 177.039 455.512 176.501 455.866 176.283L455.855 176.295Z" fill="#5B3D31"/>
<path d="M451.553 184.668C451.484 184.668 451.415 184.623 451.392 184.542C451.083 183.454 451.461 183.088 451.827 182.973C452.193 182.859 452.64 182.962 453.143 183.271C453.223 183.317 453.246 183.42 453.189 183.5C453.143 183.58 453.04 183.603 452.96 183.557C452.548 183.294 452.193 183.202 451.93 183.294C451.598 183.397 451.53 183.786 451.713 184.451C451.736 184.542 451.69 184.634 451.598 184.657C451.587 184.657 451.564 184.657 451.553 184.657V184.668Z" fill="#C16B5B"/>
<path d="M456.861 186.135C456.461 185.39 455.202 186.043 453.76 186.043C452.319 186.043 451.06 185.401 450.659 186.135C450.156 187.074 451.403 189.399 453.76 189.399C456.118 189.399 457.365 187.074 456.861 186.135Z" fill="#8E4136"/>
<path d="M456.667 187.681C456.221 187.624 455.728 187.589 455.225 187.589C453.543 187.589 452.113 187.933 451.438 188.426C451.987 188.975 452.765 189.399 453.76 189.399C455.179 189.399 456.186 188.563 456.655 187.681H456.667Z" fill="#C16B5B"/>
<path d="M453.772 186.845C455.053 186.845 456.152 186.535 456.552 185.848C455.98 185.619 454.939 186.043 453.772 186.043C452.605 186.043 451.563 185.619 450.991 185.848C451.392 186.547 452.479 186.845 453.772 186.845Z" fill="white"/>
<path d="M478.866 186.306C477.15 188.311 474.461 188.838 472.87 187.475C471.279 186.112 471.382 183.374 473.099 181.369C474.815 179.365 477.504 178.838 479.095 180.201C480.685 181.564 480.582 184.302 478.866 186.306Z" fill="#EFAD9C"/>
<path d="M477.973 181.186C477.252 180.797 476.291 180.808 475.398 181.209C474.952 181.415 474.632 181.656 474.403 181.965C474.105 182.378 474.025 182.882 474.186 183.305C474.323 183.683 474.62 183.924 474.884 184.142C475.078 184.302 475.25 184.451 475.353 184.623C475.501 184.898 475.467 185.276 475.25 185.505C475.044 185.734 474.666 185.803 474.38 185.665C474.208 185.585 474.014 185.665 473.934 185.825C473.854 185.986 473.934 186.192 474.094 186.272C474.277 186.364 474.472 186.398 474.666 186.398C475.055 186.398 475.456 186.249 475.73 185.951C476.142 185.516 476.222 184.817 475.925 184.29C475.765 184.004 475.524 183.809 475.307 183.626C475.089 183.443 474.884 183.271 474.803 183.065C474.723 182.859 474.781 182.572 474.941 182.343C475.009 182.251 475.101 182.171 475.192 182.091C475.524 182.091 475.936 182.194 476.142 182.423C476.371 182.687 476.485 183.053 476.417 183.397C476.382 183.58 476.508 183.752 476.691 183.786C476.714 183.786 476.726 183.786 476.749 183.786C476.909 183.786 477.046 183.672 477.08 183.512C477.172 182.962 477.012 182.389 476.646 181.977C476.508 181.828 476.337 181.713 476.154 181.633C476.703 181.495 477.241 181.53 477.664 181.747C478.179 182.022 478.568 182.744 478.293 183.317C478.213 183.477 478.293 183.683 478.454 183.764C478.614 183.844 478.82 183.764 478.9 183.603C479.3 182.767 478.877 181.656 477.984 181.163L477.973 181.186Z" fill="#C16B5B"/>
<path d="M531.537 476.893H404.867V496.068H531.537V476.893Z" fill="#90FAFC"/>
<path d="M531.537 476.893H468.202V496.068H531.537V476.893Z" fill="#208082"/>
<path d="M328.842 289.125C333.545 278.438 353.432 280.259 355.641 288.255C360.183 304.704 358.387 311.76 354.085 316.101C349.107 321.13 345.594 321.886 346.407 331.485C345.674 333.914 342.138 341.554 342.138 341.554C342.138 341.554 335.65 334.509 334.026 331.485C333.099 318.759 327.927 309.492 327.927 309.492C327.927 309.492 326.897 293.524 328.842 289.125Z" fill="#9E6C52"/>
<path d="M346.212 309.102C345.228 307.132 344.244 305.15 343.26 303.18C344.507 302.882 345.56 302.344 346.338 301.347C347.116 300.351 347.505 299.079 347.448 297.842C349.267 298.61 352.002 298.106 353.718 297.132C355.435 296.158 356.636 294.36 356.842 292.447C359.669 291.164 361.591 288.255 361.511 285.23C361.477 284.051 361.156 282.848 360.47 281.874C359.772 280.901 358.685 280.167 357.472 280.03C357.151 277.831 355.687 275.689 353.776 274.474C351.865 273.26 349.405 272.882 347.196 273.478C345.903 271.313 343.512 269.892 340.983 269.469C338.443 269.045 335.731 269.766 333.774 271.382C331.394 270.133 328.304 270.477 325.993 271.851C323.682 273.214 322.205 275.826 322.263 278.461C319.413 278.209 316.507 279.835 315.248 282.332C313.978 284.83 314.459 288.06 316.404 290.099C315.203 291.382 314.882 293.604 315.054 295.334C315.225 297.063 316.175 298.701 317.606 299.744C316.187 301.611 315.592 304.062 316.072 306.342C316.541 308.621 318.407 311.485 320.466 312.676C320.924 314.177 321.919 315.62 323.235 316.479C324.551 317.338 326.176 317.716 327.732 317.522C328.865 319.435 331.176 320.569 333.408 320.431C335.628 320.305 337.722 318.85 338.626 316.811C340.628 317.476 342.997 316.766 344.519 315.311C346.052 313.856 347.173 311.015 346.224 309.125L346.212 309.102Z" fill="#1B1B28"/>
<path d="M341.887 305.735C343.615 307.774 346.143 308.129 347.528 306.514C348.913 304.898 348.627 301.943 346.899 299.893C345.171 297.854 342.642 297.499 341.258 299.114C339.873 300.729 340.159 303.684 341.887 305.735Z" fill="#9E6C52"/>
<path d="M342.356 300.099C342.997 299.618 343.889 299.549 344.747 299.916C345.171 300.099 345.491 300.339 345.72 300.66C346.018 301.073 346.132 301.634 346.018 302.103C345.915 302.527 345.651 302.814 345.423 303.077C345.262 303.26 345.102 303.444 345.022 303.638C344.896 303.948 344.965 304.349 345.182 304.589C345.4 304.818 345.743 304.864 345.995 304.704C346.143 304.601 346.327 304.669 346.418 304.841C346.498 305.013 346.452 305.231 346.304 305.334C346.143 305.437 345.96 305.506 345.777 305.517C345.411 305.551 345.034 305.414 344.759 305.116C344.347 304.669 344.233 303.925 344.461 303.329C344.587 303.008 344.805 302.768 344.988 302.562C345.182 302.344 345.354 302.149 345.411 301.909C345.468 301.668 345.4 301.37 345.228 301.141C345.159 301.05 345.068 300.969 344.976 300.889C344.667 300.912 344.301 301.061 344.118 301.336C343.924 301.634 343.843 302.046 343.924 302.413C343.969 302.607 343.866 302.802 343.695 302.848C343.683 302.848 343.66 302.848 343.649 302.848C343.5 302.86 343.363 302.745 343.329 302.573C343.203 301.989 343.317 301.347 343.626 300.878C343.74 300.695 343.901 300.569 344.061 300.465C343.546 300.351 343.042 300.443 342.665 300.717C342.207 301.061 341.898 301.863 342.196 302.47C342.276 302.642 342.23 302.86 342.081 302.963C341.933 303.066 341.749 302.997 341.658 302.825C341.235 301.943 341.544 300.706 342.333 300.11L342.356 300.099Z" fill="#7F4932"/>
<path d="M307.467 391.474C310.683 383.616 314.985 375.059 318.807 369.721C319.413 368.118 320.02 366.514 320.477 364.865C321.141 362.459 321.301 359.962 321.725 357.51L315.363 342.791C310.019 351.302 301.666 369.343 295.533 387.522C295.029 389.011 294.823 390.581 294.915 392.138C295.624 405.38 298.782 423.502 301.529 439.115L311.403 436.033C311.403 436.033 306.826 414.395 307.467 391.486V391.474Z" fill="#9E6C52"/>
<path d="M309.801 434.247C310.591 434.659 311.403 435.174 312.216 435.781C312.216 435.781 323.235 446.286 322.674 447.866C321.919 450.043 313.463 442.414 313.463 442.414C313.463 442.414 318.36 452.792 316.713 453.662C315.076 454.522 310.751 444.499 310.751 444.499C310.751 444.499 313.211 453.158 311.758 453.445C310.316 453.731 307.009 444.968 307.009 444.968C307.009 444.968 308.714 453.055 307.444 453.284C306.3 453.491 303.874 446.469 302.055 442.231C301.208 440.26 301.196 437.523 301.929 436.308C303.679 433.765 307.055 432.826 309.79 434.247H309.801Z" fill="#9E6C52"/>
<path d="M307.696 433.616C307.696 433.616 318.349 435.071 318.99 437.58C319.631 440.088 307.398 437.156 307.398 437.156L307.696 433.628V433.616Z" fill="#9E6C52"/>
<path d="M321.839 361.565C322.731 358.713 323.406 355.792 324.253 352.929C325.031 350.294 325.832 347.659 326.53 345.002C325.981 340.718 320.866 335.403 319.871 331.176C308.954 334.211 303.977 358.14 301.517 365.414C306.929 368.438 312.353 371.474 317.765 374.498C318.864 370.111 320.511 365.884 321.85 361.565H321.839Z" fill="#90FAFC"/>
<path d="M397.887 529.791C405.783 535.966 419.743 534.465 419.399 541.807C401.572 543.171 392.749 538.623 392.749 538.623L392.635 540.983L386.456 540.009C386.456 540.009 384.236 533.949 386.044 529.15L397.887 529.791Z" fill="#101519"/>
<path d="M397.887 529.791L398.882 516.813L386.318 517.065L386.032 529.138C390.243 532.117 394.156 532.048 397.875 529.78L397.887 529.791Z" fill="#9E6C52"/>
<path d="M402.178 444.018C395.724 436.583 311.804 428.851 311.804 428.851L311.77 430.776C311.77 430.776 306.049 460.318 322.091 460.318H385.357L385.46 518.348C385.46 518.348 392.589 521.303 400.599 517.363C400.599 517.363 410.543 453.674 402.167 444.029L402.178 444.018Z" fill="#6CDBDD"/>
<path d="M385.38 469.046L385.471 518.348C385.471 518.348 392.6 521.303 400.61 517.363C400.61 517.363 405.13 488.393 405.507 466.572C398.802 467.454 392.097 468.279 385.38 469.058V469.046Z" fill="#208082"/>
<path d="M419.732 529.826C427.318 536.366 441.026 535.496 440.328 542.816C422.455 543.331 413.862 538.371 413.862 538.371L413.644 540.719L407.522 539.459C407.522 539.459 405.589 533.297 407.614 528.589L419.732 529.826Z" fill="#101519"/>
<path d="M419.732 529.826L421.219 517.111L408.667 516.55L407.603 528.577C411.607 531.819 415.876 531.83 419.72 529.814L419.732 529.826Z" fill="#9E6C52"/>
<path d="M412.271 459.573C414.216 459.814 416.241 459.47 417.832 458.325C419.422 457.179 420.544 455.404 420.921 453.479" stroke="#208082" stroke-width="0.5" stroke-linecap="round" stroke-linejoin="round"/>
<path d="M415.635 459.562C418.53 460.558 421.86 460.203 424.48 458.611" stroke="#208082" stroke-width="0.5" stroke-linecap="round" stroke-linejoin="round"/>
<path d="M331.131 428.187C329.689 441.2 339.255 452.826 352.277 453.926C352.277 453.926 393.242 460.994 410.6 460.318L407.991 517.352C407.991 517.352 416.63 521.842 422.867 517.5C423.221 512.827 437.319 457.053 428.737 441.394C421.505 428.187 331.12 428.187 331.12 428.187H331.131Z" fill="#6CDBDD"/>
<path d="M412.271 459.573C414.216 459.814 416.241 459.47 417.832 458.325C419.422 457.179 420.544 455.404 420.921 453.479" stroke="#208082" stroke-width="0.5" stroke-linecap="round" stroke-linejoin="round"/>
<path d="M415.635 459.562C418.53 460.558 421.86 460.203 424.48 458.611" stroke="#208082" stroke-width="0.5" stroke-linecap="round" stroke-linejoin="round"/>
<path d="M368.709 429.504C368.709 429.504 338.546 437.328 311.393 429.321C314.505 387.339 319.86 331.176 319.86 331.176C324.826 329.515 329.506 328.553 333.706 328.748H346.178L348.123 329.389L349.016 329.687L351.762 330.592L352.666 330.89L358.776 332.906C358.776 332.906 366.329 380.077 368.709 429.516V429.504Z" fill="#90FAFC"/>
<path d="M380.712 388.771C377.783 377.396 374.808 362.402 372.405 351.325L353.364 348.473C355.344 358.301 359.921 377.602 367.954 394.934C368.652 396.446 369.647 397.809 370.86 398.943C380.518 408.061 395.256 417.992 407.946 427.374L413.713 418.565C413.713 418.565 396.022 405.804 380.712 388.771Z" fill="#9E6C52"/>
<path d="M412.66 418.748C413.552 418.691 414.502 418.714 415.521 418.817C415.521 418.817 430.362 422.139 430.705 423.777C431.174 426.033 420.006 423.857 420.006 423.857C420.006 423.857 429.549 430.226 428.577 431.829C427.615 433.422 418.747 427.041 418.747 427.041C418.747 427.041 425.304 433.193 424.217 434.189C423.13 435.186 415.784 429.367 415.784 429.367C415.784 429.367 421.413 435.426 420.441 436.274C419.56 437.041 413.873 432.276 410.143 429.573C408.403 428.324 406.984 425.976 406.984 424.567C407.179 421.486 409.582 418.943 412.66 418.737V418.748Z" fill="#9E6C52"/>
<path d="M410.521 419.298C410.521 419.298 420.395 415.048 422.238 416.87C424.08 418.691 412.088 422.482 412.088 422.482L410.521 419.298Z" fill="#9E6C52"/>
<path d="M359.234 375.712L377.6 370.203C375.872 362.608 375.998 346.892 365.539 336.903C363.079 334.555 361.569 333.547 356.431 332.115C355.035 338.037 353.685 344.097 353.479 350.18C353.273 356.262 356.019 370.558 359.246 375.712H359.234Z" fill="#90FAFC"/>
<path d="M357.861 374.498C355.675 368.301 354.6 355.472 354.6 348.473" stroke="#6CDBDD" stroke-width="0.5" stroke-linecap="round" stroke-linejoin="round"/>
<path d="M310.9 371.119C311.381 364.91 311.461 355.002 312.216 349.206" stroke="#6CDBDD" stroke-width="0.5" stroke-linecap="round" stroke-linejoin="round"/>
<path d="M334.919 541.75H293.405C284.377 541.75 277.042 534.396 277.042 525.37V467.649H351.293V525.37C351.293 534.408 343.947 541.75 334.93 541.75H334.919ZM278.919 469.527V525.358C278.919 533.354 285.418 539.86 293.405 539.86H334.919C342.906 539.86 349.405 533.354 349.405 525.358V469.527H278.93H278.919Z" fill="#208082"/>
<path d="M396.708 541.75H360.71C351.681 541.75 344.347 534.396 344.347 525.37V467.649H413.071V525.37C413.071 534.408 405.725 541.75 396.708 541.75ZM346.235 469.527V525.358C346.235 533.354 352.734 539.86 360.721 539.86H396.72C404.707 539.86 411.206 533.354 411.206 525.358V469.527H346.246H346.235Z" fill="#3BB0B2"/>
<path d="M272.26 396.059L270.38 396.227L276.979 470.39L278.859 470.222L272.26 396.059Z" fill="#3BB0B2"/>
<path d="M348.295 470.111L341.727 396.228L343.603 396.067L350.194 470.226L348.295 470.111Z" fill="#3BB0B2"/>
<path d="M413.976 459.997H278.175V470.306H413.976V459.997Z" fill="#208082"/>
<path d="M413.976 459.997H346.075V470.306H413.976V459.997Z" fill="#3BB0B2"/>
<path d="M329.643 428.187H289.972C280.612 428.187 272.339 420.592 271.503 411.211L269.215 385.518C268.38 376.148 275.291 368.542 284.662 368.542H324.334C333.694 368.542 341.967 376.136 342.802 385.518L345.091 411.211C345.926 420.581 339.015 428.187 329.643 428.187Z" fill="#101519"/>
<path d="M275.36 542.071C257.922 538.153 244.397 530.696 244.397 530.696C244.397 530.696 244.088 525.026 246.639 520.971C246.811 520.708 246.994 520.433 247.189 520.181L258.631 524.385C260.485 527.042 263.14 529.093 265.806 530.902C271.413 534.694 277.054 537.386 275.372 542.059L275.36 542.071Z" fill="#101519"/>
<path d="M265.806 530.902C265.188 531.429 264.318 531.681 263.506 531.67C262.408 531.647 261.366 531.235 260.359 530.799C255.153 528.531 250.221 525.358 246.64 520.971C246.811 520.708 246.994 520.433 247.189 520.181L258.632 524.385C260.485 527.042 263.14 529.093 265.806 530.902Z" fill="#EFAD9C"/>
<path d="M258.62 524.385L263.071 512.162L250.987 508.726L247.188 520.192C250.335 524.27 254.409 525.461 258.631 524.396L258.62 524.385Z" fill="#EFAD9C"/>
<path d="M283.152 440.398C276.687 432.975 191.52 428.634 191.52 428.634V430.295C191.52 430.295 189.392 460.008 203.02 460.008H264.684L249.568 510.181C249.568 510.181 255.255 517.168 264.776 513.64C264.776 513.64 291.551 450.031 283.164 440.398H283.152Z" fill="#6CDBDD"/>
<path d="M262.407 467.546L249.568 510.169C249.568 510.169 255.255 517.157 264.776 513.628C264.776 513.628 275.623 487.866 281.344 466.652C275.04 467.03 268.735 467.454 262.418 467.546H262.407Z" fill="#208082"/>
<path d="M315.993 526.561L314.197 513.892L301.919 516.55L303.956 528.451C308.659 530.57 312.778 529.494 315.993 526.561Z" fill="#EFAD9C"/>
<path d="M210.732 427.545C208.924 440.512 218.147 452.414 231.146 453.88C231.146 453.88 271.321 461.028 289.961 460.008L301.301 518.394C301.301 518.394 308.738 521.28 315.1 517.122C315.592 512.46 314.082 459.401 305.946 443.513C299.092 430.111 210.732 427.545 210.732 427.545Z" fill="#6CDBDD"/>
<path d="M297.056 459.424C298.818 459.837 300.74 459.837 302.331 458.966C303.921 458.096 305.168 456.606 305.763 454.888" stroke="#208082" stroke-width="0.5" stroke-linecap="round" stroke-linejoin="round"/>
<path d="M297.056 459.424C298.818 459.837 300.74 459.837 302.331 458.966C303.921 458.096 305.168 456.606 305.763 454.888" stroke="#208082" stroke-width="0.5" stroke-linecap="round" stroke-linejoin="round"/>
<path d="M339.21 533.869C322.058 538.921 306.622 538.99 306.622 538.99C306.622 538.99 303.601 534.179 303.864 529.402C303.875 529.081 303.921 528.761 303.967 528.451L316.005 526.561C318.911 527.982 322.229 528.486 325.445 528.772C332.184 529.368 338.421 528.967 339.222 533.881L339.21 533.869Z" fill="#101519"/>
<path d="M325.434 528.761C325.148 529.528 324.518 530.158 323.797 530.547C322.836 531.063 321.715 531.212 320.628 531.326C314.975 531.876 309.128 531.51 303.864 529.402C303.876 529.081 303.921 528.761 303.967 528.451C307.812 527.042 311.817 526.366 316.005 526.561C318.911 527.982 322.23 528.486 325.445 528.772L325.434 528.761Z" fill="#EFAD9C"/>
<path d="M259.088 356.64H225.802V402.849H259.088V356.64Z" fill="#36FCFF"/>
<path d="M247.692 378.565C247.692 378.565 225.424 382.116 197.882 379.286C200.365 371.955 202.871 366.491 204.004 363.685L201.727 335.311C201.727 335.311 192.218 346.583 183.75 379.962C182.309 385.644 186.256 391.279 192.081 391.841C197.47 392.356 203.558 392.837 207.025 392.757C220.355 392.448 231.111 391.612 249.66 388.416L247.692 378.553V378.565Z" fill="#EFAD9C"/>
<path d="M202.619 370.936C203.454 365.792 204.553 360.684 205.32 355.54C205.571 353.879 205.743 352.218 205.926 350.557C205.342 345.334 203.752 340.156 201.715 335.334C194.953 343.501 189.998 352.883 187.16 363.101C191.623 365.85 197.71 369.137 202.608 371.394C202.608 371.245 202.608 371.096 202.619 370.936Z" fill="#90FAFC"/>
<path d="M270.096 298.85C263.025 308.427 254.752 319.137 245.884 326.044L252.726 340.981C259.97 334.063 270.039 321.886 280.406 305.826C281.31 304.429 281.596 303.238 281.917 301.599C284.468 288.552 287.718 267.212 288.874 251.473L278.701 250.454C278.701 250.454 276.321 276.8 270.096 298.85Z" fill="#EFAD9C"/>
<path d="M279.067 251.221C278.77 250.305 278.552 249.297 278.392 248.22C278.392 248.22 277.992 231.862 279.617 231.084C281.848 230.007 282.477 242.229 282.477 242.229C282.477 242.229 286.642 230.614 288.553 231.21C290.453 231.805 286.128 242.71 286.128 242.71C286.128 242.71 290.83 234.268 292.146 235.15C293.462 236.032 289.32 245.196 289.32 245.196C289.32 245.196 294.16 237.75 295.304 238.541C296.334 239.251 292.856 246.433 291.002 251.038C290.144 253.18 288.073 255.265 286.608 255.631C283.347 256.227 280.074 254.383 279.067 251.221Z" fill="#EFAD9C"/>
<path d="M280.2 253.306C280.2 253.306 273.209 244.096 274.628 241.714C276.046 239.319 283.107 250.854 283.107 250.854L280.2 253.317V253.306Z" fill="#EFAD9C"/>
<path d="M249.786 373.96C249.946 372.917 250.06 372.31 250.06 372.31C250.93 371.428 251.651 370.546 252.257 369.618C256.949 362.436 253.573 354.235 250.667 349.194C250.667 349.16 250.667 349.137 250.667 349.103C252.406 345.872 256.789 342.264 258.082 339.08C256.354 333.627 252.624 326.479 250.392 321.21C246.605 323.57 242.955 325.151 239.773 326.033C239.419 326.147 239.064 326.227 238.732 326.319C238.011 326.502 237.325 326.628 236.684 326.731C236.341 326.789 236.009 326.823 235.688 326.869C235.162 326.926 234.647 326.949 234.178 326.961C228.491 327.029 221.362 328.507 215.618 330.088C215.275 330.179 214.954 330.271 214.634 330.363C213.249 330.752 211.979 331.142 210.824 331.52C210.789 331.52 210.755 331.542 210.709 331.554C210.709 331.554 210.698 331.554 210.686 331.554C207.517 332.436 204.484 333.673 201.727 335.311C201.589 335.38 201.509 343.215 200.445 356.102C200.457 356.147 201.04 359.504 201.612 364.132C201.841 365.884 202.047 367.82 202.23 369.836C202.734 375.22 202.974 381.119 202.333 385.346C201.258 392.517 198.832 399.424 196.463 406.285C194.14 413.032 191.497 422.586 191.497 429.745C191.497 429.745 213.787 436.686 257.063 430.615C257.063 419.309 250.472 409.848 248.962 395.564C248.321 389.55 249.271 377.156 249.797 373.937L249.786 373.96Z" fill="#90FAFC"/>
<path d="M250.209 349.515C248.103 352.116 243.664 360.432 243 364.052" stroke="#6CDBDD" stroke-width="0.5" stroke-linecap="round" stroke-linejoin="round"/>
<path d="M196.085 371.841C195.708 366.755 196.04 355.552 197.413 349.023" stroke="#6CDBDD" stroke-width="0.5" stroke-linecap="round" stroke-linejoin="round"/>
<path d="M212.242 289.125C216.945 278.438 236.833 280.259 239.041 288.255C243.584 304.704 241.787 311.76 237.485 316.101C232.507 321.13 228.994 321.886 229.807 331.485C229.075 333.914 225.539 341.554 225.539 341.554C225.539 341.554 219.051 334.509 217.426 331.485C216.499 318.759 211.327 309.492 211.327 309.492C211.327 309.492 210.297 293.524 212.242 289.125Z" fill="#EFAD9C"/>
<path d="M229.178 300.981C232.221 299.664 235.345 298.289 237.691 295.941C240.037 293.593 241.696 289.228 239.842 285.357C240.632 276.468 236.547 271.943 230.036 269.4C223.525 266.846 215.401 268.656 209.096 271.668C204.313 273.959 199.873 277.567 197.985 282.527C195.502 289.034 197.825 296.273 197.939 303.238C198.065 310.798 195.559 318.404 197.035 325.815C198.18 331.543 201.784 336.743 206.75 339.813C211.716 342.883 217.975 343.788 223.605 342.241C228.125 341.004 232.359 338.026 234.132 333.696C236.238 328.564 234.579 322.699 232.45 317.579C230.322 312.459 229.029 306.537 229.178 300.993V300.981Z" fill="#5B3D31"/>
<path d="M225.035 305.666C226.843 307.785 229.464 308.152 230.905 306.48C232.347 304.807 232.05 301.726 230.253 299.595C228.445 297.476 225.825 297.109 224.383 298.782C222.941 300.454 223.239 303.536 225.035 305.666Z" fill="#EFAD9C"/>
<path d="M225.527 299.79C226.191 299.286 227.118 299.217 228.01 299.595C228.457 299.79 228.788 300.042 229.017 300.363C229.326 300.798 229.452 301.371 229.326 301.863C229.223 302.299 228.949 302.608 228.708 302.871C228.537 303.066 228.377 303.249 228.285 303.456C228.159 303.776 228.228 304.2 228.445 304.441C228.663 304.681 229.029 304.727 229.292 304.555C229.452 304.452 229.647 304.521 229.727 304.693C229.818 304.876 229.761 305.105 229.612 305.208C229.441 305.323 229.258 305.38 229.063 305.403C228.686 305.437 228.285 305.3 228.01 304.99C227.587 304.532 227.461 303.742 227.701 303.135C227.839 302.803 228.056 302.551 228.251 302.333C228.445 302.115 228.628 301.898 228.697 301.657C228.754 301.417 228.685 301.096 228.514 300.855C228.445 300.752 228.354 300.672 228.251 300.592C227.93 300.615 227.541 300.775 227.358 301.05C227.152 301.359 227.072 301.795 227.164 302.173C227.209 302.379 227.106 302.574 226.935 302.631C226.912 302.631 226.9 302.631 226.878 302.631C226.729 302.642 226.58 302.528 226.534 302.344C226.397 301.737 226.523 301.073 226.843 300.58C226.969 300.397 227.129 300.26 227.29 300.145C226.752 300.031 226.225 300.111 225.836 300.409C225.356 300.764 225.035 301.6 225.344 302.23C225.436 302.413 225.379 302.642 225.23 302.745C225.081 302.848 224.875 302.78 224.795 302.608C224.349 301.691 224.681 300.397 225.504 299.779L225.527 299.79Z" fill="#C16B5B"/>
<path d="M223.856 541.751H182.342C173.314 541.751 165.979 534.397 165.979 525.37V467.649H240.231V525.37C240.231 534.408 232.884 541.751 223.868 541.751H223.856ZM167.856 469.528V525.359C167.856 533.354 174.355 539.861 182.342 539.861H223.856C231.843 539.861 238.343 533.354 238.343 525.359V469.528H167.868H167.856Z" fill="#208082"/>
<path d="M285.647 541.751H249.648C240.62 541.751 233.285 534.397 233.285 525.37V467.649H302.01V525.37C302.01 534.408 294.663 541.751 285.647 541.751ZM235.173 469.528V525.359C235.173 533.354 241.673 539.861 249.66 539.861H285.658C293.645 539.861 300.144 533.354 300.144 525.359V469.528H235.185H235.173Z" fill="#3BB0B2"/>
<path d="M161.202 396.061L159.321 396.229L165.92 470.392L167.801 470.224L161.202 396.061Z" fill="#3BB0B2"/>
<path d="M237.233 470.112L230.653 396.228L232.53 396.068L239.132 470.227L237.233 470.112Z" fill="#3BB0B2"/>
<path d="M302.913 459.997H167.112V470.307H302.913V459.997Z" fill="#208082"/>
<path d="M302.913 459.997H235.013V470.307H302.913V459.997Z" fill="#3BB0B2"/>
<path d="M218.57 428.187H178.899C169.538 428.187 161.265 420.593 160.43 411.211L158.142 385.518C157.306 376.148 164.218 368.542 173.589 368.542H213.261C222.621 368.542 230.894 376.136 231.729 385.518L234.018 411.211C234.853 420.581 227.942 428.187 218.57 428.187Z" fill="#101519"/>
<path d="M158.955 529.219C166.907 535.313 180.856 533.675 180.593 541.017C162.777 542.563 153.909 538.108 153.909 538.108L153.817 540.467L147.627 539.562C147.627 539.562 145.338 533.526 147.1 528.703L158.955 529.23V529.219Z" fill="#101519"/>
<path d="M158.954 529.219L159.824 516.229L147.272 516.618L147.111 528.692C151.345 531.624 155.27 531.51 158.966 529.219H158.954Z" fill="#9E6C52"/>
<path d="M162.376 443.399C155.842 436.033 72.2422 428.198 72.2422 428.198L72.002 431.463C72.002 444.281 75.0915 460.02 86.74 460.02H145.715L146.413 517.901C146.413 517.901 153.565 520.776 161.54 516.756C161.54 516.756 170.843 452.964 162.364 443.41L162.376 443.399Z" fill="#6CDBDD"/>
<path d="M145.807 466.595L146.425 517.901C146.425 517.901 153.576 520.776 161.552 516.756C161.552 516.756 165.969 486.423 165.934 464.453C159.24 465.323 152.535 466.228 145.807 466.595Z" fill="#208082"/>
<path d="M220.046 517.626C229.99 518.864 240.906 510.536 244.385 517.019C229.795 527.363 219.886 528.005 219.886 528.005L220.996 530.089L215.195 532.438C215.195 532.438 210.171 528.383 209.256 523.331L220.035 517.638L220.046 517.626Z" fill="#101519"/>
<path d="M220.046 517.626L214.244 506.217L203.488 512.712L209.267 523.319C214.393 523.8 217.952 521.441 220.046 517.626Z" fill="#9E6C52"/>
<path d="M91.1679 428.29C89.4858 441.268 98.8115 453.09 111.822 454.43C111.822 454.43 153.152 463.216 170.305 460.008L203.832 514.236C203.832 514.236 211.201 515.152 216.911 509.722C215.595 503.216 192.08 456.732 183.796 440.913C176.816 427.568 91.1679 428.279 91.1679 428.279V428.29Z" fill="#6CDBDD"/>
<path d="M171.93 459.699C174.081 459.642 176.186 458.966 177.743 457.488C179.299 456.011 180.283 453.937 180.454 451.795" stroke="#208082" stroke-width="0.5" stroke-linecap="round" stroke-linejoin="round"/>
<path d="M89.5322 286.983C94.2695 276.216 114.294 278.048 116.525 286.101C121.102 302.665 119.294 309.778 114.958 314.154C109.934 319.217 106.41 319.984 107.223 329.652C106.479 332.104 102.92 339.79 102.92 339.79C102.92 339.79 96.3864 332.688 94.7501 329.652C93.8232 316.834 88.6054 307.499 88.6054 307.499C88.6054 307.499 87.5756 291.416 89.5208 286.983H89.5322Z" fill="#9E6C52"/>
<path d="M118.31 294.165C119.031 292.768 120.69 291.496 120.942 289.95C121.194 288.392 120.965 286.674 120.129 285.345C120.69 285.677 121.457 285.379 121.812 284.83C122.166 284.291 122.201 283.592 122.132 282.951C121.96 281.359 121.205 279.847 120.049 278.736C118.894 277.636 117.498 277.075 115.907 276.972C116.857 275.7 116.388 273.73 115.163 272.722C113.939 271.714 112.177 271.553 110.632 271.92C109.087 272.286 107.451 272.848 106.089 273.661C106.627 272.882 106.375 271.737 105.689 271.095C105.002 270.454 103.972 270.259 103.046 270.396C102.107 270.534 101.249 270.969 100.437 271.45C98.6631 272.493 96.9238 273.81 95.8139 275.551C95.791 274.898 95.7796 274.245 95.5507 273.627C95.3219 273.02 94.8527 272.458 94.2234 272.309C93.4338 272.126 92.6443 272.596 92.0264 273.111C89.9324 274.852 88.6051 277.338 87.2205 279.686C83.433 279.205 79.7141 282.08 78.444 285.78C76.6246 291.107 78.8331 296.754 80.9614 301.622C83.1927 306.743 86.1106 311.577 89.6692 315.895C91.0309 317.545 92.8503 318.919 94.9671 319.206C97.084 319.492 99.3153 318.736 100.826 317.212C103.034 314.979 103.458 311.588 104.59 308.644C105.78 305.551 107.817 302.837 110.186 300.523C112.554 298.209 116.788 297.109 118.299 294.154L118.31 294.165Z" fill="#1B1B28"/>
<path d="M103.606 304.887C105.151 307.029 107.794 307.762 109.488 306.536C111.181 305.299 111.307 302.573 109.751 300.431C108.206 298.289 105.563 297.556 103.869 298.781C102.176 300.019 102.05 302.745 103.606 304.887Z" fill="#9E6C52"/>
<path d="M104.911 299.847C105.654 299.515 106.615 299.606 107.474 300.076C107.897 300.316 108.206 300.58 108.401 300.912C108.664 301.336 108.709 301.863 108.515 302.264C108.343 302.63 108.034 302.848 107.748 303.043C107.542 303.18 107.359 303.318 107.245 303.489C107.073 303.753 107.085 304.131 107.279 304.371C107.474 304.612 107.84 304.715 108.126 304.612C108.298 304.543 108.492 304.635 108.549 304.807C108.618 304.979 108.526 305.173 108.355 305.231C108.172 305.299 107.966 305.334 107.771 305.311C107.382 305.288 106.993 305.093 106.753 304.784C106.387 304.314 106.364 303.615 106.696 303.111C106.879 302.848 107.142 302.665 107.371 302.504C107.6 302.344 107.817 302.184 107.92 301.989C108.011 301.783 107.989 301.496 107.84 301.256C107.783 301.164 107.703 301.072 107.611 300.981C107.279 300.958 106.867 301.027 106.638 301.244C106.387 301.485 106.249 301.851 106.284 302.195C106.295 302.378 106.169 302.539 105.986 302.562C105.963 302.562 105.952 302.562 105.929 302.562C105.769 302.562 105.643 302.424 105.62 302.264C105.563 301.714 105.78 301.153 106.181 300.775C106.329 300.637 106.512 300.546 106.696 300.477C106.158 300.294 105.62 300.282 105.185 300.477C104.647 300.717 104.213 301.393 104.43 301.989C104.499 302.161 104.407 302.355 104.235 302.413C104.064 302.481 103.869 302.39 103.812 302.218C103.48 301.347 103.995 300.271 104.922 299.858L104.911 299.847Z" fill="#7F4932"/>
<path d="M106.696 352.528C96.5235 359.801 86.351 367.304 76.1785 374.578C77.38 372.608 78.6616 370.729 80.0919 368.759C79.8059 368.347 79.6685 367.831 79.8402 367.339C80.5382 365.288 80.8815 363.146 81.465 361.061C81.8083 359.824 82.2202 358.599 82.6207 357.373L76.1785 342.47C71.2697 350.282 56.852 383.902 56.5316 386.652C56.2112 389.401 57.1495 392.471 59.4952 393.914C62.3101 395.644 65.9717 394.498 68.9468 393.066C85.0008 385.357 97.0613 370.351 111.925 360.546C110.186 357.785 108.424 355.288 106.685 352.528H106.696Z" fill="#9E6C52"/>
<path d="M79.4516 372.012C80.573 368.335 81.8202 364.704 82.8615 360.993C83.651 358.186 84.2003 355.323 84.8411 352.482C85.4018 349.973 85.7107 347.224 86.6948 344.841C86.8092 344.566 86.9694 344.314 87.1639 344.108C86.6032 340.042 81.9461 336.01 80.9964 331.989C76.0646 333.455 74.2567 335.975 72.5059 338.885C68.501 345.517 64.6449 358.095 62.2305 365.139C67.2767 367.957 72.3229 370.787 77.369 373.604C77.5178 373.318 77.7467 373.1 78.0213 372.906C78.479 372.574 78.9596 372.276 79.4516 371.989V372.012Z" fill="#90FAFC"/>
<path d="M145.784 385.792C146.139 387.877 145.578 390.111 144.285 391.783C142.992 393.456 140.978 394.555 138.873 394.727C135.886 394.979 132.968 393.421 130.874 391.279C128.78 389.126 127.373 386.422 125.988 383.753C120.759 373.662 117.91 366.606 112.681 356.514C115.221 355.403 117.75 354.303 120.29 353.192C128.792 365.426 135.657 373.765 145.796 385.792H145.784Z" fill="#9E6C52"/>
<path d="M129.432 429.241C129.432 429.241 112.074 437.523 72.1162 429.057C75.2286 387.075 80.9957 332.001 80.9957 332.001L94.4293 328.484H106.902L108.847 329.125L109.74 329.423L112.486 330.328L113.39 330.626L119.5 332.642C119.5 332.642 127.052 379.813 129.432 429.252V429.241Z" fill="#90FAFC"/>
<path d="M137.717 366.239C133.54 368.576 126.892 372.287 122.704 374.624C125.988 379.767 129.432 384.59 133.952 389.55L145.704 385.495C143.083 378.438 140.371 371.989 137.717 366.239Z" fill="#9E6C52"/>
<path d="M122.704 374.624C128.345 371.474 133.998 368.312 139.639 365.162C136.859 358.175 129.73 343.581 125.233 337.556C123.196 334.83 122.269 333.295 117.132 331.863C115.736 337.785 114.385 343.845 114.179 349.927C113.973 356.01 119.477 369.481 122.704 374.635V374.624Z" fill="#90FAFC"/>
<path d="M121.297 375.22C118.459 368.587 114.797 354.876 115.884 342.917" stroke="#6CDBDD" stroke-width="0.5" stroke-linecap="round" stroke-linejoin="round"/>
<path d="M74.7025 345.54C73.7299 351.691 72.4941 364.406 72.1279 370.695" stroke="#6CDBDD" stroke-width="0.5" stroke-linecap="round" stroke-linejoin="round"/>
<path d="M106.136 541.75H64.6217C55.5935 541.75 48.2588 534.396 48.2588 525.37V467.649H122.51V525.37C122.51 534.408 115.164 541.75 106.147 541.75H106.136ZM50.1354 469.527V525.358C50.1354 533.354 56.6348 539.86 64.6217 539.86H106.136C114.122 539.86 120.622 533.354 120.622 525.358V469.527H50.1354Z" fill="#208082"/>
<path d="M167.937 541.75H131.938C122.91 541.75 115.575 534.396 115.575 525.37V467.649H184.3V525.37C184.3 534.408 176.953 541.75 167.937 541.75ZM117.463 469.527V525.358C117.463 533.354 123.963 539.86 131.95 539.86H167.948C175.935 539.86 182.434 533.354 182.434 525.358V469.527H117.475H117.463Z" fill="#3BB0B2"/>
<path d="M43.4753 396.058L41.5947 396.226L48.1935 470.389L50.0741 470.221L43.4753 396.058Z" fill="#3BB0B2"/>
<path d="M119.511 470.111L112.943 396.228L114.82 396.067L121.411 470.226L119.511 470.111Z" fill="#3BB0B2"/>
<path d="M185.193 459.997H49.3916V470.306H185.193V459.997Z" fill="#208082"/>
<path d="M185.192 459.997H117.292V470.306H185.192V459.997Z" fill="#3BB0B2"/>
<path d="M100.86 428.187H61.1886C51.8285 428.187 43.5555 420.592 42.7202 411.211L40.4317 385.518C39.5964 376.148 46.5077 368.542 55.8792 368.542H95.5508C104.911 368.542 113.184 376.136 114.019 385.518L116.308 411.211C117.143 420.581 110.232 428.187 100.86 428.187Z" fill="#101519"/>
<path d="M64.164 499.459C59.9875 496.504 55.1129 494.029 52.6528 489.539C49.8836 484.465 50.9135 478.027 48.4991 472.769C46.0961 467.569 40.5579 464.063 39.0818 458.531C38.0405 454.648 39.2992 450.386 41.7251 447.168C44.7802 443.124 49.7692 440.524 54.8383 440.696C59.8959 440.867 64.8391 443.949 66.9217 448.565C70.9953 457.603 63.8665 468.897 68.1689 477.844C70.549 482.792 75.8584 485.621 79.1424 490.032C82.0832 493.972 83.2618 499.024 83.3304 503.938C83.3991 508.863 82.4379 513.732 81.4767 518.566C81.0762 520.593 79.6802 522.426 79.3369 519.7C78.9937 516.882 78.1126 514.992 76.5449 512.506C73.3181 507.409 69.0958 502.941 64.1755 499.459H64.164Z" fill="#31E5E8"/>
<path d="M79.0163 505.942C78.3641 501.223 79.1193 496.103 82.0944 492.391C84.4973 489.402 88.1132 487.569 90.5161 484.579C94.4181 479.734 94.4295 472.907 93.9375 466.71C93.4454 460.512 92.7246 453.903 95.5738 448.382C98.4001 442.918 104.705 439.504 110.827 440.031C116.949 440.558 122.555 444.922 124.649 450.707C126.755 456.492 125.302 463.376 121.125 467.901C118.974 470.226 116.228 471.91 113.768 473.903C111.307 475.896 109.007 478.393 108.332 481.486C107.383 485.816 109.705 490.707 107.566 494.579C105.906 497.592 102.245 498.703 99.1782 500.249C92.6101 503.583 87.7699 510.135 86.5112 517.409C86.351 518.314 86.0077 520.822 84.6117 520.753C83.4217 520.696 83.067 518.68 82.7352 517.821C81.2018 513.938 79.5884 510.1 79.0049 505.919L79.0163 505.942Z" fill="#36FCFF"/>
<path d="M67.9858 514.167C63.7177 513.102 58.969 513.686 55.3531 516.171C52.79 517.936 50.6617 520.65 47.595 521.166C44.4941 521.693 41.1643 519.757 38.2464 520.96C35.935 521.91 34.6306 524.568 32.2734 525.404C30.0421 526.194 27.4675 525.015 26.0486 523.125C24.6297 521.235 24.1606 518.783 24.0347 516.424C23.8173 512.208 24.6068 507.867 26.8267 504.281C29.0466 500.696 32.7997 497.97 36.9877 497.523C42.0339 496.985 46.8742 499.677 51.9318 500.112C56.7148 500.524 61.555 498.898 66.2808 499.722C70.8922 500.536 74.9315 503.709 77.2314 507.798C78.1926 509.505 81.8886 519.322 79.0508 520.261C77.815 520.662 75.229 517.638 74.2563 516.996C72.334 515.725 70.2171 514.728 67.9743 514.167H67.9858Z" fill="#36FCFF"/>
<path d="M96.0886 513.949C98.8462 513.732 101.592 514.362 104.293 514.98C107.016 515.61 109.808 516.263 112.097 517.878C114.019 519.242 115.438 521.2 117.04 522.93C118.642 524.671 120.599 526.275 122.933 526.596C126.755 527.122 130.325 523.812 131.229 520.055C132.133 516.298 130.966 512.346 129.318 508.852C127.727 505.496 125.519 502.22 122.235 500.501C118.333 498.462 113.607 498.944 109.328 499.986C105.048 501.028 100.814 502.586 96.409 502.552C93.4682 502.529 90.3215 501.819 87.7126 503.182C84.726 504.74 83.5818 508.417 83.147 511.762C82.8037 514.35 82.7007 516.985 82.8609 519.585C83.0783 522.953 84.131 521.292 85.6186 519.574C88.2733 516.515 92.015 514.282 96.1 513.961L96.0886 513.949Z" fill="#31E5E8"/>
<path d="M111.754 448.702C107.028 452.013 104.041 457.683 103.973 463.456C103.938 466.503 104.648 469.619 103.812 472.54C102.371 477.614 96.6607 480.891 96.0657 486.125C95.8254 488.29 96.5234 490.49 96.1801 492.643C95.6194 496.206 92.4727 498.668 90.0927 501.372C85.7559 506.309 83.5818 513.102 84.2684 519.642" stroke="#31E5E8" stroke-miterlimit="10"/>
<path d="M29.1265 520.49C28.7603 516.412 31.8155 512.3 35.8318 511.486C38.7268 510.902 41.7706 511.865 44.677 511.338C49.2197 510.513 52.8241 506.16 57.4469 506.309C60.3877 506.401 62.9394 508.336 65.8 509.035C68.1343 509.608 70.6517 509.344 72.8945 510.204C76.6476 511.635 78.5815 515.702 80.1605 519.39" stroke="#31E5E8" stroke-miterlimit="10"/>
<path d="M53.5456 447.19C51.3372 449.882 51.1083 454.04 53.0307 456.95C54.8615 459.733 58.3858 461.452 59.1983 464.693C60.0793 468.199 57.2988 471.727 57.6878 475.324C58.0197 478.439 60.5828 480.787 63.043 482.735C65.4917 484.682 68.1807 486.801 68.8902 489.848C69.4051 492.036 68.8101 494.407 69.5767 496.515C70.2976 498.508 72.0826 499.883 73.5702 501.395C78.2388 506.103 80.4586 513.124 79.3716 519.665" stroke="#36FCFF" stroke-miterlimit="10"/>
<path d="M124.02 518.256C125.164 515.736 123.505 512.632 121.079 511.28C118.653 509.94 115.736 509.929 112.966 510.112C110.197 510.295 107.36 510.616 104.705 509.826C102.451 509.161 100.505 507.741 98.3198 506.859C96.1457 505.977 93.4224 505.748 91.6373 507.283C90.1269 508.588 89.7264 510.765 88.5478 512.38C87.5409 513.755 86.019 514.648 84.829 515.862C83.6275 517.076 82.7464 518.909 83.4559 520.456" stroke="#36FCFF" stroke-miterlimit="10"/>
<path d="M99.7738 515.301L98.1832 524.935L97.2564 530.651L94.7276 546H70.8812L68.3638 530.651L67.4255 524.935L65.835 515.301H99.7738Z" fill="#6CDBDD"/>
<path d="M98.1835 524.935L97.2567 530.651H68.3641L67.4258 524.935H98.1835Z" fill="#90FAFC"/>
</g>
<defs>
<clipPath id="clip0_80_2621">
<rect width="540" height="441" fill="white" transform="translate(24 105)"/>
</clipPath>
</defs>
</svg>
