<svg width="588" height="650" viewBox="0 0 588 650" fill="none" xmlns="http://www.w3.org/2000/svg">
<path d="M121.962 378.07L481.867 378.07L481.867 78.7676L121.962 78.7676L121.962 378.07Z" fill="url(#paint0_linear_80_2961)"/>
<g filter="url(#filter0_d_80_2961)">
<path d="M121.962 378.07L481.867 378.07L481.867 78.7676L121.962 78.7676L121.962 378.07Z" fill="#F2F8F9"/>
</g>
<mask id="mask0_80_2961" style="mask-type:luminance" maskUnits="userSpaceOnUse" x="143" y="97" width="319" height="263">
<path d="M143.335 359.161L461.438 359.161L461.438 97.6915L143.335 97.6915L143.335 359.161Z" fill="white"/>
</mask>
<g mask="url(#mask0_80_2961)">
<path d="M121.976 370.285L675.701 370.285V88.8383L121.976 88.8383V370.285Z" fill="#D6FEFF"/>
<path d="M339.14 374.417H391.149V160.319H339.14V374.417Z" fill="#94D4EA"/>
<path d="M432.581 193.732H376.48V359.147H432.581V193.732Z" fill="#94D4EA"/>
<path d="M453.735 262.955H496.057C512.531 262.955 525.9 276.323 525.9 292.798V359.161H423.906V292.798C423.906 276.323 437.275 262.955 453.749 262.955H453.735Z" fill="#94D4EA"/>
<path d="M345.612 265.5H320.873V196.305L285.557 196.496V287.831H268.125V258.234H249.311V217.828H223.614V273.669V287.831H208.932V196.496H197.931V167.899H191.965V141.559H130.487V273.217V363.867L352.07 364.88L345.612 265.5Z" fill="#94D4EA"/>
<path opacity="0.3" d="M470.866 94.0518H405.516L587.254 415.22H611.979L648.759 408.433L470.866 94.0518Z" fill="white"/>
<path opacity="0.3" d="M239.554 101.878H174.19L355.929 423.047H380.667L417.447 416.26L239.554 101.878Z" fill="white"/>
<path opacity="0.3" d="M96.3477 101.878L278.086 423.047H330.341L148.603 101.878H96.3477Z" fill="white"/>
<path opacity="0.3" d="M267.317 99.5792C274.459 100.564 268.275 99.9349 266.564 99.9213C266.236 99.9213 265.894 99.9213 265.565 99.9213L430.296 390.07C436.74 389.03 428.298 361.459 434.784 360.734L285.296 97.6772C280.028 99.9076 273.857 100.482 267.317 99.5792Z" fill="white"/>
</g>
<path d="M461.438 97.6777H143.335V359.147H461.438V97.6777Z" stroke="#364A55" stroke-width="3" stroke-miterlimit="10"/>
<mask id="mask1_80_2961" style="mask-type:luminance" maskUnits="userSpaceOnUse" x="205" y="284" width="193" height="152">
<path d="M205.031 306.207V435.265H396.854C396.854 435.265 399.194 334.23 396.854 308.971C394.514 283.712 371.704 284.437 371.704 284.437H205.031V306.193V306.207Z" fill="white"/>
</mask>
<g mask="url(#mask1_80_2961)">
<path d="M227.663 284.451H427.175C427.175 284.451 446.112 283.726 448.055 308.985C449.998 334.243 448.055 435.279 448.055 435.279L219.631 428.123L227.649 284.465L227.663 284.451Z" fill="#1D4E4F"/>
</g>
<path d="M514.008 426.987H512.202V399.375H514.008C521.63 399.375 527.814 405.573 527.814 413.181C527.814 420.789 521.616 426.987 514.008 426.987ZM515.814 403.138V423.211C520.576 422.363 524.202 418.176 524.202 413.181C524.202 408.187 520.576 404 515.814 403.152V403.138Z" fill="#D89319"/>
<path d="M479.664 393.067V427.904C479.664 430.873 482.893 433.281 486.875 433.281H508.918C512.9 433.281 516.129 430.873 516.129 427.904V393.067H479.65H479.664Z" fill="#D89319"/>
<path d="M516.184 404.328H479.664V419.68H516.184V404.328Z" fill="#EFB456"/>
<g style="mix-blend-mode:multiply" opacity="0.2">
<path d="M490.186 427.904V393.067H479.664V427.904C479.664 430.873 482.893 433.281 486.875 433.281H497.397C493.416 433.281 490.186 430.873 490.186 427.904Z" fill="#002432"/>
</g>
<g style="mix-blend-mode:multiply" opacity="0.2">
<path d="M516.143 403.233C517.182 403.452 518.168 403.822 519.057 404.328V400.333C518.127 399.963 517.155 399.703 516.143 399.553V403.233Z" fill="#002432"/>
<path d="M519.057 422.034C518.168 422.554 517.182 422.909 516.143 423.128V426.809C517.155 426.645 518.127 426.385 519.057 426.015V422.02V422.034Z" fill="#002432"/>
</g>
<path d="M331.613 308.479L292.726 310.326L236.201 332.643C236.201 332.643 255.713 463.084 255.713 484.922C258.135 483.143 376.302 484.922 376.302 484.922L383.362 404.301L373.702 324.57L342.163 314.267" fill="#90F2F4"/>
<g style="mix-blend-mode:multiply" opacity="0.37">
<path d="M335.39 427.836C335.39 427.836 350.92 388.607 356.79 385.952Z" fill="#8CD1D1"/>
</g>
<g style="mix-blend-mode:multiply" opacity="0.37">
<path d="M288.484 427.836C288.484 427.836 272.954 388.607 267.084 385.952Z" fill="#8CD1D1"/>
</g>
<path d="M330.053 312.297C323.061 330.509 308.995 334.094 308.995 334.094C300.224 323.777 290.003 314.828 290.003 314.828C291.919 312.324 293.328 309.656 294.354 306.974C296.379 301.624 296.858 296.164 296.749 291.663C303.289 293.565 310.486 294.413 316.849 292.306C316.849 292.306 319.367 291.731 323.075 290.349C323.362 297.683 324.744 302.828 326.208 306.276C328.069 310.655 330.053 312.31 330.053 312.31V312.297Z" fill="#EFA381"/>
<g style="mix-blend-mode:multiply" opacity="0.42">
<path d="M304.138 326.814C307.982 326.842 312.087 327.293 315.932 326.636C310.117 322.75 305.656 317.017 303.878 310.162C302.413 304.511 302.236 298.737 302.222 292.935C300.361 292.607 298.527 292.169 296.749 291.663C296.872 296.178 296.393 301.624 294.354 306.974C293.328 309.656 291.919 312.324 290.003 314.828C290.003 314.828 294.901 316.183 301.661 327.293C302.372 326.979 303.193 326.814 304.124 326.814H304.138Z" fill="#EFB296"/>
</g>
<mask id="mask2_80_2961" style="mask-type:luminance" maskUnits="userSpaceOnUse" x="288" y="308" width="49" height="125">
<path d="M306.148 431.954L288.128 318.905L291.727 310.216L298.226 323.804L307.886 323.653L319.558 323.804L326.564 317.058L329.984 308.479L332.735 310.312L336.155 318.002L316.411 432.009L306.148 431.954Z" fill="white"/>
</mask>
<g mask="url(#mask2_80_2961)">
<g style="mix-blend-mode:multiply" opacity="0.37">
<path d="M306.176 433.583C306.176 433.583 305.492 325.719 287.539 312.488C269.587 299.256 274.417 345.3 274.417 345.3L300.949 433.665L306.176 433.583Z" fill="#8CD1D1"/>
</g>
<g style="mix-blend-mode:multiply" opacity="0.37">
<path d="M318.613 430.449C318.613 430.449 319.393 325.199 339.521 312.282C359.662 299.379 354.23 344.301 354.23 344.301L324.456 430.518L318.6 430.449H318.613Z" fill="#8CD1D1"/>
</g>
</g>
<path d="M327.426 307.288C333.323 307.863 336.635 315.731 334.787 321.396C333.255 327.457 327.96 332.164 322.322 334.299C312.922 337.76 302.55 336.201 294.888 329.865C290.742 326.445 287.444 320.232 289.045 314.663C289.497 312.953 290.413 311.393 291.741 310.217C291.918 310.08 292.069 309.861 292.288 309.751C292.739 309.464 293.424 309.751 293.41 310.326C293.41 310.709 293.109 311.01 292.726 311.01C292.958 311.037 293.218 310.819 293.287 310.709C293.095 314.855 296.297 318.385 299.909 320.055C306.874 323.079 318.368 323.9 324.607 319.056C327.891 316.497 328.78 311.612 326.345 308.137C326.058 307.754 326.413 307.179 326.879 307.247L327.426 307.316V307.288Z" fill="#3FD2D4"/>
<path d="M261.528 238.052C261.528 238.052 252.552 242.732 252.169 233.236C251.786 223.74 249.2 220.729 246.983 212.697C244.767 204.666 247.996 202.175 251.239 197.112C254.482 192.05 256.206 185.496 258.929 180.775C261.788 175.822 273.186 162.768 288.634 162.399C288.634 162.399 308.01 154.038 319.955 156.912C333.296 160.114 331.408 166.367 343.941 171.498C356.475 176.629 352.261 188.314 358.678 196.497C365.109 204.679 365.095 224.465 361.757 229.281C358.418 234.098 351.33 228.611 351.33 228.611L328.302 239.954L261.528 238.052Z" fill="#93511D"/>
<g style="mix-blend-mode:multiply" opacity="0.32">
<path d="M349.825 196.565C349.483 198.686 349.784 200.862 351.7 201.737C353.985 202.75 356.886 203.201 358.281 205.596C359.349 207.334 359.335 209.783 357.925 211.288L357.515 211.247C356.694 209.865 356.092 208.921 354.997 208.072C354.176 207.47 353.424 206.294 352.192 205.432C350.673 204.446 348.963 203.338 348.512 201.477C348.06 199.671 348.512 197.92 349.442 196.428L349.811 196.592L349.825 196.565Z" fill="#472D1A"/>
</g>
<g style="mix-blend-mode:multiply" opacity="0.25">
<path d="M305.533 170.595C307.12 176.78 315.33 175.918 320.379 176.506C327.029 176.725 329.492 177.314 332.133 183.827C333.392 186.728 336.183 186.7 339.016 187.74C340.89 188.452 342.559 189.587 343.969 190.915L343.887 191.024C342.272 189.957 340.548 189.067 338.742 188.561C333.159 187.521 331.914 187.165 329.629 181.884C328.069 177.902 323.992 177.82 320.311 177.519C315.426 176.93 306.039 176.876 305.547 170.595H305.533Z" fill="#472D1A"/>
</g>
<g style="mix-blend-mode:multiply" opacity="0.23">
<path d="M259.271 207.868C264.292 208.538 267.795 201.313 268.944 197.291C270.067 193.829 267.617 188.78 271.448 186.385C274.158 184.483 277.962 184.921 277.743 180.474C277.715 179.297 277.743 176.67 279.604 176.492C280.124 176.41 280.602 176.492 281.054 176.561V176.834C278.769 177.259 279.248 178.34 279.658 180.31C280.602 183.799 278.413 186.768 275.088 187.74C273.911 188.191 272.174 188.684 271.681 189.915C271.106 192.283 271.64 195.307 270.655 197.769C269.122 202.093 264.525 209.523 259.161 208.114L259.271 207.868Z" fill="#472D1A"/>
</g>
<mask id="mask3_80_2961" style="mask-type:luminance" maskUnits="userSpaceOnUse" x="260" y="189" width="93" height="105">
<path d="M350.946 257.496C346.814 264.898 332.857 286.682 323.074 290.335C319.366 291.717 316.848 292.292 316.848 292.292C310.485 294.399 302.741 294.864 296.748 291.649C278.727 282.002 271.68 273.259 271.68 273.259C260.734 258.549 260.228 219.019 260.228 219.019C282.504 215.078 291.411 189.094 291.411 189.094C302.727 211.233 347.101 210.317 347.101 210.317C355.817 225.505 350.96 257.468 350.96 257.468L350.946 257.496Z" fill="white"/>
</mask>
<g mask="url(#mask3_80_2961)">
<path d="M353.436 258.193C349.304 265.596 332.857 286.695 323.074 290.349C319.366 291.731 316.848 292.305 316.848 292.305C310.485 294.412 302.741 294.878 296.748 291.662C278.727 282.016 271.68 273.272 271.68 273.272C260.734 258.563 260.228 219.033 260.228 219.033C268.054 215.968 276.88 213.217 275.525 206.116C273.911 197.646 286.39 193.609 285.473 189.286C283.42 179.571 295.311 176.725 295.311 176.725C301.496 183.511 313.605 178.599 315.959 185.838C318.285 192.994 331.858 191.311 333.76 197.796C336.812 208.155 349.113 210.193 349.113 210.193C353.45 221.564 353.45 258.193 353.45 258.193H353.436Z" fill="#D88D71"/>
<path d="M350.946 257.496C346.814 264.898 334.157 285.382 324.374 289.035C320.666 290.417 318.148 290.992 318.148 290.992C311.785 293.099 304.041 293.564 298.047 290.349C280.027 280.702 272.98 271.959 272.98 271.959C262.034 257.249 260.214 219.033 260.214 219.033C268.041 215.968 274.54 213.245 273.185 206.13C271.571 197.66 287.676 192.296 286.773 187.972C284.72 178.257 296.611 175.411 296.611 175.411C302.795 182.198 314.905 177.286 317.258 184.524C319.585 191.68 333.158 189.997 335.06 196.483C338.111 206.841 350.412 208.88 350.412 208.88C354.75 220.25 350.96 257.496 350.96 257.496H350.946Z" fill="#EFA381"/>
</g>
<path d="M340.493 222.207C340.219 222.453 339.316 222.029 337.606 221.605C335.936 221.167 333.583 220.593 330.983 220.278C328.37 219.908 326.043 219.963 324.415 220.223C322.787 220.469 321.802 220.948 321.542 220.647C321.323 220.428 322.021 219.293 323.882 218.472C325.701 217.664 328.452 217.309 331.311 217.705C334.185 218.061 336.661 218.978 338.317 219.922C340 220.825 340.766 221.988 340.493 222.207Z" fill="#A26A3D"/>
<path d="M261.049 233.332C261.049 233.332 250.897 234.276 255.809 240.501C260.735 246.727 263.937 253.09 263.937 253.09" fill="#EFA381"/>
<mask id="mask4_80_2961" style="mask-type:luminance" maskUnits="userSpaceOnUse" x="292" y="260" width="34" height="20">
<path d="M292.89 262.873C296.584 263.749 314.044 267.388 324.977 260.848C325.332 260.643 325.743 260.971 325.592 261.354C323.444 266.513 314.249 285.997 300.936 277.336C296.064 274.161 293.177 265.869 292.397 263.393C292.302 263.078 292.575 262.791 292.89 262.859V262.873Z" fill="white"/>
</mask>
<g mask="url(#mask4_80_2961)">
<path d="M292.192 262.695C292.192 262.695 313.976 268.524 326.072 260.137C326.072 260.137 316.206 287.27 300.936 277.323C295.189 273.573 292.192 262.682 292.192 262.682V262.695Z" fill="#721500"/>
<path d="M313.565 278.061C314.618 283.138 309.364 288.515 301.825 290.075C294.285 291.635 287.335 288.789 286.281 283.712C285.227 278.636 290.482 273.259 298.021 271.712C305.56 270.153 312.511 272.999 313.565 278.061Z" fill="#F4654E"/>
</g>
<path d="M273.186 224.424C272.981 224.437 272.995 223.876 273.378 223.438C273.747 222.973 274.363 222.467 275.17 221.974C276.785 220.989 279.166 220.004 281.943 219.375C284.721 218.759 287.403 218.649 289.36 219.224C290.331 219.498 291.084 219.963 291.481 220.428C291.891 220.88 291.918 221.263 291.795 221.359C291.481 221.578 290.687 221.03 289.059 221.044C287.444 221.003 285.091 221.345 282.505 221.92C279.918 222.508 277.579 223.165 275.923 223.657C275.116 223.904 274.459 224.109 273.98 224.259C273.515 224.41 273.378 224.437 273.173 224.437L273.186 224.424Z" fill="#A26A3D"/>
<g style="mix-blend-mode:multiply" opacity="0.2">
<path d="M290.782 243.963C286.376 242.869 275.293 244.059 274.144 249.012C274.144 249.012 275.457 254.759 288.73 249.382C293.012 247.644 293.792 244.716 290.782 243.963Z" fill="#EFB296"/>
</g>
<g style="mix-blend-mode:multiply" opacity="0.2">
<path d="M327.535 243.115C331.612 241.432 342.285 241.172 343.927 245.988C343.927 245.988 343.339 251.927 330.094 248.287C325.824 247.11 324.757 244.264 327.535 243.115Z" fill="#EFB296"/>
</g>
<g style="mix-blend-mode:multiply" opacity="0.2">
<path d="M296.188 276.57C297.296 278.91 299.39 280.661 301.729 281.564C303.549 282.098 305.383 282.166 307.175 282.905C307.818 283.083 308.475 283.302 309.173 283.671L309.2 283.945C305.205 286.572 300.06 284.082 297.529 280.565C296.708 279.361 296.106 278.048 295.914 276.638L296.174 276.57H296.188Z" fill="#EFB296"/>
</g>
<path d="M286.664 236.164C287.964 236.191 289.154 236.656 290.112 237.395C290.673 237.819 291.466 237.409 291.398 236.711C291.371 236.383 291.302 236.041 291.22 235.685C290.632 233.509 288.812 231.785 286.609 231.375C282.874 230.663 279.562 233.468 279.466 237.108C279.439 237.997 279.631 238.832 279.959 239.584C280.178 240.077 280.876 240.091 281.108 239.612C282.094 237.532 284.228 236.123 286.664 236.177V236.164Z" fill="#1E1D1C"/>
<path d="M328.302 234.782C327.015 235.028 325.921 235.671 325.1 236.561C324.621 237.081 323.773 236.793 323.718 236.095C323.69 235.753 323.69 235.411 323.718 235.056C323.937 232.811 325.442 230.814 327.563 230.034C331.134 228.72 334.856 230.937 335.554 234.508C335.718 235.384 335.677 236.232 335.485 237.04C335.348 237.559 334.664 237.696 334.363 237.258C333.05 235.37 330.71 234.33 328.315 234.796L328.302 234.782Z" fill="#1E1D1C"/>
<path d="M355.257 254.13C355.175 254.868 355.12 255.238 355.12 255.238C354.409 256.811 353.465 257.482 352.548 257.496C349.633 257.496 349.633 253.569 349.633 253.569C350.208 247.233 349.647 230.458 349.647 230.458C349.442 226.941 351.535 226.572 351.535 226.572C353.683 226.189 354.764 228.255 355.038 228.884C355.093 228.994 355.12 229.062 355.12 229.062C356.119 243.156 355.531 251.325 355.257 254.116V254.13Z" fill="#24343A"/>
<path d="M360.525 253.09C359.403 253.705 358.144 254.088 356.762 254.157C356.283 254.184 355.777 254.17 355.257 254.129C355.544 251.338 356.119 243.169 355.12 229.076C355.12 229.076 355.093 229.007 355.038 228.898C357.241 228.816 359.252 229.076 361.209 230.458C369.118 236.068 367.558 249.217 360.525 253.09Z" fill="#636267"/>
<path d="M259.777 258.193C259.982 258.905 260.091 259.261 260.091 259.261C261.049 260.697 262.103 261.204 263.006 261.053C265.879 260.574 265.223 256.702 265.223 256.702C263.608 250.545 261.337 233.92 261.337 233.92C260.953 230.417 258.819 230.403 258.819 230.403C256.63 230.376 255.918 232.606 255.754 233.277C255.727 233.4 255.713 233.468 255.713 233.468C257.081 247.534 259.024 255.484 259.777 258.193Z" fill="#24343A"/>
<path d="M254.399 258.043C255.603 258.467 256.917 258.631 258.285 258.467C258.764 258.412 259.27 258.316 259.763 258.18C259.01 255.47 257.081 247.52 255.699 233.454C255.699 233.454 255.699 233.386 255.74 233.263C253.551 233.55 251.608 234.152 249.911 235.835C243.056 242.69 246.792 255.402 254.372 258.029L254.399 258.043Z" fill="#636267"/>
<path d="M360.525 253.09C359.43 260.629 353.615 278.376 323.02 278.089V275.776C338.044 275.243 353.765 271.028 356.735 254.157C358.117 254.075 359.375 253.706 360.497 253.09H360.525Z" fill="#435152"/>
<path d="M326.03 275.53V278.088H326.017C320.995 282.973 315.111 279.977 315.111 279.977C312.703 278.554 312.566 275.297 314.386 273.669C316.356 271.904 319.941 272.068 322.24 273.067C324.416 273.997 325.839 275.092 326.044 275.53H326.03Z" fill="#636267"/>
<g style="mix-blend-mode:multiply" opacity="0.34">
<path d="M303.617 223.999C303.617 223.999 303.617 224.259 303.589 224.725C303.412 229.308 302.591 253.911 305.656 254.075C309.035 254.266 316.041 251.612 316.041 251.612C316.041 251.612 309.528 220.866 308.584 220.113C307.64 219.347 302.933 219.156 303.617 223.999Z" fill="#EFB296"/>
</g>
<path d="M259.983 233.414C255.111 219.84 255.508 203.722 263.13 191.161C272.078 176.027 290.55 169.555 307.203 168.967C340.097 167.338 355.011 200.041 350.947 228.611H350.263C349.894 221.824 348.676 215.037 346.747 208.511C343.066 195.703 335.39 182.745 322.336 177.984C315.987 175.562 309.091 175.384 302.373 176.137C289.032 177.395 275.184 182.65 267.426 194.089C259.736 205.364 258.354 220.032 260.667 233.236L259.996 233.386L259.983 233.414Z" fill="#24343A"/>
<path d="M385.867 275.913C385.525 278.964 385.183 281.509 384.909 283.015C384.074 287.434 380.955 296.109 379.354 300.406C378.765 301.979 385.99 316.976 385.99 316.976C385.99 316.976 374.592 321.779 371.171 322.257C369.735 322.463 367.778 303.963 367.874 302.472C367.956 300.666 368.024 298.353 367.737 297.204C367.614 296.698 367.408 296.219 367.19 295.753C366.478 294.276 365.465 292.866 365 290.759C364.412 287.968 369.365 276.05 369.187 274.969C369.023 273.874 365.315 272.15 364.384 272.752C363.44 273.354 364.48 279.265 362.14 280.647C359.801 282.029 357.516 281.222 357.516 281.222C357.516 281.222 358.542 265.404 360.416 263.256C362.291 261.094 365.082 261.436 365.082 261.436C365.082 261.436 366.56 258.659 369.338 258.207L372.102 257.769C372.102 257.769 373.826 256.688 375.221 255.936C375.632 255.717 376.261 255.69 376.973 255.758C378.683 255.936 380.804 256.743 380.804 256.743C380.804 256.743 380.599 250.394 380.038 247.89C379.928 247.425 379.723 246.713 379.477 245.824C378.341 241.924 376.125 234.919 376.631 233.29C377.288 231.279 379.655 230.855 380.175 230.54C380.695 230.212 386.291 248.15 387.194 250.996C387.878 253.144 386.879 266.732 385.881 275.899L385.867 275.913Z" fill="#EFA381"/>
<g style="mix-blend-mode:multiply" opacity="0.42">
<path d="M360.95 262.736C360.95 262.736 373.525 263.817 374.838 264.214C376.152 264.611 376.645 269.195 376.645 269.195C376.645 269.195 377.165 263.831 376.699 263.188C376.234 262.545 365.082 261.436 365.082 261.436C365.082 261.436 361.949 261.354 360.95 262.736Z" fill="#EFB296"/>
</g>
<g style="mix-blend-mode:multiply" opacity="0.42">
<path d="M370.035 258.098C370.035 258.098 379.846 259.658 380.886 260.301C381.926 260.944 381.926 264.502 381.926 264.502C381.926 264.502 381.994 259.959 381.597 259.494C381.201 259.028 372.088 257.77 372.088 257.77L370.035 258.098Z" fill="#EFB296"/>
</g>
<g style="mix-blend-mode:multiply" opacity="0.42">
<path d="M386.045 260.26C385.921 259.863 385.36 258.262 384.348 257.879C383.185 257.441 376.959 255.772 376.959 255.772C378.669 255.95 380.79 256.757 380.79 256.757C380.79 256.757 380.585 250.408 380.024 247.904C379.915 247.439 379.709 246.727 379.463 245.838C379.463 245.838 380.64 248.15 380.804 248.533C380.968 248.93 383.801 253.528 384.663 254.65C385.456 255.662 385.976 259.617 386.045 260.26Z" fill="#EFB296"/>
</g>
<g style="mix-blend-mode:multiply" opacity="0.42">
<path d="M385.867 275.913C385.525 278.964 385.183 281.509 384.909 283.015C384.074 287.434 380.955 296.109 379.354 300.406L371.527 303.361L367.874 302.472C367.956 300.666 368.024 298.353 367.737 297.204C367.614 296.698 367.408 296.219 367.189 295.753C367.189 295.753 375.577 290.54 380.654 283.89C383.199 280.579 384.854 277.842 385.88 275.913H385.867Z" fill="#EFB296"/>
</g>
<mask id="mask5_80_2961" style="mask-type:luminance" maskUnits="userSpaceOnUse" x="369" y="308" width="55" height="130">
<path d="M369.283 315.156C369.283 315.156 370.364 318.289 381.94 308.068C382.282 307.767 399.235 333.587 411.947 362.28C424.33 390.248 432.8 420.926 407.91 435.389C396.882 441.792 376.221 442.887 369.283 315.156Z" fill="white"/>
</mask>
<g mask="url(#mask5_80_2961)">
<path d="M366.368 310.476C366.368 310.476 412.466 278.759 401.629 290.882C390.56 303.265 401.492 322.244 415.271 348.543C432.43 381.327 434.236 431.038 412.042 437.044C397.743 440.917 376.808 446.746 373.907 376.607C373.209 359.585 366.272 338.212 366.354 311.845C366.354 311.393 366.354 310.928 366.354 310.476H366.368Z" fill="#90F2F4"/>
<g style="mix-blend-mode:multiply" opacity="0.2">
<path d="M372.019 318.577C372.019 318.577 384.635 422.896 400.48 437.414C416.325 451.945 379.189 441.45 379.326 436.196C379.477 430.942 355.34 327.717 359.869 319.288C364.398 310.859 372.006 318.577 372.006 318.577H372.019Z" fill="#8582A8"/>
</g>
<g style="mix-blend-mode:multiply" opacity="0.37">
<path d="M416.42 398.623C416.42 398.623 426.477 408.721 402.642 425.496Z" fill="#8CD1D1"/>
</g>
</g>
<path d="M232.111 276.31C232.562 279.348 232.986 281.879 233.301 283.371C234.286 287.763 237.707 296.315 239.458 300.57C240.101 302.13 233.397 317.359 233.397 317.359C233.397 317.359 244.959 321.765 248.393 322.121C249.83 322.272 251.144 303.731 251.007 302.24C250.856 300.433 250.719 298.135 250.966 296.972C251.075 296.465 251.253 295.973 251.458 295.494C252.115 293.989 253.087 292.552 253.483 290.431C253.976 287.612 248.612 275.886 248.749 274.791C248.872 273.683 252.512 271.836 253.47 272.411C254.428 272.985 253.593 278.924 255.987 280.224C258.368 281.523 260.626 280.648 260.626 280.648C260.626 280.648 259.066 264.871 257.109 262.791C255.153 260.698 252.375 261.136 252.375 261.136C252.375 261.136 250.802 258.413 248.01 258.057L245.233 257.715C245.233 257.715 243.481 256.689 242.044 255.991C241.62 255.786 240.991 255.772 240.293 255.881C238.583 256.128 236.503 256.99 236.503 256.99C236.503 256.99 236.503 250.641 236.968 248.123C237.064 247.658 237.228 246.933 237.461 246.03C238.473 242.089 240.444 235.015 239.869 233.4C239.157 231.416 236.776 231.074 236.229 230.773C235.696 230.458 230.729 248.575 229.921 251.462C229.306 253.637 230.77 267.17 232.097 276.297L232.111 276.31Z" fill="#EFA381"/>
<g style="mix-blend-mode:multiply" opacity="0.42">
<path d="M256.562 262.285C256.562 262.285 244.029 263.804 242.729 264.242C241.429 264.68 241.101 269.277 241.101 269.277C241.101 269.277 240.403 263.927 240.841 263.27C241.279 262.614 252.389 261.122 252.389 261.122C252.389 261.122 255.509 260.931 256.562 262.272V262.285Z" fill="#EFB296"/>
</g>
<g style="mix-blend-mode:multiply" opacity="0.42">
<path d="M247.313 257.961C247.313 257.961 237.557 259.863 236.544 260.547C235.532 261.231 235.655 264.775 235.655 264.775C235.655 264.775 235.422 260.246 235.819 259.754C236.202 259.275 245.26 257.701 245.26 257.701L247.326 257.961H247.313Z" fill="#EFB296"/>
</g>
<g style="mix-blend-mode:multiply" opacity="0.42">
<path d="M231.385 260.671C231.494 260.274 232.001 258.646 232.999 258.235C234.149 257.756 240.32 255.868 240.32 255.868C238.609 256.114 236.53 256.976 236.53 256.976C236.53 256.976 236.53 250.627 236.995 248.11C237.091 247.644 237.255 246.919 237.487 246.016C237.487 246.016 236.393 248.37 236.242 248.753C236.092 249.15 233.424 253.843 232.589 255.006C231.836 256.046 231.439 260.014 231.398 260.671H231.385Z" fill="#EFB296"/>
</g>
<g style="mix-blend-mode:multiply" opacity="0.42">
<path d="M232.11 276.311C232.562 279.348 232.986 281.88 233.301 283.371C234.286 287.763 237.707 296.315 239.458 300.571L247.381 303.252L251.007 302.24C250.856 300.434 250.719 298.135 250.966 296.972C251.075 296.466 251.253 295.973 251.458 295.494C251.458 295.494 242.906 290.568 237.597 284.11C234.943 280.881 233.191 278.199 232.097 276.311H232.11Z" fill="#EFB296"/>
</g>
<mask id="mask6_80_2961" style="mask-type:luminance" maskUnits="userSpaceOnUse" x="198" y="308" width="53" height="131">
<path d="M250.035 314.965C250.035 314.965 249.064 318.126 237.132 308.315C236.79 308.027 220.712 334.408 209.013 363.526C197.602 391.905 190.199 422.856 215.568 436.456C226.801 442.477 247.49 442.86 250.035 314.965Z" fill="white"/>
</mask>
<g mask="url(#mask6_80_2961)">
<path d="M252.786 310.176C252.786 310.176 205.62 280.06 216.868 291.813C228.348 303.813 218.085 323.147 205.223 349.911C189.201 383.271 189.105 433.009 211.49 438.249C225.912 441.629 247.039 446.733 247.518 376.539C247.641 359.503 253.826 337.898 252.84 311.558C252.827 311.106 252.799 310.641 252.786 310.19V310.176Z" fill="#90F2F4"/>
<g style="mix-blend-mode:multiply" opacity="0.2">
<path d="M247.409 318.468C247.409 318.468 238.392 423.157 223.053 438.222C207.714 453.287 244.481 441.519 244.152 436.279C243.824 431.038 264.389 327.033 259.573 318.769C254.756 310.504 247.422 318.481 247.422 318.481L247.409 318.468Z" fill="#8582A8"/>
</g>
<g style="mix-blend-mode:multiply" opacity="0.37">
<path d="M205.785 399.992C205.785 399.992 196.083 410.432 220.48 426.373Z" fill="#8CD1D1"/>
</g>
</g>
<mask id="mask7_80_2961" style="mask-type:luminance" maskUnits="userSpaceOnUse" x="255" y="484" width="122" height="132">
<path d="M366.574 615.772H267.084L255.714 484.908H376.302L366.574 615.772Z" fill="white"/>
</mask>
<g mask="url(#mask7_80_2961)">
<path d="M366.574 615.772H267.084L255.714 484.907H376.302L366.574 615.772Z" fill="#365455"/>
<g style="mix-blend-mode:multiply" opacity="0.5">
<path d="M318.177 638.363C317.192 624.981 316.344 610.286 315.783 596.822C315.044 586.422 314.415 576.023 316.111 565.665C316.59 562.203 317.192 558.742 318.177 555.28H318.862C321.489 565.474 322.446 575.969 321.913 586.436C321.434 592.443 321.051 601.104 320.805 607.207C320.257 617.264 319.628 628.361 318.875 638.363H318.191H318.177Z" fill="#8CD1D1"/>
</g>
<g style="mix-blend-mode:multiply" opacity="0.5">
<path d="M346.09 497.906L371.951 543.403L376.685 492.255L346.09 497.906Z" fill="#8CD1D1"/>
</g>
<g style="mix-blend-mode:multiply" opacity="0.5">
<path d="M283.874 497.906L258.013 543.403L253.278 492.255L283.874 497.906Z" fill="#8CD1D1"/>
</g>
<path d="M376.302 484.907H255.714V497.906H376.302V484.907Z" fill="#1D4E4F"/>
<path d="M322.76 502.586H314.277C308.571 502.586 303.96 497.961 303.96 492.269C303.96 486.563 308.585 481.952 314.277 481.952H322.76C328.466 481.952 333.077 486.577 333.077 492.269C333.077 497.975 328.453 502.586 322.76 502.586Z" fill="#13381F"/>
<path d="M321.229 498.851H315.81C312.17 498.851 309.215 495.909 309.215 492.255C309.215 488.616 312.17 485.66 315.81 485.66H321.229C324.868 485.66 327.824 488.616 327.824 492.255C327.824 495.895 324.868 498.851 321.229 498.851Z" fill="#357475"/>
</g>
<path d="M559.819 432.31H479.773V615.266H559.819V432.31Z" fill="#A4DDDE"/>
<path d="M130.87 432.31H50.8242V615.266H130.87V432.31Z" fill="#A4DDDE"/>
<path d="M559.805 432.31H50.0576V456.529H559.805V432.31Z" fill="#365455"/>
<mask id="mask8_80_2961" style="mask-type:luminance" maskUnits="userSpaceOnUse" x="372" y="424" width="50" height="17">
<path d="M421.784 440.315H372.525C372.525 431.476 379.695 424.306 388.535 424.306H405.761C414.601 424.306 421.771 431.476 421.771 440.315H421.784Z" fill="white"/>
</mask>
<g mask="url(#mask8_80_2961)">
<path d="M421.784 440.315H372.525C372.525 431.476 379.695 424.306 388.535 424.306H405.761C414.601 424.306 421.771 431.476 421.771 440.315H421.784Z" fill="#93AECC"/>
<g style="mix-blend-mode:multiply" opacity="0.43">
<path d="M415.805 429.861C415.805 433.528 406.309 436.497 394.583 436.497C382.856 436.497 373.36 433.528 373.36 429.861C373.36 426.194 382.856 423.225 394.583 423.225C406.309 423.225 415.805 426.194 415.805 429.861Z" fill="#93AECC"/>
</g>
</g>
<path d="M239.416 276.46H94.7319C89.1629 276.46 84.6338 280.976 84.6338 286.559V396.994C84.6338 402.577 89.1492 407.092 94.7319 407.092H239.416C244.985 407.092 249.514 402.577 249.514 396.994V286.559C249.514 280.99 244.999 276.46 239.416 276.46Z" fill="#364A55"/>
<path d="M230.591 276.46H85.9067C80.3377 276.46 75.8086 280.976 75.8086 286.559V396.994C75.8086 402.577 80.324 407.092 85.9067 407.092H230.591C236.16 407.092 240.689 402.577 240.689 396.994V286.559C240.689 280.99 236.174 276.46 230.591 276.46Z" fill="#93CBCC"/>
<path d="M169.688 421.678H154.172V353.824C162.737 353.824 169.688 360.775 169.688 369.341V421.678Z" fill="#7897B6"/>
<path d="M164.789 421.678H146.878V362.773C146.878 357.82 150.887 353.824 155.84 353.824C160.78 353.824 164.803 357.833 164.803 362.773V421.678H164.789Z" fill="#ABC5DE"/>
<path d="M210.669 432.31C210.025 426.344 205.031 421.678 198.901 421.678H130.678C124.534 421.678 119.54 426.344 118.91 432.31H210.669Z" fill="#ABC5DE"/>
<path d="M201.719 432.31C201.076 426.344 196.082 421.678 189.952 421.678H121.728C115.585 421.678 110.59 426.344 109.961 432.31H201.733H201.719Z" fill="#ABC5DE"/>
<g opacity="0.33">
<path d="M215.717 294.084C219.001 312.119 220.643 331.685 223.188 349.816C224.529 361.077 224.064 372.475 221.574 383.599L220.753 383.654C219.357 380 218.413 376.306 217.592 372.611C216.032 365.25 214.979 357.834 215.074 350.308C215.252 343.809 215.115 334.449 215.006 327.854C214.91 317.031 215.061 304.935 214.91 294.221L215.717 294.071V294.084Z" fill="#EBEBEB"/>
</g>
<path d="M166.294 323.434C166.294 330.125 160.862 335.557 154.171 335.557C147.48 335.557 142.048 330.125 142.048 323.434C142.048 316.743 147.48 311.311 154.171 311.311C160.862 311.311 166.294 316.743 166.294 323.434Z" fill="#EBEBEB"/>
<path d="M516.759 279.347L444.389 228.05L427.08 229.87L434.51 221.044L429.393 217.418C427.19 215.858 426.656 212.834 428.188 210.659L464.763 159.046C466.296 156.871 469.333 156.378 471.536 157.938L558.916 219.867C561.119 221.427 561.666 224.451 560.12 226.627L523.545 278.239C522.013 280.415 518.975 280.907 516.772 279.347H516.759Z" fill="#365455"/>
<path d="M523.696 278.171C522.163 280.346 519.126 280.839 516.923 279.279L444.553 227.981L427.244 229.801L434.674 220.976L429.557 217.35C427.354 215.79 426.82 212.766 428.352 210.59L446.099 185.55L541.456 253.131L523.71 278.171H523.696Z" fill="#365455"/>
<g opacity="0.49">
<path d="M451.148 198.439C455.554 184.565 467.062 172.359 482.305 180.118C486.451 182.239 490.036 185.235 492.759 188.861L492.553 189.053C488.968 186.385 485.192 184.072 481.237 182.457C466.378 176.177 457.347 185.7 451.395 198.549L451.135 198.453L451.148 198.439Z" fill="#F2F8F9"/>
</g>
<path d="M506.182 228.269C504.444 230.718 505.032 234.098 507.468 235.836C509.904 237.573 513.297 236.999 515.035 234.549C516.772 232.1 516.184 228.72 513.749 226.983C511.299 225.245 507.92 225.833 506.182 228.269Z" fill="#F2F8F9"/>
<path d="M489.037 216.118C487.3 218.567 487.888 221.947 490.323 223.685C492.773 225.422 496.152 224.834 497.89 222.398C499.628 219.949 499.04 216.569 496.604 214.832C494.155 213.094 490.775 213.682 489.037 216.118Z" fill="#F2F8F9"/>
<path d="M472.973 204.734C471.235 207.183 471.823 210.563 474.259 212.301C476.708 214.039 480.088 213.45 481.826 211.015C483.563 208.565 482.975 205.186 480.54 203.448C478.09 201.71 474.711 202.299 472.973 204.734Z" fill="#F2F8F9"/>
<path d="M65.8478 238.285L170.619 197.66L191.403 205.459L184.931 192.105L192.334 189.231C195.522 188 197.109 184.401 195.878 181.213L166.473 105.368C165.241 102.18 161.643 100.592 158.455 101.824L31.9549 150.878C28.7667 152.109 27.1795 155.708 28.4247 158.896L57.8295 234.741C59.061 237.929 62.6596 239.516 65.8478 238.285Z" fill="#365455"/>
<path d="M135.988 148.141L97.8392 133.459L79.4629 169.774L93.2554 204.624L148.699 183.128L135.988 148.141Z" fill="#76B1B2"/>
<path d="M96.735 200.721L143.595 182.555L125.933 136.996L79.0732 155.163L96.735 200.721Z" fill="white"/>
<path d="M151.449 188.013L95.0205 209.893L107.691 183.402L124.124 177.026L151.449 188.013Z" fill="#93CBCC"/>
<path d="M151.408 188.013L136.357 149.208L124.083 177.039L151.408 188.013Z" fill="#76B1B2"/>
<path d="M94.9791 209.893L79.9277 171.087L107.691 183.402L94.9791 209.893Z" fill="#76B1B2"/>
<g opacity="0.49">
<path d="M64.6299 155.626C61.4828 158.362 58.6505 161.578 56.6527 165.204C54.8603 169.062 53.9435 172.511 53.1909 176.78L52.9173 176.834C49.346 170.335 54.4498 163.398 59.2115 159.17C60.8671 157.76 62.5775 156.433 64.4794 155.393L64.6299 155.626Z" fill="#F2F8F9"/>
</g>
<path d="M367.053 96.3365L293.342 119.269L285.502 132.35L283.271 122.403L278.058 124.017C275.814 124.715 273.433 123.456 272.722 121.212L256.124 67.8484C255.426 65.6044 256.685 63.2235 258.929 62.512L347.924 34.8449C350.168 34.1471 352.549 35.4059 353.246 37.6499L369.844 91.0138C370.542 93.2578 369.283 95.6386 367.039 96.3502L367.053 96.3365Z" fill="#365455"/>
<path d="M328.835 76.0994L326.263 75.6616C326.194 73.9786 325.825 72.6513 325.277 71.2967V71.2557L327.426 69.7232C327.891 69.3811 328.014 68.7243 327.672 68.2454L325.045 64.551C324.703 64.0721 324.06 63.9626 323.581 64.3047L321.255 65.7688C320.119 64.7836 319.435 64.1131 317.314 63.4016L317.971 60.8702C318.067 60.2955 317.724 59.8166 317.15 59.7209L312.73 58.982C312.155 58.8862 311.909 59.2693 311.813 59.8303L311.389 62.4027C309.706 62.4711 308.338 62.8269 306.983 63.3879H306.915L305.369 61.2397C305.04 60.7608 304.37 60.6513 303.891 60.9934L300.183 63.6205C299.704 63.9626 299.594 64.6057 299.937 65.0846L301.414 67.397C300.429 68.5327 299.772 69.2032 299.061 71.3241L296.516 70.7631C295.941 70.6673 295.585 70.8862 295.49 71.4609L294.737 75.9079C294.641 76.4826 294.887 76.9204 295.462 77.0162L298.035 77.4404C298.103 79.1234 298.486 80.3959 299.033 81.7505L296.913 83.283C296.434 83.6251 296.324 84.2819 296.666 84.7471L299.293 88.4415C299.635 88.9205 300.279 89.0299 300.757 88.6878L303.001 87.1964C304.137 88.1816 305.287 88.9341 306.86 89.5362L306.422 92.1223C306.326 92.697 306.477 93.2443 307.052 93.3401L311.526 94.0926C312.101 94.1884 312.689 93.7642 312.785 93.1896L313.072 90.5898C314.755 90.5214 315.946 90.1246 317.177 89.5499L318.833 91.7118C319.175 92.1907 319.9 92.3138 320.365 91.9718L324.101 89.3583C324.58 89.0162 324.703 88.3731 324.374 87.8942L322.897 85.6365C323.882 84.5008 324.539 83.8851 325.25 81.7779L327.795 82.3252C328.37 82.421 329.04 82.1473 329.136 81.5727L329.889 77.1257C329.984 76.551 329.423 76.1679 328.862 76.0721L328.835 76.0994ZM308.57 81.9695C308.57 81.9695 308.461 81.8874 308.406 81.8463C308.228 81.7232 308.064 81.6 307.914 81.4632C307.832 81.3948 307.763 81.3264 307.681 81.258C307.613 81.1895 307.531 81.1074 307.462 81.039C307.421 80.998 307.394 80.9569 307.353 80.9296C307.147 80.7106 306.956 80.4643 306.792 80.218C306.628 79.9717 306.463 79.7118 306.34 79.4381C306.285 79.3286 306.231 79.2192 306.19 79.1097C306.039 78.7813 305.93 78.4256 305.848 78.0698C305.642 77.2351 305.601 76.3457 305.765 75.4563C306.08 73.5681 307.189 72.0082 308.68 71.0504C308.817 70.9683 308.954 70.8862 309.09 70.8178C309.131 70.7904 309.186 70.7631 309.227 70.7494C309.323 70.6946 309.419 70.6536 309.515 70.6125C309.802 70.4757 310.103 70.3663 310.404 70.2842C310.5 70.2568 310.609 70.2294 310.705 70.2021C311.526 70.0105 312.402 69.9694 313.291 70.12C314.345 70.2978 315.303 70.722 316.11 71.3241C316.192 71.3925 316.274 71.4472 316.356 71.5156C316.479 71.6114 316.589 71.7209 316.712 71.8303C316.794 71.8988 316.862 71.9809 316.931 72.0493C316.972 72.0903 316.999 72.1314 317.04 72.1587C317.109 72.2408 317.177 72.3092 317.246 72.3913C317.341 72.5145 317.437 72.6376 317.533 72.7608C317.588 72.8429 317.656 72.9387 317.711 73.0208C317.848 73.2397 317.984 73.4723 318.094 73.7049C318.135 73.8007 318.19 73.8965 318.231 73.9923C318.272 74.088 318.313 74.1838 318.34 74.2796C318.395 74.4301 318.45 74.5806 318.491 74.7311C318.751 75.6479 318.819 76.6331 318.655 77.6319C318.559 78.193 318.395 78.7129 318.176 79.2055C318.135 79.3013 318.08 79.3971 318.039 79.4928C317.971 79.6434 317.889 79.7802 317.807 79.917C317.752 80.0128 317.697 80.0949 317.642 80.1907C317.601 80.2454 317.56 80.3001 317.519 80.3686C317.437 80.478 317.355 80.6012 317.259 80.6969C317.191 80.779 317.122 80.8611 317.054 80.9296C316.999 80.9843 316.945 81.0527 316.89 81.1074C316.835 81.1622 316.78 81.2169 316.726 81.258C316.685 81.299 316.643 81.3264 316.616 81.3674C316.534 81.4358 316.452 81.5042 316.384 81.5727C316.342 81.6 316.301 81.6411 316.26 81.6684C316.178 81.7369 316.096 81.7916 316.014 81.86C315.973 81.8874 315.932 81.9147 315.891 81.9558C315.713 82.0789 315.535 82.1747 315.357 82.2842C315.316 82.3115 315.262 82.3389 315.22 82.3526C315.125 82.4073 315.029 82.4484 314.933 82.4894C314.837 82.5305 314.742 82.5715 314.646 82.6126C314.591 82.6263 314.55 82.6536 314.495 82.6673C314.399 82.7084 314.29 82.7357 314.194 82.7631C313.236 83.0641 312.196 83.1462 311.143 82.9683C310.295 82.8178 309.515 82.5168 308.817 82.0926C308.748 82.0516 308.694 82.0105 308.625 81.9695H308.57Z" fill="#93AECC"/>
<path d="M303.92 97.801L302.579 97.9241C302.319 97.1031 301.963 96.4737 301.511 95.8853V95.858L302.373 94.8181C302.565 94.5854 302.538 94.2434 302.305 94.0518L300.499 92.5603C300.266 92.3688 299.924 92.3962 299.733 92.6288L298.775 93.6687C298.077 93.3266 297.653 93.0803 296.503 93.0119V91.6573C296.476 91.3562 296.243 91.1647 295.942 91.192L293.644 91.411C293.343 91.4383 293.274 91.6573 293.302 91.9583L293.438 93.2992C292.617 93.5592 291.974 93.915 291.372 94.3802H291.331L290.278 93.5182C290.045 93.3266 289.703 93.354 289.511 93.5866L288.02 95.3927C287.828 95.6253 287.856 95.9674 288.088 96.159L289.128 97.1168C288.786 97.8146 288.553 98.2388 288.471 99.3882L287.13 99.4566C286.829 99.484 286.679 99.6345 286.706 99.9355L286.925 102.248C286.953 102.549 287.13 102.741 287.431 102.699L288.772 102.576C289.032 103.397 289.388 103.999 289.84 104.588L288.978 105.641C288.786 105.874 288.813 106.216 289.046 106.408L290.852 107.899C291.085 108.091 291.427 108.063 291.619 107.831L292.535 106.791C293.233 107.133 293.904 107.352 294.766 107.447L294.889 108.788C294.916 109.089 295.067 109.336 295.368 109.308L297.694 109.089C297.995 109.062 298.227 108.775 298.2 108.474L297.995 107.146C298.816 106.886 299.363 106.531 299.91 106.079L301.019 106.941C301.251 107.133 301.634 107.092 301.826 106.873L303.345 105.067C303.536 104.834 303.509 104.492 303.29 104.3L302.25 103.37C302.592 102.672 302.839 102.275 302.907 101.126L304.248 101.058C304.549 101.03 304.836 100.811 304.809 100.51L304.59 98.1978C304.563 97.8967 304.234 97.7873 303.933 97.8146L303.92 97.801ZM294.588 103.411C294.588 103.411 294.519 103.384 294.492 103.37C294.396 103.329 294.287 103.288 294.191 103.247C294.136 103.219 294.095 103.192 294.054 103.178C294.013 103.151 293.958 103.124 293.917 103.096C293.89 103.083 293.876 103.069 293.849 103.055C293.712 102.973 293.589 102.877 293.479 102.782C293.356 102.686 293.247 102.576 293.151 102.453C293.11 102.412 293.069 102.357 293.028 102.303C292.918 102.152 292.809 102.002 292.713 101.837C292.508 101.454 292.371 101.016 292.316 100.538C292.221 99.5524 292.563 98.6356 293.178 97.9515C293.233 97.8967 293.288 97.8283 293.343 97.7736C293.356 97.7599 293.384 97.7325 293.397 97.7189C293.438 97.6778 293.479 97.6504 293.52 97.6094C293.644 97.4999 293.78 97.4178 293.917 97.322C293.958 97.2947 294.013 97.2673 294.054 97.24C294.437 97.0347 294.875 96.8979 295.34 96.8568C295.888 96.8021 296.421 96.8842 296.9 97.0758C296.955 97.0894 296.996 97.1168 297.051 97.1442C297.119 97.1715 297.201 97.2126 297.27 97.2536C297.311 97.281 297.365 97.3084 297.406 97.3357C297.434 97.3494 297.447 97.3631 297.475 97.3768C297.516 97.4041 297.571 97.4315 297.612 97.4726C297.68 97.5136 297.735 97.5683 297.803 97.6231C297.844 97.6641 297.885 97.6915 297.926 97.7325C298.022 97.8283 298.118 97.9241 298.214 98.0199C298.255 98.0609 298.282 98.102 298.323 98.143C298.351 98.1841 298.392 98.2251 298.419 98.2799C298.46 98.3483 298.515 98.4167 298.556 98.4851C298.802 98.9093 298.98 99.3882 299.021 99.9081C299.048 100.195 299.035 100.483 298.994 100.756C298.994 100.811 298.98 100.866 298.966 100.921C298.953 101.003 298.925 101.085 298.912 101.167C298.898 101.222 298.884 101.276 298.857 101.317C298.857 101.359 298.829 101.386 298.816 101.413C298.788 101.482 298.761 101.55 298.734 101.619C298.706 101.673 298.693 101.714 298.665 101.769C298.652 101.81 298.624 101.851 298.611 101.878C298.597 101.906 298.569 101.947 298.556 101.974C298.542 102.002 298.528 102.015 298.515 102.043C298.487 102.084 298.46 102.138 298.419 102.18C298.405 102.207 298.392 102.221 298.364 102.248C298.337 102.289 298.296 102.33 298.268 102.371C298.255 102.398 298.227 102.412 298.214 102.426C298.145 102.508 298.063 102.59 297.995 102.658C297.981 102.672 297.954 102.699 297.94 102.713C297.899 102.754 297.858 102.782 297.817 102.823C297.776 102.864 297.735 102.891 297.694 102.918C297.666 102.932 297.653 102.946 297.625 102.959C297.584 102.987 297.53 103.014 297.489 103.055C297.051 103.329 296.544 103.507 295.997 103.562C295.559 103.603 295.121 103.562 294.725 103.438C294.683 103.438 294.656 103.411 294.615 103.397L294.588 103.411Z" fill="white"/>
<g opacity="0.49">
<path d="M335.719 91.0551C339.646 89.6731 343.477 87.7301 346.665 85.0893C349.744 82.1611 351.878 79.3014 354.15 75.6069L354.423 75.6617C355.354 83.0095 348.047 87.5796 342.068 89.7689C340.015 90.4804 337.922 91.0688 335.787 91.3287L335.732 91.0551H335.719Z" fill="#F2F8F9"/>
</g>
<defs>
<filter id="filter0_d_80_2961" x="118.962" y="78.7676" width="367.905" height="310.303" filterUnits="userSpaceOnUse" color-interpolation-filters="sRGB">
<feFlood flood-opacity="0" result="BackgroundImageFix"/>
<feColorMatrix in="SourceAlpha" type="matrix" values="0 0 0 0 0 0 0 0 0 0 0 0 0 0 0 0 0 0 127 0" result="hardAlpha"/>
<feOffset dx="1" dy="7"/>
<feGaussianBlur stdDeviation="2"/>
<feColorMatrix type="matrix" values="0 0 0 0 0 0 0 0 0 0 0 0 0 0 0 0 0 0 0.1 0"/>
<feBlend mode="normal" in2="BackgroundImageFix" result="effect1_dropShadow_80_2961"/>
<feBlend mode="normal" in="SourceGraphic" in2="effect1_dropShadow_80_2961" result="shape"/>
</filter>
<linearGradient id="paint0_linear_80_2961" x1="301.922" y1="73.6501" x2="301.922" y2="450.796" gradientUnits="userSpaceOnUse">
<stop offset="0.08" stop-color="white"/>
<stop offset="0.61" stop-color="#FDFDFD"/>
<stop offset="0.81" stop-color="#F7F6F6"/>
<stop offset="0.94" stop-color="#ECEAEA"/>
<stop offset="1" stop-color="#E6E3E3"/>
</linearGradient>
</defs>
</svg>
