<svg width="588" height="650" viewBox="0 0 588 650" fill="none" xmlns="http://www.w3.org/2000/svg">
<g clip-path="url(#clip0_80_3155)">
<path d="M557.124 73H30.8756C22.1078 73 15 80.1183 15 88.8992V444.236C15 453.017 22.1078 460.135 30.8756 460.135H557.124C565.892 460.135 573 453.017 573 444.236V88.8992C573 80.1183 565.892 73 557.124 73Z" fill="#ACD2D2"/>
<g style="mix-blend-mode:multiply" opacity="0.35">
<path d="M28.0586 451.082C20.8845 456.06 15 452.988 15 444.236V88.8992C15 80.1597 22.149 73 30.8756 73H557.112C565.851 73 567.116 77.0751 559.941 82.053L28.0586 451.082Z" fill="url(#paint0_linear_80_3155)"/>
</g>
<path d="M167.534 171.806H32.4909C30.2437 171.806 28.4219 173.63 28.4219 175.881V267.063C28.4219 269.314 30.2437 271.138 32.4909 271.138H167.534C169.781 271.138 171.603 269.314 171.603 267.063V175.881C171.603 173.63 169.781 171.806 167.534 171.806Z" fill="white"/>
<path d="M573 103.181V88.8992C573 80.1471 565.851 73 557.124 73H30.8756C22.149 73 15 80.1597 15 88.8992V103.181H573Z" fill="#7CABAC"/>
<g style="mix-blend-mode:multiply">
<path d="M46.4253 88.0338C46.4253 91.4444 43.6709 94.2029 40.2654 94.2029C36.8599 94.2029 34.1055 91.4444 34.1055 88.0338C34.1055 84.6233 36.8599 81.8647 40.2654 81.8647C43.6709 81.8647 46.4253 84.6233 46.4253 88.0338Z" fill="#B2B2B2"/>
</g>
<g style="mix-blend-mode:multiply">
<path d="M65.4693 88.0338C65.4693 91.4444 62.7148 94.2029 59.3093 94.2029C55.9039 94.2029 53.1494 91.4444 53.1494 88.0338C53.1494 84.6233 55.9164 81.8647 59.3093 81.8647C62.7023 81.8647 65.4693 84.6233 65.4693 88.0338Z" fill="#B2B2B2"/>
</g>
<g style="mix-blend-mode:multiply">
<path d="M84.5249 88.0338C84.5249 91.4444 81.7705 94.2029 78.365 94.2029C74.9595 94.2029 72.2051 91.4444 72.2051 88.0338C72.2051 84.6233 74.9595 81.8647 78.365 81.8647C81.7705 81.8647 84.5249 84.6233 84.5249 88.0338Z" fill="#B2B2B2"/>
</g>
<path d="M40.7539 142.465H141.592" stroke="#40A9AB" stroke-width="14.32" stroke-linecap="round" stroke-linejoin="round"/>
<path d="M83.2227 196.332H150.419" stroke="#D9D9D9" stroke-width="5.37" stroke-linecap="round" stroke-linejoin="round"/>
<path d="M83.2227 214.099H150.419" stroke="#D9D9D9" stroke-width="5.37" stroke-linecap="round" stroke-linejoin="round"/>
<path d="M83.2227 231.867H105.571" stroke="#D9D9D9" stroke-width="5.37" stroke-linecap="round" stroke-linejoin="round"/>
<path d="M41.9688 258.236H64.3173" stroke="#D9D9D9" stroke-width="5.37" stroke-linecap="round" stroke-linejoin="round"/>
<path d="M73.3438 258.236H95.6923" stroke="#D9D9D9" stroke-width="5.37" stroke-linecap="round" stroke-linejoin="round"/>
<path d="M104.72 258.236H127.068" stroke="#D9D9D9" stroke-width="5.37" stroke-linecap="round" stroke-linejoin="round"/>
<path d="M136.096 258.236H158.444" stroke="#D9D9D9" stroke-width="5.37" stroke-linecap="round" stroke-linejoin="round"/>
<path d="M172.229 142.465H273.066" stroke="#EBF1FA" stroke-width="14.32" stroke-linecap="round" stroke-linejoin="round"/>
<path d="M303.716 142.465H404.553" stroke="#EBF1FA" stroke-width="14.32" stroke-linecap="round" stroke-linejoin="round"/>
<path d="M70.9651 211.704C70.9651 220.193 64.0916 227.077 55.6154 227.077C47.1392 227.077 40.2656 220.193 40.2656 211.704C40.2656 203.215 47.1392 196.332 55.6154 196.332C64.0916 196.332 70.9651 203.215 70.9651 211.704Z" fill="#008E90"/>
<path d="M167.534 283.451H32.4909C30.2437 283.451 28.4219 285.276 28.4219 287.526V356.251C28.4219 358.502 30.2437 360.327 32.4909 360.327H167.534C169.781 360.327 171.603 358.502 171.603 356.251V287.526C171.603 285.276 169.781 283.451 167.534 283.451Z" fill="white"/>
<path d="M47.3398 320.127H150.419" stroke="#D9D9D9" stroke-width="5.37" stroke-linecap="round" stroke-linejoin="round"/>
<path d="M192.611 173.273H476.644C479.511 173.273 481.828 175.605 481.828 178.464V265.947C481.828 268.819 479.499 271.138 476.644 271.138H192.611C189.744 271.138 187.428 268.806 187.428 265.947V178.464C187.428 175.593 189.756 173.273 192.611 173.273Z" fill="white"/>
<path d="M206.346 192.181H461.47" stroke="#D9D9D9" stroke-width="5.37" stroke-linecap="round" stroke-linejoin="round"/>
<path d="M206.346 209.949H461.47" stroke="#D9D9D9" stroke-width="5.37" stroke-linecap="round" stroke-linejoin="round"/>
<path d="M206.346 227.716H264.577" stroke="#D9D9D9" stroke-width="5.37" stroke-linecap="round" stroke-linejoin="round"/>
<path d="M31.6523 379.398H105.572" stroke="white" stroke-width="5.37" stroke-linecap="round" stroke-linejoin="round"/>
<path d="M31.6523 396.702H105.572" stroke="white" stroke-width="5.37" stroke-linecap="round" stroke-linejoin="round"/>
<path d="M31.6523 414.018H50.633" stroke="white" stroke-width="5.37" stroke-linecap="round" stroke-linejoin="round"/>
<path d="M190.596 288.241H417.361" stroke="white" stroke-width="5.37" stroke-linecap="round" stroke-linejoin="round"/>
<path d="M190.596 305.544H417.361" stroke="white" stroke-width="5.37" stroke-linecap="round" stroke-linejoin="round"/>
<path d="M190.596 322.86H362.423" stroke="white" stroke-width="5.37" stroke-linecap="round" stroke-linejoin="round"/>
<path fill-rule="evenodd" clip-rule="evenodd" d="M204.543 287.463C204.831 288.228 204.443 289.081 203.679 289.369L191.046 294.109C190.282 294.397 189.431 294.009 189.143 293.244L179.152 266.536C178.864 265.771 179.252 264.919 180.016 264.63L192.649 259.891C193.412 259.602 194.264 259.991 194.552 260.756L204.543 287.463Z" fill="#005E60"/>
<path d="M181.826 266.53L192.531 262.516C193.176 262.274 193.901 262.604 194.142 263.25L202.599 285.866C202.841 286.512 202.511 287.238 201.866 287.48L191.161 291.495C190.516 291.737 189.791 291.406 189.549 290.76L181.092 268.144C180.851 267.499 181.181 266.772 181.826 266.53Z" fill="white"/>
<path d="M205.069 297.131C202.327 309.381 199.472 334.296 193.012 336.641C166.256 346.358 173.718 291.463 161.323 301.306C152.872 317.682 169.386 350.446 182.019 354.646C223.736 368.527 210.64 303.162 210.715 294.473C208.937 292.203 206.358 291.927 205.069 297.131Z" fill="#EFA381"/>
<path d="M192.937 276.128C192.937 276.128 192.962 276.128 192.975 276.128C195.541 276.718 197.807 278.047 200.161 279.476C199.022 278.059 192.186 273.069 192.324 270.937C192.524 267.828 201.626 274.097 202.528 274.925C201.138 271.828 198.02 270.987 196.38 268.379C194.527 265.433 201.388 267.426 202.027 267.903C207.611 271.978 208.85 286.661 210.578 294.36C210.616 294.397 210.666 294.422 210.703 294.46C209.689 296.83 208.024 298.987 206.096 300.077C203.604 296.542 201.927 295.852 201.651 290.272C201.426 285.545 197.97 283.338 194.865 281.946C192.536 280.906 187.704 274.925 192.925 276.103L192.937 276.128Z" fill="#EFA381"/>
<g style="mix-blend-mode:multiply" opacity="0.2">
<path d="M411.014 569.711C411.014 573.924 350.616 577.335 276.083 577.335C201.551 577.335 141.153 573.924 141.153 569.711C141.153 565.498 201.563 562.075 276.083 562.075C350.604 562.075 411.014 565.498 411.014 569.711Z" fill="#224999"/>
<path d="M411.014 569.711C411.014 573.924 350.616 577.335 276.083 577.335C201.551 577.335 141.153 573.924 141.153 569.711C141.153 565.498 201.563 562.075 276.083 562.075C350.604 562.075 411.014 565.498 411.014 569.711Z" stroke="#3C3C3B" stroke-width="1.06" stroke-miterlimit="10"/>
</g>
<path d="M136.07 564.357H189.794" stroke="#B1B1B1" stroke-width="6.71" stroke-miterlimit="10"/>
<path d="M391.281 372.602H178.951V383.31H391.281V372.602Z" fill="#BCAF8A"/>
<path d="M318.452 559.003H251.807V569.712H318.452V559.003Z" fill="#BCAF8A"/>
<path d="M282.982 380.978H269.185V568.558H282.982V380.978Z" fill="#BCAF8A"/>
<path d="M162.1 451.947V568.558" stroke="#B1B1B1" stroke-width="6.71" stroke-miterlimit="10"/>
<path fill-rule="evenodd" clip-rule="evenodd" d="M173.217 334.12C172.503 329.017 171.765 323.914 170.15 318.998C168.672 314.497 167.145 310.008 165.517 305.557C164.941 303.977 164.065 302.497 163.264 301.005C163.113 300.729 162.875 300.491 162.612 300.253C159.595 301.632 146.524 307.4 142.831 308.604C142.993 311.663 143.106 314.723 143.231 317.782C143.407 321.795 143.557 325.82 143.694 329.832C143.832 333.895 144.007 337.97 143.995 342.045C143.995 346.157 143.707 350.283 143.669 354.408C143.632 359.637 142.993 364.803 142.129 369.931C141.291 374.909 140.414 379.887 139.5 384.852C138.849 388.401 138.148 391.937 137.384 395.46C136.858 397.867 136.195 400.25 135.606 402.657C135.344 403.748 135.369 403.798 136.395 404.337C139.275 405.867 134.805 417.817 138.123 418.055C138.999 418.118 138.824 427.158 139.688 427.334C143.256 428.061 143.782 433.942 147.4 433.528C150.293 433.189 167.996 438.681 167.808 405.717C167.996 406.105 172.065 387.034 172.791 383.41C174.256 376.088 174.87 368.727 174.745 361.267C174.72 359.511 174.882 357.756 174.857 356.013C174.82 352.615 174.857 349.204 174.594 345.819C174.294 341.919 173.755 338.032 173.217 334.158V334.12Z" fill="#EFA381"/>
<path fill-rule="evenodd" clip-rule="evenodd" d="M210.214 235.741C208.925 229.659 205.369 223.854 199.885 220.732C193.249 216.958 192.173 221.622 189.919 215.165C184.936 200.958 155.075 218.538 147.438 220.845C135.168 224.544 115.286 233.534 121.534 250.236C125.903 261.959 141.603 267.326 149.153 276.993C158.894 267.815 168.885 262.01 181.743 258.336C193.162 255.063 213.87 252.944 210.227 235.741C211.015 239.49 209.425 231.967 210.227 235.741H210.214Z" fill="url(#paint1_linear_80_3155)"/>
<path fill-rule="evenodd" clip-rule="evenodd" d="M144.997 264.831C144.283 271.276 142.893 311.977 143.043 312.691C145.56 314.71 154.637 304.428 157.254 306.359C155.163 273.909 187.691 292.266 190.833 270.837C191.246 268.003 191.472 265.207 191.484 262.373C191.484 257.997 191.371 253.621 191.246 249.245C191.121 245.132 190.958 241.007 190.745 236.894C190.558 233.346 190.282 229.797 190.032 226.261C189.831 223.352 189.406 222.851 186.413 222.7C184.21 222.587 181.994 222.638 179.79 222.75C176.46 222.939 173.117 223.177 169.787 223.54C165.505 224.004 161.436 224.882 158.281 228.33C156.428 230.349 154.575 232.318 153.022 234.575C150.568 238.161 149.404 242.286 148.277 246.424C146.637 252.455 145.698 258.611 145.009 264.818L144.997 264.831Z" fill="#EFA381"/>
<g style="mix-blend-mode:multiply">
<path d="M162.825 254.975C162.825 254.975 163.176 254.725 163.827 254.348C164.478 253.985 165.429 253.471 166.606 252.969C167.207 252.731 167.846 252.455 168.559 252.242C169.261 252.016 170.012 251.765 170.801 251.602C171.589 251.402 172.416 251.251 173.255 251.138C174.093 250.988 174.97 251.001 175.846 250.925C176.723 250.95 177.599 250.963 178.45 251.063C178.876 251.138 179.302 251.201 179.715 251.276C180.128 251.339 180.541 251.427 180.929 251.565C181.718 251.816 182.482 252.004 183.145 252.392C183.809 252.743 184.485 252.994 184.986 253.421C185.524 253.797 185.988 254.173 186.401 254.486C186.764 254.862 187.077 255.201 187.34 255.477C187.853 256.029 188.129 256.355 188.129 256.355C188.129 256.355 187.765 256.116 187.177 255.678C186.876 255.464 186.526 255.188 186.113 254.888C185.662 254.649 185.149 254.386 184.61 254.085C184.097 253.747 183.421 253.596 182.77 253.308C182.131 253.007 181.38 252.906 180.641 252.706C179.915 252.468 179.089 252.493 178.3 252.342C177.499 252.267 176.673 252.267 175.859 252.254C175.032 252.317 174.206 252.279 173.405 252.417C172.591 252.518 171.79 252.593 171.026 252.756C169.486 253.007 168.071 253.383 166.844 253.696C166.243 253.884 165.68 254.022 165.192 254.185C164.703 254.336 164.265 254.474 163.927 254.599C163.226 254.85 162.825 254.988 162.825 254.988V254.975Z" fill="#E7BAD8"/>
</g>
<g style="mix-blend-mode:multiply">
<path fill-rule="evenodd" clip-rule="evenodd" d="M174.983 261.621L177.061 265.345C177.061 265.345 177.9 267.339 176.109 266.323C174.319 265.307 174.933 261.634 174.933 261.634" fill="#E7BAD8"/>
</g>
<path fill-rule="evenodd" clip-rule="evenodd" d="M167.396 249.145C168.059 249.183 168.66 248.129 168.735 246.788C168.81 245.446 168.322 244.33 167.646 244.292C166.982 244.255 166.381 245.321 166.306 246.662C166.244 248.004 166.719 249.12 167.396 249.145Z" fill="#876430"/>
<path fill-rule="evenodd" clip-rule="evenodd" d="M183.496 249.333C184.16 249.371 184.761 248.317 184.836 246.976C184.911 245.634 184.423 244.518 183.759 244.48C183.096 244.443 182.495 245.496 182.42 246.838C182.345 248.179 182.833 249.295 183.509 249.333H183.496Z" fill="#876430"/>
<path d="M192.999 223.34C192.999 223.34 192.711 224.368 191.847 225.71C191.421 226.387 190.858 227.139 190.144 227.917C189.431 228.669 188.554 229.434 187.59 230.274C185.662 231.904 183.371 233.873 180.679 235.653C180.003 236.079 179.302 236.506 178.576 236.907C177.837 237.258 177.098 237.659 176.31 237.973C175.521 238.261 174.732 238.587 173.906 238.825C173.079 239.051 172.241 239.264 171.402 239.465C168.009 240.142 164.491 240.455 161.148 240.242C159.482 240.142 157.867 239.916 156.365 239.59C155.614 239.39 154.888 239.264 154.186 239.026C153.485 238.788 152.822 238.562 152.196 238.324C151.57 238.061 150.969 237.835 150.418 237.559C149.867 237.271 149.366 236.97 148.89 236.706C147.939 236.205 147.188 235.54 146.587 235.101C145.986 234.625 145.56 234.136 145.259 233.86C144.972 233.559 144.821 233.396 144.821 233.396C144.821 233.396 145.084 233.258 145.585 232.995C146.036 232.757 146.699 232.418 147.538 231.979C148.352 231.528 149.253 231.014 150.23 230.399C151.194 229.823 152.208 229.145 153.235 228.456C154.199 227.779 155.251 227.051 156.352 226.274C157.404 225.547 158.456 224.769 159.52 224.055C160.058 223.653 160.597 223.315 161.135 222.964L161.949 222.4C162.224 222.237 162.5 222.086 162.775 221.898C163.877 221.158 165.004 220.581 166.143 219.879C167.283 219.265 168.459 218.726 169.699 218.387C170.938 218.036 172.241 217.886 173.593 217.873C174.269 217.873 174.97 217.911 175.659 217.961C176.372 218.036 177.073 218.099 177.749 218.161C179.139 218.324 180.491 218.487 181.756 218.588C183.02 218.701 184.135 218.701 185.349 219.077C186.564 219.44 187.766 219.98 188.905 220.644C189.193 220.807 189.456 220.958 189.706 221.096C189.969 221.246 190.232 221.434 190.47 221.585C190.946 221.873 191.396 222.186 191.759 222.45C192.548 223.026 192.974 223.34 192.974 223.34H192.999Z" fill="#229799"/>
<path fill-rule="evenodd" clip-rule="evenodd" d="M189.168 223.353C189.168 223.353 181.268 233.07 161.762 231.515Z" fill="#3F6DB3"/>
<path fill-rule="evenodd" clip-rule="evenodd" d="M189.168 223.353C189.168 223.353 178.5 228.606 160.935 225.146Z" fill="#3F6DB3"/>
<path fill-rule="evenodd" clip-rule="evenodd" d="M148.527 247.791C149.667 249.408 149.278 251.64 147.663 252.781C146.048 253.922 143.82 253.533 142.68 251.916C141.541 250.298 141.929 248.066 143.544 246.925C145.159 245.784 147.388 246.173 148.54 247.791H148.527Z" fill="#EFA381"/>
<path fill-rule="evenodd" clip-rule="evenodd" d="M148.215 251.866C148.79 252.693 148.603 253.834 147.776 254.411C146.95 254.988 145.823 254.8 145.235 253.972C144.646 253.145 144.847 252.016 145.673 251.427C146.499 250.85 147.626 251.038 148.215 251.866Z" fill="#EFA381"/>
<g style="mix-blend-mode:multiply">
<path fill-rule="evenodd" clip-rule="evenodd" d="M144.821 247.966C144.821 247.966 142.555 249.571 143.731 251.176Z" fill="#EFA381"/>
</g>
<path d="M178.05 269.834C178.05 269.834 177.737 269.922 177.161 270.009C176.598 270.11 175.771 270.223 174.782 270.223C174.281 270.223 173.743 270.21 173.18 270.16C172.616 270.085 172.003 270.035 171.402 269.884C170.162 269.658 168.898 269.194 167.671 268.655C167.07 268.354 166.469 268.066 165.918 267.715C165.342 267.401 164.829 267.013 164.328 266.637C163.814 266.285 163.376 265.872 162.951 265.483C162.512 265.119 162.149 264.731 161.824 264.354C161.135 263.64 160.659 262.963 160.334 262.486C160.008 262.01 159.833 261.734 159.833 261.734C159.833 261.734 160.108 261.922 160.559 262.273C161.01 262.624 161.636 263.126 162.425 263.677C163.188 264.254 164.115 264.869 165.117 265.496C165.605 265.822 166.143 266.11 166.682 266.398C167.207 266.712 167.783 266.963 168.347 267.226C168.91 267.502 169.486 267.727 170.049 267.953C170.625 268.154 171.189 268.379 171.752 268.542C172.867 268.894 173.943 269.144 174.882 269.32C175.821 269.495 176.61 269.621 177.173 269.696C177.737 269.784 178.062 269.821 178.062 269.821L178.05 269.834Z" fill="#876430"/>
<path d="M176.022 263.589C176.022 263.589 176.273 263.74 176.698 264.003C176.924 264.091 177.162 264.254 177.475 264.304C177.625 264.354 177.775 264.367 177.938 264.354C178.088 264.379 178.238 264.304 178.389 264.266C178.689 264.141 178.965 263.903 179.215 263.577L179.403 263.313C179.403 263.313 179.515 263.163 179.453 263.238L179.54 263.063C179.54 263.063 179.515 262.987 179.453 262.849C179.39 262.712 179.278 262.536 179.115 262.36C178.939 262.16 178.752 261.947 178.576 261.734C178.226 261.282 177.85 260.818 177.525 260.279C177.362 260.028 177.212 259.74 177.099 259.451L176.911 259.025L176.861 258.912L176.824 258.825V258.774L176.748 258.574C176.573 258.072 176.486 257.458 176.398 256.856C176.348 256.279 176.348 255.727 176.398 255.213C176.41 254.699 176.536 254.223 176.623 253.784C176.836 252.919 177.112 252.242 177.324 251.778C177.537 251.314 177.675 251.063 177.675 251.063C177.675 251.063 177.675 251.351 177.625 251.853C177.6 252.104 177.6 252.405 177.562 252.743C177.525 253.082 177.55 253.47 177.512 253.884C177.537 254.298 177.512 254.737 177.562 255.201C177.587 255.665 177.687 256.141 177.75 256.63C177.813 256.856 177.863 257.094 177.925 257.332C177.988 257.571 178.101 257.846 178.176 258.11L178.238 258.31V258.361H178.263C178.238 258.285 178.263 258.348 178.263 258.335V258.361L178.313 258.448L178.476 258.787C178.576 259.013 178.702 259.238 178.852 259.451C179.102 259.903 179.428 260.329 179.741 260.768C179.916 260.994 180.079 261.207 180.242 261.445C180.417 261.696 180.605 261.997 180.717 262.36C180.83 262.712 180.893 263.201 180.63 263.677L180.517 263.84C180.392 264.016 180.392 263.978 180.329 264.053L180.029 264.354C179.841 264.555 179.565 264.705 179.353 264.843C179.09 264.956 178.827 265.069 178.564 265.094C178.026 265.169 177.537 265.031 177.224 264.806C176.874 264.63 176.661 264.354 176.473 264.179C176.16 263.777 176.01 263.527 176.01 263.527L176.022 263.589Z" fill="#876430"/>
<path fill-rule="evenodd" clip-rule="evenodd" d="M173.217 334.12C172.504 329.017 171.765 323.913 170.15 318.998C168.76 314.773 167.32 310.56 165.818 306.372C159.458 311.914 151.282 313.318 143.056 312.704C143.119 314.396 143.181 316.089 143.257 317.782C143.432 321.794 143.582 325.819 143.72 329.832C143.858 333.894 144.033 337.969 144.02 342.044C144.02 346.157 143.732 350.282 143.695 354.408C143.657 359.636 143.019 364.802 142.155 369.931C141.316 374.909 140.44 379.887 139.526 384.852C138.875 388.4 138.173 391.936 137.41 395.46C136.884 397.867 136.22 400.25 135.632 402.657C135.369 403.748 135.394 403.798 136.421 404.337C139.3 405.867 134.831 417.816 138.148 418.055C139.025 418.117 138.85 427.158 139.713 427.333C143.282 428.061 143.807 433.941 147.426 433.528C150.318 433.189 168.022 438.681 167.834 405.716C168.022 406.105 172.091 387.034 172.817 383.41C174.282 376.087 174.895 368.727 174.77 361.266C174.745 359.511 174.908 357.756 174.883 356.013C174.845 352.615 174.883 349.204 174.62 345.819C174.319 341.919 173.781 338.032 173.242 334.158L173.217 334.12Z" fill="#005E60"/>
<path d="M156.228 398.419C156.228 398.419 156.516 398.419 157.079 398.419C157.542 398.431 158.231 398.457 159.133 398.482C160.873 398.557 163.339 398.72 166.444 398.958C172.642 399.497 181.356 400.388 191.91 402.557C197.181 403.698 202.916 405.077 209.025 407.234C215.098 409.428 221.633 412.161 228.119 416.588C231.349 418.82 234.554 421.453 237.496 424.675C238.974 426.255 240.338 428.036 241.616 429.891C242.843 431.785 244.019 433.753 244.933 435.86C246.862 440.023 247.951 444.524 248.376 448.875C248.614 451.044 248.652 453.188 248.589 455.282C248.527 456.311 248.477 457.351 248.376 458.367C248.251 459.408 248.164 460.31 247.988 461.451L247.538 463.884C247.35 464.824 247.162 465.815 246.949 466.693C246.536 468.461 246.085 470.216 245.572 471.934C244.558 475.382 243.331 478.73 241.979 481.965C239.287 488.435 235.944 494.391 232.288 499.745C228.657 505.112 224.751 509.926 220.794 514.19C216.838 518.44 212.919 522.227 209.126 525.487C205.332 528.747 201.776 531.593 198.509 533.963C195.241 536.333 192.361 538.339 189.92 539.894C187.478 541.462 185.525 542.665 184.16 543.455C182.796 544.245 181.994 544.671 181.932 544.697C178.927 546.352 175.133 545.261 173.481 542.239C171.878 539.317 172.855 535.681 175.647 533.951L175.947 533.763C175.947 533.763 176.536 533.399 177.65 532.709C178.814 531.957 180.542 530.841 182.67 529.274C184.786 527.706 187.353 525.763 190.145 523.356C192.925 520.948 196.017 518.152 199.109 514.879C202.215 511.607 205.432 507.97 208.437 503.858C211.442 499.757 214.347 495.294 216.801 490.466C219.242 485.639 221.27 480.498 222.698 475.194C223.424 472.548 223.925 469.84 224.313 467.144C224.5 465.79 224.638 464.436 224.738 463.082C224.801 462.404 224.801 461.828 224.839 461.201L224.926 458.906L224.889 457.251C224.864 456.687 224.801 456.148 224.776 455.596C224.638 454.53 224.475 453.502 224.225 452.561C223.687 450.681 222.973 449.076 221.984 447.721C220.106 445.013 217.226 442.907 213.47 441.264C209.739 439.634 205.357 438.493 200.95 437.891C196.53 437.264 192.111 437.001 187.954 437.051C183.797 437.076 179.929 437.314 176.498 437.678C173.067 438.016 170.075 438.455 167.646 438.882C165.217 439.295 163.339 439.722 162.125 440.01C161.524 440.161 161.073 440.273 160.81 440.349C160.51 440.424 160.585 440.449 160.51 440.462L158.331 440.675C146.712 441.828 136.358 433.339 135.206 421.716C134.042 410.08 142.531 399.71 154.137 398.557C154.826 398.494 155.539 398.457 156.215 398.457L156.228 398.419Z" fill="#005E60"/>
<path fill-rule="evenodd" clip-rule="evenodd" d="M65.3434 295.776C65.3434 295.776 48.9544 490.404 214.459 445.113Z" fill="#98D8E6"/>
<path d="M65.3434 295.776C65.3434 295.776 48.9544 490.404 214.459 445.113" stroke="#98D8E6" stroke-width="0.7" stroke-linecap="round" stroke-linejoin="round"/>
<path d="M169.224 539.832C168.134 539.481 167.058 538.653 165.831 539.192C165.593 539.719 164.679 549.9 186.94 560.383C188.755 558.991 175.534 540.421 169.224 539.832Z" fill="#422918"/>
<path fill-rule="evenodd" clip-rule="evenodd" d="M245.559 304.78L321.832 303.162L315.659 365.718L236.97 367.123L245.559 304.78Z" fill="white" stroke="#868686" stroke-width="3.05" stroke-miterlimit="10"/>
<path d="M315.109 368.025H216.537V372.941H315.109V368.025Z" fill="#575756"/>
<path fill-rule="evenodd" clip-rule="evenodd" d="M233.89 367.687C230.51 366.721 227.192 366.596 223.711 366.508C225.714 365.894 236.156 365.38 236.907 363.386C238.009 360.477 224.262 360.803 222.797 361.029C225.815 359.035 229.959 360.113 233.089 358.709C236.607 357.142 227.43 354.935 226.441 354.985C217.914 355.399 210.052 367.912 204.63 373.856C120.182 382.432 164.09 305.356 144.809 309.732C130.11 320.842 132.877 355.813 140.427 366.796C157.104 391.072 205.82 382.332 207.159 381.793C212.005 379.862 214.384 380.414 217.213 375.373C219.542 371.248 224.663 371.273 229.045 371.825C232.325 372.238 240.801 369.668 233.878 367.674C235.756 368.213 230.985 366.847 233.878 367.674L233.89 367.687Z" fill="#EFA381"/>
<path d="M285.123 319.375H307.659" stroke="#C6C6C5" stroke-width="3.04" stroke-linecap="round" stroke-linejoin="round"/>
<path d="M285.123 329.456H307.659" stroke="#C6C6C5" stroke-width="3.04" stroke-linecap="round" stroke-linejoin="round"/>
<path d="M285.123 339.524H297.793" stroke="#C6C6C5" stroke-width="3.04" stroke-linecap="round" stroke-linejoin="round"/>
<path d="M391.77 208.218L381.503 197.924C385.622 189.661 387.963 180.344 387.963 170.489C387.963 136.534 360.482 109.011 326.577 109.011C292.672 109.011 265.19 136.534 265.19 170.489C265.19 204.444 292.672 231.967 326.577 231.967C346.271 231.967 363.787 222.663 375.018 208.218H391.77Z" fill="#68C9CB"/>
<path fill-rule="evenodd" clip-rule="evenodd" d="M296.228 139.593L322.308 135.568L326.327 161.687L324.524 161.963C323.284 158.025 320.042 155.116 316.148 154.214C317.012 152.997 317.413 151.455 317.175 149.875C316.674 146.615 313.644 144.396 310.389 144.897C307.146 145.399 304.917 148.446 305.418 151.693C305.669 153.286 306.52 154.627 307.697 155.53C304.254 157.574 302.038 161.323 302.038 165.448L300.235 165.724L296.216 139.606L296.228 139.593Z" fill="white"/>
<path d="M323.091 182.423L303.28 185.48L304.247 191.763L324.058 188.706L323.091 182.423Z" fill="white"/>
<path d="M348.129 178.551L328.318 181.608L329.285 187.891L349.096 184.834L348.129 178.551Z" fill="white"/>
<path d="M363.257 161.83L301.126 171.418L302.095 177.714L364.225 168.126L363.257 161.83Z" fill="white"/>
<path d="M262.286 325.28L262.148 324.34" stroke="#68C9CB" stroke-width="1.52" stroke-miterlimit="10"/>
<path d="M261.848 322.409L252.095 257.934" stroke="#68C9CB" stroke-width="1.52" stroke-miterlimit="10" stroke-dasharray="1.55 1.55"/>
<path d="M251.944 256.969L251.807 256.028" stroke="#68C9CB" stroke-width="1.52" stroke-miterlimit="10"/>
<path d="M236.695 185.247L236.896 186.187" stroke="#68C9CB" stroke-width="1.52" stroke-miterlimit="10"/>
<path d="M237.296 188.043L251.406 254.161" stroke="#68C9CB" stroke-width="1.52" stroke-miterlimit="10" stroke-dasharray="1.52 1.52"/>
<path d="M251.606 255.088L251.807 256.029" stroke="#68C9CB" stroke-width="1.52" stroke-miterlimit="10"/>
<path d="M288.278 218.525L287.614 219.202" stroke="#68C9CB" stroke-width="1.52" stroke-miterlimit="10"/>
<path d="M286.312 220.543L253.121 254.674" stroke="#68C9CB" stroke-width="1.52" stroke-miterlimit="10" stroke-dasharray="1.49 1.49"/>
<path d="M252.47 255.339L251.807 256.029" stroke="#68C9CB" stroke-width="1.52" stroke-miterlimit="10"/>
<path d="M269.436 256.029C269.436 265.784 261.535 273.683 251.807 273.683C242.079 273.683 234.179 265.771 234.179 256.029C234.179 246.286 242.079 238.374 251.807 238.374C261.535 238.374 269.436 246.273 269.436 256.029Z" fill="#68C9CB"/>
<path d="M246.223 186.376C246.223 191.817 241.816 196.231 236.382 196.231C230.948 196.231 226.541 191.817 226.541 186.376C226.541 180.934 230.948 176.52 236.382 176.52C241.816 176.52 246.223 180.934 246.223 186.376Z" fill="#68C9CB"/>
<path d="M272.778 325.28C272.778 331.086 268.083 335.788 262.299 335.788C256.514 335.788 251.819 331.086 251.819 325.28C251.819 319.475 256.514 314.785 262.299 314.785C268.083 314.785 272.778 319.487 272.778 325.28Z" fill="#68C9CB"/>
<mask id="mask0_80_3155" style="mask-type:luminance" maskUnits="userSpaceOnUse" x="343" y="169" width="197" height="197">
<path d="M441.789 365.919C495.896 365.919 539.759 321.991 539.759 267.803C539.759 213.615 495.896 169.687 441.789 169.687C387.681 169.687 343.818 213.615 343.818 267.803C343.818 321.991 387.681 365.919 441.789 365.919Z" fill="white"/>
</mask>
<g mask="url(#mask0_80_3155)">
<path d="M441.789 368.928C498.089 368.928 543.728 323.22 543.728 266.837C543.728 210.454 498.089 164.746 441.789 164.746C385.489 164.746 339.85 210.454 339.85 266.837C339.85 323.22 385.489 368.928 441.789 368.928Z" fill="#25A3A6"/>
<path d="M435.179 247.565C435.179 253.295 431.26 257.947 426.415 257.947C421.569 257.947 417.65 253.295 417.65 247.565C417.65 241.835 421.569 237.183 426.415 237.183C431.26 237.183 435.179 241.835 435.179 247.565Z" fill="#143A3B"/>
<path d="M498.919 339.035C498.092 330.333 494.161 320.992 487.049 315.45C478.799 309.03 460.569 312.277 461.208 301.958C462.047 288.24 460.281 279.012 469.146 262.248C464.375 265.658 451.605 276.592 445.896 277.068C444.143 285.306 443.229 298.171 442.24 302.447C439.197 302.974 425.588 322.609 425.901 329.832C426.164 335.8 428.981 341.668 429.557 347.75C429.782 350.069 429.106 352.251 427.892 354.132C432.036 372.2 435.742 388.099 428.505 406.343C438.095 409.24 450.841 407.685 460.845 407.535C466.679 407.447 472.513 407.359 478.348 407.321C483.656 407.296 485.797 408.751 486.749 403.246C488.589 392.476 491.093 381.655 493.285 370.934C495.4 360.652 499.933 349.643 498.919 339.048V339.035Z" fill="#EFA381"/>
<path d="M498.919 339.035C498.093 330.334 494.162 320.992 487.05 315.45C480.465 310.322 468.445 311.35 463.45 306.748C462.849 306.196 456.639 312.177 452.131 316.453C447.336 311.601 445.258 306.196 442.241 302.447C438.873 303.037 429.545 353.806 428.606 357.279C432.425 374.069 435.329 389.166 428.506 406.356C438.096 409.253 450.842 407.698 460.846 407.547C466.68 407.46 472.514 407.372 478.349 407.334C483.657 407.309 485.798 408.764 486.75 403.259C488.59 392.488 491.094 381.667 493.285 370.947C495.401 360.665 499.934 349.656 498.919 339.061V339.035Z" fill="white"/>
<g style="mix-blend-mode:multiply">
<path d="M461.809 285.996C463.111 279.037 464.013 271.928 469.133 262.235C464.363 265.646 451.593 276.58 445.883 277.056C445.245 280.066 444.706 283.702 444.243 287.313C450.178 287.927 456.05 287.313 461.796 285.984L461.809 285.996Z" fill="#E7BAD8"/>
</g>
<path d="M498.919 339.035C498.093 330.333 494.162 320.992 487.05 315.45C481.153 310.861 470.887 311.199 465.215 308.014C464.026 307.35 453.909 365.555 448.839 379.724C447.011 358.32 442.128 300.391 441.652 302.435C429.47 304.228 424.762 317.544 425.601 327.224C426.327 335.512 427.241 343.75 427.329 352.063C431.047 371.962 428.531 399.021 425.013 420.939C434.603 423.835 485.398 420.951 491.232 420.939C491.996 406.644 491.082 381.655 493.273 370.934C495.389 360.652 499.921 349.643 498.907 339.048L498.919 339.035Z" fill="#005E60" stroke="#005E60" stroke-width="0.92" stroke-miterlimit="10"/>
<path d="M468.821 269.533C470.236 260.254 471.187 251.176 472.94 242.01C473.516 239.001 478.762 216.87 477.259 216.443C461.359 211.992 444.419 207.854 423.761 217.121C425.138 222.424 418.99 257.546 426.365 278.059C437.157 308.064 467.381 278.974 468.821 269.533Z" fill="#EFA381"/>
<g style="mix-blend-mode:multiply">
<path fill-rule="evenodd" clip-rule="evenodd" d="M441.289 260.618L437.583 264.994C437.583 264.994 435.968 267.401 438.584 266.523C441.214 265.658 441.326 260.643 441.326 260.643" fill="#E7BAD8"/>
</g>
<path d="M437.645 235.741C437.645 235.741 437.82 236.33 438.121 237.371C438.246 237.897 438.409 238.537 438.572 239.277C438.722 240.016 438.897 240.856 439.022 241.784C439.097 242.248 439.148 242.737 439.198 243.226C439.26 243.728 439.298 244.242 439.323 244.781C439.348 245.32 439.385 245.872 439.385 246.436C439.385 247 439.398 247.577 439.36 248.167C439.335 248.756 439.31 249.345 439.248 249.96C439.223 250.26 439.198 250.561 439.16 250.862C439.123 251.163 439.072 251.477 439.022 251.778C438.947 252.392 438.822 252.994 438.697 253.608C438.584 254.223 438.409 254.825 438.259 255.439C438.108 256.053 437.883 256.643 437.708 257.232C437.507 257.821 437.27 258.398 437.057 258.975C436.819 259.539 436.556 260.103 436.305 260.655C436.03 261.182 435.742 261.708 435.467 262.223C435.179 262.749 434.966 263.201 434.803 263.69C434.653 264.166 434.64 264.668 434.866 264.843C435.078 265.069 435.592 265.056 436.03 264.956C436.481 264.856 436.906 264.68 437.307 264.479C438.096 264.066 438.772 263.564 439.323 263.063C439.874 262.561 440.299 262.072 440.612 261.646C440.925 261.207 441.151 260.843 441.289 260.592C441.426 260.342 441.489 260.204 441.489 260.204C441.489 260.204 441.439 260.354 441.339 260.618C441.226 260.881 441.063 261.282 440.775 261.746C440.5 262.21 440.112 262.762 439.586 263.326C439.072 263.89 438.409 264.479 437.583 264.969C437.169 265.219 436.719 265.445 436.193 265.595C435.93 265.671 435.654 265.721 435.341 265.721C435.041 265.721 434.69 265.646 434.39 265.407C434.089 265.157 433.964 264.768 433.939 264.442C433.914 264.103 433.964 263.79 434.039 263.501C434.177 262.912 434.452 262.335 434.715 261.834C434.966 261.32 435.229 260.793 435.492 260.266C435.717 259.727 435.955 259.176 436.193 258.624C436.393 258.06 436.618 257.495 436.806 256.919C436.982 256.342 437.194 255.765 437.332 255.176C437.482 254.586 437.658 253.997 437.77 253.408C437.896 252.818 438.033 252.217 438.108 251.627C438.158 251.326 438.196 251.038 438.246 250.737C438.284 250.436 438.309 250.148 438.346 249.859C438.421 249.282 438.471 248.693 438.509 248.116C438.559 247.552 438.572 246.975 438.584 246.436C438.609 245.884 438.609 245.345 438.584 244.819C438.584 244.292 438.559 243.778 438.534 243.289C438.522 242.787 438.496 242.311 438.446 241.847C438.384 240.932 438.284 240.092 438.196 239.339C438.108 238.587 437.996 237.947 437.921 237.408C437.733 236.342 437.633 235.728 437.633 235.728L437.645 235.741Z" fill="#876430"/>
<g style="mix-blend-mode:multiply">
<path d="M431.385 250.675C431.385 250.675 432.937 249.546 435.554 248.418C436.205 248.117 436.931 247.853 437.695 247.565C438.471 247.314 439.285 247.001 440.149 246.775C441.864 246.273 443.742 245.885 445.62 245.609C446.559 245.458 447.523 245.408 448.45 245.308C449.389 245.208 450.315 245.245 451.204 245.22C452.093 245.183 452.957 245.283 453.771 245.321C454.585 245.346 455.361 245.458 456.062 245.559C456.763 245.659 457.414 245.734 457.978 245.86C458.541 245.985 459.029 246.098 459.443 246.198C460.244 246.399 460.707 246.512 460.707 246.512C460.707 246.512 460.231 246.512 459.405 246.487C458.992 246.474 458.491 246.449 457.928 246.436C457.364 246.399 456.713 246.436 456.012 246.436C455.311 246.436 454.56 246.424 453.758 246.462C452.957 246.512 452.118 246.499 451.254 246.574C450.39 246.65 449.489 246.687 448.588 246.788C447.686 246.9 446.76 246.963 445.846 247.126C444.005 247.364 442.19 247.715 440.487 248.079C438.784 248.455 437.207 248.856 435.867 249.245C433.175 250.01 431.397 250.675 431.397 250.675H431.385Z" fill="#E7BAD8"/>
</g>
<path d="M421.307 218.487C421.507 230.261 443.367 234.136 482.255 215.478C455.199 177.974 421.106 206.713 421.307 218.487Z" fill="#3E7E80"/>
<path d="M428.719 218.325C428.719 218.325 429.082 219.014 430.083 219.842C430.309 220.067 430.634 220.243 430.947 220.469C431.26 220.707 431.636 220.882 432.036 221.083C432.237 221.183 432.437 221.284 432.65 221.384C432.875 221.472 433.101 221.547 433.339 221.622C433.814 221.76 434.29 222.011 434.841 222.099C435.379 222.212 435.93 222.337 436.506 222.462C437.095 222.525 437.708 222.6 438.334 222.663C438.96 222.763 439.611 222.751 440.275 222.751C440.938 222.751 441.614 222.788 442.303 222.763C443.68 222.638 445.108 222.613 446.547 222.387C447.987 222.149 449.465 222.036 450.904 221.685C452.357 221.371 453.822 221.108 455.236 220.757C456.651 220.381 458.053 220.017 459.406 219.666C460.758 219.34 462.035 218.876 463.274 218.513C464.501 218.136 465.666 217.798 466.742 217.472C468.858 216.732 470.649 216.168 471.901 215.754C473.153 215.353 473.879 215.14 473.879 215.14C473.879 215.14 473.203 215.478 472.013 216.03C470.811 216.569 469.121 217.384 467.043 218.287C465.991 218.701 464.852 219.14 463.637 219.591C462.41 220.017 461.158 220.569 459.794 220.945C458.442 221.346 457.027 221.76 455.612 222.186C454.172 222.563 452.682 222.851 451.205 223.177C449.727 223.516 448.2 223.616 446.723 223.842C445.984 223.967 445.233 223.979 444.507 224.005C443.768 224.03 443.042 224.067 442.328 224.092C441.614 224.092 440.901 224.03 440.212 223.992C439.524 223.954 438.847 223.917 438.196 223.779C437.545 223.666 436.919 223.553 436.306 223.453C435.705 223.265 435.129 223.089 434.578 222.926C434.015 222.788 433.526 222.5 433.051 222.299C432.813 222.186 432.575 222.086 432.362 221.961C432.149 221.823 431.949 221.697 431.748 221.572C431.348 221.321 430.985 221.096 430.684 220.807C430.384 220.544 430.083 220.318 429.87 220.055C429.407 219.578 429.132 219.127 428.944 218.814C428.781 218.5 428.706 218.325 428.706 218.325H428.719Z" fill="#FF9C97"/>
<path d="M466.755 237.083C473.215 240.731 469.572 246.048 469.572 246.048L476.808 242.65C476.808 242.65 492.233 217.158 481.641 213.121C471.049 209.083 460.282 233.446 466.742 237.083H466.755Z" fill="#3E7E80"/>
<path fill-rule="evenodd" clip-rule="evenodd" d="M471.149 256.154C473.59 257.596 477.321 255.803 479.462 252.142C481.603 248.493 481.365 244.355 478.911 242.926C476.457 241.484 472.739 243.277 470.598 246.938C468.457 250.599 468.695 254.725 471.149 256.167V256.154Z" fill="#EFA381"/>
<g style="mix-blend-mode:multiply">
<path d="M472.075 248.919C472.075 248.919 472.075 248.405 472.338 247.741C472.463 247.402 472.639 247.026 472.889 246.662C473.127 246.286 473.452 245.922 473.79 245.584C474.179 245.27 474.567 244.97 475.042 244.794C475.268 244.694 475.506 244.631 475.744 244.606C475.969 244.556 476.207 244.593 476.42 244.606C476.62 244.606 476.808 244.731 476.946 244.794C477.096 244.844 477.196 244.957 477.284 245.045C477.446 245.208 477.509 245.308 477.509 245.308C477.509 245.308 477.384 245.308 477.171 245.321C477.071 245.321 476.958 245.321 476.845 245.358C476.72 245.396 476.607 245.396 476.47 245.471C476.219 245.584 475.956 245.734 475.681 245.96C475.531 246.048 475.406 246.198 475.255 246.299C475.105 246.412 474.967 246.562 474.817 246.687C474.216 247.227 473.59 247.816 473.052 248.23C472.526 248.656 472.075 248.907 472.075 248.907V248.919Z" fill="#E7BAD8"/>
</g>
<g style="mix-blend-mode:multiply" opacity="0.6">
<path d="M441.651 302.434L439.773 331.687C439.773 331.687 433.363 324.302 434.527 331.687C435.692 339.085 447.698 376.225 447.698 376.225L441.651 302.422V302.434Z" fill="#005E60"/>
</g>
<g style="mix-blend-mode:multiply" opacity="0.6">
<path d="M465.202 308.014L466.63 331.687C466.63 331.687 473.04 324.302 471.876 331.687C470.711 339.085 449.865 377.843 449.865 377.843L465.215 308.014H465.202Z" fill="#005E60"/>
</g>
<path d="M452.256 319.149C452.256 319.149 452.82 320.127 453.371 321.82C453.934 323.512 454.435 325.907 454.56 328.766C454.597 330.195 454.635 331.738 454.347 333.355C454.084 334.973 453.371 336.653 452.657 338.396C451.943 340.139 451.355 341.944 451.179 343.8C450.954 345.656 450.904 347.549 451.017 349.455C451.142 351.361 451.317 353.267 451.417 355.148C451.492 357.016 451.743 358.872 452.018 360.665C452.281 362.458 452.507 364.188 452.457 365.818C452.419 367.448 452.206 368.978 451.993 370.395C451.518 373.216 450.829 375.561 450.165 377.178C449.539 378.808 448.976 379.724 448.976 379.724H448.688C448.688 379.724 448.237 378.733 447.787 377.053C447.311 375.36 446.873 372.965 446.697 370.106C446.622 368.677 446.585 367.135 446.722 365.505C446.848 363.875 447.261 362.182 447.711 360.426C448.175 358.671 448.625 356.853 448.901 354.997C449.201 353.141 449.577 351.261 449.915 349.38C450.228 347.499 450.391 345.606 450.366 343.737C450.391 341.869 450.003 340.013 449.489 338.195C448.976 336.39 448.45 334.634 448.35 333.004C448.237 331.362 448.438 329.832 448.625 328.415C449.064 325.594 449.815 323.261 450.566 321.631C451.305 320.014 451.968 319.099 451.968 319.099H452.256V319.149Z" fill="#925F36"/>
<g style="mix-blend-mode:multiply" opacity="0.6">
<path d="M470.773 365.919C470.773 366.759 470.097 367.423 469.258 367.423C468.419 367.423 467.756 366.746 467.756 365.919C467.756 365.091 468.432 364.414 469.258 364.414C470.085 364.414 470.773 365.091 470.773 365.919Z" fill="#40A9AB"/>
</g>
<path d="M457.289 263.539C457.602 264.567 454.748 271.639 453.245 274.385C451.33 277.896 448.538 280.316 444.682 281.407C441.839 282.209 440.487 280.454 440.663 277.758C440.775 275.915 441.351 272.705 441.864 270.46C445.683 270.185 457.302 263.539 457.302 263.539H457.289Z" fill="#143A3B"/>
<path d="M458.354 262.248C458.354 262.248 458.091 262.548 457.64 263.075C457.415 263.338 457.139 263.652 456.764 263.978C456.401 264.291 455.987 264.705 455.499 265.056C455.011 265.407 454.498 265.821 453.909 266.172C453.321 266.523 452.72 266.95 452.031 267.263C451.355 267.602 450.679 267.978 449.953 268.279C449.227 268.605 448.488 268.893 447.737 269.182C446.234 269.721 444.707 270.185 443.254 270.536C441.802 270.887 440.437 271.138 439.248 271.288C438.059 271.451 437.069 271.501 436.368 271.514C435.667 271.514 435.267 271.464 435.267 271.464C435.267 271.464 435.655 271.401 436.331 271.213C436.994 271.037 437.946 270.761 439.073 270.435C440.2 270.097 441.502 269.696 442.904 269.257C444.294 268.793 445.771 268.329 447.223 267.765C448.688 267.251 450.128 266.661 451.455 266.084C452.131 265.809 452.745 265.483 453.358 265.207C453.959 264.918 454.498 264.605 455.023 264.342C455.549 264.078 455.975 263.777 456.388 263.552C456.801 263.326 457.152 263.075 457.44 262.874C458.016 262.486 458.354 262.273 458.354 262.273V262.248Z" fill="#876430"/>
<mask id="mask1_80_3155" style="mask-type:luminance" maskUnits="userSpaceOnUse" x="440" y="263" width="18" height="19">
<path d="M457.289 263.539C457.602 264.567 454.748 271.639 453.245 274.385C451.33 277.896 448.538 280.316 444.682 281.407C441.839 282.209 440.487 280.454 440.663 277.758C440.775 275.915 441.351 272.705 441.864 270.46C445.683 270.185 457.302 263.539 457.302 263.539H457.289Z" fill="white"/>
</mask>
<g mask="url(#mask1_80_3155)">
<path d="M457.579 263.531L444.86 266.958L446.399 272.686L459.118 269.258L457.579 263.531Z" fill="white"/>
<path d="M443.518 280.867C443.518 283.488 446.172 285.607 449.44 285.607C452.707 285.607 455.362 283.488 455.362 280.867C455.362 278.247 452.707 276.115 449.44 276.115C446.172 276.115 443.518 278.234 443.518 280.867Z" fill="#7AB5B6"/>
</g>
<path fill-rule="evenodd" clip-rule="evenodd" d="M449.001 241.734C449.765 241.534 450.066 240.13 449.677 238.6C449.277 237.057 448.35 235.979 447.574 236.18C446.81 236.38 446.51 237.785 446.898 239.314C447.299 240.844 448.238 241.935 449.001 241.734Z" fill="#876430"/>
<path fill-rule="evenodd" clip-rule="evenodd" d="M432.95 245.233C433.713 245.032 434.014 243.628 433.626 242.098C433.225 240.556 432.286 239.477 431.522 239.678C430.759 239.878 430.458 241.283 430.846 242.813C431.247 244.342 432.186 245.433 432.95 245.233Z" fill="#876430"/>
<path d="M483.382 247.565C483.382 253.295 479.463 257.947 474.618 257.947C469.772 257.947 465.854 253.295 465.854 247.565C465.854 241.835 469.772 237.183 474.618 237.183C479.463 237.183 483.382 241.835 483.382 247.565Z" fill="#143A3B"/>
<path d="M481.003 247.565C481.003 251.74 478.474 255.126 475.357 255.126C472.239 255.126 469.71 251.74 469.71 247.565C469.71 243.389 472.239 240.004 475.357 240.004C478.474 240.004 481.003 243.389 481.003 247.565Z" fill="#7AB5B6"/>
<path d="M472.188 237.797C472.626 236.292 473.039 234.713 473.39 233.145C473.753 231.578 474.091 229.998 474.404 228.406C475.03 225.233 475.506 222.036 475.819 218.826C476.132 215.616 476.307 212.394 476.119 209.209C476.032 207.616 475.869 206.024 475.556 204.482C475.255 202.939 474.792 201.422 474.066 200.093C473.352 198.764 472.338 197.623 470.999 197.033C469.722 196.444 467.981 196.444 466.379 196.193L463.95 195.892L461.521 195.729C459.906 195.654 458.278 195.504 456.65 195.516C455.023 195.516 453.395 195.454 451.768 195.516C450.14 195.579 448.512 195.604 446.885 195.717C445.257 195.855 443.629 195.918 442.014 196.106C440.399 196.281 438.772 196.469 437.169 196.707L437.607 196.206C437.632 197.585 437.682 198.964 437.732 200.331H436.48C436.531 198.952 436.581 197.573 436.606 196.206V195.755L437.044 195.704C438.684 195.529 440.312 195.403 441.952 195.291C443.579 195.153 445.22 195.077 446.86 194.977L451.768 194.777C453.408 194.726 455.048 194.739 456.676 194.714C458.316 194.664 459.956 194.777 461.596 194.814L464.062 194.877L466.504 195.065L468.945 195.253C469.333 195.291 469.772 195.291 470.222 195.403C470.661 195.504 471.111 195.541 471.524 195.755C473.24 196.394 474.592 197.748 475.506 199.228C476.457 200.72 477.033 202.35 477.484 203.98C477.96 205.61 478.26 207.278 478.473 208.945C478.711 210.613 478.811 212.281 478.936 213.948C479.024 215.616 479.074 217.284 479.074 218.951C479.099 222.287 478.949 225.609 478.749 228.932C478.648 230.587 478.523 232.255 478.373 233.91C478.21 235.578 478.073 237.22 477.872 238.926L472.201 237.772L472.188 237.797Z" fill="#143A3B"/>
<path d="M475.243 257.972C475.243 257.972 475.243 258.11 475.243 258.373C475.243 258.649 475.218 259.038 475.18 259.527C475.155 260.016 475.068 260.605 474.992 261.282C474.88 261.96 474.767 262.724 474.579 263.539C474.391 264.367 474.179 265.257 473.878 266.173C473.628 267.113 473.202 268.053 472.826 269.044C472.363 269.997 471.912 271.025 471.311 271.978C470.711 272.931 470.11 273.922 469.346 274.799C468.97 275.238 468.632 275.727 468.232 276.128C467.818 276.53 467.393 276.931 466.98 277.332C466.191 278.185 465.202 278.761 464.338 279.439C464.112 279.602 463.9 279.777 463.674 279.915C463.436 280.04 463.198 280.178 462.973 280.304C462.51 280.555 462.047 280.805 461.608 281.044C460.732 281.583 459.818 281.846 459.004 282.172C458.178 282.46 457.427 282.824 456.738 282.949C456.049 283.112 455.448 283.25 454.948 283.376C453.946 283.601 453.383 283.739 453.383 283.739C452.218 284.015 451.041 283.275 450.778 282.109C450.503 280.943 451.242 279.765 452.406 279.501C452.469 279.489 452.519 279.476 452.581 279.464L452.844 279.426C452.844 279.426 453.345 279.351 454.221 279.225C454.66 279.163 455.198 279.087 455.811 279C456.437 278.962 457.076 278.686 457.815 278.511C458.541 278.298 459.367 278.147 460.131 277.746C460.532 277.57 460.932 277.395 461.358 277.219C461.571 277.131 461.784 277.044 461.996 276.943C462.197 276.831 462.397 276.705 462.597 276.58C463.374 276.066 464.3 275.652 465.026 274.975C465.414 274.661 465.803 274.348 466.203 274.022C466.591 273.696 466.917 273.295 467.28 272.943C468.031 272.241 468.632 271.401 469.258 270.599C469.872 269.784 470.36 268.893 470.861 268.053C471.286 267.176 471.762 266.336 472.075 265.483C472.438 264.655 472.714 263.84 472.952 263.075C473.427 261.558 473.715 260.254 473.866 259.339C473.953 258.875 473.991 258.524 474.028 258.286C474.053 258.035 474.066 257.897 474.066 257.897V257.872C474.104 257.533 474.417 257.283 474.755 257.32C475.08 257.358 475.318 257.634 475.318 257.96L475.243 257.972Z" fill="#143A3B"/>
</g>
<path fill-rule="evenodd" clip-rule="evenodd" d="M341.765 321.995H366.58V297.131L341.765 321.995Z" fill="#68C9CB"/>
</g>
<defs>
<linearGradient id="paint0_linear_80_3155" x1="290.757" y1="79.0813" x2="-6.06911" y2="318.894" gradientUnits="userSpaceOnUse">
<stop stop-color="#9C9B9B" stop-opacity="0"/>
<stop offset="1" stop-color="#B1B1B1"/>
</linearGradient>
<linearGradient id="paint1_linear_80_3155" x1="133.94" y1="253.618" x2="195.583" y2="231.237" gradientUnits="userSpaceOnUse">
<stop stop-color="#246B6C"/>
<stop offset="1" stop-color="#229799"/>
</linearGradient>
<clipPath id="clip0_80_3155">
<rect width="558" height="505" fill="white" transform="translate(15 73)"/>
</clipPath>
</defs>
</svg>
