<svg width="68" height="68" viewBox="0 0 68 68" fill="none" xmlns="http://www.w3.org/2000/svg">
<rect x="0.5" y="0.5" width="67" height="67" rx="9.5" stroke="#3AD2D5"/>
<path d="M20.6666 37.3333L33.9999 32.3333L47.3333 37.3333M34 19C37.8931 22.4443 42.9742 24.2376 48.1667 24C48.9227 26.5717 49.154 29.2691 48.8469 31.932C48.5398 34.5948 47.7006 37.1688 46.3791 39.5009C45.0575 41.833 43.2807 43.8756 41.1541 45.5075C39.0276 47.1393 36.5947 48.327 34 49C31.4054 48.327 28.9725 47.1393 26.846 45.5075C24.7194 43.8756 22.9426 41.833 21.621 39.5009C20.2995 37.1688 19.4603 34.5948 19.1532 31.932C18.8461 29.2691 19.0774 26.5717 19.8334 24C25.0259 24.2376 30.107 22.4443 34 19Z" stroke="#3AD2D5" stroke-width="2" stroke-linecap="round" stroke-linejoin="round"/>
</svg>
