<svg width="68" height="68" viewBox="0 0 68 68" fill="none" xmlns="http://www.w3.org/2000/svg">
<rect x="0.5" y="0.5" width="67" height="67" rx="9.5" stroke="#3AD2D5"/>
<path d="M28.9998 34L32.3332 37.3333L38.9998 30.6667M22.3331 26.0008C22.3331 25.0283 22.7194 24.0957 23.4071 23.408C24.0947 22.7204 25.0273 22.3341 25.9998 22.3341H27.6665C28.6346 22.3335 29.5633 21.9501 30.2498 21.2674L31.4165 20.1008C31.7572 19.7581 32.1623 19.4862 32.6085 19.3006C33.0547 19.1151 33.5332 19.0195 34.0165 19.0195C34.4997 19.0195 34.9782 19.1151 35.4244 19.3006C35.8706 19.4862 36.2757 19.7581 36.6165 20.1008L37.7831 21.2674C38.4698 21.9508 39.3998 22.3341 40.3665 22.3341H42.0331C43.0056 22.3341 43.9382 22.7204 44.6259 23.408C45.3135 24.0957 45.6998 25.0283 45.6998 26.0008V27.6674C45.6998 28.6341 46.0831 29.5641 46.7665 30.2508L47.9331 31.4174C48.2758 31.7582 48.5477 32.1633 48.7333 32.6095C48.9188 33.0557 49.0144 33.5342 49.0144 34.0174C49.0144 34.5007 48.9188 34.9792 48.7333 35.4254C48.5477 35.8716 48.2758 36.2767 47.9331 36.6174L46.7665 37.7841C46.0838 38.4706 45.7003 39.3993 45.6998 40.3674V42.0341C45.6998 43.0066 45.3135 43.9392 44.6259 44.6268C43.9382 45.3145 43.0056 45.7008 42.0331 45.7008H40.3665C39.3983 45.7013 38.4696 46.0848 37.7831 46.7674L36.6165 47.9341C36.2757 48.2768 35.8706 48.5487 35.4244 48.7343C34.9782 48.9198 34.4997 49.0153 34.0165 49.0153C33.5332 49.0153 33.0547 48.9198 32.6085 48.7343C32.1623 48.5487 31.7572 48.2768 31.4165 47.9341L30.2498 46.7674C29.5633 46.0848 28.6346 45.7013 27.6665 45.7008H25.9998C25.0273 45.7008 24.0947 45.3145 23.4071 44.6268C22.7194 43.9392 22.3331 43.0066 22.3331 42.0341V40.3674C22.3326 39.3993 21.9491 38.4706 21.2665 37.7841L20.0998 36.6174C19.7571 36.2767 19.4852 35.8716 19.2996 35.4254C19.1141 34.9792 19.0186 34.5007 19.0186 34.0174C19.0186 33.5342 19.1141 33.0557 19.2996 32.6095C19.4852 32.1633 19.7571 31.7582 20.0998 31.4174L21.2665 30.2508C21.9491 29.5643 22.3326 28.6356 22.3331 27.6674V26.0008Z" stroke="#3AD2D5" stroke-width="2" stroke-linecap="round" stroke-linejoin="round"/>
</svg>
