<svg width="68" height="68" viewBox="0 0 68 68" fill="none" xmlns="http://www.w3.org/2000/svg">
<rect x="0.5" y="0.5" width="67" height="67" rx="9.5" fill="#C82B2B" fill-opacity="0.2" stroke="#C82B2B"/>
<path d="M34.0006 29.0962V35.6347M34.0006 40.5385H34.017M31.3247 20.2545L18.0745 42.3774C17.8014 42.8504 17.6569 43.3867 17.6553 43.9329C17.6537 44.4792 17.7952 45.0163 18.0656 45.4909C18.3361 45.9654 18.726 46.361 19.1968 46.6381C19.6675 46.9152 20.2026 47.0642 20.7488 47.0703H47.2524C47.7984 47.064 48.3332 46.915 48.8037 46.638C49.2742 46.3609 49.664 45.9656 49.9344 45.4913C50.2048 45.0169 50.3464 44.4801 50.345 43.9341C50.3436 43.3881 50.1994 42.852 49.9267 42.379L36.6765 20.2528C36.3977 19.7927 36.005 19.4122 35.5362 19.1482C35.0675 18.8841 34.5386 18.7454 34.0006 18.7454C33.4626 18.7454 32.9337 18.8841 32.465 19.1482C31.9962 19.4122 31.6035 19.7927 31.3247 20.2528V20.2545Z" stroke="#C82B2B" stroke-width="2" stroke-linecap="round" stroke-linejoin="round"/>
</svg>
