<svg width="52" height="52" viewBox="0 0 52 52" fill="none" xmlns="http://www.w3.org/2000/svg">
<rect x="0.75" y="0.75" width="50.5" height="50.5" rx="9.25" stroke="#3AD2D5" stroke-width="1.5"/>
<path d="M17.5879 29.1499C18.6428 30.0662 19.8777 30.7517 21.2133 31.1624C22.5489 31.573 23.9556 31.6998 25.3431 31.5344C26.7306 31.3691 28.0682 30.9154 29.2699 30.2024C30.4716 29.4895 31.5109 28.533 32.321 27.3945C33.1311 26.256 33.6941 24.9606 33.9738 23.5916C34.2535 22.2226 34.2437 20.8102 33.9451 19.4451C33.6465 18.0801 33.0657 16.7927 32.24 15.6654C31.4142 14.5382 30.3618 13.5962 29.1504 12.8999M24.1504 31.6499V36.6499M19.1504 36.6499H29.1504M19.1504 21.6499C19.1504 22.976 19.6772 24.2478 20.6149 25.1854C21.5525 26.1231 22.8243 26.6499 24.1504 26.6499C25.4765 26.6499 26.7482 26.1231 27.6859 25.1854C28.6236 24.2478 29.1504 22.976 29.1504 21.6499C29.1504 20.3238 28.6236 19.0521 27.6859 18.1144C26.7482 17.1767 25.4765 16.6499 24.1504 16.6499C22.8243 16.6499 21.5525 17.1767 20.6149 18.1144C19.6772 19.0521 19.1504 20.3238 19.1504 21.6499Z" stroke="#3AD2D5" stroke-width="2" stroke-linecap="round" stroke-linejoin="round"/>
</svg>
