<svg width="52" height="52" viewBox="0 0 52 52" fill="none" xmlns="http://www.w3.org/2000/svg">
<rect x="0.75" y="0.75" width="50.5" height="50.5" rx="9.25" stroke="#3AD2D5" stroke-width="1.5"/>
<path d="M31.6504 17.9C31.6504 18.5631 31.9138 19.199 32.3826 19.6678C32.8515 20.1366 33.4873 20.4 34.1504 20.4C34.8134 20.4 35.4493 20.1366 35.9182 19.6678C36.387 19.199 36.6504 18.5631 36.6504 17.9C36.6504 17.237 36.387 16.6011 35.9182 16.1323C35.4493 15.6634 34.8134 15.4 34.1504 15.4C33.4873 15.4 32.8515 15.6634 32.3826 16.1323C31.9138 16.6011 31.6504 17.237 31.6504 17.9ZM31.6504 17.9H27.2754L22.9004 25.4M31.6504 32.9C31.6504 33.5631 31.9138 34.1989 32.3826 34.6678C32.8515 35.1366 33.4873 35.4 34.1504 35.4C34.8134 35.4 35.4493 35.1366 35.9182 34.6678C36.387 34.1989 36.6504 33.5631 36.6504 32.9C36.6504 32.237 36.387 31.6011 35.9182 31.1323C35.4493 30.6634 34.8134 30.4 34.1504 30.4C33.4873 30.4 32.8515 30.6634 32.3826 31.1323C31.9138 31.6011 31.6504 32.237 31.6504 32.9ZM31.6504 32.9H27.2754L22.9004 25.4M19.1504 25.4C19.1504 26.0631 18.887 26.6989 18.4182 27.1678C17.9493 27.6366 17.3134 27.9 16.6504 27.9C15.9873 27.9 15.3515 27.6366 14.8826 27.1678C14.4138 26.6989 14.1504 26.0631 14.1504 25.4C14.1504 24.737 14.4138 24.1011 14.8826 23.6323C15.3515 23.1634 15.9873 22.9 16.6504 22.9C17.3134 22.9 17.9493 23.1634 18.4182 23.6323C18.887 24.1011 19.1504 24.737 19.1504 25.4ZM19.1504 25.4H22.9004" stroke="#3AD2D5" stroke-width="1.5" stroke-linecap="round" stroke-linejoin="round"/>
</svg>
