<svg width="52" height="52" viewBox="0 0 52 52" fill="none" xmlns="http://www.w3.org/2000/svg">
<rect x="0.75" y="0.75" width="50.5" height="50.5" rx="9.25" stroke="#3AD2D5" stroke-width="1.5"/>
<path d="M29.1504 19.15C29.8134 19.15 30.4493 19.4134 30.9182 19.8823C31.387 20.3511 31.6504 20.987 31.6504 21.65M29.1504 14.15C31.1395 14.15 33.0472 14.9402 34.4537 16.3467C35.8602 17.7532 36.6504 19.6609 36.6504 21.65M16.6504 15.4H21.6504L24.1504 21.65L21.0254 23.525C22.3641 26.2394 24.561 28.4363 27.2754 29.775L29.1504 26.65L35.4004 29.15V34.15C35.4004 34.8131 35.137 35.4489 34.6682 35.9178C34.1993 36.3866 33.5634 36.65 32.9004 36.65C28.0245 36.3537 23.4256 34.2831 19.9714 30.829C16.5173 27.3748 14.4467 22.7759 14.1504 17.9C14.1504 17.237 14.4138 16.6011 14.8826 16.1323C15.3515 15.6634 15.9873 15.4 16.6504 15.4Z" stroke="#3AD2D5" stroke-width="1.5" stroke-linecap="round" stroke-linejoin="round"/>
</svg>
