<svg width="52" height="52" viewBox="0 0 52 52" fill="none" xmlns="http://www.w3.org/2000/svg">
<rect x="0.75" y="0.75" width="50.5" height="50.5" rx="9.25" stroke="#3AD2D5" stroke-width="1.5"/>
<path d="M29.1504 19.1499C29.8134 19.1499 30.4493 19.4133 30.9182 19.8821C31.387 20.351 31.6504 20.9869 31.6504 21.6499M29.1504 14.1499C31.1395 14.1499 33.0472 14.9401 34.4537 16.3466C35.8602 17.7531 36.6504 19.6608 36.6504 21.6499M16.6504 15.3999H21.6504L24.1504 21.6499L21.0254 23.5249C22.3641 26.2393 24.561 28.4362 27.2754 29.7749L29.1504 26.6499L35.4004 29.1499V34.1499C35.4004 34.8129 35.137 35.4488 34.6682 35.9177C34.1993 36.3865 33.5634 36.6499 32.9004 36.6499C28.0245 36.3536 23.4256 34.283 19.9714 30.8289C16.5173 27.3747 14.4467 22.7758 14.1504 17.8999C14.1504 17.2369 14.4138 16.601 14.8826 16.1321C15.3515 15.6633 15.9873 15.3999 16.6504 15.3999Z" stroke="#3AD2D5" stroke-width="1.5" stroke-linecap="round" stroke-linejoin="round"/>
</svg>
