<svg width="52" height="52" viewBox="0 0 52 52" fill="none" xmlns="http://www.w3.org/2000/svg">
<rect x="0.75" y="0.75" width="50.5" height="50.5" rx="9.25" stroke="#3AD2D5" stroke-width="1.5"/>
<path d="M17.9004 36.65V34.15C17.9004 32.8239 18.4272 31.5522 19.3649 30.6145C20.3025 29.6768 21.5743 29.15 22.9004 29.15H26.6504M30.4004 37.9L36.6504 31.65M36.6504 31.65V37.275M36.6504 31.65H31.0254M20.4004 19.15C20.4004 20.4761 20.9272 21.7479 21.8649 22.6856C22.8025 23.6232 24.0743 24.15 25.4004 24.15C26.7265 24.15 27.9982 23.6232 28.9359 22.6856C29.8736 21.7479 30.4004 20.4761 30.4004 19.15C30.4004 17.8239 29.8736 16.5522 28.9359 15.6145C27.9982 14.6768 26.7265 14.15 25.4004 14.15C24.0743 14.15 22.8025 14.6768 21.8649 15.6145C20.9272 16.5522 20.4004 17.8239 20.4004 19.15Z" stroke="#3AD2D5" stroke-width="1.5" stroke-linecap="round" stroke-linejoin="round"/>
</svg>
