<svg width="52" height="52" viewBox="0 0 52 52" fill="none" xmlns="http://www.w3.org/2000/svg">
<rect x="0.75" y="0.75" width="50.5" height="50.5" rx="9.25" stroke="#3AD2D5" stroke-width="1.5"/>
<path d="M30.4004 14.1499V19.1499M20.4004 14.1499V19.1499M15.4004 24.1499H35.4004M19.1504 27.8999H19.1666M22.9129 27.8999H22.9191M26.6629 27.8999H26.6691M30.4191 27.8999H30.4254M26.6691 31.6499H26.6754M19.1629 31.6499H19.1691M22.9129 31.6499H22.9191M15.4004 19.1499C15.4004 18.4869 15.6638 17.851 16.1326 17.3821C16.6015 16.9133 17.2373 16.6499 17.9004 16.6499H32.9004C33.5634 16.6499 34.1993 16.9133 34.6682 17.3821C35.137 17.851 35.4004 18.4869 35.4004 19.1499V34.1499C35.4004 34.8129 35.137 35.4488 34.6682 35.9177C34.1993 36.3865 33.5634 36.6499 32.9004 36.6499H17.9004C17.2373 36.6499 16.6015 36.3865 16.1326 35.9177C15.6638 35.4488 15.4004 34.8129 15.4004 34.1499V19.1499Z" stroke="#3AD2D5" stroke-width="2" stroke-linecap="round" stroke-linejoin="round"/>
</svg>
