<svg width="118" height="22" viewBox="0 0 118 22" fill="none" xmlns="http://www.w3.org/2000/svg">
<path d="M10.0489 2.92705C10.3483 2.00574 11.6517 2.00574 11.9511 2.92705L13.2451 6.90983C13.379 7.32185 13.763 7.60081 14.1962 7.60081H18.3839C19.3527 7.60081 19.7554 8.84043 18.9717 9.40983L15.5838 11.8713C15.2333 12.126 15.0866 12.5773 15.2205 12.9894L16.5146 16.9721C16.8139 17.8934 15.7595 18.6596 14.9757 18.0902L11.5878 15.6287C11.2373 15.374 10.7627 15.374 10.4122 15.6287L7.02426 18.0902C6.24054 18.6596 5.18607 17.8934 5.48542 16.9721L6.7795 12.9894C6.91338 12.5773 6.76672 12.126 6.41623 11.8713L3.02827 9.40983C2.24456 8.84043 2.64734 7.60081 3.61606 7.60081H7.8038C8.23703 7.60081 8.62099 7.32185 8.75486 6.90983L10.0489 2.92705Z" fill="#FF9F66"/>
<path d="M34.0489 2.92705C34.3483 2.00574 35.6517 2.00574 35.9511 2.92705L37.2451 6.90983C37.379 7.32185 37.763 7.60081 38.1962 7.60081H42.3839C43.3527 7.60081 43.7554 8.84043 42.9717 9.40983L39.5838 11.8713C39.2333 12.126 39.0866 12.5773 39.2205 12.9894L40.5146 16.9721C40.8139 17.8934 39.7595 18.6596 38.9757 18.0902L35.5878 15.6287C35.2373 15.374 34.7627 15.374 34.4122 15.6287L31.0243 18.0902C30.2405 18.6596 29.1861 17.8934 29.4854 16.9721L30.7795 12.9894C30.9134 12.5773 30.7667 12.126 30.4162 11.8713L27.0283 9.40983C26.2446 8.84043 26.6473 7.60081 27.6161 7.60081H31.8038C32.237 7.60081 32.621 7.32185 32.7549 6.90983L34.0489 2.92705Z" fill="#FF9F66"/>
<path d="M58.0489 2.92705C58.3483 2.00574 59.6517 2.00574 59.9511 2.92705L61.2451 6.90983C61.379 7.32185 61.763 7.60081 62.1962 7.60081H66.3839C67.3527 7.60081 67.7554 8.84043 66.9717 9.40983L63.5838 11.8713C63.2333 12.126 63.0866 12.5773 63.2205 12.9894L64.5146 16.9721C64.8139 17.8934 63.7595 18.6596 62.9757 18.0902L59.5878 15.6287C59.2373 15.374 58.7627 15.374 58.4122 15.6287L55.0243 18.0902C54.2405 18.6596 53.1861 17.8934 53.4854 16.9721L54.7795 12.9894C54.9134 12.5773 54.7667 12.126 54.4162 11.8713L51.0283 9.40983C50.2446 8.84043 50.6473 7.60081 51.6161 7.60081H55.8038C56.237 7.60081 56.621 7.32185 56.7549 6.90983L58.0489 2.92705Z" fill="#FF9F66"/>
<path d="M82.0489 2.92705C82.3483 2.00574 83.6517 2.00574 83.9511 2.92705L85.2451 6.90983C85.379 7.32185 85.763 7.60081 86.1962 7.60081H90.3839C91.3527 7.60081 91.7554 8.84043 90.9717 9.40983L87.5838 11.8713C87.2333 12.126 87.0866 12.5773 87.2205 12.9894L88.5146 16.9721C88.8139 17.8934 87.7595 18.6596 86.9757 18.0902L83.5878 15.6287C83.2373 15.374 82.7627 15.374 82.4122 15.6287L79.0243 18.0902C78.2405 18.6596 77.1861 17.8934 77.4854 16.9721L78.7795 12.9894C78.9134 12.5773 78.7667 12.126 78.4162 11.8713L75.0283 9.40983C74.2446 8.84043 74.6473 7.60081 75.6161 7.60081H79.8038C80.237 7.60081 80.621 7.32185 80.7549 6.90983L82.0489 2.92705Z" fill="#FF9F66"/>
<path d="M106.049 2.92705C106.348 2.00574 107.652 2.00574 107.951 2.92705L109.245 6.90983C109.379 7.32185 109.763 7.60081 110.196 7.60081H114.384C115.353 7.60081 115.755 8.84043 114.972 9.40983L111.584 11.8713C111.233 12.126 111.087 12.5773 111.22 12.9894L112.515 16.9721C112.814 17.8934 111.759 18.6596 110.976 18.0902L107.588 15.6287C107.237 15.374 106.763 15.374 106.412 15.6287L103.024 18.0902C102.241 18.6596 101.186 17.8934 101.485 16.9721L102.78 12.9894C102.913 12.5773 102.767 12.126 102.416 11.8713L99.0283 9.40983C98.2446 8.84043 98.6473 7.60081 99.6161 7.60081H103.804C104.237 7.60081 104.621 7.32185 104.755 6.90983L106.049 2.92705Z" fill="#FF9F66"/>
</svg>
