<svg width="540" height="559" viewBox="0 0 540 559" fill="none" xmlns="http://www.w3.org/2000/svg">
<g clip-path="url(#clip0_80_3355)">
<path d="M61.5068 188.598L60.749 98.121C63.4618 98.7521 66.0609 97.6268 68.3266 97.3607C68.5767 97.3303 68.8343 97.3911 69.0844 97.3607C70.706 96.456 72.3806 95.5284 74.2295 95.2243C117.657 88.1154 158.401 80.4591 197.342 58.2809L200.176 57.8247C184.741 90.632 191.652 128.016 214.945 155.152C225.425 167.362 233.753 169.613 224.841 188.628C211.224 217.68 175.898 227.632 146.565 219.208C117.535 210.867 93.3856 180.691 61.5144 188.598H61.5068Z" fill="#306465"/>
<path d="M470.696 97.3608C470.946 97.3912 471.204 97.3228 471.454 97.3608C473.864 97.7029 478.797 97.7561 479.032 100.022L478.274 187.457C478.721 189.921 483.07 190.445 485.094 191.639L471.06 187.853C438.598 184.773 414.463 219.223 379.371 222.044C353.07 224.157 317.159 208.944 311.908 180.272C309.271 165.872 317.743 163.424 325.593 154.399C347.546 129.164 354.896 91.4532 340.142 60.7063C339.263 58.874 335.899 55.8936 337.323 54.0308C339.006 53.9396 340.529 54.8215 341.893 56.6767C378.758 80.5656 425.011 88.9746 468.347 96.0302L470.681 97.3684L470.696 97.3608Z" fill="#306566"/>
<path d="M463.118 333.056L458.185 317.858C435.096 260.804 371.975 276.033 333.534 239.166C330.578 236.33 327.093 232.422 324.471 229.251C323.395 227.951 321.667 226.005 321.425 224.332C345.241 251.095 374.794 260.127 408.961 247.164C424.328 241.333 446.614 223.671 462.678 225.921C481.569 228.567 478.031 252.866 476.757 266.529C475.621 278.747 472.923 290.973 470.688 303.016L475.242 301.123C473.878 302.34 471.415 303.039 471.453 304.925L469.938 305.685C468.93 314.581 467.149 323.347 464.595 331.992L463.118 333.056Z" fill="#316667"/>
<path d="M68.3267 304.165C68.0464 291.908 64.1894 279.067 63.03 266.522C62.0677 256.159 59.6428 237.752 67.9706 230.43C83.7395 216.577 109.685 237.896 124.893 244.747C160.076 260.607 191.985 253.475 217.605 225.085C217.605 226.583 216.218 228.119 215.317 229.244C207.671 238.793 196.312 248.312 185.529 254.098C163.736 265.807 138.093 267.86 116.316 279.69C93.9844 291.825 78.9278 313.091 76.6621 338.743L75.9043 336.843C74.6313 335.733 74.3282 333.695 74.995 330.715C72.6914 322.48 70.9789 314.132 69.8423 305.67C69.4785 304.971 69.0845 304.841 68.3267 304.91C68.3267 304.659 68.3267 304.4 68.3267 304.149V304.165Z" fill="#316667"/>
<path d="M184.263 477.515L194.463 481.438C193.568 487.056 193.371 492.865 193.864 498.856L191.083 497.283C188.522 495.344 186.43 494.462 183.505 491.96C180.027 488.98 180.459 488.296 176.686 487.399C176.36 487.976 175.632 488.638 175.276 488.357C166.236 481.339 157.681 473.546 149.55 465.471L150.164 463.821C149.732 463.122 149.27 462.468 148.656 461.921C148.535 461.35 149.391 461.434 149.778 461.556C153.513 462.757 162.652 469.014 167.456 471.189C172.988 473.69 178.572 475.553 184.271 477.507L184.263 477.515Z" fill="#4ED1D3"/>
<path d="M213.058 383.237C212.997 383.229 212.687 383.875 212.376 383.974C192.561 342.591 239.784 323.598 256.864 294.509C262.956 284.138 266.487 272.209 268.253 260.318C268.905 255.908 268.624 251.521 269.132 247.506C269.276 246.396 269.708 245.149 270.647 246.381C270.769 262.599 274.573 279.896 282.643 294.03C299.988 324.381 348.424 342.112 326.615 385.031C326.07 386.111 325.714 387.304 324.448 387.799C323.418 387.236 323.213 386.027 323.842 384.172C317.954 384.848 312.271 387.205 307.884 391.243L304.754 392.36C298.237 391.995 291.584 392.626 285.052 392.36V375.634C285.052 375.558 283.954 375.71 283.537 375.634C292.448 369.445 299.048 363.788 301.844 352.573C310.506 317.835 266.813 294.919 244.581 321.728C230.752 338.401 236.048 364.776 255.462 374.219C255.674 374.531 254.75 375.094 254.75 375.269V392.376C248.218 392.642 241.565 392.018 235.048 392.376L232.002 391.212C226.614 387.023 220.31 384.37 213.073 383.252L213.058 383.237Z" fill="#316667"/>
<path d="M339.604 320.131C335.057 314.55 329.874 309.182 325.646 303.343C312.105 284.632 302.17 263.115 297.935 240.306L304.891 254.98C333.905 305.138 404.513 286.267 426.124 329.498C437.157 351.554 430.36 375.413 419.85 396.154C419.539 396.048 419.229 395.401 419.161 395.409C413.402 389.737 405.801 385.152 397.701 383.312L396.807 381.723C396.648 382.316 396.398 383.206 395.943 383.244C391.025 383.639 382.72 383.632 377.802 383.244L376.726 381.723C375.233 376.675 375.233 371.566 376.726 366.517C375.029 366.373 375.362 365.856 376.726 364.997L377.696 362.883C417.228 337.565 373.089 284.434 341.687 319.561L339.596 320.146L339.604 320.131Z" fill="#316768"/>
<path d="M200.176 320.131C197.926 319.165 195.872 317.379 194.023 314.786C159.106 289.856 126.015 340.469 162.175 362.929L163.046 364.982C163.706 365.194 163.698 365.453 163.046 365.742C165.183 367.498 164.865 374.432 164.562 377.572C165.009 379.792 164.509 381.169 163.046 381.708C162.887 382.301 162.637 383.183 162.175 383.229C159.871 383.449 144.693 383.647 143.292 383.229L142.2 381.708L142.246 382.712C135.168 385.411 127.811 388.247 122.362 394.094L120.604 393.873C118.543 395.325 119.475 394.383 118.657 393.204C106.396 375.611 104.6 343.465 116.194 325.202C141.079 286.008 207.906 304.355 235.42 253.992L241.838 240.291C237.049 270.414 220.939 294.995 202.419 318.215C201.692 319.127 200.555 319.637 200.169 320.116L200.176 320.131Z" fill="#326768"/>
<path d="M235.034 392.36C233.677 392.436 232.321 392.231 230.957 392.421C228.176 392.809 224.167 395.128 221.394 394.641C219.424 394.291 213.756 383.358 213.059 383.237C213.816 381.769 215.696 382.666 216.855 382.834C223.667 383.814 230.775 386.711 235.034 392.36Z" fill="#4ED1D3"/>
<path d="M363.094 475.234C369.232 472.641 376.037 469.486 381.94 466.391C384.433 465.084 388.737 461.64 390.767 460.796C391.116 460.651 392.01 460.598 391.889 461.161C390.919 461.898 390.328 462.879 389.616 463.822L390.025 465.768C383.273 472.884 375.984 479.423 368.148 485.399L366.125 485.11C365.269 483.491 362.397 486.517 361.662 487.095C359.73 488.6 358.055 489.915 356.024 491.322C355.661 491.58 353.16 493.04 354.759 493.474C352.811 494.736 350.455 496.081 348.697 497.275C346.151 499.214 345.272 498.583 346.06 495.397V482.571C345.605 482.411 345.219 482.213 345.075 481.902C344.65 481.027 360.783 475.279 363.094 475.226V475.234Z" fill="#4ED1D3"/>
<path d="M363.094 475.234C357.767 477.484 352.114 479.043 346.772 481.286C346.15 482.221 346.226 494.804 346.423 496.918C346.628 499.153 347.401 497.116 348.696 497.283C345.135 499.701 341.672 502.476 338.088 504.886C339.27 502.293 343.036 501.586 344.589 499.625C347.075 496.484 344.968 486.418 345.673 482.077H341.119C347.317 479.773 353.576 477.659 359.782 475.333C360.752 474.968 362.382 473.652 363.094 475.234Z" fill="#775B36"/>
<path d="M198.661 482.076H194.107C194.766 485.87 192.925 496.629 194.819 499.237C196.077 500.97 200.646 502.384 201.692 504.886C197.979 502.324 194.615 499.951 191.083 497.283C192.379 497.115 193.152 499.153 193.357 496.918C193.804 492.097 193.129 486.684 193.251 481.803C192.554 479.75 185.825 479.788 184.264 477.515C189.007 479.142 193.902 480.381 198.661 482.076Z" fill="#76552F"/>
<path d="M163.046 365.749C170.472 367.559 177.989 368.722 185.309 366.722C185.665 373.527 187.59 379.541 191.083 384.757C195.039 393.835 198.964 396.823 204.753 404.114C205.647 405.247 206.534 405.825 206.238 407.566C203.639 410.052 201.987 411.945 200.176 415.169C193.182 430.147 192.811 446.395 193.94 462.757L188.81 460.788C169.707 448.562 152.907 437.887 138.055 420.088C132.357 413.268 126.947 403.514 121.369 397.682C120.703 397.081 120.059 396.298 120.612 395.401C120.68 394.922 120.475 394.116 120.612 393.88C121.589 392.155 128.939 386.703 130.97 385.646C132.706 384.749 140.783 381.715 142.208 381.715H163.046V365.749Z" fill="#4ED1D3"/>
<path d="M376.734 366.51V381.716H396.815C401.907 381.716 414.031 388.209 417.691 391.942C418.752 393.022 419.381 393.759 419.168 395.401C418.236 395.561 410.439 409.171 408.871 411.3C393.488 432.2 372.885 447.642 350.97 460.788L345.681 462.97C346.719 450.524 346.174 438.024 344.15 425.814C341.998 418.652 338.786 412.873 333.542 407.566C332.367 406.16 333.466 405.833 334.269 404.905C336.361 402.488 339.164 400.115 341.119 397.682C340.581 396.884 340.968 396.534 341.877 396.922L342.635 396.162L342.218 395.584C348.849 386.871 353.585 377.922 354.554 366.814C362.14 368.433 369.338 367.81 376.734 366.51Z" fill="#4ED1D3"/>
<path d="M163.046 364.989C143.004 356.724 138.79 327.475 155.529 313.729C168.889 302.758 191.364 304.278 200.176 320.131C196.069 325.263 194.607 326.905 191.841 333.056C188.386 339.792 185.862 346.757 184.263 353.964C185.195 356.656 185.036 362.358 184.263 365.369C184.87 365.574 185.286 366.228 184.892 366.601C182.414 368.935 166.115 367.658 163.046 364.989Z" fill="#4ED1D3"/>
<path d="M376.734 364.989C374.688 368.585 356.865 368.494 354.948 366.441C354.857 366.342 355.138 365.909 355.516 365.369C354.895 362.001 354.6 356.466 355.516 353.204L354.834 353.029C353.433 345.586 351.273 337.968 347.181 331.535C344.43 325.628 343.407 324.799 339.604 320.131C346.529 307.236 364.231 303.571 377.256 309.342C400.724 319.743 400.262 355.044 376.734 364.989Z" fill="#4ED1D3"/>
<path d="M304.747 392.36C309.923 386.057 318.659 382.521 326.722 382.483C325.548 383.761 325.131 386.749 324.449 387.798C324.403 387.866 323.395 387.653 322.918 388.33C321.789 389.934 319.902 393.592 318.387 394.641C316.591 395.888 311.825 392.945 309.483 392.542C307.816 392.253 306.346 392.451 304.747 392.36Z" fill="#4ED1D3"/>
<path d="M235.033 392.36C240.11 389.631 249.393 390.14 254.735 392.36C254.151 392.292 253.272 392.117 253.219 391.691C253.007 390.087 252.909 377.489 253.219 376.325L254.735 375.253C222.538 360.032 232.805 308.285 269.11 308.468C297.616 308.612 314.673 341.138 297.882 364.769C295.593 367.985 287.326 376.386 284.234 375.839C283.53 375.717 284.469 374.789 285.053 375.626C285.644 375.694 286.53 375.877 286.568 376.295C286.917 379.914 286.909 387.631 286.568 391.265L285.053 392.345C290.403 390.125 299.677 389.615 304.754 392.345C308.664 389.235 314.863 392.36 318.394 394.626C318.03 396.618 318.447 396.504 319.781 397.416C324.82 400.868 329.116 403.065 333.549 407.551L335.989 407.924C339.823 411.619 345.772 420.727 344.158 425.798C346.181 437.69 346.355 450.197 346.128 462.453L344.916 463.814C340.24 465.859 335.019 467.965 330.518 469.896C327.192 471.402 323.911 472.421 320.667 472.938C320.167 461.031 319.811 447.794 320.667 435.682C320.152 447.787 320.031 460.096 320.296 472.603L321.099 473.082L315.371 475.979C313.681 476.572 313.454 476.656 312.09 477.241C302.155 481.499 293.312 486.669 289.349 497.017C289.251 497.275 288.22 497.283 288.107 497.8C287.856 498.917 288.326 500.195 288.084 501.312C287.955 501.89 286.735 501.768 286.591 502.354C286.258 503.73 286.303 511.265 286.515 512.907C286.697 514.321 287.947 513.888 288.076 514.519C288.743 517.568 287.076 517.591 290.357 520.084L291.145 520.001C291.903 509.516 293.191 501.077 302.481 494.234C303.883 493.321 304.285 492.812 306.27 491.953C310.657 489.588 315.462 487.908 320.463 487.52C319.811 496.902 319.705 506.292 320.152 515.697L319.152 517.043C309.778 522.806 300.723 528.835 290.865 533.899C286.318 536.233 275.861 542.186 271.413 542.894C270.549 543.03 268.488 543.03 267.624 542.894C263.805 542.293 250.226 534.675 245.899 532.378C237.125 527.733 228.994 522.198 220.643 517.043L219.287 515.697C219.795 506.558 219.908 497.207 219.628 487.657L223.674 488.151C227.448 489.36 230.085 490.288 233.525 491.953C243.558 497.845 249.218 506.642 247.892 518.434C247.87 519.476 248.476 520.799 249.544 519.94C253.462 516.792 253.909 504.718 251.711 500.309C250.037 495.131 246.831 489.01 242.035 485.141C239.277 482.913 232.919 479.005 229.888 477.553C228.35 476.815 226.963 477.499 224.432 475.979C221.568 475.104 220.052 473.964 219.886 472.557C219.242 460.894 219.242 447.604 219.886 435.682C219.673 436.344 219.416 436.336 219.128 435.682C219.78 447.597 219.772 460.78 219.128 472.938C213.884 472.094 208.58 470.322 203.215 467.615C200.138 466.262 197.57 464.954 194.88 463.814L193.743 462.886C193.038 446.395 193.129 430.201 200.184 415.154C198.532 412.691 203.503 406.525 206.246 407.551C208.944 404.974 213.142 400.914 216.612 399.697L221.401 394.626C222.401 393.113 228.713 390.961 230.729 390.908C232.578 390.855 233.487 391.265 235.041 392.345L235.033 392.36Z" fill="#26B3B5"/>
<path d="M341.119 482.077L346.492 481.225C345.787 486.806 345.719 492.432 346.295 498.089C343.726 500.514 340.99 502.78 338.088 504.886C332.519 508.627 327.025 512.018 321.417 515.53C321.183 515.713 320.94 515.865 320.682 515.91C319.243 516.161 320.137 491.406 320.25 488.41C319.788 487.581 320.69 486.988 322.933 486.638C328.472 485.886 335.989 483.985 341.119 482.077Z" fill="#26B3B5"/>
<path d="M322.932 486.638C322 487.558 320.811 486.821 320.598 488.493C319.818 494.568 320.568 504.802 320.644 511.363C320.659 512.648 320.159 514.747 321.417 515.538C320.742 515.963 320.06 516.495 319.144 517.058L319.901 488.166C318.977 487.254 308.133 491.154 306.262 491.968C311.127 488.273 317.173 487.421 322.932 486.646V486.638Z" fill="#7E4527"/>
<path d="M198.661 482.077C202.662 483.506 206.291 484.654 210.785 485.118L219.863 487.52C219.704 497.115 219.643 506.657 219.666 516.138L217.605 515.53C212.081 512.063 207.042 508.573 201.692 504.886C198.85 502.772 196.115 500.56 193.485 498.241C193.682 492.485 193.842 486.813 193.963 481.24L198.668 482.069L198.661 482.077Z" fill="#26B3B5"/>
<path d="M223.666 488.159L219.862 488.6L220.635 517.051C219.923 516.61 218.832 516.298 217.604 515.53C219.9 515.956 219.059 514.367 219.12 512.907C219.445 504.582 218.839 496.196 219.165 487.87L210.784 485.125C215.816 485.65 218.877 486.631 223.666 488.167V488.159Z" fill="#7E492C"/>
<path d="M194.872 463.829C192.091 462.651 191.356 462.415 188.81 460.788L193.349 462.309C193.303 445.483 191.628 430.36 200.176 415.169C201.699 415.626 200.176 417.443 199.805 418.218C193.356 431.858 193.636 444.829 194.084 459.685C194.129 461.13 194.015 462.559 194.872 463.829Z" fill="#8B5023"/>
<path d="M344.15 425.814C347.765 437.85 346.075 449.893 346.431 462.309L350.97 460.788C348.553 462.24 347.424 462.727 344.908 463.829C346.636 452.44 345.855 440.686 344.006 429.365C343.832 428.315 342.802 426.437 344.15 425.814Z" fill="#885523"/>
<path d="M315.355 475.994C316.56 474.139 319.713 475.074 319.91 472.58C320.243 461.199 319.432 449.718 319.902 438.351C319.94 437.416 319.326 435.531 320.66 435.698V472.953L330.511 469.912C325.131 472.223 321.039 473.995 315.355 475.994Z" fill="#7B3C27"/>
<path d="M269.132 16C269.64 16 270.14 16 270.648 16C286.803 16.2053 310.581 23.2533 321.417 35.768C324.342 39.1438 327.813 42.7781 331.268 46.4123C333.837 45.4695 338.664 51.7117 337.33 54.0154C361.207 89.8563 347.53 139.246 316.151 166.077C306.512 178.805 319.978 198.185 330.768 206.374C354.213 224.172 386.607 225.199 411.484 209.529C424.897 200.709 438.961 193.54 453.669 188.005C466.566 184.568 474.128 186.172 485.093 191.631C514.456 208.89 510.66 251.3 494.944 276.786C494.777 276.725 494.679 276.177 494.322 276.117C492.39 277.789 493.512 279.637 493.428 279.827C490.761 286.221 480.546 296.386 475.242 301.116C471.112 304.134 469.218 304.035 469.566 300.819C472.757 285.058 475.568 269.008 476.295 253.269C478.546 209.727 439.923 231.707 417.986 244.678C392.859 257.9 362.306 258.455 338.603 241.659C349.03 250.342 361.495 256.006 374.218 260.431L402.103 269.494C431.989 277.675 460.708 300.751 463.126 333.048C465.323 333.573 466.21 338.112 466.179 340.15C466.013 352.444 465.838 362.054 462.656 374.151C452.221 413.732 421.934 441.157 391.434 464.308L389.623 463.814C388.198 462.765 391.495 460.826 391.351 460.963C386.327 465.684 369.868 476.177 364.738 475.629C364.185 475.568 363.64 475.409 363.102 475.226C355.994 477.279 348.666 479.56 341.127 482.069L340.232 484.008C335.163 485.718 329.95 487.034 324.668 487.916L322.94 486.638C321.296 487.505 320.167 487.824 319.538 487.604C314.893 488.159 310.384 489.725 306.27 491.961C306.353 494.067 304.239 495.671 302.481 494.241C293.441 500.925 291.728 509.394 291.425 519.704L290.357 520.092L288.372 520.426C285.166 514.846 282.787 506.133 286.606 500.058C286.947 496.735 289.872 491.824 292.221 488.912C297.798 482.031 305.868 478.039 313.908 474.892L315.355 475.994C320.243 473.645 325.289 471.622 330.51 469.912C333.117 466.163 340.399 463.213 344.908 463.829C345.529 461.974 346.158 461.556 346.802 462.575L350.97 460.788C351.311 460.126 351.682 459.488 352.129 458.902C352.576 458.317 353.001 457.823 353.539 457.443C379.53 439.552 402.619 422.925 417.349 395.082C417.994 394.839 418.6 394.968 419.168 395.394C419.85 395.538 420.138 394.519 420.039 392.345C441.158 353.486 429.352 311.737 384.137 301.154L348.969 290.327C329.897 283.735 311.786 272.231 302.625 253.665C309.49 278.048 323.425 299.374 339.452 318.352L339.596 320.116C343.029 319.796 348.947 328.411 347.173 331.52C353.16 341.465 355.926 353.189 355.016 364.738C356.024 366.913 355.789 367.969 354.334 367.901C352.538 379.085 348.136 389.007 341.111 397.659L341.278 399.796L333.534 407.543L331.298 407.49C329.859 406.722 317.507 398.002 317.197 397.18C316.583 395.569 316.469 395.112 318.386 394.618C317.727 392.246 322.516 384.255 324.448 387.775C331.23 374.098 333.791 357.477 324.183 343.852C314.469 331.482 303.777 319.903 292.115 309.114C279.218 295.831 272.504 277.881 269.875 259.61C267.329 289.582 249.067 309.593 228.304 328.616C213.391 342.879 202.957 361.91 213.232 382.218C212.035 383.214 211.974 383.548 213.058 383.214C213.399 383.001 213.717 382.849 213.982 382.925C214.748 383.13 221.098 391.836 221.636 393.029L221.401 394.618C221.901 394.983 222.447 395.683 222.181 396.002C219.938 398.693 210.936 406.243 207.936 408.03L206.246 407.543C200.305 401.826 194.213 394.58 190.378 386.84L191.091 384.734C187.696 379.731 185.809 373.976 185.438 367.475C184.915 367.171 184.498 366.852 184.453 366.487C183.157 356.299 186.703 341.982 191.848 333.033L190.962 331.323C191.833 328.297 196.978 319.85 200.184 320.108L199.987 318.306C216.256 299.397 230.441 277.485 237.481 253.201C226.66 275.592 204.223 287.095 181.316 293.467C166.986 296.972 153.051 301.549 139.518 307.198C105.51 321.864 102.888 365.757 120.627 393.858C122.589 394.246 122.506 394.702 120.627 395.379C120.309 396.238 120.559 396.998 121.385 397.659L123.718 397.964C140.018 423.867 161.94 442.738 187.908 458.971L188.833 460.765L192.97 462.567C193.409 461.928 194.046 462.339 194.895 463.806C197.425 462.316 202.419 464.787 203.23 467.608C208.436 470.398 213.793 472.101 219.31 472.694C220.658 474.162 222.371 475.257 224.447 475.971C224.841 475.454 225.387 474.968 225.993 475.074C233.04 476.283 243.255 482.958 247.536 488.722C249.635 491.542 253.712 497.298 251.734 500.301C253.644 504.886 253.644 513.789 250.961 518.024C249.362 520.54 248.294 521.536 247.877 518.039C249.203 506.368 243.376 497.746 233.548 491.938C231.115 493.207 224.621 490.752 223.697 488.136C222.128 487.771 220.742 487.824 219.537 488.281C217.4 486.547 214.49 485.483 210.815 485.095C207.981 487.376 200.191 485.323 198.691 482.054C195.736 482.206 193.773 481.727 192.803 480.609C189.878 479.773 187.044 478.731 184.294 477.492L180.959 477.956C169.964 474.648 159.894 469.387 150.695 462.993L150.187 463.799C149.823 464.262 149.134 464.886 148.846 464.665C121.46 444.555 94.3781 419.503 81.14 386.377C79.2153 381.564 73.9262 367.027 75.1613 362.898C75.3432 362.298 75.6236 361.72 75.9342 361.157C76.2222 360.245 76.8208 358.161 75.9342 358.876C73.5776 358.975 73.2897 357.28 75.1765 355.835C75.669 350.786 75.7069 345.677 75.1765 340.629C73.032 339.853 73.6307 336.668 75.9342 336.827L76.4344 336.637C79.0638 288.403 125.173 270.475 165.85 260.69C178.368 256.691 190.181 250.768 200.191 242.275C167.32 265.047 130.622 252.273 100.319 233.159C65.265 216.752 60.6579 237.333 64.6967 267.723L68.6067 291.482C70.0086 296.272 69.9252 300.484 68.3491 304.134C60.0062 297.998 53.5425 290.722 47.8896 282.085C34.3864 258.949 26.8467 229.282 41.8276 204.534C45.3587 197.676 53.9441 190.453 61.5293 188.567C65.5984 184.439 74.8203 185.534 80.4884 186.484C96.9923 191.289 112.557 198.786 127.197 208.966C161.735 230.323 211.974 222.69 226.235 180.888C227.774 176.372 227.402 171.498 224.432 167.758C201.646 145.42 186.847 116.809 191.121 83.5686C192.235 74.9315 194.213 64.1427 200.199 57.7941L199.6 55.6273C200.366 53.027 206.382 44.9297 209.292 44.8689C209.61 46.3895 211.217 44.0782 211.565 43.7284C215.49 39.79 219.363 35.8364 223.674 32.3238L222.932 31.9513C235.783 21.3678 252.545 16.1825 269.132 16Z" fill="#32BDBF"/>
<path d="M47.8673 282.115C47.1777 281.059 46.1093 279.956 45.594 279.074C45.3061 278.588 45.1091 278.048 44.8363 277.554C33.1441 256.546 26.7865 225.366 41.8052 204.564C28.8703 229.707 33.3108 255.687 47.2763 279.287C47.6854 279.979 49.5116 281.652 47.8673 282.115Z" fill="#4E6D60"/>
<path d="M219.878 34.2549C220.12 33.9964 220.348 33.7075 220.636 33.4946C220.393 33.7531 220.158 34.0344 219.878 34.2549Z" fill="#71A9AA"/>
<path d="M303.777 138.592C317.713 135.695 325.896 152.597 315.288 160.778C303.974 169.499 288.827 156.345 296.533 144.241C297.897 142.097 301.284 139.109 303.785 138.592H303.777Z" fill="#306768"/>
<path d="M232.381 163.736C239.4 163.736 245.089 158.027 245.089 150.985C245.089 143.943 239.4 138.235 232.381 138.235C225.363 138.235 219.674 143.943 219.674 150.985C219.674 158.027 225.363 163.736 232.381 163.736Z" fill="#306566"/>
<path d="M376.735 364.989V366.509C369.142 368.889 362.489 368.889 354.76 367.262C354.275 367.764 353.358 379.13 352.449 381.107C351.456 383.267 344.507 393.668 342.628 396.161L341.87 396.922C341.658 397.195 341.332 397.408 341.113 397.682C339.302 397.043 341.37 395.637 341.832 394.983C357.366 373.132 358.48 355.842 347.175 331.535C349.698 333.74 351.191 338.074 352.289 341.229C353.214 343.898 355.51 350.779 355.51 353.204V365.369C355.51 367.361 366.391 367.429 368.043 367.3C371.082 367.057 373.954 366.167 376.727 364.989H376.735Z" fill="#806835"/>
<path d="M191.084 384.757C185.075 380.902 186.386 373.649 185.022 367.262C177.558 368.676 170.132 368.957 163.047 365.749V364.989C166.207 366.289 184.264 369.391 184.264 365.369V353.964C184.264 351.493 186.537 343.951 187.477 341.221C188.318 338.781 189.909 334.69 191.842 333.056C183.408 351.828 182.802 365.749 191.084 384.757Z" fill="#7C6337"/>
<path d="M341.878 396.921C342.113 396.625 342.454 396.404 342.636 396.161L341.878 396.921Z" fill="#71A9AA"/>
<path d="M233.518 491.96C241.437 495.792 247.272 502.422 248.476 511.546C248.734 513.515 247.901 519.666 249.06 520.091C253.167 514.351 252.955 507.052 251.705 500.323C251.848 500.78 252.917 501.304 253.182 503C253.811 507.006 253.713 515.241 251.265 518.518C245.665 526.029 247.522 512.511 246.969 509.249C245.741 501.95 238.853 496.286 233.511 491.96H233.518Z" fill="#6F5E47"/>
<path d="M224.425 475.994C218.447 474.055 211.998 472.002 206.247 469.516C204.951 468.953 203.875 467.919 203.208 467.63L219.121 472.952V435.697H219.879V472.572C219.879 473.028 223.675 475.545 224.425 475.994Z" fill="#7D452C"/>
<path d="M302.475 494.241C298.64 498.575 293.51 503.829 292.692 509.896C292.389 512.131 293.745 521.422 290.729 520.852C290.388 520.692 290.464 520.175 290.351 520.092C291.843 517.674 290.881 514.412 291.305 511.546C292.427 503.996 296.382 498.21 302.475 494.241Z" fill="#67573C"/>
<path d="M75.1462 355.865C74.8431 351.212 74.9417 345.35 75.1462 340.659C76.4193 345.077 76.4117 351.509 75.1462 355.865Z" fill="#313E67"/>
<path d="M75.9041 361.188C75.8056 360.458 75.9799 359.644 75.9041 358.907C75.942 355.181 77.8743 359.218 75.9041 361.188Z" fill="#313E67"/>
<path d="M121.369 397.682C121.089 397.393 120.127 397.363 119.952 396.428C119.831 395.782 120.597 395.493 120.612 395.401L121.369 397.682Z" fill="#323F68"/>
</g>
<defs>
<clipPath id="clip0_80_3355">
<rect width="474" height="527" fill="white" transform="translate(33 16)"/>
</clipPath>
</defs>
</svg>
