<svg width="180" height="36" viewBox="0 0 180 36" fill="none" xmlns="http://www.w3.org/2000/svg">
<rect width="36" height="36" rx="18" fill="#3AD2D5"/>
<path d="M20.6068 18.6247L20.9181 16.815H18.9726V15.6406C18.9726 15.1456 19.2443 14.6628 20.1156 14.6628H21V13.1222C21 13.1222 20.1976 13 19.4302 13C17.8281 13 16.781 13.8669 16.781 15.4359V16.8153H15V18.625H16.781V23H18.9726V18.625L20.6068 18.6247Z" fill="#FCFCFD"/>
<rect x="144.5" y="0.5" width="35" height="35" rx="17.5" stroke="#3AD2D5"/>
<mask id="path-4-inside-1_91_20006" fill="white">
<path d="M162 13C160.642 13 160.472 13.0058 159.939 13.0301C159.406 13.0544 159.043 13.1389 158.725 13.2625C158.396 13.3903 158.117 13.5612 157.839 13.8392C157.561 14.1172 157.39 14.396 157.262 14.7248C157.139 15.0429 157.054 15.4063 157.03 15.9385C157.006 16.4719 157 16.6421 157 18.0001C157 19.358 157.006 19.5283 157.03 20.0616C157.054 20.5938 157.139 20.9573 157.262 21.2753C157.39 21.6041 157.561 21.883 157.839 22.161C158.117 22.4389 158.396 22.6099 158.725 22.7377C159.043 22.8613 159.406 22.9458 159.939 22.9701C160.472 22.9944 160.642 23.0002 162 23.0002C163.358 23.0002 163.528 22.9944 164.062 22.9701C164.594 22.9458 164.957 22.8613 165.275 22.7377C165.604 22.6099 165.883 22.4389 166.161 22.161C166.439 21.883 166.61 21.6041 166.738 21.2753C166.861 20.9573 166.946 20.5938 166.97 20.0616C166.994 19.5283 167 19.358 167 18.0001C167 16.6421 166.994 16.4719 166.97 15.9385C166.946 15.4063 166.861 15.0429 166.738 14.7248C166.61 14.396 166.439 14.1172 166.161 13.8392C165.883 13.5612 165.604 13.3903 165.275 13.2625C164.957 13.1389 164.594 13.0544 164.062 13.0301C163.528 13.0058 163.358 13 162 13ZM162 13.9009C163.335 13.9009 163.493 13.906 164.021 13.9301C164.508 13.9523 164.773 14.0338 164.949 14.1022C165.182 14.1929 165.349 14.3013 165.524 14.4762C165.699 14.6512 165.807 14.8178 165.898 15.0512C165.966 15.2274 166.048 15.4921 166.07 15.9796C166.094 16.5069 166.099 16.665 166.099 18.0001C166.099 19.3352 166.094 19.4933 166.07 20.0205C166.048 20.5081 165.966 20.7728 165.898 20.949C165.807 21.1824 165.699 21.3489 165.524 21.5239C165.349 21.6989 165.182 21.8072 164.949 21.8979C164.773 21.9664 164.508 22.0479 164.021 22.0701C163.493 22.0941 163.335 22.0993 162 22.0993C160.665 22.0993 160.507 22.0941 159.98 22.0701C159.492 22.0479 159.227 21.9664 159.051 21.8979C158.818 21.8072 158.651 21.6989 158.476 21.5239C158.301 21.3489 158.193 21.1824 158.102 20.949C158.034 20.7728 157.952 20.508 157.93 20.0205C157.906 19.4933 157.901 19.3352 157.901 18.0001C157.901 16.665 157.906 16.5069 157.93 15.9796C157.952 15.4921 158.034 15.2274 158.102 15.0512C158.193 14.8178 158.301 14.6512 158.476 14.4763C158.651 14.3013 158.818 14.1929 159.051 14.1022C159.227 14.0338 159.492 13.9523 159.98 13.9301C160.507 13.906 160.665 13.9009 162 13.9009"/>
</mask>
<path d="M162 13C160.642 13 160.472 13.0058 159.939 13.0301C159.406 13.0544 159.043 13.1389 158.725 13.2625C158.396 13.3903 158.117 13.5612 157.839 13.8392C157.561 14.1172 157.39 14.396 157.262 14.7248C157.139 15.0429 157.054 15.4063 157.03 15.9385C157.006 16.4719 157 16.6421 157 18.0001C157 19.358 157.006 19.5283 157.03 20.0616C157.054 20.5938 157.139 20.9573 157.262 21.2753C157.39 21.6041 157.561 21.883 157.839 22.161C158.117 22.4389 158.396 22.6099 158.725 22.7377C159.043 22.8613 159.406 22.9458 159.939 22.9701C160.472 22.9944 160.642 23.0002 162 23.0002C163.358 23.0002 163.528 22.9944 164.062 22.9701C164.594 22.9458 164.957 22.8613 165.275 22.7377C165.604 22.6099 165.883 22.4389 166.161 22.161C166.439 21.883 166.61 21.6041 166.738 21.2753C166.861 20.9573 166.946 20.5938 166.97 20.0616C166.994 19.5283 167 19.358 167 18.0001C167 16.6421 166.994 16.4719 166.97 15.9385C166.946 15.4063 166.861 15.0429 166.738 14.7248C166.61 14.396 166.439 14.1172 166.161 13.8392C165.883 13.5612 165.604 13.3903 165.275 13.2625C164.957 13.1389 164.594 13.0544 164.062 13.0301C163.528 13.0058 163.358 13 162 13ZM162 13.9009C163.335 13.9009 163.493 13.906 164.021 13.9301C164.508 13.9523 164.773 14.0338 164.949 14.1022C165.182 14.1929 165.349 14.3013 165.524 14.4762C165.699 14.6512 165.807 14.8178 165.898 15.0512C165.966 15.2274 166.048 15.4921 166.07 15.9796C166.094 16.5069 166.099 16.665 166.099 18.0001C166.099 19.3352 166.094 19.4933 166.07 20.0205C166.048 20.5081 165.966 20.7728 165.898 20.949C165.807 21.1824 165.699 21.3489 165.524 21.5239C165.349 21.6989 165.182 21.8072 164.949 21.8979C164.773 21.9664 164.508 22.0479 164.021 22.0701C163.493 22.0941 163.335 22.0993 162 22.0993C160.665 22.0993 160.507 22.0941 159.98 22.0701C159.492 22.0479 159.227 21.9664 159.051 21.8979C158.818 21.8072 158.651 21.6989 158.476 21.5239C158.301 21.3489 158.193 21.1824 158.102 20.949C158.034 20.7728 157.952 20.508 157.93 20.0205C157.906 19.4933 157.901 19.3352 157.901 18.0001C157.901 16.665 157.906 16.5069 157.93 15.9796C157.952 15.4921 158.034 15.2274 158.102 15.0512C158.193 14.8178 158.301 14.6512 158.476 14.4763C158.651 14.3013 158.818 14.1929 159.051 14.1022C159.227 14.0338 159.492 13.9523 159.98 13.9301C160.507 13.906 160.665 13.9009 162 13.9009" fill="#3AD2D5"/>
<path d="M159.939 13.0301L159.902 12.237L159.902 12.237L159.939 13.0301ZM158.725 13.2625L158.437 12.5225L158.437 12.5225L158.725 13.2625ZM157.839 13.8392L158.401 14.4006L158.401 14.4006L157.839 13.8392ZM157.262 14.7248L158.002 15.0125L158.002 15.0124L157.262 14.7248ZM157.03 15.9385L156.237 15.9023L156.237 15.9024L157.03 15.9385ZM157.03 20.0616L156.237 20.0978L156.237 20.0978L157.03 20.0616ZM157.262 21.2753L158.002 20.9877L158.002 20.9877L157.262 21.2753ZM157.839 22.161L157.278 22.7223L157.278 22.7223L157.839 22.161ZM158.725 22.7377L158.437 23.4777L158.437 23.4777L158.725 22.7377ZM159.939 22.9701L159.902 23.7632L159.902 23.7632L159.939 22.9701ZM164.062 22.9701L164.098 23.7632L164.098 23.7632L164.062 22.9701ZM165.275 22.7377L165.563 23.4777L165.563 23.4777L165.275 22.7377ZM166.161 22.161L166.722 22.7224L166.722 22.7223L166.161 22.161ZM166.738 21.2753L167.478 21.5629L167.478 21.5629L166.738 21.2753ZM166.97 20.0616L167.763 20.0978L167.763 20.0978L166.97 20.0616ZM166.97 15.9385L167.763 15.9024L167.763 15.9024L166.97 15.9385ZM166.738 14.7248L167.478 14.4373L167.478 14.4373L166.738 14.7248ZM166.161 13.8392L166.722 13.2778L166.722 13.2778L166.161 13.8392ZM165.275 13.2625L165.563 12.5225L165.563 12.5225L165.275 13.2625ZM164.062 13.0301L164.098 12.237L164.098 12.237L164.062 13.0301ZM164.021 13.9301L163.984 14.7231L163.984 14.7231L164.021 13.9301ZM164.949 14.1022L164.661 14.8422L164.661 14.8422L164.949 14.1022ZM165.524 14.4762L164.963 15.0376L164.963 15.0376L165.524 14.4762ZM165.898 15.0512L166.638 14.7636L166.638 14.7635L165.898 15.0512ZM166.07 15.9796L165.277 16.0158L165.277 16.0158L166.07 15.9796ZM166.07 20.0205L165.277 19.9844L165.277 19.9844L166.07 20.0205ZM165.898 20.949L165.158 20.6614L165.158 20.6614L165.898 20.949ZM165.524 21.5239L164.963 20.9625L164.962 20.9626L165.524 21.5239ZM164.949 21.8979L165.237 22.6379L165.237 22.6379L164.949 21.8979ZM164.021 22.0701L163.984 21.277L163.984 21.277L164.021 22.0701ZM159.98 22.0701L160.016 21.277L160.016 21.277L159.98 22.0701ZM159.051 21.8979L159.339 21.158L159.339 21.158L159.051 21.8979ZM158.476 21.5239L159.038 20.9626L159.038 20.9625L158.476 21.5239ZM158.102 20.949L157.362 21.2366L157.362 21.2366L158.102 20.949ZM157.93 20.0205L158.723 19.9844L158.723 19.9844L157.93 20.0205ZM157.93 15.9796L158.723 16.0158L158.723 16.0158L157.93 15.9796ZM158.102 15.0512L158.842 15.3388L158.842 15.3388L158.102 15.0512ZM158.476 14.4763L159.038 15.0376L159.038 15.0376L158.476 14.4763ZM159.051 14.1022L158.764 13.3622L158.764 13.3623L159.051 14.1022ZM159.98 13.9301L160.016 14.7231L160.016 14.7231L159.98 13.9301ZM162 13V12.2061C160.638 12.2061 160.454 12.2119 159.902 12.237L159.939 13.0301L159.975 13.8232C160.49 13.7997 160.646 13.7939 162 13.7939V13ZM159.939 13.0301L159.902 12.237C159.295 12.2647 158.845 12.364 158.437 12.5225L158.725 13.2625L159.012 14.0025C159.241 13.9138 159.518 13.844 159.975 13.8232L159.939 13.0301ZM158.725 13.2625L158.437 12.5225C158.013 12.6873 157.639 12.9166 157.278 13.2778L157.839 13.8392L158.401 14.4006C158.595 14.2059 158.779 14.0932 159.012 14.0025L158.725 13.2625ZM157.839 13.8392L157.278 13.2778C156.917 13.6391 156.687 14.0132 156.523 14.4373L157.262 14.7248L158.002 15.0124C158.093 14.7789 158.206 14.5952 158.401 14.4006L157.839 13.8392ZM157.262 14.7248L156.523 14.4372C156.364 14.8452 156.265 15.2949 156.237 15.9023L157.03 15.9385L157.823 15.9748C157.844 15.5178 157.914 15.2406 158.002 15.0125L157.262 14.7248ZM157.03 15.9385L156.237 15.9024C156.212 16.4538 156.206 16.6383 156.206 18.0001H157H157.794C157.794 16.646 157.8 16.4899 157.823 15.9747L157.03 15.9385ZM157 18.0001H156.206C156.206 19.3619 156.212 19.5463 156.237 20.0978L157.03 20.0616L157.823 20.0254C157.8 19.5103 157.794 19.3541 157.794 18.0001H157ZM157.03 20.0616L156.237 20.0978C156.265 20.7053 156.364 21.155 156.523 21.5629L157.262 21.2753L158.002 20.9877C157.914 20.7596 157.844 20.4824 157.823 20.0254L157.03 20.0616ZM157.262 21.2753L156.523 21.5629C156.687 21.987 156.917 22.361 157.278 22.7223L157.839 22.161L158.401 21.5996C158.206 21.4049 158.093 21.2213 158.002 20.9877L157.262 21.2753ZM157.839 22.161L157.278 22.7223C157.639 23.0836 158.013 23.3129 158.437 23.4777L158.725 22.7377L159.012 21.9977C158.779 21.9069 158.595 21.7942 158.401 21.5996L157.839 22.161ZM158.725 22.7377L158.437 23.4777C158.845 23.6362 159.295 23.7354 159.902 23.7632L159.939 22.9701L159.975 22.177C159.518 22.1561 159.241 22.0863 159.012 21.9977L158.725 22.7377ZM159.939 22.9701L159.902 23.7632C160.454 23.7883 160.638 23.7941 162 23.7941V23.0002V22.2063C160.646 22.2063 160.49 22.2005 159.975 22.177L159.939 22.9701ZM162 23.0002V23.7941C163.362 23.7941 163.546 23.7883 164.098 23.7632L164.062 22.9701L164.025 22.177C163.51 22.2005 163.354 22.2063 162 22.2063V23.0002ZM164.062 22.9701L164.098 23.7632C164.705 23.7354 165.155 23.6362 165.563 23.4777L165.275 22.7377L164.988 21.9977C164.76 22.0864 164.482 22.1562 164.025 22.177L164.062 22.9701ZM165.275 22.7377L165.563 23.4777C165.987 23.3129 166.361 23.0836 166.722 22.7224L166.161 22.161L165.6 21.5996C165.405 21.7942 165.221 21.9069 164.988 21.9977L165.275 22.7377ZM166.161 22.161L166.722 22.7223C167.084 22.361 167.313 21.987 167.478 21.5629L166.738 21.2753L165.998 20.9877C165.907 21.2213 165.794 21.4049 165.6 21.5996L166.161 22.161ZM166.738 21.2753L167.478 21.5629C167.636 21.155 167.735 20.7053 167.763 20.0978L166.97 20.0616L166.177 20.0254C166.156 20.4823 166.086 20.7596 165.998 20.9878L166.738 21.2753ZM166.97 20.0616L167.763 20.0978C167.788 19.5464 167.794 19.3619 167.794 18.0001H167H166.206C166.206 19.3541 166.2 19.5102 166.177 20.0254L166.97 20.0616ZM167 18.0001H167.794C167.794 16.6383 167.788 16.4538 167.763 15.9024L166.97 15.9385L166.177 15.9747C166.2 16.4899 166.206 16.646 166.206 18.0001H167ZM166.97 15.9385L167.763 15.9024C167.735 15.2949 167.636 14.8452 167.478 14.4373L166.738 14.7248L165.998 15.0124C166.086 15.2406 166.156 15.5178 166.177 15.9747L166.97 15.9385ZM166.738 14.7248L167.478 14.4373C167.313 14.0132 167.084 13.6391 166.722 13.2778L166.161 13.8392L165.6 14.4006C165.794 14.5952 165.907 14.7789 165.998 15.0124L166.738 14.7248ZM166.161 13.8392L166.722 13.2778C166.361 12.9165 165.987 12.6873 165.563 12.5225L165.275 13.2625L164.988 14.0025C165.221 14.0932 165.405 14.2059 165.6 14.4006L166.161 13.8392ZM165.275 13.2625L165.563 12.5225C165.155 12.364 164.705 12.2647 164.098 12.237L164.062 13.0301L164.025 13.8232C164.482 13.844 164.76 13.9138 164.988 14.0025L165.275 13.2625ZM164.062 13.0301L164.098 12.237C163.546 12.2119 163.362 12.2061 162 12.2061V13V13.7939C163.354 13.7939 163.51 13.7997 164.025 13.8232L164.062 13.0301ZM162 13.9009V14.6948C163.332 14.6948 163.475 14.6999 163.984 14.7231L164.021 13.9301L164.057 13.137C163.511 13.1121 163.339 13.107 162 13.107V13.9009ZM164.021 13.9301L163.984 14.7231C164.384 14.7414 164.564 14.8045 164.661 14.8422L164.949 14.1022L165.237 13.3623C164.981 13.263 164.632 13.1632 164.057 13.137L164.021 13.9301ZM164.949 14.1022L164.661 14.8422C164.793 14.8935 164.866 14.9415 164.963 15.0376L165.524 14.4762L166.085 13.9149C165.831 13.661 165.571 13.4924 165.237 13.3622L164.949 14.1022ZM165.524 14.4762L164.963 15.0376C165.059 15.1337 165.107 15.2067 165.158 15.3388L165.898 15.0512L166.638 14.7635C166.508 14.4288 166.339 14.1687 166.085 13.9149L165.524 14.4762ZM165.898 15.0512L165.158 15.3388C165.196 15.4359 165.259 15.6158 165.277 16.0158L166.07 15.9796L166.863 15.9435C166.837 15.3684 166.737 15.0188 166.638 14.7636L165.898 15.0512ZM166.07 15.9796L165.277 16.0158C165.3 16.5247 165.305 16.6684 165.305 18.0001H166.099H166.893C166.893 16.6616 166.888 16.489 166.863 15.9434L166.07 15.9796ZM166.099 18.0001H165.305C165.305 19.3317 165.3 19.4755 165.277 19.9844L166.07 20.0205L166.863 20.0567C166.888 19.5111 166.893 19.3386 166.893 18.0001H166.099ZM166.07 20.0205L165.277 19.9844C165.259 20.3844 165.196 20.5643 165.158 20.6614L165.898 20.949L166.638 21.2366C166.737 20.9813 166.837 20.6317 166.863 20.0567L166.07 20.0205ZM165.898 20.949L165.158 20.6614C165.107 20.7934 165.059 20.8664 164.963 20.9625L165.524 21.5239L166.085 22.0853C166.339 21.8315 166.508 21.5713 166.638 21.2366L165.898 20.949ZM165.524 21.5239L164.962 20.9626C164.866 21.0586 164.793 21.1066 164.661 21.158L164.949 21.8979L165.237 22.6379C165.571 22.5078 165.831 22.3391 166.085 22.0852L165.524 21.5239ZM164.949 21.8979L164.661 21.158C164.564 21.1957 164.384 21.2588 163.984 21.277L164.021 22.0701L164.057 22.8632C164.632 22.837 164.981 22.7371 165.237 22.6379L164.949 21.8979ZM164.021 22.0701L163.984 21.277C163.476 21.3002 163.332 21.3054 162 21.3054V22.0993V22.8932C163.339 22.8932 163.511 22.8881 164.057 22.8632L164.021 22.0701ZM162 22.0993V21.3054C160.668 21.3054 160.525 21.3002 160.016 21.277L159.98 22.0701L159.943 22.8632C160.489 22.8881 160.661 22.8932 162 22.8932V22.0993ZM159.98 22.0701L160.016 21.277C159.616 21.2588 159.436 21.1957 159.339 21.158L159.051 21.8979L158.764 22.6379C159.019 22.7371 159.368 22.837 159.943 22.8632L159.98 22.0701ZM159.051 21.8979L159.339 21.158C159.207 21.1066 159.134 21.0586 159.038 20.9626L158.476 21.5239L157.915 22.0852C158.169 22.3391 158.429 22.5078 158.764 22.6379L159.051 21.8979ZM158.476 21.5239L159.038 20.9625C158.942 20.8664 158.894 20.7934 158.842 20.6614L158.102 20.949L157.362 21.2366C157.492 21.5713 157.661 21.8315 157.915 22.0853L158.476 21.5239ZM158.102 20.949L158.842 20.6614C158.804 20.5643 158.741 20.3844 158.723 19.9844L157.93 20.0205L157.137 20.0567C157.163 20.6317 157.263 20.9813 157.362 21.2366L158.102 20.949ZM157.93 20.0205L158.723 19.9844C158.7 19.4755 158.695 19.3317 158.695 18.0001H157.901H157.107C157.107 19.3386 157.112 19.5111 157.137 20.0567L157.93 20.0205ZM157.901 18.0001H158.695C158.695 16.6684 158.7 16.5247 158.723 16.0158L157.93 15.9796L157.137 15.9434C157.112 16.489 157.107 16.6616 157.107 18.0001H157.901ZM157.93 15.9796L158.723 16.0158C158.741 15.6158 158.804 15.4359 158.842 15.3388L158.102 15.0512L157.362 14.7636C157.263 15.0188 157.163 15.3684 157.137 15.9434L157.93 15.9796ZM158.102 15.0512L158.842 15.3388C158.894 15.2067 158.942 15.1337 159.038 15.0376L158.476 14.4763L157.915 13.9149C157.661 14.1687 157.492 14.4288 157.362 14.7636L158.102 15.0512ZM158.476 14.4763L159.038 15.0376C159.134 14.9415 159.207 14.8935 159.339 14.8422L159.051 14.1022L158.764 13.3623C158.429 13.4924 158.169 13.661 157.915 13.9149L158.476 14.4763ZM159.051 14.1022L159.339 14.8422C159.436 14.8045 159.616 14.7414 160.016 14.7231L159.98 13.9301L159.943 13.137C159.368 13.1632 159.019 13.263 158.764 13.3622L159.051 14.1022ZM159.98 13.9301L160.016 14.7231C160.525 14.6999 160.668 14.6948 162 14.6948V13.9009V13.107C160.662 13.107 160.489 13.1121 159.943 13.137L159.98 13.9301Z" fill="#3AD2D5" mask="url(#path-4-inside-1_91_20006)"/>
<mask id="path-6-inside-2_91_20006" fill="white">
<path d="M162.001 19.6672C161.081 19.6672 160.335 18.921 160.335 18.0005C160.335 17.08 161.081 16.3338 162.001 16.3338C162.922 16.3338 163.668 17.08 163.668 18.0005C163.668 18.921 162.922 19.6672 162.001 19.6672ZM162.001 15.4329C160.583 15.4329 159.434 16.5825 159.434 18.0005C159.434 19.4186 160.583 20.5681 162.001 20.5681C163.419 20.5681 164.569 19.4186 164.569 18.0005C164.569 16.5825 163.419 15.4329 162.001 15.4329M165.27 15.3315C165.27 15.6629 165.002 15.9315 164.67 15.9315C164.339 15.9315 164.07 15.6629 164.07 15.3315C164.07 15.0001 164.339 14.7314 164.67 14.7314C165.002 14.7314 165.27 15.0001 165.27 15.3315"/>
</mask>
<path d="M162.001 19.6672C161.081 19.6672 160.335 18.921 160.335 18.0005C160.335 17.08 161.081 16.3338 162.001 16.3338C162.922 16.3338 163.668 17.08 163.668 18.0005C163.668 18.921 162.922 19.6672 162.001 19.6672ZM162.001 15.4329C160.583 15.4329 159.434 16.5825 159.434 18.0005C159.434 19.4186 160.583 20.5681 162.001 20.5681C163.419 20.5681 164.569 19.4186 164.569 18.0005C164.569 16.5825 163.419 15.4329 162.001 15.4329M165.27 15.3315C165.27 15.6629 165.002 15.9315 164.67 15.9315C164.339 15.9315 164.07 15.6629 164.07 15.3315C164.07 15.0001 164.339 14.7314 164.67 14.7314C165.002 14.7314 165.27 15.0001 165.27 15.3315" fill="#3AD2D5"/>
<path d="M162.001 19.6672V18.8733C161.519 18.8733 161.128 18.4826 161.128 18.0005H160.335H159.541C159.541 19.3595 160.642 20.4611 162.001 20.4611V19.6672ZM160.335 18.0005H161.128C161.128 17.5185 161.519 17.1277 162.001 17.1277V16.3338V15.5399C160.642 15.5399 159.541 16.6416 159.541 18.0005H160.335ZM162.001 16.3338V17.1277C162.483 17.1277 162.874 17.5185 162.874 18.0005H163.668H164.462C164.462 16.6416 163.36 15.5399 162.001 15.5399V16.3338ZM163.668 18.0005H162.874C162.874 18.4826 162.483 18.8733 162.001 18.8733V19.6672V20.4611C163.36 20.4611 164.462 19.3595 164.462 18.0005H163.668ZM162.001 15.4329V14.639C160.145 14.639 158.64 16.144 158.64 18.0005H159.434H160.227C160.227 17.0209 161.022 16.2268 162.001 16.2268V15.4329ZM159.434 18.0005H158.64C158.64 19.857 160.145 21.362 162.001 21.362V20.5681V19.7742C161.022 19.7742 160.227 18.9801 160.227 18.0005H159.434ZM162.001 20.5681V21.362C163.858 21.362 165.363 19.857 165.363 18.0005H164.569H163.775C163.775 18.9801 162.981 19.7742 162.001 19.7742V20.5681ZM164.569 18.0005H165.363C165.363 16.144 163.858 14.639 162.001 14.639V15.4329V16.2268C162.981 16.2268 163.775 17.0209 163.775 18.0005H164.569ZM165.27 15.3315H164.476C164.476 15.2244 164.563 15.1376 164.67 15.1376V15.9315V16.7254C165.44 16.7254 166.064 16.1014 166.064 15.3315H165.27ZM164.67 15.9315V15.1376C164.777 15.1376 164.864 15.2244 164.864 15.3315H164.07H163.276C163.276 16.1013 163.9 16.7254 164.67 16.7254V15.9315ZM164.07 15.3315H164.864C164.864 15.4385 164.777 15.5253 164.67 15.5253V14.7314V13.9375C163.9 13.9375 163.276 14.5616 163.276 15.3315H164.07ZM164.67 14.7314V15.5253C164.563 15.5253 164.476 15.4386 164.476 15.3315H165.27H166.064C166.064 14.5616 165.44 13.9375 164.67 13.9375V14.7314Z" fill="#3AD2D5" mask="url(#path-6-inside-2_91_20006)"/>
<rect x="96.5" y="0.5" width="35" height="35" rx="17.5" stroke="#3AD2D5"/>
<path d="M115.578 19.9725C113.547 19.9725 111.894 18.3194 111.894 16.2881C111.894 15.7732 112.313 15.3545 112.827 15.3545C112.88 15.3545 112.932 15.3589 112.982 15.3678C113.092 15.3862 113.197 15.4234 113.293 15.4796C113.307 15.4879 113.316 15.5013 113.319 15.5169L113.533 16.8697C113.536 16.8859 113.531 16.9014 113.521 16.9131C113.402 17.0443 113.251 17.1389 113.082 17.1861L113.001 17.2089L113.032 17.2873C113.309 17.9924 113.873 18.5557 114.578 18.8337L114.657 18.8648L114.679 18.7837C114.727 18.6152 114.821 18.4639 114.952 18.3455C114.962 18.3366 114.975 18.3321 114.987 18.3321C114.99 18.3321 114.993 18.3321 114.996 18.3327L116.349 18.5473C116.365 18.5501 116.379 18.559 116.387 18.5729C116.443 18.6691 116.48 18.7742 116.499 18.8843C116.508 18.9332 116.512 18.9849 116.512 19.0389C116.512 19.5532 116.093 19.9719 115.578 19.9725Z" fill="#3AD2D5"/>
<path d="M119.181 17.2054C119.071 15.9676 118.504 14.8194 117.584 13.9725C116.658 13.1207 115.457 12.6514 114.201 12.6514C111.444 12.6514 109.201 14.8945 109.201 17.6514C109.201 18.5766 109.456 19.478 109.939 20.2631L108.861 22.6486L112.312 22.281C112.912 22.5268 113.547 22.6514 114.2 22.6514C114.372 22.6514 114.548 22.6425 114.725 22.6241C114.881 22.6074 115.038 22.583 115.193 22.5518C117.501 22.0853 119.187 20.0363 119.2 17.6781V17.6514C119.2 17.5012 119.193 17.3511 119.18 17.206L119.181 17.2054ZM112.445 21.234L110.536 21.4375L111.106 20.1747L110.992 20.0218C110.983 20.0107 110.975 19.9996 110.965 19.9868C110.471 19.3034 110.209 18.496 110.209 17.6519C110.209 15.4511 112 13.6606 114.201 13.6606C116.262 13.6606 118.01 15.2693 118.179 17.3227C118.187 17.4328 118.192 17.5435 118.192 17.6525C118.192 17.6836 118.192 17.7142 118.191 17.747C118.149 19.5881 116.863 21.1517 115.064 21.5498C114.926 21.5804 114.785 21.6038 114.645 21.6188C114.5 21.6355 114.35 21.6438 114.202 21.6438C113.673 21.6438 113.159 21.5415 112.674 21.3391C112.62 21.3174 112.567 21.2941 112.517 21.2701L112.445 21.2351L112.445 21.234Z" fill="#3AD2D5"/>
<rect x="48.5" y="0.5" width="35" height="35" rx="17.5" stroke="#3AD2D5"/>
<path fill-rule="evenodd" clip-rule="evenodd" d="M64.7145 16.4845H66.5715V17.4095C66.839 16.8775 67.525 16.3995 68.5555 16.3995C70.531 16.3995 71 17.4585 71 19.4015V23H69V19.844C69 18.7375 68.7325 18.1135 68.0515 18.1135C67.107 18.1135 66.7145 18.786 66.7145 19.8435V23H64.7145V16.4845V16.4845ZM61.285 22.915H63.285V16.3995H61.285V22.915V22.915ZM63.5715 14.275C63.5716 14.4426 63.5383 14.6086 63.4737 14.7633C63.4091 14.918 63.3143 15.0583 63.195 15.176C62.9532 15.4163 62.6259 15.5508 62.285 15.55C61.9447 15.5498 61.6182 15.4156 61.376 15.1765C61.2571 15.0584 61.1627 14.9179 61.0982 14.7632C61.0337 14.6085 61.0003 14.4426 61 14.275C61 13.9365 61.135 13.6125 61.3765 13.3735C61.6184 13.1341 61.9451 12.9999 62.2855 13C62.6265 13 62.9535 13.1345 63.195 13.3735C63.436 13.6125 63.5715 13.9365 63.5715 14.275Z" fill="#3AD2D5"/>
</svg>
