<svg width="24" height="24" viewBox="0 0 24 24" fill="none" xmlns="http://www.w3.org/2000/svg">
<path d="M6.9995 14C5.95873 14.5876 5.11716 15.4726 4.58266 16.5416C4.04816 17.6106 3.8451 18.8148 3.9995 20C5.18466 20.1544 6.38893 19.9513 7.45793 19.4168C8.52692 18.8823 9.41193 18.0408 9.9995 17M3.99951 13C5.7826 13.2119 7.44256 14.0175 8.71227 15.2872C9.98198 16.557 10.7876 18.2169 10.9995 20C11.8834 19.4904 12.6228 18.7638 13.1477 17.8889C13.6727 17.014 13.9658 16.0197 13.9995 15C15.6786 14.4093 17.1449 13.334 18.2129 11.91C19.2808 10.486 19.9026 8.77734 19.9995 7C19.9995 6.20435 19.6834 5.44129 19.1208 4.87868C18.5582 4.31607 17.7952 4 16.9995 4C15.2222 4.09691 13.5135 4.71867 12.0895 5.78665C10.6655 6.85464 9.5902 8.32089 8.99951 10C7.97977 10.0337 6.98547 10.3268 6.11058 10.8518C5.23568 11.3767 4.5091 12.1161 3.99951 13ZM13.9995 9C13.9995 9.26522 14.1049 9.51957 14.2924 9.70711C14.4799 9.89464 14.7343 10 14.9995 10C15.2647 10 15.5191 9.89464 15.7066 9.70711C15.8942 9.51957 15.9995 9.26522 15.9995 9C15.9995 8.73478 15.8942 8.48043 15.7066 8.29289C15.5191 8.10536 15.2647 8 14.9995 8C14.7343 8 14.4799 8.10536 14.2924 8.29289C14.1049 8.48043 13.9995 8.73478 13.9995 9Z" stroke="#3AD2D5" stroke-width="2" stroke-linecap="round" stroke-linejoin="round"/>
</svg>
